<?xml version="1.0" encoding="UTF-8"?>
<svg version="1.1" xmlns="http://www.w3.org/2000/svg" width="30" height="90">
<path d="M0 0 C9.9 0 19.8 0 30 0 C30 29.7 30 59.4 30 90 C20.1 90 10.2 90 0 90 C0 60.3 0 30.6 0 0 Z " fill="#F8F8F7" transform="translate(0,0)"/>
<path d="M0 0 C9.9 0 19.8 0 30 0 C30 29.7 30 59.4 30 90 C20.1 90 10.2 90 0 90 C0 60.3 0 30.6 0 0 Z M9 10 C5.75136262 22.762504 4.94413262 35.63624643 4.5625 48.75 C4.33003781 56.69048131 3.73382801 63.8611542 1.64453125 71.5390625 C0.46095185 76.05818383 0.31286528 79.45394689 2.25 83.8125 C4.19808862 86.24761077 5.10078608 86.92287797 8 88 C10.695657 88.2437713 13.2436061 88.37008862 15.9375 88.375 C16.99227539 88.41173828 16.99227539 88.41173828 18.06835938 88.44921875 C21.67151878 88.46948019 23.84819547 88.08916771 26.97265625 86.25390625 C29.89233403 83.00794463 29.57729347 81.13413399 29.37109375 76.94140625 C28.62074004 70.99386576 27.7011373 64.40227461 25 59 C24.80676617 57.08026391 24.61791575 55.15994011 24.45605469 53.23730469 C23.18429053 38.65722171 19.0981209 23.896859 12 11 C11.01 10.67 10.02 10.34 9 10 Z " fill="#FEFEFD" transform="translate(0,0)"/>
<path d="M0 0 C3 1 3 1 4.01147461 2.58789062 C4.30546143 3.27044922 4.59944824 3.95300781 4.90234375 4.65625 C5.23363281 5.42308105 5.56492187 6.18991211 5.90625 6.97998047 C6.41671875 8.22739014 6.41671875 8.22739014 6.9375 9.5 C7.28941406 10.35352051 7.64132813 11.20704102 8.00390625 12.08642578 C12.98596027 24.55770637 15.84606173 36.48651402 15 50 C13.62420173 47.33788628 12.62936439 44.93703384 12 42 C8.28983366 40.81274677 4.87209322 40.65427739 1 41 C-1.21267282 42.9465772 -1.21267282 42.9465772 -3 45 C-3.05038777 41.12634335 -3.08617252 37.2528201 -3.10986328 33.37890625 C-3.12456776 31.4322232 -3.15001202 29.48563053 -3.17578125 27.5390625 C-3.28278883 6.56557765 -3.28278883 6.56557765 0 0 Z " fill="#A9A582" transform="translate(9,10)"/>
<path d="M0 0 C0.33 0 0.66 0 1 0 C1.33 5.61 1.66 11.22 2 17 C2.99 16.01 3.98 15.02 5 14 C9.38773565 13.59372818 13.25164707 13.53679665 17 16 C18.1875 19.5 18.1875 19.5 19 23 C19.66 23.66 20.32 24.32 21 25 C23.14730514 31.77681622 25.97876103 40.9311366 24 48 C21.13549512 51.17299002 19.45338719 51.94100392 15.1875 52.49609375 C13.79153065 52.4974107 12.39539949 52.47740534 11 52.4375 C10.30132812 52.44458984 9.60265625 52.45167969 8.8828125 52.45898438 C4.43723978 52.4044632 1.47337182 51.81572973 -2 49 C-4.48093961 45.65073152 -4.11106159 42.73043963 -3.75 38.6875 C-3.66234375 37.59824219 -3.5746875 36.50898437 -3.484375 35.38671875 C-3 32 -3 32 -1.9921875 28.890625 C-0.33789029 23.44523002 -0.52902043 17.70670712 -0.375 12.0625 C-0.33632812 10.90169922 -0.29765625 9.74089844 -0.2578125 8.54492188 C-0.16404613 5.69676831 -0.07834083 2.84861262 0 0 Z M0.75 29.75 C-1.41908175 33.77829469 -2.15653808 36.95151999 -2.25 41.5 C-2.27578125 42.2528125 -2.3015625 43.005625 -2.328125 43.78125 C-1.87251813 46.86202028 -1.4215692 47.97369632 1 50 C4.19641469 50.55215776 7.32833769 50.46583383 10.5625 50.375 C11.43841797 50.37371094 12.31433594 50.37242188 13.21679688 50.37109375 C18.12604513 50.56634025 18.12604513 50.56634025 22 48 C23.20465794 40.71602173 21.2551908 34.47116244 18 28 C16.1325158 26.1325158 13.2576736 26.65527268 10.75 26.5625 C5.05248624 26.48266051 5.05248624 26.48266051 0.75 29.75 Z " fill="#CECCCB" transform="translate(5,36)"/>
<path d="M0 0 C0.99 0.33 1.98 0.66 3 1 C4.04391595 3.79081577 4.8767809 6.44129929 5.625 9.3125 C5.84373779 10.12251465 6.06247559 10.9325293 6.2878418 11.76708984 C7.93976671 18.14593499 8.85765911 24.40055894 9 31 C6.36 31 3.72 31 1 31 C-0.18616434 24.29759569 -1.22336799 17.65200547 -1.75390625 10.86328125 C-1.80936569 8.98782379 -1.80936569 8.98782379 -3 8 C-3.04063832 6.33382885 -3.042721 4.66611905 -3 3 C-2.34 3 -1.68 3 -1 3 C-0.67 2.01 -0.34 1.02 0 0 Z " fill="#BDB789" transform="translate(10,16)"/>
<path d="M0 0 C0.33 0 0.66 0 1 0 C1.33 5.61 1.66 11.22 2 17 C2.99 16.01 3.98 15.02 5 14 C5.66 14 6.32 14 7 14 C6.08121145 16.37353708 5.13338546 18.71737588 4.046875 21.01953125 C0.35224393 28.89130117 -2.20165191 37.19966691 -1 46 C-0.34 46.99 0.32 47.98 1 49 C3.01125036 49.43099599 3.01125036 49.43099599 5.31640625 49.328125 C6.58581055 49.32039063 6.58581055 49.32039063 7.88085938 49.3125 C8.76580078 49.291875 9.65074219 49.27125 10.5625 49.25 C11.45130859 49.24484375 12.34011719 49.2396875 13.25585938 49.234375 C17.45727079 49.55260655 17.45727079 49.55260655 21 48 C21.9307793 39.78408274 19.92077613 31.93463474 18 24 C18.66 23.67 19.32 23.34 20 23 C22.38135527 29.73968472 23.98779961 35.95656037 24.375 43.125 C24.44847656 44.36636719 24.44847656 44.36636719 24.5234375 45.6328125 C24 48 24 48 21.9765625 50.27734375 C18.25844204 52.42916937 15.1745534 52.55688298 11 52.4375 C10.30132812 52.44458984 9.60265625 52.45167969 8.8828125 52.45898438 C4.43723978 52.4044632 1.47337182 51.81572973 -2 49 C-4.48093961 45.65073152 -4.11106159 42.73043963 -3.75 38.6875 C-3.66234375 37.59824219 -3.5746875 36.50898437 -3.484375 35.38671875 C-3 32 -3 32 -1.9921875 28.890625 C-0.33789029 23.44523002 -0.52902043 17.70670712 -0.375 12.0625 C-0.33632812 10.90169922 -0.29765625 9.74089844 -0.2578125 8.54492188 C-0.16404613 5.69676831 -0.07834083 2.84861262 0 0 Z " fill="#C8C7C6" transform="translate(5,36)"/>
<path d="M0 0 C3 1 3 1 4.05908203 2.81005859 C4.37216309 3.58172363 4.68524414 4.35338867 5.0078125 5.1484375 C5.35457031 5.98890625 5.70132812 6.829375 6.05859375 7.6953125 C6.41050781 8.57960938 6.76242188 9.46390625 7.125 10.375 C7.48464844 11.2515625 7.84429687 12.128125 8.21484375 13.03125 C10.64198654 18.97638627 12.1231439 23.47337341 12 30 C9.85406355 26.78109533 8.77432427 23.83564173 7.5 20.1875 C7.0771875 18.98480469 6.654375 17.78210938 6.21875 16.54296875 C5.42876456 14.24644055 4.67618623 11.93656615 3.96875 9.61328125 C3.28593221 6.85829484 3.28593221 6.85829484 1 6 C0.67 8.31 0.34 10.62 0 13 C-0.33 13 -0.66 13 -1 13 C-1.02696365 11.20841511 -1.04637917 9.41671527 -1.0625 7.625 C-1.07410156 6.62726562 -1.08570313 5.62953125 -1.09765625 4.6015625 C-1 2 -1 2 0 0 Z " fill="#969277" transform="translate(9,10)"/>
<path d="M0 0 C0.33 0 0.66 0 1 0 C1 8.25 1 16.5 1 25 C2.32 25.33 3.64 25.66 5 26 C3.02 27.65 1.04 29.3 -1 31 C-1.02469575 26.90658501 -1.04285793 22.81319879 -1.05493164 18.71972656 C-1.0599643 17.32681523 -1.06679098 15.9339092 -1.07543945 14.54101562 C-1.08755152 12.54038754 -1.09270412 10.53972112 -1.09765625 8.5390625 C-1.10289307 7.33459473 -1.10812988 6.13012695 -1.11352539 4.88916016 C-1 2 -1 2 0 0 Z " fill="#878369" transform="translate(7,24)"/>
<path d="M0 0 C2.8125 1.4375 2.8125 1.4375 5 4 C5.70186779 6.9984205 5.92775564 9.9263309 6 13 C4.47700477 10.06279492 3.19899698 7.0831351 2 4 C-0.08218362 3.89167831 -2.16599129 3.81426459 -4.25 3.75 C-5.41015625 3.70359375 -6.5703125 3.6571875 -7.765625 3.609375 C-11.57666013 4.06964494 -12.65511755 5.05148444 -15 8 C-14.67 6.02 -14.34 4.04 -14 2 C-13.236875 1.855625 -12.47375 1.71125 -11.6875 1.5625 C-2.85714286 -0.28571429 -2.85714286 -0.28571429 0 0 Z " fill="#E3E0DF" transform="translate(20,60)"/>
<path d="M0 0 C0.33 0 0.66 0 1 0 C1.33 5.61 1.66 11.22 2 17 C2.99 16.01 3.98 15.02 5 14 C5.66 14 6.32 14 7 14 C6.34206835 15.67013418 5.67276716 17.3357865 5 19 C4.75894531 19.61230469 4.51789062 20.22460938 4.26953125 20.85546875 C2.22574386 25.88712807 2.22574386 25.88712807 0 27 C0 18.09 0 9.18 0 0 Z " fill="#AFADA5" transform="translate(5,36)"/>
<path d="M0 0 C2 3 2 3 1.7578125 4.9453125 C1.54898437 5.66460937 1.34015625 6.38390625 1.125 7.125 C-0.02577089 11.77350871 -0.79398208 16.22687517 0 21 C1.81590979 24.02690443 1.81590979 24.02690443 4 26 C2.1875 25.8125 2.1875 25.8125 0 25 C-3.8058265 20.03078103 -3.06909735 16.13680296 -2.4609375 10.18359375 C-1.94371771 6.61127065 -1.18689089 3.40242056 0 0 Z " fill="#C1C0C0" transform="translate(4,61)"/>
<path d="M0 0 C0.66 0 1.32 0 2 0 C2.84023188 4.35332736 3.10770995 8.44442519 3.0625 12.875 C3.05347656 14.02742188 3.04445313 15.17984375 3.03515625 16.3671875 C3.02355469 17.23601563 3.01195312 18.10484375 3 19 C-0.43041417 12.34181216 -1.28143494 7.30417914 0 0 Z " fill="#8D8B7B" transform="translate(21,41)"/>
<path d="M0 0 C-1.58962659 4.03520597 -3.28232318 8.01811282 -5 12 C-6.57499749 8.85000502 -5.70833498 6.36459118 -5 3 C-2.77419355 0 -2.77419355 0 0 0 Z " fill="#BAB9B9" transform="translate(12,50)"/>
<path d="M0 0 C0.99 0.33 1.98 0.66 3 1 C3.33 2.98 3.66 4.96 4 7 C2.68 6.34 1.36 5.68 0 5 C0 3.35 0 1.7 0 0 Z " fill="#888465" transform="translate(9,10)"/>
</svg>
