<?xml version="1.0" encoding="UTF-8"?>
<!DOCTYPE svg PUBLIC "-//W3C//DTD SVG 1.1//EN" "http://www.w3.org/Graphics/SVG/1.1/DTD/svg11.dtd">
<svg xmlns="http://www.w3.org/2000/svg" version="1.1" width="30" height="90" style="shape-rendering:geometricPrecision; text-rendering:geometricPrecision; image-rendering:optimizeQuality; fill-rule:evenodd; clip-rule:evenodd" xmlns:xlink="http://www.w3.org/1999/xlink">
<g><path style="opacity:1" fill="#fcfcfb" d="M -0.5,-0.5 C 10.5,-0.5 21.5,-0.5 32.5,-0.5C 32.5,27.1667 32.5,54.8333 32.5,82.5C 21.5,82.5 10.5,82.5 -0.5,82.5C -0.5,54.8333 -0.5,27.1667 -0.5,-0.5 Z"/></g>
<g><path style="opacity:1" fill="#f7fae4" d="M 23.5,2.5 C 26.5179,3.35341 28.3512,5.35341 29,8.5C 29.6667,13.1667 29.6667,17.8333 29,22.5C 27.2067,25.4677 24.7067,27.4677 21.5,28.5C 22.6237,19.8915 23.2904,11.2249 23.5,2.5 Z"/></g>
<g><path style="opacity:1" fill="#e3e0d4" d="M 15.5,2.5 C 15.8333,2.5 16.1667,2.5 16.5,2.5C 16.5,11.1667 16.5,19.8333 16.5,28.5C 16.1667,28.5 15.8333,28.5 15.5,28.5C 14.469,27.7515 13.3024,27.0848 12,26.5C 11.3333,19.5 11.3333,12.5 12,5.5C 13.5185,4.83663 14.6851,3.83663 15.5,2.5 Z"/></g>
<g><path style="opacity:1" fill="#cdc9b7" d="M 15.5,2.5 C 14.6851,3.83663 13.5185,4.83663 12,5.5C 11.3333,12.5 11.3333,19.5 12,26.5C 13.3024,27.0848 14.469,27.7515 15.5,28.5C 12.0886,29.067 10.0886,27.7337 9.5,24.5C 8.32627,23.4863 7.6596,22.153 7.5,20.5C 7.74476,16.3898 7.74476,12.0565 7.5,7.5C 9.62906,5.04993 12.2957,3.38326 15.5,2.5 Z"/></g>
<g><path style="opacity:1" fill="#a7a393" d="M 7.5,7.5 C 7.74476,12.0565 7.74476,16.3898 7.5,20.5C 6.77295,17.3657 6.10628,14.1991 5.5,11C 5.38655,9.30085 6.05322,8.13419 7.5,7.5 Z"/></g>
<g><path style="opacity:1" fill="#f9f8f5" d="M 23.5,2.5 C 23.2904,11.2249 22.6237,19.8915 21.5,28.5C 19.8333,28.5 18.1667,28.5 16.5,28.5C 16.5,19.8333 16.5,11.1667 16.5,2.5C 18.9787,1.37734 21.312,1.37734 23.5,2.5 Z"/></g>
<g><path style="opacity:1" fill="#a8a28f" d="M 26.5,30.5 C 26.1583,29.6618 25.4916,29.3284 24.5,29.5C 23.5,29.5 22.5,29.5 21.5,29.5C 18.1667,29.5 14.8333,29.5 11.5,29.5C 11.5,38.1667 11.5,46.8333 11.5,55.5C 11.5,63.1667 11.5,70.8333 11.5,78.5C 10.7805,60.6475 10.1138,42.6475 9.5,24.5C 10.0886,27.7337 12.0886,29.067 15.5,28.5C 15.8333,28.5 16.1667,28.5 16.5,28.5C 18.1667,28.5 19.8333,28.5 21.5,28.5C 24.7067,27.4677 27.2067,25.4677 29,22.5C 29.6667,17.8333 29.6667,13.1667 29,8.5C 28.3512,5.35341 26.5179,3.35341 23.5,2.5C 21.312,1.37734 18.9787,1.37734 16.5,2.5C 16.1667,2.5 15.8333,2.5 15.5,2.5C 20.4262,-0.53425 24.9262,0.132417 29,4.5C 32.6134,13.682 31.78,22.3487 26.5,30.5 Z"/></g>
<g><path style="opacity:1" fill="#fddc86" d="M 21.5,30.5 C 21.2041,39.723 20.2041,48.723 18.5,57.5C 18.7361,54.7743 17.9028,52.441 16,50.5C 14.4492,43.9155 13.6159,37.2488 13.5,30.5C 16.1667,30.5 18.8333,30.5 21.5,30.5 Z"/></g>
<g><path style="opacity:1" fill="#f5dc8f" d="M 24.5,29.5 C 25.4916,29.3284 26.1583,29.6618 26.5,30.5C 25.6648,37.5198 24.6648,44.5198 23.5,51.5C 22.8333,52.8333 22.1667,54.1667 21.5,55.5C 22.0231,46.7339 23.0231,38.0673 24.5,29.5 Z"/></g>
<g><path style="opacity:1" fill="#aca48a" d="M 23.5,51.5 C 23.2162,58.9389 21.5495,65.9389 18.5,72.5C 19.8841,66.9114 20.8841,61.2448 21.5,55.5C 22.1667,54.1667 22.8333,52.8333 23.5,51.5 Z"/></g>
<g><path style="opacity:1" fill="#fcf0c9" d="M 21.5,29.5 C 22.5,29.5 23.5,29.5 24.5,29.5C 23.0231,38.0673 22.0231,46.7339 21.5,55.5C 20.8841,61.2448 19.8841,66.9114 18.5,72.5C 18.1667,72.5 17.8333,72.5 17.5,72.5C 17.9157,67.5068 18.2491,62.5068 18.5,57.5C 20.2041,48.723 21.2041,39.723 21.5,30.5C 21.5,30.1667 21.5,29.8333 21.5,29.5 Z"/></g>
<g><path style="opacity:1" fill="#eec275" d="M 21.5,29.5 C 21.5,29.8333 21.5,30.1667 21.5,30.5C 18.8333,30.5 16.1667,30.5 13.5,30.5C 13.6159,37.2488 14.4492,43.9155 16,50.5C 17.9028,52.441 18.7361,54.7743 18.5,57.5C 18.2491,62.5068 17.9157,67.5068 17.5,72.5C 17.6716,73.4916 17.3382,74.1583 16.5,74.5C 15.1563,68.408 13.823,62.408 12.5,56.5C 12.5,55.8333 12.1667,55.5 11.5,55.5C 11.5,46.8333 11.5,38.1667 11.5,29.5C 14.8333,29.5 18.1667,29.5 21.5,29.5 Z"/></g>
<g><path style="opacity:1" fill="#bf9e6c" d="M 11.5,55.5 C 12.1667,55.5 12.5,55.8333 12.5,56.5C 11.8682,64.5729 12.5349,72.2395 14.5,79.5C 14.5,79.8333 14.5,80.1667 14.5,80.5C 12.6682,81.7181 11.6682,81.0514 11.5,78.5C 11.5,70.8333 11.5,63.1667 11.5,55.5 Z"/></g>
<g><path style="opacity:1" fill="#e2b26a" d="M 12.5,56.5 C 13.823,62.408 15.1563,68.408 16.5,74.5C 16.1075,76.2838 15.4408,77.9505 14.5,79.5C 12.5349,72.2395 11.8682,64.5729 12.5,56.5 Z"/></g>
<g><path style="opacity:1" fill="#a39781" d="M 17.5,72.5 C 17.8333,72.5 18.1667,72.5 18.5,72.5C 18.2064,75.7541 16.873,78.4208 14.5,80.5C 14.5,80.1667 14.5,79.8333 14.5,79.5C 15.4408,77.9505 16.1075,76.2838 16.5,74.5C 17.3382,74.1583 17.6716,73.4916 17.5,72.5 Z"/></g>
</svg>
