<?xml version="1.0" encoding="UTF-8"?>
<!DOCTYPE svg PUBLIC "-//W3C//DTD SVG 1.1//EN" "http://www.w3.org/Graphics/SVG/1.1/DTD/svg11.dtd">
<svg xmlns="http://www.w3.org/2000/svg" version="1.1" width="30" height="90" style="shape-rendering:geometricPrecision; text-rendering:geometricPrecision; image-rendering:optimizeQuality; fill-rule:evenodd; clip-rule:evenodd" xmlns:xlink="http://www.w3.org/1999/xlink">
<g><path style="opacity:1" fill="#fdfdfd" d="M -0.5,-0.5 C 8.5,-0.5 17.5,-0.5 26.5,-0.5C 26.5,27.1667 26.5,54.8333 26.5,82.5C 17.5,82.5 8.5,82.5 -0.5,82.5C -0.5,54.8333 -0.5,27.1667 -0.5,-0.5 Z"/></g>
<g><path style="opacity:1" fill="#a6a496" d="M 19.5,5.5 C 18.5,5.5 17.5,5.5 16.5,5.5C 15.2921,4.76589 13.9587,4.43255 12.5,4.5C 10.2362,3.78138 7.90291,3.44805 5.5,3.5C 4.88258,3.61071 4.38258,3.94404 4,4.5C 3.82716,10.3482 3.32716,16.0149 2.5,21.5C 2.19031,15.2424 2.52364,9.07576 3.5,3C 9.23933,2.05804 14.5727,2.89137 19.5,5.5 Z"/></g>
<g><path style="opacity:1" fill="#f4f8e2" d="M 5.5,3.5 C 6.70477,5.62591 6.70477,7.79258 5.5,10C 7.35622,16.0649 8.68955,22.2316 9.5,28.5C 8.41683,28.4606 7.41683,28.1272 6.5,27.5C 5.46569,25.4545 4.46569,24.1212 3.5,23.5C 2.66175,23.1583 2.32842,22.4916 2.5,21.5C 3.32716,16.0149 3.82716,10.3482 4,4.5C 4.38258,3.94404 4.88258,3.61071 5.5,3.5 Z"/></g>
<g><path style="opacity:1" fill="#f9f8f5" d="M 5.5,3.5 C 7.90291,3.44805 10.2362,3.78138 12.5,4.5C 12.8261,13.0168 12.4927,21.3501 11.5,29.5C 10.5084,29.6716 9.84171,29.3382 9.5,28.5C 8.68955,22.2316 7.35622,16.0649 5.5,10C 6.70477,7.79258 6.70477,5.62591 5.5,3.5 Z"/></g>
<g><path style="opacity:1" fill="#dbd8c9" d="M 16.5,5.5 C 17.5,5.5 18.5,5.5 19.5,5.5C 19.6662,11.8421 19.4995,18.1754 19,24.5C 18.7599,26.8516 17.9265,28.8516 16.5,30.5C 16.5,22.1667 16.5,13.8333 16.5,5.5 Z"/></g>
<g><path style="opacity:1" fill="#eae8dd" d="M 12.5,4.5 C 13.9587,4.43255 15.2921,4.76589 16.5,5.5C 16.5,13.8333 16.5,22.1667 16.5,30.5C 14.5853,30.7845 12.9187,30.4511 11.5,29.5C 12.4927,21.3501 12.8261,13.0168 12.5,4.5 Z"/></g>
<g><path style="opacity:1" fill="#b6b2a0" d="M 19.5,5.5 C 20.7498,5.57735 21.5831,6.24402 22,7.5C 22.0741,17.1737 20.5741,26.507 17.5,35.5C 17.8432,33.5168 17.1765,32.1834 15.5,31.5C 12.5,31.5 9.5,31.5 6.5,31.5C 6.5,33.8333 6.5,36.1667 6.5,38.5C 5.72048,33.5776 4.72048,28.5776 3.5,23.5C 4.46569,24.1212 5.46569,25.4545 6.5,27.5C 7.41683,28.1272 8.41683,28.4606 9.5,28.5C 9.84171,29.3382 10.5084,29.6716 11.5,29.5C 12.9187,30.4511 14.5853,30.7845 16.5,30.5C 17.9265,28.8516 18.7599,26.8516 19,24.5C 19.4995,18.1754 19.6662,11.8421 19.5,5.5 Z"/></g>
<g><path style="opacity:1" fill="#fedc86" d="M 14.5,32.5 C 12.8475,40.4155 11.8475,48.4155 11.5,56.5C 10.6721,50.3466 10.1721,44.0133 10,37.5C 9.62325,36.0577 8.78991,35.0577 7.5,34.5C 9.27887,32.6565 11.6122,31.9898 14.5,32.5 Z"/></g>
<g><path style="opacity:1" fill="#b8ac8c" d="M 15.5,31.5 C 15.5,32.1667 15.1667,32.5 14.5,32.5C 11.6122,31.9898 9.27887,32.6565 7.5,34.5C 7.90676,40.1613 8.24009,45.828 8.5,51.5C 8.5,57.1667 8.5,62.8333 8.5,68.5C 7.69808,67.0484 7.19808,65.3817 7,63.5C 6.50027,55.1733 6.3336,46.84 6.5,38.5C 6.5,36.1667 6.5,33.8333 6.5,31.5C 9.5,31.5 12.5,31.5 15.5,31.5 Z"/></g>
<g><path style="opacity:1" fill="#c0b6a4" d="M 17.5,36.5 C 17.8981,45.0681 17.2314,53.4014 15.5,61.5C 15.5,55.5 15.5,49.5 15.5,43.5C 16.0654,41.0479 16.7321,38.7146 17.5,36.5 Z"/></g>
<g><path style="opacity:1" fill="#f2ca7b" d="M 15.5,31.5 C 17.1765,32.1834 17.8432,33.5168 17.5,35.5C 17.5,35.8333 17.5,36.1667 17.5,36.5C 16.7321,38.7146 16.0654,41.0479 15.5,43.5C 13.4548,51.0573 12.1215,58.724 11.5,66.5C 11.5,63.1667 11.5,59.8333 11.5,56.5C 11.8475,48.4155 12.8475,40.4155 14.5,32.5C 15.1667,32.5 15.5,32.1667 15.5,31.5 Z"/></g>
<g><path style="opacity:1" fill="#e6b970" d="M 15.5,43.5 C 15.5,49.5 15.5,55.5 15.5,61.5C 15.5,61.8333 15.5,62.1667 15.5,62.5C 14.6751,66.4986 14.0084,70.6653 13.5,75C 13.3176,77.5781 12.3176,78.0781 10.5,76.5C 9.59603,75.791 9.26269,74.791 9.5,73.5C 11.1042,72.713 11.7709,71.3797 11.5,69.5C 11.5,68.5 11.5,67.5 11.5,66.5C 12.1215,58.724 13.4548,51.0573 15.5,43.5 Z"/></g>
<g><path style="opacity:1" fill="#fef3cb" d="M 7.5,34.5 C 8.78991,35.0577 9.62325,36.0577 10,37.5C 10.1721,44.0133 10.6721,50.3466 11.5,56.5C 11.5,59.8333 11.5,63.1667 11.5,66.5C 11.5,67.5 11.5,68.5 11.5,69.5C 10.1712,63.5479 9.17122,57.5479 8.5,51.5C 8.24009,45.828 7.90676,40.1613 7.5,34.5 Z"/></g>
<g><path style="opacity:1" fill="#e8c885" d="M 8.5,51.5 C 9.17122,57.5479 10.1712,63.5479 11.5,69.5C 11.7709,71.3797 11.1042,72.713 9.5,73.5C 8.54885,72.0813 8.21552,70.4147 8.5,68.5C 8.5,62.8333 8.5,57.1667 8.5,51.5 Z"/></g>
<g><path style="opacity:1" fill="#aa997c" d="M 15.5,62.5 C 15.7712,67.9127 15.2712,73.2461 14,78.5C 11.8511,79.8398 10.6845,79.1731 10.5,76.5C 12.3176,78.0781 13.3176,77.5781 13.5,75C 14.0084,70.6653 14.6751,66.4986 15.5,62.5 Z"/></g>
</svg>
