<?xml version="1.0" encoding="UTF-8"?>
<!DOCTYPE svg PUBLIC "-//W3C//DTD SVG 1.1//EN" "http://www.w3.org/Graphics/SVG/1.1/DTD/svg11.dtd">
<svg xmlns="http://www.w3.org/2000/svg" version="1.1" width="30px" height="83px" style="shape-rendering:geometricPrecision; text-rendering:geometricPrecision; image-rendering:optimizeQuality; fill-rule:evenodd; clip-rule:evenodd" xmlns:xlink="http://www.w3.org/1999/xlink">
<g><path style="opacity:1" fill="#fefefe" d="M -0.5,-0.5 C 9.5,-0.5 19.5,-0.5 29.5,-0.5C 29.5,27.1667 29.5,54.8333 29.5,82.5C 19.5,82.5 9.5,82.5 -0.5,82.5C -0.5,54.8333 -0.5,27.1667 -0.5,-0.5 Z"/></g>
<g><path style="opacity:1" fill="#d9d5c4" d="M 20.5,3.5 C 22.3325,4.24848 23.9991,5.24848 25.5,6.5C 25.5874,11.5365 25.254,16.5365 24.5,21.5C 23.2291,23.1086 22.2291,24.9419 21.5,27C 20.2068,27.49 18.8734,27.6567 17.5,27.5C 17.5,27.1667 17.5,26.8333 17.5,26.5C 18.5,26.5 19.5,26.5 20.5,26.5C 20.5,18.8333 20.5,11.1667 20.5,3.5 Z"/></g>
<g><path style="opacity:1" fill="#adaa9a" d="M 25.5,6.5 C 28.1097,11.6072 27.7763,16.6072 24.5,21.5C 25.254,16.5365 25.5874,11.5365 25.5,6.5 Z"/></g>
<g><path style="opacity:1" fill="#9f9d8e" d="M 25.5,6.5 C 23.9991,5.24848 22.3325,4.24848 20.5,3.5C 16.6837,2.37967 13.0171,2.37967 9.5,3.5C 9.5,4.16667 9.5,4.83333 9.5,5.5C 8.34858,11.0155 8.34858,16.6822 9.5,22.5C 7.96082,19.1354 7.29416,15.4687 7.5,11.5C 7.54401,8.44512 7.87734,5.44512 8.5,2.5C 13.9158,1.24096 19.2491,1.57429 24.5,3.5C 25.1272,4.41683 25.4606,5.41683 25.5,6.5 Z"/></g>
<g><path style="opacity:1" fill="#f9f8f4" d="M 9.5,3.5 C 11.8333,3.5 14.1667,3.5 16.5,3.5C 17.1299,11.2428 16.4633,18.5762 14.5,25.5C 14.1667,25.5 13.8333,25.5 13.5,25.5C 10.8986,19.0934 9.56531,12.4267 9.5,5.5C 9.5,4.83333 9.5,4.16667 9.5,3.5 Z"/></g>
<g><path style="opacity:1" fill="#eae9dd" d="M 9.5,3.5 C 13.0171,2.37967 16.6837,2.37967 20.5,3.5C 20.5,11.1667 20.5,18.8333 20.5,26.5C 19.5,26.5 18.5,26.5 17.5,26.5C 16.209,26.7373 15.209,26.404 14.5,25.5C 16.4633,18.5762 17.1299,11.2428 16.5,3.5C 14.1667,3.5 11.8333,3.5 9.5,3.5 Z"/></g>
<g><path style="opacity:1" fill="#f1f5e0" d="M 9.5,5.5 C 9.56531,12.4267 10.8986,19.0934 13.5,25.5C 11.8595,24.853 10.5261,23.853 9.5,22.5C 8.34858,16.6822 8.34858,11.0155 9.5,5.5 Z"/></g>
<g><path style="opacity:1" fill="#bbb7a5" d="M 9.5,22.5 C 10.5261,23.853 11.8595,24.853 13.5,25.5C 13.8333,25.5 14.1667,25.5 14.5,25.5C 15.209,26.404 16.209,26.7373 17.5,26.5C 17.5,26.8333 17.5,27.1667 17.5,27.5C 15.7376,27.6427 14.0709,27.3094 12.5,26.5C 11.6143,27.325 11.281,28.325 11.5,29.5C 11.5,31.5 11.5,33.5 11.5,35.5C 10.6424,31.3268 9.97576,26.9935 9.5,22.5 Z"/></g>
<g><path style="opacity:1" fill="#fbefc4" d="M 16.5,28.5 C 14.4462,36.5936 14.1128,44.7602 15.5,53C 15.3333,54.5 15.1667,56 15,57.5C 14.6174,58.056 14.1174,58.3893 13.5,58.5C 13.9213,50.5894 13.2546,42.9227 11.5,35.5C 11.5,33.5 11.5,31.5 11.5,29.5C 13.0418,28.6993 14.7085,28.366 16.5,28.5 Z"/></g>
<g><path style="opacity:1" fill="#9e9a89" d="M 24.5,21.5 C 24.0242,25.9935 23.3576,30.3268 22.5,34.5C 22.5,32.5 22.5,30.5 22.5,28.5C 20.5,28.5 18.5,28.5 16.5,28.5C 14.7085,28.366 13.0418,28.6993 11.5,29.5C 11.281,28.325 11.6143,27.325 12.5,26.5C 14.0709,27.3094 15.7376,27.6427 17.5,27.5C 18.8734,27.6567 20.2068,27.49 21.5,27C 22.2291,24.9419 23.2291,23.1086 24.5,21.5 Z"/></g>
<g><path style="opacity:1" fill="#aea695" d="M 22.5,34.5 C 22.5715,44.6995 21.9049,54.6995 20.5,64.5C 20.5,60.8333 20.5,57.1667 20.5,53.5C 21.2412,47.5293 21.5745,41.5293 21.5,35.5C 21.5,34.8333 21.8333,34.5 22.5,34.5 Z"/></g>
<g><path style="opacity:1" fill="#b9b096" d="M 11.5,35.5 C 13.2546,42.9227 13.9213,50.5894 13.5,58.5C 13.5,59.5 13.5,60.5 13.5,61.5C 12.71,60.3915 12.21,59.0581 12,57.5C 11.5003,50.1742 11.3337,42.8409 11.5,35.5 Z"/></g>
<g><path style="opacity:1" fill="#f7d17f" d="M 16.5,28.5 C 18.5,28.5 20.5,28.5 22.5,28.5C 22.5,30.5 22.5,32.5 22.5,34.5C 21.8333,34.5 21.5,34.8333 21.5,35.5C 20.2237,37.5625 19.3903,39.8958 19,42.5C 17.9409,49.8547 16.7742,57.188 15.5,64.5C 14.8243,63.3984 14.1577,62.3984 13.5,61.5C 13.5,60.5 13.5,59.5 13.5,58.5C 14.1174,58.3893 14.6174,58.056 15,57.5C 15.1667,56 15.3333,54.5 15.5,53C 14.1128,44.7602 14.4462,36.5936 16.5,28.5 Z"/></g>
<g><path style="opacity:1" fill="#e5b971" d="M 21.5,35.5 C 21.5745,41.5293 21.2412,47.5293 20.5,53.5C 19.6733,58.6509 19.1733,63.9842 19,69.5C 18.6667,69.8333 18.3333,70.1667 18,70.5C 17.2917,69.6195 16.4584,68.9528 15.5,68.5C 14.0762,66.4855 13.4095,64.1522 13.5,61.5C 14.1577,62.3984 14.8243,63.3984 15.5,64.5C 16.7742,57.188 17.9409,49.8547 19,42.5C 19.3903,39.8958 20.2237,37.5625 21.5,35.5 Z"/></g>
<g><path style="opacity:1" fill="#b09f83" d="M 20.5,53.5 C 20.5,57.1667 20.5,60.8333 20.5,64.5C 20.7564,66.7925 20.4231,68.9592 19.5,71C 17.0551,71.9098 15.7218,71.0764 15.5,68.5C 16.4584,68.9528 17.2917,69.6195 18,70.5C 18.3333,70.1667 18.6667,69.8333 19,69.5C 19.1733,63.9842 19.6733,58.6509 20.5,53.5 Z"/></g>
</svg>
