<?xml version="1.0" encoding="UTF-8"?>
<svg version="1.1" xmlns="http://www.w3.org/2000/svg" width="30" height="90">
<path d="M0 0 C9.9 0 19.8 0 30 0 C30 29.7 30 59.4 30 90 C20.1 90 10.2 90 0 90 C0 60.3 0 30.6 0 0 Z " fill="#FDFDFD" transform="translate(0,0)"/>
<path d="M0 0 C6.16529701 0.31616908 10.17268433 3.49215061 15 7 C14.67395117 11.12995179 13.52957239 13.97011095 11.51953125 17.5078125 C8.63408258 23.17538133 8.14079859 28.21795252 7.875 34.5 C7.74283644 36.6175612 7.60475691 38.73476099 7.4609375 40.8515625 C7.35604004 42.40858887 7.35604004 42.40858887 7.24902344 43.99707031 C6.38443612 54.42297617 4.14369086 64.77624357 2 75 C1.34 75 0.68 75 0 75 C-0.48720213 73.64870353 -0.96428184 72.29375684 -1.4375 70.9375 C-1.70433594 70.18339844 -1.97117187 69.42929688 -2.24609375 68.65234375 C-3.76585237 63.30562817 -4.11322112 57.99181597 -4.10546875 52.45703125 C-4.23054551 38.51964562 -4.93577413 25.95498307 -9.72265625 12.7109375 C-11 9 -11 9 -11 5 C-9.68 5 -8.36 5 -7 5 C-6.34 8.96 -5.68 12.92 -5 17 C-4.34 17 -3.68 17 -3 17 C-2.34 19.97 -1.68 22.94 -1 26 C-0.34 26 0.32 26 1 26 C2.25607686 21.12642179 2.18373462 16.30915371 2.1875 11.3125 C2.19974609 10.44560547 2.21199219 9.57871094 2.22460938 8.68554688 C2.22654297 7.85732422 2.22847656 7.02910156 2.23046875 6.17578125 C2.23663208 5.04523315 2.23663208 5.04523315 2.24291992 3.8918457 C2.16474947 1.75722085 2.16474947 1.75722085 0 0 Z " fill="#C9C696" transform="translate(13,7)"/>
<path d="M0 0 C0.33 0.99 0.66 1.98 1 3 C0.11967034 4.59540972 -0.83214132 6.1515282 -1.8125 7.6875 C-6.04749711 15.73789773 -6.02824827 23.98447011 -6.57421875 32.921875 C-7.28801842 44.42218153 -9.63888053 55.73927638 -12 67 C-12.66 67 -13.32 67 -14 67 C-14.48720213 65.64870353 -14.96428184 64.29375684 -15.4375 62.9375 C-15.70433594 62.18339844 -15.97117187 61.42929688 -16.24609375 60.65234375 C-17.88097632 54.90060664 -18.17145079 49.0451102 -18.31640625 43.09765625 C-18.33718735 42.3750914 -18.35796844 41.65252655 -18.37937927 40.9080658 C-18.44415426 38.6262963 -18.5034203 36.34442333 -18.5625 34.0625 C-18.60575397 32.50454709 -18.64937031 30.9466042 -18.69335938 29.38867188 C-18.79976039 25.59255078 -18.90122499 21.79632686 -19 18 C-16.45562557 20.54437443 -16.71613618 21.56098316 -16.62109375 25.09375 C-16.58693359 26.125 -16.55277344 27.15625 -16.51757812 28.21875 C-16.49115234 29.3015625 -16.46472656 30.384375 -16.4375 31.5 C-16.22025958 39.04332679 -15.8724382 46.50101136 -15 54 C-14.34 54 -13.68 54 -13 54 C-12.68692614 52.29177174 -12.37456992 50.58341195 -12.0625 48.875 C-11.88847656 47.92367187 -11.71445313 46.97234375 -11.53515625 45.9921875 C-11.35855469 45.00476562 -11.18195312 44.01734375 -11 43 C-10.72349609 41.58847656 -10.72349609 41.58847656 -10.44140625 40.1484375 C-9.90509594 36.32307366 -9.85380954 32.60666424 -9.875 28.75 C-9.87113281 28.03070313 -9.86726563 27.31140625 -9.86328125 26.5703125 C-9.79865411 22.65685799 -9.79865411 22.65685799 -11 19 C-10.67 18.01 -10.34 17.02 -10 16 C-9.69705618 13.16831682 -9.49244942 10.33597165 -9.28125 7.49609375 C-9 5 -9 5 -8 3 C-6.02111039 2.27306096 -4.02045442 1.60183749 -2 1 C-3.07401108 3.91517292 -3.77810176 5.77810176 -6 8 C-6 8.99 -6 9.98 -6 11 C-4.02 7.37 -2.04 3.74 0 0 Z " fill="#A7A47F" transform="translate(27,15)"/>
<path d="M0 0 C0.91700684 0.51602783 0.91700684 0.51602783 1.85253906 1.04248047 C1.90664043 4.10521878 1.94626131 7.16699499 1.97753906 10.22998047 C1.99429687 11.09429687 2.01105469 11.95861328 2.02832031 12.84912109 C2.06292139 17.3645615 2.00821822 20.9432953 -0.14746094 25.04248047 C-0.80746094 25.04248047 -1.46746094 25.04248047 -2.14746094 25.04248047 C-2.80746094 22.07248047 -3.46746094 19.10248047 -4.14746094 16.04248047 C-4.80746094 16.04248047 -5.46746094 16.04248047 -6.14746094 16.04248047 C-6.4375 14.88619141 -6.4375 14.88619141 -6.73339844 13.70654297 C-6.99378906 12.70365234 -7.25417969 11.70076172 -7.52246094 10.66748047 C-7.77769531 9.66974609 -8.03292969 8.67201172 -8.29589844 7.64404297 C-8.97150413 4.91707032 -8.97150413 4.91707032 -11.14746094 3.04248047 C-9.74054487 2.31497259 -8.32140071 1.61107694 -6.89746094 0.91748047 C-6.10855469 0.52302734 -5.31964844 0.12857422 -4.50683594 -0.27783203 C-2.14746094 -0.95751953 -2.14746094 -0.95751953 0 0 Z " fill="#F2F2F1" transform="translate(14.1474609375,7.95751953125)"/>
<path d="M0 0 C6.26407727 0.32123473 10.0358009 3.46488852 15 7 C12.69 11.62 10.38 16.24 8 21 C7.67 21 7.34 21 7 21 C6.58823246 17.39703406 6.8464147 16.21597933 9 13.1875 C9.66 12.465625 10.32 11.74375 11 11 C10.67 11 10.34 11 10 11 C8.68 11 7.36 11 6 11 C5.93941406 11.90363281 5.87882812 12.80726562 5.81640625 13.73828125 C5.73261719 14.91777344 5.64882813 16.09726562 5.5625 17.3125 C5.48128906 18.48425781 5.40007813 19.65601563 5.31640625 20.86328125 C5 24 5 24 4 27 C2.35 27 0.7 27 -1 27 C-0.34 26.67 0.32 26.34 1 26 C2.4802392 21.27643413 2.18380604 16.21439141 2.1875 11.3125 C2.19974609 10.44560547 2.21199219 9.57871094 2.22460938 8.68554688 C2.22654297 7.85732422 2.22847656 7.02910156 2.23046875 6.17578125 C2.23457764 5.42208252 2.23868652 4.66838379 2.24291992 3.8918457 C2.16474947 1.75722085 2.16474947 1.75722085 0 0 Z " fill="#CBCAC9" transform="translate(13,7)"/>
<path d="M0 0 C1.32 0 2.64 0 4 0 C4.66 3.96 5.32 7.92 6 12 C6.66 12 7.32 12 8 12 C8.66 15.3 9.32 18.6 10 22 C11.98 22.33 13.96 22.66 16 23 C15.67 23.99 15.34 24.98 15 26 C13.02 26 11.04 26 9 26 C9.33 33.59 9.66 41.18 10 49 C7.39911378 46.39911378 7.70037775 45.17862887 7.5859375 41.5546875 C7.54726562 40.47832031 7.50859375 39.40195312 7.46875 38.29296875 C7.4378125 37.16503906 7.406875 36.03710938 7.375 34.875 C7.33632812 33.73933594 7.29765625 32.60367188 7.2578125 31.43359375 C7.16332399 28.62256044 7.07776459 25.81153767 7 23 C6.34 22.67 5.68 22.34 5 22 C4.49271361 20.13994992 3.99783815 18.27540137 3.57421875 16.39453125 C2.75370565 12.97293579 1.66294946 9.6452092 0.5859375 6.296875 C0 4 0 4 0 0 Z " fill="#B9B58C" transform="translate(2,12)"/>
<path d="M0 0 C1 3 1 3 -0.3984375 6.1015625 C-1.04700947 7.28175084 -1.70632046 8.45608691 -2.375 9.625 C-2.87 10.5221875 -2.87 10.5221875 -3.375 11.4375 C-5.8067602 15.8067602 -5.8067602 15.8067602 -7 17 C-7.15582303 18.34015221 -7.25044142 19.68758903 -7.31640625 21.03515625 C-7.37924805 22.24848633 -7.37924805 22.24848633 -7.44335938 23.48632812 C-7.48267578 24.33646484 -7.52199219 25.18660156 -7.5625 26.0625 C-7.60568359 26.91650391 -7.64886719 27.77050781 -7.69335938 28.65039062 C-7.79976702 30.76672037 -7.90041731 32.88333813 -8 35 C-8.33 35 -8.66 35 -9 35 C-9.06058594 34.01257812 -9.12117188 33.02515625 -9.18359375 32.0078125 C-9.26738281 30.72648437 -9.35117187 29.44515625 -9.4375 28.125 C-9.51871094 26.84882812 -9.59992187 25.57265625 -9.68359375 24.2578125 C-9.79206027 21.11699848 -9.79206027 21.11699848 -11 19 C-10.505 17.515 -10.505 17.515 -10 16 C-9.69705618 13.16831682 -9.49244942 10.33597165 -9.28125 7.49609375 C-9 5 -9 5 -8 3 C-6.02111039 2.27306096 -4.02045442 1.60183749 -2 1 C-3.07401108 3.91517292 -3.77810176 5.77810176 -6 8 C-6 8.99 -6 9.98 -6 11 C-4.02 7.37 -2.04 3.74 0 0 Z " fill="#A9A8A8" transform="translate(27,15)"/>
<path d="M0 0 C0.33 0 0.66 0 1 0 C1.35859151 8.76557029 0.90870876 17.13315449 -0.375 25.8125 C-0.50108643 26.6900293 -0.62717285 27.56755859 -0.75708008 28.47167969 C-0.88622803 29.2918457 -1.01537598 30.11201172 -1.1484375 30.95703125 C-1.26364746 31.68897705 -1.37885742 32.42092285 -1.49755859 33.17504883 C-2 35 -2 35 -4 37 C-4.0553116 35.50044115 -4.09336832 34.00024516 -4.125 32.5 C-4.14820313 31.6646875 -4.17140625 30.829375 -4.1953125 29.96875 C-3.99301591 26.89384184 -3.26826134 24.14932114 -2.4765625 21.18115234 C-1.6383795 17.3449193 -1.56892347 13.47635517 -1.4375 9.5625 C-1.12345806 1.12345806 -1.12345806 1.12345806 0 0 Z " fill="#8C8972" transform="translate(20,31)"/>
<path d="M0 0 C1.32 0 2.64 0 4 0 C4.66 3.96 5.32 7.92 6 12 C6.66 12 7.32 12 8 12 C8.66 14.97 9.32 17.94 10 21 C7 20 7 20 5.4375 17.125 C4.963125 16.09375 4.48875 15.0625 4 14 C3.34 13.01 2.68 12.02 2 11 C0.72258585 7.0967901 0 4.12760017 0 0 Z " fill="#CBCBC9" transform="translate(2,12)"/>
<path d="M0 0 C0.33 0 0.66 0 1 0 C2.04819354 7.45067301 1.91318843 13.7109102 0 21 C-0.66 21 -1.32 21 -2 21 C-2.893721 16.35265078 -3.09829364 14.13487275 -1 10 C-0.54935368 7.41467299 -0.54935368 7.41467299 -0.375 4.75 C-0.30023438 3.85796875 -0.22546875 2.9659375 -0.1484375 2.046875 C-0.09945313 1.37140625 -0.05046875 0.6959375 0 0 Z " fill="#9C9979" transform="translate(15,61)"/>
<path d="M0 0 C0.33 0 0.66 0 1 0 C1.92449827 5.97157399 1.9888273 11.48241459 1.5625 17.5 C1.51029297 18.32242188 1.45808594 19.14484375 1.40429688 19.9921875 C1.27619538 21.99522899 1.13904939 23.99768871 1 26 C0.67 26 0.34 26 0 26 C-0.06058594 25.01257813 -0.12117188 24.02515625 -0.18359375 23.0078125 C-0.26738281 21.72648437 -0.35117187 20.44515625 -0.4375 19.125 C-0.51871094 17.84882812 -0.59992187 16.57265625 -0.68359375 15.2578125 C-0.79206027 12.11699848 -0.79206027 12.11699848 -2 10 C-1.66015625 7.6171875 -1.66015625 7.6171875 -1.0625 4.875 C-0.86785156 3.96492188 -0.67320313 3.05484375 -0.47265625 2.1171875 C-0.31667969 1.41851563 -0.16070313 0.71984375 0 0 Z " fill="#A3A07C" transform="translate(18,24)"/>
<path d="M0 0 C2.35953094 2.35953094 2.49141413 3.77895617 3 7 C5.97 7.99 8.94 8.98 12 10 C12 10.33 12 10.66 12 11 C10.741875 11.04125 9.48375 11.0825 8.1875 11.125 C7.47980469 11.14820313 6.77210937 11.17140625 6.04296875 11.1953125 C4 11 4 11 1 9 C0.48828125 6.8359375 0.48828125 6.8359375 0.3125 4.375 C0.24675781 3.55773437 0.18101562 2.74046875 0.11328125 1.8984375 C0.07589844 1.27195312 0.03851562 0.64546875 0 0 Z " fill="#B7B6B5" transform="translate(6,25)"/>
<path d="M0 0 C0.99 0.66 1.98 1.32 3 2 C-4.42857143 5.28571429 -4.42857143 5.28571429 -8 6 C-8 5.01 -8 4.02 -8 3 C-6.73637508 2.44172391 -5.4637081 1.90387903 -4.1875 1.375 C-3.47980469 1.07335937 -2.77210937 0.77171875 -2.04296875 0.4609375 C-1.36878906 0.30882812 -0.69460938 0.15671875 0 0 Z " fill="#E1E1E0" transform="translate(12,7)"/>
<path d="M0 0 C0.33 0.66 0.66 1.32 1 2 C0.00390625 4.1640625 0.00390625 4.1640625 -1.4375 6.625 C-1.91058594 7.44226563 -2.38367188 8.25953125 -2.87109375 9.1015625 C-3.24363281 9.72804688 -3.61617187 10.35453125 -4 11 C-4.33 11 -4.66 11 -5 11 C-5.39169887 8.33644766 -5.40564529 6.60775627 -3.88671875 4.33203125 C-2.63610683 2.8489112 -1.32135486 1.42045648 0 0 Z " fill="#E5E4E2" transform="translate(25,17)"/>
<path d="M0 0 C2.12508244 3.18762365 2.5020163 5.26512223 3 9 C2.01 8.67 1.02 8.34 0 8 C-0.79953138 4.71303767 -1.09658936 3.28976808 0 0 Z " fill="#D7D7D5" transform="translate(9,24)"/>
<path d="M0 0 C0.33 0 0.66 0 1 0 C2.125 7.625 2.125 7.625 1 11 C0.01 10.67 -0.98 10.34 -2 10 C-1.34 6.7 -0.68 3.4 0 0 Z " fill="#9A9A9A" transform="translate(18,24)"/>
</svg>
