<?xml version="1.0" encoding="UTF-8"?>
<svg version="1.1" xmlns="http://www.w3.org/2000/svg" width="30" height="90">
<path d="M0 0 C9.9 0 19.8 0 30 0 C30 29.7 30 59.4 30 90 C20.1 90 10.2 90 0 90 C0 60.3 0 30.6 0 0 Z " fill="#FDFDFD" transform="translate(0,0)"/>
<path d="M0 0 C0.66 0 1.32 0 2 0 C3.22194105 11.28219357 4.09203651 22.46540454 4.375 33.8125 C4.68610236 44.88079283 6.49852216 54.49556649 10 65 C10.56321839 71.1954023 10.56321839 71.1954023 8.25 74.5 C7.5075 74.995 6.765 75.49 6 76 C4.68 75.67 3.36 75.34 2 75 C2 70.05 2 65.1 2 60 C1.34 60 0.68 60 0 60 C-0.10957031 59.30132812 -0.21914063 58.60265625 -0.33203125 57.8828125 C-0.49058594 56.97273438 -0.64914063 56.06265625 -0.8125 55.125 C-0.96332031 54.22007813 -1.11414062 53.31515625 -1.26953125 52.3828125 C-1.83051301 49.65587522 -1.83051301 49.65587522 -5 48 C-5.495 50.475 -5.495 50.475 -6 53 C-6.66 52.34 -7.32 51.68 -8 51 C-8.25394531 51.90363281 -8.50789062 52.80726562 -8.76953125 53.73828125 C-9.11371094 54.91777344 -9.45789063 56.09726562 -9.8125 57.3125 C-10.14894531 58.48425781 -10.48539063 59.65601563 -10.83203125 60.86328125 C-11.91091059 63.76073981 -12.62457184 65.11463152 -15 67 C-14.73598005 65.68611248 -14.46324636 64.37397661 -14.1875 63.0625 C-14.03667969 62.33160156 -13.88585937 61.60070312 -13.73046875 60.84765625 C-13.11510011 58.44870578 -12.37887481 56.2056489 -11.5546875 53.875 C-9.78495861 48.64583773 -8.83317688 43.37508123 -7.9375 37.9375 C-7.76541016 36.93178955 -7.59332031 35.9260791 -7.41601562 34.88989258 C-6.4281175 29.0014751 -5.63226136 23.12320738 -5 17.1875 C-4.28733639 10.9354965 -2.79069781 5.63558393 0 0 Z " fill="#BAB587" transform="translate(18,5)"/>
<path d="M0 0 C1.9375 0.8125 1.9375 0.8125 4 2 C5.1577506 5.47325181 5.06866652 8.36067448 5 12 C5.66 12 6.32 12 7 12 C7.16789126 14.43742131 7.33436133 16.87492546 7.5 19.3125 C7.54769531 20.00279297 7.59539063 20.69308594 7.64453125 21.40429688 C7.83879489 24.27662359 8 27.12013788 8 30 C3.89144315 32.05427842 1.40345181 32.38147508 -3 31 C-6.02163057 29.32253059 -8.63035357 27.52762285 -11 25 C-11.6875 21.8125 -11.6875 21.8125 -11 19 C-10.54625 18.60554688 -10.0925 18.21109375 -9.625 17.8046875 C-7.16439362 15.07199484 -6.37817429 11.76064854 -5.3125 8.3125 C-5.08755859 7.61060547 -4.86261719 6.90871094 -4.63085938 6.18554688 C-4.07903643 4.45963257 -3.53840942 2.73014567 -3 1 C-2.34 1.33 -1.68 1.66 -1 2 C-0.67 1.34 -0.34 0.68 0 0 Z " fill="#E9E9E9" transform="translate(13,53)"/>
<path d="M0 0 C0.66 0 1.32 0 2 0 C6.06982544 19.52547203 6.06982544 19.52547203 5 26 C3 28 3 28 0 28.25 C-3 28 -3 28 -5 26 C-5.91197976 20.39783862 -4.74409208 15.45003222 -2.80078125 10.21875 C-1.59288245 6.87198649 -0.81791598 3.46041374 0 0 Z " fill="#F1F1F0" transform="translate(13,53)"/>
<path d="M0 0 C1.98 0 3.96 0 6 0 C6.66 1.32 7.32 2.64 8 4 C8.33 2.68 8.66 1.36 9 0 C9.474375 0.495 9.94875 0.99 10.4375 1.5 C11.75923698 3.11542197 11.75923698 3.11542197 13 3 C13.20496094 3.83144531 13.40992188 4.66289063 13.62109375 5.51953125 C13.89050781 6.60621094 14.15992188 7.69289063 14.4375 8.8125 C14.83775391 10.43091797 14.83775391 10.43091797 15.24609375 12.08203125 C15.76077412 14.0740843 16.34937175 16.04811524 17 18 C17.56321839 24.1954023 17.56321839 24.1954023 15.25 27.5 C14.5075 27.995 13.765 28.49 13 29 C11.68 28.67 10.36 28.34 9 28 C9 23.05 9 18.1 9 13 C8.34 13 7.68 13 7 13 C6.89042969 12.30132812 6.78085937 11.60265625 6.66796875 10.8828125 C6.50941406 9.97273438 6.35085937 9.06265625 6.1875 8.125 C6.03667969 7.22007813 5.88585937 6.31515625 5.73046875 5.3828125 C5.16948699 2.65587522 5.16948699 2.65587522 2 1 C1.67 2.65 1.34 4.3 1 6 C-0.0625 4.125 -0.0625 4.125 -1 2 C-0.67 1.34 -0.34 0.68 0 0 Z " fill="#BFBEBE" transform="translate(11,52)"/>
<path d="M0 0 C0.66 0 1.32 0 2 0 C1.67 10.89 1.34 21.78 1 33 C-0.65 33 -2.3 33 -4 33 C-5.14929548 21.31318812 -5.7253465 10.72564912 0 0 Z " fill="#D7D297" transform="translate(18,5)"/>
<path d="M0 0 C0.33 0 0.66 0 1 0 C3.59436053 15.54097523 3.63584977 31.28528925 4 47 C3.01 46.01 2.02 45.02 1 44 C1 46.97 1 49.94 1 53 C0.67 53 0.34 53 0 53 C-0.19916016 52.09507813 -0.19916016 52.09507813 -0.40234375 51.171875 C-0.57894531 50.37265625 -0.75554688 49.5734375 -0.9375 48.75 C-1.11152344 47.96109375 -1.28554688 47.1721875 -1.46484375 46.359375 C-1.947556 44.23121297 -2.46163178 42.11467158 -3 40 C-2.34 40 -1.68 40 -1 40 C-0.67 26.8 -0.34 13.6 0 0 Z " fill="#8F8C75" transform="translate(19,10)"/>
<path d="M0 0 C0.66 0.33 1.32 0.66 2 1 C3.1577506 4.47325181 3.06866652 7.36067448 3 11 C3.66 11 4.32 11 5 11 C5.16789126 13.43742131 5.33436133 15.87492546 5.5 18.3125 C5.54769531 19.00279297 5.59539063 19.69308594 5.64453125 20.40429688 C5.83879489 23.27662359 6 26.12013788 6 29 C2.04 29.495 2.04 29.495 -2 30 C-1 27 -1 27 2 25 C3.53448999 17.16255112 1.16367218 7.79244762 0 0 Z " fill="#D8D9D7" transform="translate(15,54)"/>
<path d="M0 0 C0.33 0 0.66 0 1 0 C0.67 5.61 0.34 11.22 0 17 C0.66 17.33 1.32 17.66 2 18 C1.01 18.66 0.02 19.32 -1 20 C-1.94676781 22.65268176 -2.76134048 25.2282875 -3.5 27.9375 C-5.90289148 36.70417828 -5.90289148 36.70417828 -9 39 C-8.11067848 34.57431762 -7.15683291 30.29167783 -5.5625 26.0625 C-3.64251508 20.59492874 -2.88222916 14.91451562 -2.00219727 9.20727539 C-1.51262839 6.03369331 -1.01770507 3.05311521 0 0 Z " fill="#A7A382" transform="translate(12,33)"/>
<path d="M0 0 C0.66 0 1.32 0 2 0 C1.67 6.27 1.34 12.54 1 19 C-0.66666667 19 -2.33333333 19 -4 19 C-4.47266289 11.67372525 -3.09866202 6.62615673 0 0 Z " fill="#B5B18B" transform="translate(18,5)"/>
<path d="M0 0 C0.33 0 0.66 0 1 0 C1.20496094 0.83144531 1.40992188 1.66289063 1.62109375 2.51953125 C1.89050781 3.60621094 2.15992188 4.69289063 2.4375 5.8125 C2.83775391 7.43091797 2.83775391 7.43091797 3.24609375 9.08203125 C3.76077412 11.0740843 4.34937175 13.04811524 5 15 C5.3125 18.5 5.3125 18.5 5 22 C3.68 22.99 2.36 23.98 1 25 C0.34 21.37 -0.32 17.74 -1 14 C-0.01 14.495 -0.01 14.495 1 15 C0.84402344 14.08476563 0.68804688 13.16953125 0.52734375 12.2265625 C0.33269531 11.03804687 0.13804688 9.84953125 -0.0625 8.625 C-0.25972656 7.44164062 -0.45695312 6.25828125 -0.66015625 5.0390625 C-1 2 -1 2 0 0 Z " fill="#B6B7B6" transform="translate(23,55)"/>
<path d="M0 0 C1.4962608 2.39179235 2.02832609 3.65688015 1.79296875 6.5078125 C1.59316406 7.37148438 1.39335937 8.23515625 1.1875 9.125 C0.99542969 9.99382813 0.80335937 10.86265625 0.60546875 11.7578125 C0 14 0 14 -1 16 C-1.22622081 17.70363822 -1.40888473 19.41328701 -1.5625 21.125 C-1.68818359 22.49011719 -1.68818359 22.49011719 -1.81640625 23.8828125 C-1.87699219 24.58148438 -1.93757812 25.28015625 -2 26 C-3.32 24.68 -4.64 23.36 -6 22 C-4.94124926 18.59687262 -3.99097846 15.98646769 -2 13 C-2 11.906875 -2 10.81375 -2 9.6875 C-2 5.9768903 -1.33829045 3.42936928 0 0 Z " fill="#E1E1E0" transform="translate(10,54)"/>
<path d="M0 0 C0.33 0 0.66 0 1 0 C1.36580347 2.9989838 1.7178911 5.99856764 2.0625 9 C2.16626953 9.83917969 2.27003906 10.67835937 2.37695312 11.54296875 C2.98131267 16.9196847 3.05884967 21.6754988 2 27 C1.34 27.33 0.68 27.66 0 28 C0 18.76 0 9.52 0 0 Z " fill="#A4A07B" transform="translate(19,10)"/>
<path d="M0 0 C0.33 0.99 0.66 1.98 1 3 C2.32 2.34 3.64 1.68 5 1 C6.50156874 4.00313748 6.09281204 6.79067522 6.0625 10.125 C6.05347656 11.40632813 6.04445313 12.68765625 6.03515625 14.0078125 C6.02355469 14.99523438 6.01195312 15.98265625 6 17 C4.35 17 2.7 17 1 17 C1.495 16.649375 1.99 16.29875 2.5 15.9375 C4.75322054 13.02709013 4.25966039 10.57033034 4 7 C3.67 6.34 3.34 5.68 3 5 C2.01 5.33 1.02 5.66 0 6 C0 4.02 0 2.04 0 0 Z " fill="#CAC696" transform="translate(13,21)"/>
<path d="M0 0 C0.66 0 1.32 0 2 0 C1.57372794 2.06484978 1.13348551 4.12681821 0.6875 6.1875 C0.44386719 7.33605469 0.20023438 8.48460937 -0.05078125 9.66796875 C-0.96876924 12.89037104 -2.14019342 15.23373307 -4 18 C-5.35814777 13.9255567 -3.94745762 11.18531884 -2.5625 7.3125 C-2.31951172 6.61060547 -2.07652344 5.90871094 -1.82617188 5.18554688 C-1.2255056 3.45421468 -0.61380281 1.72671863 0 0 Z " fill="#B6B7B5" transform="translate(8,54)"/>
<path d="M0 0 C1.32 0 2.64 0 4 0 C4 1.98 4 3.96 4 6 C2.35 6.66 0.7 7.32 -1 8 C-0.67 5.36 -0.34 2.72 0 0 Z " fill="#D1CD96" transform="translate(13,42)"/>
<path d="M0 0 C2.97550031 3.0684847 3.96474513 4.46236331 4.25 8.8125 C4.1675 9.864375 4.085 10.91625 4 12 C2.68 11.67 1.36 11.34 0 11 C0 7.37 0 3.74 0 0 Z " fill="#C1C2C1" transform="translate(20,69)"/>
<path d="M0 0 C1.98 0 3.96 0 6 0 C7.78409802 3.06246747 8.22880021 5.22079273 8.125 8.75 C8.10695313 9.54921875 8.08890625 10.3484375 8.0703125 11.171875 C8.03550781 12.07679687 8.03550781 12.07679687 8 13 C7.67 13 7.34 13 7 13 C6.89042969 12.30132812 6.78085937 11.60265625 6.66796875 10.8828125 C6.50941406 9.97273438 6.35085937 9.06265625 6.1875 8.125 C6.03667969 7.22007813 5.88585937 6.31515625 5.73046875 5.3828125 C5.16948699 2.65587522 5.16948699 2.65587522 2 1 C1.67 2.65 1.34 4.3 1 6 C-0.0625 4.125 -0.0625 4.125 -1 2 C-0.67 1.34 -0.34 0.68 0 0 Z " fill="#C7C7C7" transform="translate(11,52)"/>
<path d="M0 0 C0.33 0 0.66 0 1 0 C1 3.63 1 7.26 1 11 C-0.32 9.68 -1.64 8.36 -3 7 C-1.125 1.125 -1.125 1.125 0 0 Z " fill="#D3D3D2" transform="translate(7,69)"/>
<path d="M0 0 C1.98 0.99 1.98 0.99 4 2 C4.75 5.625 4.75 5.625 5 9 C4.01 9.66 3.02 10.32 2 11 C1.34 7.37 0.68 3.74 0 0 Z " fill="#AAAAAA" transform="translate(22,69)"/>
<path d="M0 0 C2.1926135 4.2186994 4.36894477 8.60185899 3.625 13.4375 C3.41875 13.953125 3.2125 14.46875 3 15 C-0.16727335 9.8531808 -0.35050464 5.841744 0 0 Z " fill="#E1E1E0" transform="translate(21,56)"/>
<path d="M0 0 C0.33 0 0.66 0 1 0 C1 2.97 1 5.94 1 9 C1.66 9.33 2.32 9.66 3 10 C0.36 10.33 -2.28 10.66 -5 11 C-4 8 -4 8 -1 6 C-0.26656572 2.93443402 -0.26656572 2.93443402 0 0 Z " fill="#DEDEDD" transform="translate(18,73)"/>
<path d="M0 0 C0.66 0 1.32 0 2 0 C3.17571451 3.67410785 3.07366746 7.16929183 3 11 C1 8 1 8 1 5 C0.34 4.67 -0.32 4.34 -1 4 C-0.67 2.68 -0.34 1.36 0 0 Z " fill="#E9E9E8" transform="translate(13,53)"/>
<path d="M0 0 C2 2 2 2 2.125 5.625 C2.08375 6.73875 2.0425 7.8525 2 9 C1.34 8.67 0.68 8.34 0 8 C-0.95067299 4.71585695 -1.10102197 3.30306592 0 0 Z " fill="#CBC89F" transform="translate(16,9)"/>
</svg>
