<?xml version="1.0" encoding="UTF-8"?>
<!DOCTYPE svg PUBLIC "-//W3C//DTD SVG 1.1//EN" "http://www.w3.org/Graphics/SVG/1.1/DTD/svg11.dtd">
<svg xmlns="http://www.w3.org/2000/svg" version="1.1" width="35px" height="83px" style="shape-rendering:geometricPrecision; text-rendering:geometricPrecision; image-rendering:optimizeQuality; fill-rule:evenodd; clip-rule:evenodd" xmlns:xlink="http://www.w3.org/1999/xlink">
<g><path style="opacity:1" fill="#fcfcfc" d="M -0.5,-0.5 C 11.1667,-0.5 22.8333,-0.5 34.5,-0.5C 34.5,27.1667 34.5,54.8333 34.5,82.5C 22.8333,82.5 11.1667,82.5 -0.5,82.5C -0.5,54.8333 -0.5,27.1667 -0.5,-0.5 Z"/></g>
<g><path style="opacity:1" fill="#bdbcae" d="M 30.5,5.5 C 27.5547,4.53248 24.5547,4.36581 21.5,5C 20.9341,5.9947 20.2674,6.82803 19.5,7.5C 18.8333,6.83333 18.1667,6.16667 17.5,5.5C 19.7915,4.10862 22.2915,3.10862 25,2.5C 27.3987,2.61322 29.2321,3.61322 30.5,5.5 Z"/></g>
<g><path style="opacity:1" fill="#dcd9cc" d="M 12.5,2.5 C 14.674,2.74973 16.3406,3.74973 17.5,5.5C 15.2362,4.78138 12.9029,4.44805 10.5,4.5C 10.5572,10.8513 10.8905,17.1846 11.5,23.5C 9.85613,23.7135 8.35613,23.3802 7,22.5C 6.50058,16.8431 6.33391,11.1764 6.5,5.5C 8.24885,4.01489 10.2488,3.01489 12.5,2.5 Z"/></g>
<g><path style="opacity:1" fill="#f7fbe4" d="M 30.5,5.5 C 31.9366,10.8714 31.7699,16.2048 30,21.5C 25.9127,23.9972 21.4127,24.9972 16.5,24.5C 17.3768,18.8372 18.3768,13.1705 19.5,7.5C 20.2674,6.82803 20.9341,5.9947 21.5,5C 24.5547,4.36581 27.5547,4.53248 30.5,5.5 Z"/></g>
<g><path style="opacity:1" fill="#d1ccb7" d="M 6.5,5.5 C 6.33391,11.1764 6.50058,16.8431 7,22.5C 8.35613,23.3802 9.85613,23.7135 11.5,23.5C 11.5,23.8333 11.5,24.1667 11.5,24.5C 7.24875,25.2696 4.74875,23.6029 4,19.5C 3.33333,15.5 3.33333,11.5 4,7.5C 4.7083,6.61947 5.54163,5.9528 6.5,5.5 Z"/></g>
<g><path style="opacity:1" fill="#f3f1eb" d="M 17.5,5.5 C 18.1667,6.16667 18.8333,6.83333 19.5,7.5C 18.3768,13.1705 17.3768,18.8372 16.5,24.5C 15.5,24.5 14.5,24.5 13.5,24.5C 12.8333,24.5 12.1667,24.5 11.5,24.5C 11.5,24.1667 11.5,23.8333 11.5,23.5C 10.8905,17.1846 10.5572,10.8513 10.5,4.5C 12.9029,4.44805 15.2362,4.78138 17.5,5.5 Z"/></g>
<g><path style="opacity:1" fill="#bab39c" d="M 30.5,5.5 C 32.548,7.45644 33.548,9.95644 33.5,13C 30.3817,24.9798 28.715,37.1464 28.5,49.5C 28.1667,49.5 27.8333,49.5 27.5,49.5C 27.5,45.1667 27.5,40.8333 27.5,36.5C 28.4492,33.7925 28.4492,31.1258 27.5,28.5C 22.9342,27.1837 18.2675,26.517 13.5,26.5C 13.5,26.1667 13.5,25.8333 13.5,25.5C 13.5,25.1667 13.5,24.8333 13.5,24.5C 14.5,24.5 15.5,24.5 16.5,24.5C 21.4127,24.9972 25.9127,23.9972 30,21.5C 31.7699,16.2048 31.9366,10.8714 30.5,5.5 Z"/></g>
<g><path style="opacity:1" fill="#a09b89" d="M 12.5,2.5 C 10.2488,3.01489 8.24885,4.01489 6.5,5.5C 5.54163,5.9528 4.7083,6.61947 4,7.5C 3.33333,11.5 3.33333,15.5 4,19.5C 4.74875,23.6029 7.24875,25.2696 11.5,24.5C 12.1667,24.5 12.8333,24.5 13.5,24.5C 13.5,24.8333 13.5,25.1667 13.5,25.5C 11.1667,25.5 8.83333,25.5 6.5,25.5C 6.80155,28.0593 6.46822,30.3926 5.5,32.5C 5.54094,27.2385 4.37427,22.2385 2,17.5C -0.336299,8.1252 3.1637,3.1252 12.5,2.5 Z"/></g>
<g><path style="opacity:1" fill="#fde088" d="M 13.5,26.5 C 18.2675,26.517 22.9342,27.1837 27.5,28.5C 28.4492,31.1258 28.4492,33.7925 27.5,36.5C 27.1667,36.5 26.8333,36.5 26.5,36.5C 23.3656,37.1076 22.6989,38.7742 24.5,41.5C 24.2175,46.9265 24.5509,52.2599 25.5,57.5C 25.1667,58.8333 24.8333,60.1667 24.5,61.5C 23.8333,61.8333 23.1667,62.1667 22.5,62.5C 21.8333,62.1667 21.1667,61.8333 20.5,61.5C 21.1845,53.8638 21.0179,46.1971 20,38.5C 19.5576,34.7496 17.7243,33.7496 14.5,35.5C 14.719,34.325 14.3857,33.325 13.5,32.5C 11.8726,34.7654 10.5392,37.0987 9.5,39.5C 8.94119,35.1474 8.27453,30.814 7.5,26.5C 9.5,26.5 11.5,26.5 13.5,26.5 Z"/></g>
<g><path style="opacity:1" fill="#a19b8b" d="M 5.5,32.5 C 5.87568,37.2732 4.87568,41.6066 2.5,45.5C 3.37303,41.0166 4.37303,36.6832 5.5,32.5 Z"/></g>
<g><path style="opacity:1" fill="#fff6d0" d="M 26.5,36.5 C 26.6661,42.1764 26.4994,47.8431 26,53.5C 25.8238,49.3123 25.3238,45.3123 24.5,41.5C 22.6989,38.7742 23.3656,37.1076 26.5,36.5 Z"/></g>
<g><path style="opacity:1" fill="#a59c85" d="M 13.5,40.5 C 13.5979,42.5529 12.9313,44.2196 11.5,45.5C 11.4021,43.4471 12.0687,41.7804 13.5,40.5 Z"/></g>
<g><path style="opacity:1" fill="#fdeec2" d="M 14.5,35.5 C 10.6777,42.1041 7.51107,49.1041 5,56.5C 4.33333,54.8333 4.33333,53.1667 5,51.5C 6.79134,47.5885 8.29134,43.5885 9.5,39.5C 10.5392,37.0987 11.8726,34.7654 13.5,32.5C 14.3857,33.325 14.719,34.325 14.5,35.5 Z"/></g>
<g><path style="opacity:1" fill="#b6ac91" d="M 20.5,61.5 C 19.8333,61.8333 19.1667,62.1667 18.5,62.5C 19.5644,54.8689 19.7311,47.2022 19,39.5C 18.1042,34.714 16.6042,34.3807 14.5,38.5C 14.5,37.5 14.5,36.5 14.5,35.5C 17.7243,33.7496 19.5576,34.7496 20,38.5C 21.0179,46.1971 21.1845,53.8638 20.5,61.5 Z"/></g>
<g><path style="opacity:1" fill="#fbe59e" d="M 26.5,36.5 C 26.8333,36.5 27.1667,36.5 27.5,36.5C 27.5,40.8333 27.5,45.1667 27.5,49.5C 27.4249,52.2062 27.0916,54.8728 26.5,57.5C 26.1667,57.5 25.8333,57.5 25.5,57.5C 24.5509,52.2599 24.2175,46.9265 24.5,41.5C 25.3238,45.3123 25.8238,49.3123 26,53.5C 26.4994,47.8431 26.6661,42.1764 26.5,36.5 Z"/></g>
<g><path style="opacity:1" fill="#e2b56e" d="M 13.5,25.5 C 13.5,25.8333 13.5,26.1667 13.5,26.5C 11.5,26.5 9.5,26.5 7.5,26.5C 8.27453,30.814 8.94119,35.1474 9.5,39.5C 8.29134,43.5885 6.79134,47.5885 5,51.5C 4.33333,53.1667 4.33333,54.8333 5,56.5C 7.51107,49.1041 10.6777,42.1041 14.5,35.5C 14.5,36.5 14.5,37.5 14.5,38.5C 13.6618,38.8417 13.3284,39.5084 13.5,40.5C 12.0687,41.7804 11.4021,43.4471 11.5,45.5C 10.0687,46.7804 9.40206,48.4471 9.5,50.5C 7.59468,54.2157 6.26135,58.2157 5.5,62.5C 4.77842,62.9175 4.27842,63.5842 4,64.5C 3.23029,63.4019 2.39695,63.4019 1.5,64.5C 1.34698,58.1308 1.68031,51.7974 2.5,45.5C 4.87568,41.6066 5.87568,37.2732 5.5,32.5C 6.46822,30.3926 6.80155,28.0593 6.5,25.5C 8.83333,25.5 11.1667,25.5 13.5,25.5 Z"/></g>
<g><path style="opacity:1" fill="#c3beb3" d="M 27.5,49.5 C 27.8333,49.5 28.1667,49.5 28.5,49.5C 28.6633,51.8568 28.4966,54.1902 28,56.5C 27.6174,57.056 27.1174,57.3893 26.5,57.5C 27.0916,54.8728 27.4249,52.2062 27.5,49.5 Z"/></g>
<g><path style="opacity:1" fill="#9b8e75" d="M 2.5,45.5 C 1.68031,51.7974 1.34698,58.1308 1.5,64.5C 0.83588,62.0221 0.502547,59.3555 0.5,56.5C 0.294157,52.5313 0.960823,48.8646 2.5,45.5 Z"/></g>
<g><path style="opacity:1" fill="#c0b9aa" d="M 9.5,50.5 C 9.14962,55.5395 7.81629,60.2062 5.5,64.5C 5.5,63.8333 5.5,63.1667 5.5,62.5C 6.26135,58.2157 7.59468,54.2157 9.5,50.5 Z"/></g>
<g><path style="opacity:1" fill="#a9a38e" d="M 24.5,61.5 C 24.573,63.0269 23.9063,64.0269 22.5,64.5C 22.5,63.8333 22.5,63.1667 22.5,62.5C 23.1667,62.1667 23.8333,61.8333 24.5,61.5 Z"/></g>
<g><path style="opacity:1" fill="#ba9c73" d="M 5.5,62.5 C 5.5,63.1667 5.5,63.8333 5.5,64.5C 4.95218,66.5323 3.61885,67.5323 1.5,67.5C 1.5,66.5 1.5,65.5 1.5,64.5C 2.39695,63.4019 3.23029,63.4019 4,64.5C 4.27842,63.5842 4.77842,62.9175 5.5,62.5 Z"/></g>
<g><path style="opacity:1" fill="#a69f8e" d="M 18.5,62.5 C 17.0563,68.3163 18.3896,68.983 22.5,64.5C 18.3896,68.983 17.0563,68.3163 18.5,62.5 Z"/></g>
<g><path style="opacity:1" fill="#e8be73" d="M 20.5,61.5 C 21.1667,61.8333 21.8333,62.1667 22.5,62.5C 22.5,63.1667 22.5,63.8333 22.5,64.5C 18.3896,68.983 17.0563,68.3163 18.5,62.5C 19.1667,62.1667 19.8333,61.8333 20.5,61.5 Z"/></g>
</svg>
