<?xml version="1.0" encoding="UTF-8"?>
<svg version="1.1" xmlns="http://www.w3.org/2000/svg" width="30" height="90">
<path d="M0 0 C9.9 0 19.8 0 30 0 C30 29.7 30 59.4 30 90 C20.1 90 10.2 90 0 90 C0 60.3 0 30.6 0 0 Z " fill="#FEFEFE" transform="translate(0,0)"/>
<path d="M0 0 C0.12584938 6.54416761 0.12584938 6.54416761 -0.49609375 8.796875 C-2.63031401 18.12788449 -2.01078013 31.96765962 1 41 C1.14328384 42.82962436 1.22040343 44.66501237 1.25 46.5 C1.27578125 47.4590625 1.3015625 48.418125 1.328125 49.40625 C1 52 1 52 -0.3515625 53.80078125 C-4.41079196 56.75382259 -10.20363515 56.16338895 -15.046875 56.328125 C-15.69140625 56.21984375 -16.3359375 56.1115625 -17 56 C-17.66 55.01 -18.32 54.02 -19 53 C-18.236875 53.0825 -17.47375 53.165 -16.6875 53.25 C-13.93726875 53.28602868 -13.93726875 53.28602868 -12.40625 51.375 C-10.69339972 48.48218619 -10.28166289 46.07022971 -9.8125 42.75 C-9.65394531 41.67234375 -9.49539063 40.5946875 -9.33203125 39.484375 C-9.22246094 38.66453125 -9.11289063 37.8446875 -9 37 C-13.455 37.495 -13.455 37.495 -18 38 C-16.61301072 25.72410977 -13.64801447 12.59527306 -7 2 C-4.4202451 0.52585434 -2.93379693 0 0 0 Z " fill="#B7B38C" transform="translate(25,21)"/>
<path d="M0 0 C0.33 0 0.66 0 1 0 C1.12584938 6.54416761 1.12584938 6.54416761 0.50390625 8.796875 C-1.63031401 18.12788449 -1.01078013 31.96765962 2 41 C2.0685495 42.89470816 2.08480372 44.7916834 2.0625 46.6875 C2.05347656 47.68136719 2.04445313 48.67523438 2.03515625 49.69921875 C2.02355469 50.45847656 2.01195312 51.21773437 2 52 C0.68 52.66 -0.64 53.32 -2 54 C-1.67 53.34 -1.34 52.68 -1 52 C-0.68341615 47.26055347 -0.80889653 42.61552596 -2 38 C-3.65 37.67 -5.3 37.34 -7 37 C-7.51789511 23.17028243 -7.51789511 23.17028243 -5.5625 19.25 C-3.72891964 15.43615285 -3.51981954 12.3164291 -3.30859375 8.13671875 C-3 6 -3 6 -1 4 C-0.3574765 1.93125966 -0.3574765 1.93125966 0 0 Z " fill="#9D9D9A" transform="translate(24,21)"/>
<path d="M0 0 C1.98 0 3.96 0 6 0 C8.42351711 5.90732295 9.02929235 11.91212295 7 18 C3.41534863 18.7353131 -0.09839164 19.13201588 -3.75 19.25 C-4.50796875 19.27578125 -5.2659375 19.3015625 -6.046875 19.328125 C-6.69140625 19.21984375 -7.3359375 19.1115625 -8 19 C-8.66 18.01 -9.32 17.02 -10 16 C-9.236875 16.0825 -8.47375 16.165 -7.6875 16.25 C-4.93726875 16.28602868 -4.93726875 16.28602868 -3.40625 14.375 C-1.69339972 11.48218619 -1.28166289 9.07022971 -0.8125 5.75 C-0.65394531 4.67234375 -0.49539063 3.5946875 -0.33203125 2.484375 C-0.22246094 1.66453125 -0.11289063 0.8446875 0 0 Z " fill="#BEBEBD" transform="translate(16,58)"/>
<path d="M0 0 C0.34889612 5.81493527 0.22411698 9.91581554 -3 15 C-5 17 -5 17 -8.0625 17.1875 C-11 17 -11 17 -12 16 C-12.44894269 11.33790284 -12.55852572 7.2439891 -10.625 2.9375 C-7.53035311 -0.7522713 -4.59455474 -0.08508435 0 0 Z " fill="#E3E3E0" transform="translate(16,58)"/>
<path d="M0 0 C0 3.46262296 -0.83187812 6.01181871 -1.875 9.3125 C-2.22304688 10.42238281 -2.57109375 11.53226563 -2.9296875 12.67578125 C-3.62048218 14.8212786 -4.33992493 16.9578599 -5.09375 19.08203125 C-5.97214095 21.91029868 -6.38628283 24.43082153 -6.625 27.375 C-6.69976563 28.24898437 -6.77453125 29.12296875 -6.8515625 30.0234375 C-6.90054687 30.67570312 -6.94953125 31.32796875 -7 32 C-9.475 32.495 -9.475 32.495 -12 33 C-12.23681014 27.11921497 -11.58591217 22.44715448 -9.75 16.875 C-9.54503906 16.19824219 -9.34007812 15.52148438 -9.12890625 14.82421875 C-7.28829295 9.05696373 -4.55750618 4.10175556 0 0 Z " fill="#DBD79F" transform="translate(22,24)"/>
<path d="M0 0 C0.33 0 0.66 0 1 0 C1.12531598 6.51643074 1.12531598 6.51643074 0.51586914 8.86816406 C-0.13368412 11.55245138 -0.2178448 14.09965432 -0.31640625 16.859375 C-0.35830078 17.97441406 -0.40019531 19.08945312 -0.44335938 20.23828125 C-0.50233398 21.97658203 -0.50233398 21.97658203 -0.5625 23.75 C-0.60568359 24.92433594 -0.64886719 26.09867188 -0.69335938 27.30859375 C-0.79934794 30.20561451 -0.90141638 33.10271935 -1 36 C-1.99 36 -2.98 36 -4 36 C-4.255152 14.17032904 -4.255152 14.17032904 -3 6 C-2.34 5.34 -1.68 4.68 -1 4 C-0.3574765 1.93125966 -0.3574765 1.93125966 0 0 Z " fill="#838069" transform="translate(24,21)"/>
<path d="M0 0 C1.19799449 4.14659373 0.8896192 7.99369047 0.5625 12.25 C0.48418945 13.36761719 0.48418945 13.36761719 0.40429688 14.5078125 C0.2751783 16.33894861 0.13834886 18.16953813 0 20 C-0.99 20.33 -1.98 20.66 -3 21 C-3.55353075 6.21867882 -3.55353075 6.21867882 0 0 Z " fill="#A39F81" transform="translate(20,37)"/>
<path d="M0 0 C0.33 0 0.66 0 1 0 C1.625 2.875 1.625 2.875 2 6 C-0.42522207 8.42522207 -1.1720679 8.29629254 -4.5 8.3125 C-5.2940625 8.32925781 -6.088125 8.34601563 -6.90625 8.36328125 C-7.5971875 8.24339844 -8.288125 8.12351562 -9 8 C-9.66 7.01 -10.32 6.02 -11 5 C-9.9275 5.103125 -8.855 5.20625 -7.75 5.3125 C-3.85923262 5.40696795 -3.85923262 5.40696795 -1.625 2.5 C-1.08875 1.675 -0.5525 0.85 0 0 Z " fill="#9F9F9E" transform="translate(17,69)"/>
<path d="M0 0 C0.33 0 0.66 0 1 0 C2.86783046 5.48675196 3.2358396 10.22192976 3 16 C2.34 14.68 1.68 13.36 1 12 C-0.32 13.65 -1.64 15.3 -3 17 C-3.66 16.67 -4.32 16.34 -5 16 C-4.52949219 15.46890625 -4.05898437 14.9378125 -3.57421875 14.390625 C-1.6598427 11.48343358 -1.29754261 9.18260923 -0.8125 5.75 C-0.65394531 4.67234375 -0.49539062 3.5946875 -0.33203125 2.484375 C-0.22246094 1.66453125 -0.11289063 0.8446875 0 0 Z " fill="#BAB9B8" transform="translate(16,58)"/>
<path d="M0 0 C0 3.51724415 -0.84564449 6.20018912 -1.875 9.5625 C-2.22304688 10.71878906 -2.57109375 11.87507813 -2.9296875 13.06640625 C-4 16 -4 16 -6 18 C-5.73958333 16.01432292 -5.47916667 14.02864583 -5.21875 12.04296875 C-4.946767 9.84528294 -4.946767 9.84528294 -5 7 C-3.80653848 4.06224856 -2.33936818 2.12669835 0 0 Z " fill="#D1CD98" transform="translate(22,24)"/>
<path d="M0 0 C0.33 0 0.66 0 1 0 C1.29090909 7.56363636 1.29090909 7.56363636 -1 11 C-1.66 11.66 -2.32 12.32 -3 13 C-3.125 9.625 -3.125 9.625 -3 6 C-2.34 5.34 -1.68 4.68 -1 4 C-0.3574765 1.93125966 -0.3574765 1.93125966 0 0 Z " fill="#949177" transform="translate(24,21)"/>
<path d="M0 0 C0.66 0 1.32 0 2 0 C2.74926071 3.66305234 3.2380014 6.42355152 2 10 C1.34 10 0.68 10 0 10 C0 6.7 0 3.4 0 0 Z " fill="#DFDEDC" transform="translate(19,64)"/>
<path d="M0 0 C0.33 0 0.66 0 1 0 C1.07427838 3.34252724 1.06546953 5.8035914 0 9 C-1.65 9 -3.3 9 -5 9 C-4.67 8.34 -4.34 7.68 -4 7 C-3.34 7 -2.68 7 -2 7 C-1.34 4.69 -0.68 2.38 0 0 Z " fill="#C4C4C3" transform="translate(23,67)"/>
<path d="M0 0 C0.33 0 0.66 0 1 0 C1.33 2.64 1.66 5.28 2 8 C1.01 8 0.02 8 -1 8 C-1.04241723 5.66705225 -1.04092937 3.33297433 -1 1 C-0.67 0.67 -0.34 0.34 0 0 Z " fill="#767361" transform="translate(21,49)"/>
</svg>
