<?xml version="1.0" encoding="UTF-8"?>
<svg version="1.1" xmlns="http://www.w3.org/2000/svg" width="30" height="90">
<path d="M0 0 C9.9 0 19.8 0 30 0 C30 29.7 30 59.4 30 90 C20.1 90 10.2 90 0 90 C0 60.3 0 30.6 0 0 Z " fill="#FDFDFD" transform="translate(0,0)"/>
<path d="M0 0 C-0.46203444 3.04942731 -1.14993202 5.30425756 -2.5246582 8.09399414 C-4.45230803 12.5284512 -4.38106183 16.6612404 -4.29296875 21.43359375 C-4.28660149 22.7504995 -4.28660149 22.7504995 -4.28010559 24.0940094 C-4.2634229 26.8754958 -4.22579085 29.65623564 -4.1875 32.4375 C-4.17243968 34.33267177 -4.15875364 36.22785498 -4.14648438 38.12304688 C-4.1135536 42.74898197 -4.06184428 47.37436477 -4 52 C-4.75023438 51.84015625 -5.50046875 51.6803125 -6.2734375 51.515625 C-12.19404895 50.35720124 -12.19404895 50.35720124 -17.75 52.0625 C-19.58108765 54.90068586 -20.75566333 57.85953127 -22 61 C-23.3046706 57.02469496 -22.23223468 54.86263865 -20.81640625 50.99609375 C-19.77048556 47.15771495 -19.46961425 43.39116528 -19.125 39.4375 C-18.19240275 29.61407415 -13.50700692 0 0 0 Z " fill="#C1BD91" transform="translate(28,3)"/>
<path d="M0 0 C0.33 0 0.66 0 1 0 C1.04898437 1.19496094 1.09796875 2.38992187 1.1484375 3.62109375 C1.51390261 11.65288589 2.04428515 19.17714058 4 27 C4.5625 30.0625 4.5625 30.0625 4 33 C1.53574217 36.47441052 -1.13949167 40.06974584 -5 42 C-10.76943332 42.57694333 -15.35526708 41.45952521 -20 38 C-21.8361837 35.14435784 -22.00259526 34.07136953 -21.875 30.5625 C-20.91229873 26.64293055 -19.61814477 25.00316606 -17 22 C-16.46375 20.9275 -15.9275 19.855 -15.375 18.75 C-14 16 -14 16 -12 15 C-8.00758088 14.85213263 -4.8978737 15.02553158 -1 16 C-0.67 10.72 -0.34 5.44 0 0 Z " fill="#F2F1F0" transform="translate(24,38)"/>
<path d="M0 0 C-0.46203444 3.04942731 -1.14993202 5.30425756 -2.5246582 8.09399414 C-4.45230803 12.5284512 -4.38106183 16.6612404 -4.29296875 21.43359375 C-4.28660149 22.7504995 -4.28660149 22.7504995 -4.28010559 24.0940094 C-4.2634229 26.8754958 -4.22579085 29.65623564 -4.1875 32.4375 C-4.17243968 34.33267177 -4.15875364 36.22785498 -4.14648438 38.12304688 C-4.1135536 42.74898197 -4.06184428 47.37436477 -4 52 C-4.75023438 51.84015625 -5.50046875 51.6803125 -6.2734375 51.515625 C-12.19404895 50.35720124 -12.19404895 50.35720124 -17.75 52.0625 C-19.58108765 54.90068586 -20.75566333 57.85953127 -22 61 C-23.06966012 57.78384072 -22.93622227 56.12476474 -21.6875 53 C-19.67070512 47.45843976 -18.8369257 41.81909513 -18 36 C-16 38 -16 38 -15.8046875 40.3828125 C-15.83949219 41.74019531 -15.83949219 41.74019531 -15.875 43.125 C-15.89304687 44.03507812 -15.91109375 44.94515625 -15.9296875 45.8828125 C-15.95289063 46.58148438 -15.97609375 47.28015625 -16 48 C-13.36 47.67 -10.72 47.34 -8 47 C-7.98541748 46.08299316 -7.97083496 45.16598633 -7.95581055 44.22119141 C-7.89424129 40.77287775 -7.81999915 37.32529547 -7.73754883 33.87744141 C-7.70458303 32.39381957 -7.67646583 30.91008085 -7.65356445 29.42626953 C-7.51878034 20.9205314 -7.16530038 13.02756365 -4 5 C-8.95541812 10.92272335 -11.69635352 16.62833127 -14 24 C-14.33 24 -14.66 24 -15 24 C-14.67603767 15.2530171 -10.7650051 8.6412461 -4.75 2.375 C-2 0 -2 0 0 0 Z " fill="#928F72" transform="translate(28,3)"/>
<path d="M0 0 C0.33 0 0.66 0 1 0 C1.04898437 1.19496094 1.09796875 2.38992187 1.1484375 3.62109375 C1.51390261 11.65288589 2.04428515 19.17714058 4 27 C4.53656414 30.3535259 4.61547301 32.07112663 2.7265625 34.921875 C1.22768158 36.74977856 -0.22109962 38.44231003 -2 40 C-2.66 40 -3.32 40 -4 40 C-3.75830078 39.17628906 -3.75830078 39.17628906 -3.51171875 38.3359375 C-2.10634845 31.92058299 -2.38815081 25.03990125 -5 19 C-9.64586892 19.48484276 -9.64586892 19.48484276 -14 21 C-14 19.35 -14 17.7 -14 16 C-9.87198412 13.93599206 -5.31367645 14.92158089 -1 16 C-0.67 10.72 -0.34 5.44 0 0 Z " fill="#C3C3C2" transform="translate(24,38)"/>
<path d="M0 0 C0.33 0 0.66 0 1 0 C1.02718316 2.85423192 1.04692705 5.70820015 1.0625 8.5625 C1.07087891 9.36236328 1.07925781 10.16222656 1.08789062 10.98632812 C1.13882424 23.46506299 1.13882424 23.46506299 -1.4375 26.9375 C-3 28 -3 28 -5 28 C-5.41643775 18.43735539 -5.48946971 8.23420456 0 0 Z " fill="#D3CF9A" transform="translate(19,22)"/>
<path d="M0 0 C0.66 0 1.32 0 2 0 C1.58023153 5.07036124 0.93864853 9.27454421 -1 14 C-1.4506838 16.66404202 -1.72636391 19.30924507 -2 22 C-5 21 -5 21 -6.25 19.375 C-7.34514459 15.90704214 -6.86200121 13.50957635 -6 10 C-4.0625 7.375 -4.0625 7.375 -2 5 C-0.75983331 2.3205355 -0.75983331 2.3205355 0 0 Z " fill="#E9E9E7" transform="translate(9,55)"/>
<path d="M0 0 C2 2 2 2 2.1953125 4.3828125 C2.17210937 5.28773437 2.14890625 6.19265625 2.125 7.125 C2.10695313 8.03507812 2.08890625 8.94515625 2.0703125 9.8828125 C2.04710937 10.58148438 2.02390625 11.28015625 2 12 C4.31 12 6.62 12 9 12 C9 12.66 9 13.32 9 14 C8.39671875 14.03996094 7.7934375 14.07992187 7.171875 14.12109375 C4.52086841 14.46743493 2.43672572 14.88019661 0 16 C-1.96124356 18.81574862 -3.03516767 21.72091949 -4 25 C-5.06966012 21.78384072 -4.93622227 20.12476474 -3.6875 17 C-1.67070512 11.45843976 -0.8369257 5.81909513 0 0 Z " fill="#A4A187" transform="translate(10,39)"/>
<path d="M0 0 C1.51309486 3.02618972 0.48923484 5.18704091 -0.25 8.4375 C-0.50265625 9.59121094 -0.7553125 10.74492187 -1.015625 11.93359375 C-2.01463997 15.04560468 -2.75306927 15.83096287 -5 18 C-5.78798055 20.49443774 -5.78798055 20.49443774 -6.1875 23.1875 C-6.34605469 24.08855469 -6.50460938 24.98960938 -6.66796875 25.91796875 C-6.77753906 26.60503906 -6.88710937 27.29210937 -7 28 C-9 26 -9 26 -9.046875 23.7578125 C-8.94890625 22.88898437 -8.8509375 22.02015625 -8.75 21.125 C-8.66234375 20.26132812 -8.5746875 19.39765625 -8.484375 18.5078125 C-7.98940391 15.94513959 -7.2604537 14.27224647 -6 12 C-5.50242187 11.00484375 -5.00484375 10.0096875 -4.4921875 8.984375 C-2.99479167 5.98958333 -1.49739583 2.99479167 0 0 Z " fill="#B2AE8F" transform="translate(19,13)"/>
<path d="M0 0 C-0.66498383 4.38889325 -2.18757677 7.9811485 -4 12 C-4.66 11.67 -5.32 11.34 -6 11 C-5.34 9.02 -4.68 7.04 -4 5 C-9.02549351 10.84632412 -11.70823551 16.66635363 -14 24 C-14.33 24 -14.66 24 -15 24 C-14.67603767 15.2530171 -10.7650051 8.6412461 -4.75 2.375 C-2 0 -2 0 0 0 Z " fill="#949077" transform="translate(28,3)"/>
<path d="M0 0 C0.33 0 0.66 0 1 0 C1.02725341 1.7290774 1.04650987 3.45828176 1.0625 5.1875 C1.07410156 6.15042969 1.08570313 7.11335938 1.09765625 8.10546875 C1.00393905 10.88324644 0.75532296 13.32549165 0 16 C-2.98594424 17.49297212 -5.70853624 17.11755228 -9 17 C-9.66 16.67 -10.32 16.34 -11 16 C-11 15.34 -11 14.68 -11 14 C-8.36 13.67 -5.72 13.34 -3 13 C-2.67 11.68 -2.34 10.36 -2 9 C-1.34 9 -0.68 9 0 9 C0 6.03 0 3.06 0 0 Z " fill="#E0DFDE" transform="translate(21,63)"/>
<path d="M0 0 C0.33 0 0.66 0 1 0 C1.33 7.92 1.66 15.84 2 24 C1.34 22.68 0.68 21.36 0 20 C-0.66 20.33 -1.32 20.66 -2 21 C-2.66 19.35 -3.32 17.7 -4 16 C-3.01 16 -2.02 16 -1 16 C-0.67 10.72 -0.34 5.44 0 0 Z " fill="#BFBEBA" transform="translate(24,38)"/>
<path d="M0 0 C0.66 0.66 1.32 1.32 2 2 C1.625 4.625 1.625 4.625 1 7 C1.66 7 2.32 7 3 7 C3 9.31 3 11.62 3 14 C-0 13 -0 13 -1.25 11.375 C-2.47613924 7.49222575 -1.80994971 3.61989943 0 0 Z " fill="#D6D6D4" transform="translate(4,63)"/>
<path d="M0 0 C0.66 0 1.32 0 2 0 C1.33501617 4.38889325 -0.18757677 7.9811485 -2 12 C-2.66 11.67 -3.32 11.34 -4 11 C-3.505 9.6078125 -3.505 9.6078125 -3 8.1875 C-1.85032996 5.07970709 -1.85032996 5.07970709 -2 2 C-1.34 1.34 -0.68 0.68 0 0 Z " fill="#9B987C" transform="translate(26,3)"/>
<path d="M0 0 C0.99 0.33 1.98 0.66 3 1 C2.67 4.63 2.34 8.26 2 12 C1.67 12 1.34 12 1 12 C0.01751476 7.9472484 -0.08159574 4.16138263 0 0 Z " fill="#DDDEDD" transform="translate(24,59)"/>
</svg>
