<?xml version="1.0" encoding="UTF-8"?>
<svg version="1.1" xmlns="http://www.w3.org/2000/svg" width="30" height="90">
<path d="M0 0 C9.9 0 19.8 0 30 0 C30 29.7 30 59.4 30 90 C20.1 90 10.2 90 0 90 C0 60.3 0 30.6 0 0 Z " fill="#FDFDFD" transform="translate(0,0)"/>
<path d="M0 0 C0.66 0 1.32 0 2 0 C3.62898766 9.06636683 4.28995315 17.86251976 4.4375 27.0625 C4.64267463 35.83904087 5.11874173 44.34727948 6.625 53 C9.65361848 70.53578984 9.65361848 70.53578984 5.91796875 76.8203125 C2.91911472 78.66482149 -0.15484388 78.39309735 -3.5625 78.3125 C-4.24763672 78.31572266 -4.93277344 78.31894531 -5.63867188 78.32226562 C-10.73272414 78.26727586 -10.73272414 78.26727586 -13 76 C-14.53124365 65.42635966 -12.04183005 54.95478785 -9.921875 44.64208984 C-8.65448843 38.47432089 -7.57122682 32.38908598 -6.9375 26.125 C-6.18616841 19.33439352 -4.3628604 13.38165985 -2 7 C-1.28743835 4.67625728 -0.63956498 2.34507159 0 0 Z " fill="#F6F5F4" transform="translate(18,9)"/>
<path d="M0 0 C0.66 0 1.32 0 2 0 C3.93024054 10.30104278 4.41254178 20.36331795 4.625 30.8125 C4.66329742 32.39129479 4.70235536 33.97007131 4.7421875 35.54882812 C4.83686651 39.36573237 4.92134621 43.1827333 5 47 C4.54496094 46.35095703 4.08992188 45.70191406 3.62109375 45.03320312 C2.20922547 42.85279781 2.20922547 42.85279781 0.0625 42.46875 C-4.4551861 42.42563187 -4.4551861 42.42563187 -8 45 C-8.33 45.66 -8.66 46.32 -9 47 C-9.13933889 40.95269217 -8.65803119 35.22648576 -7.75 29.25 C-7.61795166 28.37255127 -7.48590332 27.49510254 -7.34985352 26.59106445 C-6.25737439 19.765114 -4.4396702 13.46772143 -2 7 C-1.28661606 4.67652045 -0.63956229 2.34506172 0 0 Z " fill="#9B9979" transform="translate(18,9)"/>
<path d="M0 0 C5.62632197 -0.71445358 5.62632197 -0.71445358 8 0 C14.32985725 8.05891565 14.41653714 20.65309306 13.6171875 30.390625 C13 33 13 33 11.91796875 34.83984375 C8.91374903 36.65706016 5.8383272 36.39293584 2.4375 36.3125 C1.75236328 36.31572266 1.06722656 36.31894531 0.36132812 36.32226562 C-4.73272414 36.26727586 -4.73272414 36.26727586 -7 34 C-8.09168595 23.42340622 -6.27128579 13.28838385 -4 3 C-3.34 3 -2.68 3 -2 3 C-1.34 2.01 -0.68 1.02 0 0 Z M1 1 C-0.16606001 3.09890802 -0.97728101 4.8831595 -1.4375 7.25 C-2 10 -2 10 -3.5625 13.3125 C-6.13841028 19.77728453 -5.22374504 27.17163293 -5 34 C-2.52076199 34.02685095 -0.0418116 34.04676547 2.4375 34.0625 C3.14455078 34.07087891 3.85160156 34.07925781 4.58007812 34.08789062 C6.38693559 34.09653588 8.19387603 34.05220011 10 34 C12.01033194 31.98966806 11.23043059 28.11960986 11.25 25.375 C11.270625 24.67503906 11.29125 23.97507812 11.3125 23.25390625 C11.35697225 17.26127094 9.66810606 13.33621213 7 8 C7.28112064 5.99199544 7.61067967 3.98985949 8 2 C5.69 1.67 3.38 1.34 1 1 Z " fill="#C8C7C5" transform="translate(12,51)"/>
<path d="M0 0 C0.33 0 0.66 0 1 0 C1.08696177 3.93736123 1.14037835 7.87447628 1.1875 11.8125 C1.21263672 12.93205078 1.23777344 14.05160156 1.26367188 15.20507812 C1.27333984 16.27822266 1.28300781 17.35136719 1.29296875 18.45703125 C1.31653442 19.9416687 1.31653442 19.9416687 1.34057617 21.45629883 C1 24 1 24 -0.33081055 25.84643555 C-2 27 -2 27 -5 27 C-6.1482685 24.703463 -6.11561175 23.41686833 -6.09765625 20.8671875 C-6.09443359 20.06152344 -6.09121094 19.25585938 -6.08789062 18.42578125 C-6.07951172 17.58402344 -6.07113281 16.74226563 -6.0625 15.875 C-6.05798828 15.02550781 -6.05347656 14.17601562 -6.04882812 13.30078125 C-6.03702874 11.20049091 -6.01909306 9.1002367 -6 7 C-5.36578125 6.72414063 -4.7315625 6.44828125 -4.078125 6.1640625 C-1.30455568 4.6104466 -0.93392216 2.95742018 0 0 Z " fill="#C6C28E" transform="translate(18,21)"/>
<path d="M0 0 C0.66 0 1.32 0 2 0 C2.77328928 5.35314059 3.07577393 10.35645184 2.87890625 15.78125 C2.85529526 16.48020386 2.83168427 17.17915771 2.80735779 17.89929199 C2.7316769 20.0997858 2.6472516 22.29983885 2.5625 24.5 C2.50918316 26.00518781 2.4564437 27.5103962 2.40429688 29.015625 C2.27619434 32.67734463 2.14025565 36.33872338 2 40 C-0.64 40 -3.28 40 -6 40 C-5.67 39.01 -5.34 38.02 -5 37 C-5 37.66 -5 38.32 -5 39 C-2.31637857 38.31364934 -2.31637857 38.31364934 0 36 C0.66662907 32.2676661 0.46697786 28.58888951 0.3125 24.8125 C0.28994141 23.77673828 0.26738281 22.74097656 0.24414062 21.67382812 C0.18516846 19.11443596 0.10292567 16.55794049 0 14 C-1.80066242 16.9465385 -3.50163895 19.88801935 -5 23 C-3.33333333 3.33333333 -3.33333333 3.33333333 0 0 Z " fill="#B8B486" transform="translate(18,9)"/>
<path d="M0 0 C2.31 0.33 4.62 0.66 7 1 C6.67 3.64 6.34 6.28 6 9 C4.906875 9.0825 3.81375 9.165 2.6875 9.25 C-1.03276664 9.63689209 -1.03276664 9.63689209 -2.9375 12.0625 C-3.288125 12.701875 -3.63875 13.34125 -4 14 C-3.66666667 12.33333333 -3.33333333 10.66666667 -3 9 C-2.855625 8.154375 -2.71125 7.30875 -2.5625 6.4375 C-2.00704803 4.03054145 -1.19518145 2.15132661 0 0 Z " fill="#EAE8E7" transform="translate(13,52)"/>
<path d="M0 0 C0.66 0 1.32 0 2 0 C2 5.28 2 10.56 2 16 C3.98 16.33 5.96 16.66 8 17 C8 17.33 8 17.66 8 18 C6.906875 18.0825 5.81375 18.165 4.6875 18.25 C0.96723336 18.63689209 0.96723336 18.63689209 -0.9375 21.0625 C-1.288125 21.701875 -1.63875 22.34125 -2 23 C-2.31732638 15.22550376 -1.11855299 7.67007765 0 0 Z " fill="#9B987F" transform="translate(11,33)"/>
<path d="M0 0 C0.66 0 1.32 0 2 0 C2.125 3.375 2.125 3.375 2 7 C1.34 7.66 0.68 8.32 0 9 C-0.78016724 11.37466964 -1.48059545 13.71444963 -2.125 16.125 C-2.30675781 16.78371094 -2.48851562 17.44242188 -2.67578125 18.12109375 C-3.12315437 19.74576456 -3.56236535 21.37267893 -4 23 C-4.33 23 -4.66 23 -5 23 C-3.33333333 3.33333333 -3.33333333 3.33333333 0 0 Z " fill="#9A9672" transform="translate(18,9)"/>
<path d="M0 0 C2.64 0 5.28 0 8 0 C10.25433614 5.56069582 10.59961828 11.0785651 11 17 C8.99840042 13.99760063 7.31906894 11.36362581 6 8 C6.8125 4.625 6.8125 4.625 8 2 C3.34947128 1.73067479 3.34947128 1.73067479 -1 3 C-0.67 2.01 -0.34 1.02 0 0 Z " fill="#D4D2D2" transform="translate(12,51)"/>
<path d="M0 0 C0.66 0 1.32 0 2 0 C2.33 5.28 2.66 10.56 3 16 C1.68 14.35 0.36 12.7 -1 11 C-4.13863704 10.11406002 -4.13863704 10.11406002 -7 10 C-7 9.67 -7 9.34 -7 9 C-4.69 9 -2.38 9 0 9 C0 6.03 0 3.06 0 0 Z " fill="#8D8A6E" transform="translate(20,40)"/>
</svg>
