<?xml version="1.0" encoding="UTF-8"?>
<!DOCTYPE svg PUBLIC "-//W3C//DTD SVG 1.1//EN" "http://www.w3.org/Graphics/SVG/1.1/DTD/svg11.dtd">
<svg xmlns="http://www.w3.org/2000/svg" version="1.1" width="30" height="90" style="shape-rendering:geometricPrecision; text-rendering:geometricPrecision; image-rendering:optimizeQuality; fill-rule:evenodd; clip-rule:evenodd" xmlns:xlink="http://www.w3.org/1999/xlink">
<g><path style="opacity:1" fill="#fdfdfd" d="M -0.5,-0.5 C 8.83333,-0.5 18.1667,-0.5 27.5,-0.5C 27.5,28.8333 27.5,58.1667 27.5,87.5C 18.1667,87.5 8.83333,87.5 -0.5,87.5C -0.5,58.1667 -0.5,28.8333 -0.5,-0.5 Z"/></g>
<g><path style="opacity:1" fill="#aca99d" d="M 16.5,10.5 C 17.209,9.59603 18.209,9.26269 19.5,9.5C 19.8016,12.0593 19.4682,14.3926 18.5,16.5C 18.9746,13.9179 18.3079,11.9179 16.5,10.5 Z"/></g>
<g><path style="opacity:1" fill="#9f9988" d="M 14.5,13.5 C 14.5,14.5 14.5,15.5 14.5,16.5C 13.8333,17.1667 13.1667,17.8333 12.5,18.5C 12.4021,16.4471 13.0687,14.7804 14.5,13.5 Z"/></g>
<g><path style="opacity:1" fill="#c8a672" d="M 16.5,10.5 C 18.3079,11.9179 18.9746,13.9179 18.5,16.5C 18.5,28.1667 18.5,39.8333 18.5,51.5C 17.8917,41.2281 16.8917,30.8948 15.5,20.5C 15.7678,18.901 15.4345,17.5676 14.5,16.5C 14.5,15.5 14.5,14.5 14.5,13.5C 14.427,11.9731 15.0937,10.9731 16.5,10.5 Z"/></g>
<g><path style="opacity:1" fill="#a9a18c" d="M 11.5,22.5 C 10.9492,25.8067 10.6159,29.1401 10.5,32.5C 9.83333,33.8333 9.16667,35.1667 8.5,36.5C 8.49833,31.4997 9.49833,26.833 11.5,22.5 Z"/></g>
<g><path style="opacity:1" fill="#efd8a2" d="M 14.5,16.5 C 15.4345,17.5676 15.7678,18.901 15.5,20.5C 14.4192,23.6267 13.7526,26.9601 13.5,30.5C 13.1667,30.5 12.8333,30.5 12.5,30.5C 12.5654,30.0618 12.3988,29.7284 12,29.5C 11.7679,30.7375 11.2679,31.7375 10.5,32.5C 10.6159,29.1401 10.9492,25.8067 11.5,22.5C 11.2322,20.901 11.5655,19.5676 12.5,18.5C 13.1667,17.8333 13.8333,17.1667 14.5,16.5 Z"/></g>
<g><path style="opacity:1" fill="#fff3ca" d="M 12.5,30.5 C 11.8742,37.8805 10.8742,45.2138 9.5,52.5C 8.89333,52.3764 8.55999,52.0431 8.5,51.5C 8.5,49.1667 8.5,46.8333 8.5,44.5C 9.98914,40.7643 10.6558,36.7643 10.5,32.5C 11.2679,31.7375 11.7679,30.7375 12,29.5C 12.3988,29.7284 12.5654,30.0618 12.5,30.5 Z"/></g>
<g><path style="opacity:1" fill="#eec375" d="M 15.5,20.5 C 16.8917,30.8948 17.8917,41.2281 18.5,51.5C 18.5,51.8333 18.5,52.1667 18.5,52.5C 18.7148,54.1788 18.0481,55.1788 16.5,55.5C 16.5,55.1667 16.5,54.8333 16.5,54.5C 15.0648,46.5554 14.0648,38.5554 13.5,30.5C 13.7526,26.9601 14.4192,23.6267 15.5,20.5 Z"/></g>
<g><path style="opacity:1" fill="#ecd38c" d="M 10.5,32.5 C 10.6558,36.7643 9.98914,40.7643 8.5,44.5C 8.5,41.8333 8.5,39.1667 8.5,36.5C 9.16667,35.1667 9.83333,33.8333 10.5,32.5 Z"/></g>
<g><path style="opacity:1" fill="#fbd884" d="M 12.5,30.5 C 12.8333,30.5 13.1667,30.5 13.5,30.5C 14.0648,38.5554 15.0648,46.5554 16.5,54.5C 13.7508,54.2739 11.0841,54.6072 8.5,55.5C 7.21798,54.0416 7.21798,52.7082 8.5,51.5C 8.55999,52.0431 8.89333,52.3764 9.5,52.5C 10.8742,45.2138 11.8742,37.8805 12.5,30.5 Z"/></g>
<g><path style="opacity:1" fill="#a49f90" d="M 18.5,52.5 C 22.9893,59.7704 24.656,67.7704 23.5,76.5C 22.778,71.2894 21.9447,65.9561 21,60.5C 20.6232,59.0577 19.7899,58.0577 18.5,57.5C 17.8333,56.8333 17.1667,56.1667 16.5,55.5C 18.0481,55.1788 18.7148,54.1788 18.5,52.5 Z"/></g>
<g><path style="opacity:1" fill="#a19d8b" d="M 8.5,36.5 C 8.5,39.1667 8.5,41.8333 8.5,44.5C 8.5,46.8333 8.5,49.1667 8.5,51.5C 7.21798,52.7082 7.21798,54.0416 8.5,55.5C 11.0841,54.6072 13.7508,54.2739 16.5,54.5C 16.5,54.8333 16.5,55.1667 16.5,55.5C 15.5,55.5 14.5,55.5 13.5,55.5C 7.42046,56.4467 4.58713,60.1134 5,66.5C 4.50098,70.8206 4.33432,75.1539 4.5,79.5C 5.16667,80.5 5.83333,81.5 6.5,82.5C 5.5041,82.5858 4.67076,82.2524 4,81.5C 3.83333,78.6667 3.66667,75.8333 3.5,73C 5.38177,60.7389 7.04844,48.5722 8.5,36.5 Z"/></g>
<g><path style="opacity:1" fill="#f5f8e2" d="M 13.5,55.5 C 13.5,55.8333 13.5,56.1667 13.5,56.5C 11.629,56.8588 10.129,57.8588 9,59.5C 8.71536,66.2624 7.88203,72.929 6.5,79.5C 5.83333,79.5 5.16667,79.5 4.5,79.5C 4.33432,75.1539 4.50098,70.8206 5,66.5C 4.58713,60.1134 7.42046,56.4467 13.5,55.5 Z"/></g>
<g><path style="opacity:1" fill="#e6e4d8" d="M 13.5,55.5 C 14.5,55.5 15.5,55.5 16.5,55.5C 17.1667,56.1667 17.8333,56.8333 18.5,57.5C 18.6664,65.1739 18.4997,72.8406 18,80.5C 14.7312,81.8184 11.5645,81.8184 8.5,80.5C 10.1667,80.5 11.8333,80.5 13.5,80.5C 13.5,72.5 13.5,64.5 13.5,56.5C 13.5,56.1667 13.5,55.8333 13.5,55.5 Z"/></g>
<g><path style="opacity:1" fill="#d3cfbc" d="M 18.5,57.5 C 19.7899,58.0577 20.6232,59.0577 21,60.5C 21.9447,65.9561 22.778,71.2894 23.5,76.5C 23.6716,77.4916 23.3382,78.1583 22.5,78.5C 21.6115,78.8135 20.9448,79.9801 20.5,82C 15.8452,82.4992 11.1785,82.6658 6.5,82.5C 5.83333,81.5 5.16667,80.5 4.5,79.5C 5.16667,79.5 5.83333,79.5 6.5,79.5C 6.84171,80.3382 7.50838,80.6716 8.5,80.5C 11.5645,81.8184 14.7312,81.8184 18,80.5C 18.4997,72.8406 18.6664,65.1739 18.5,57.5 Z"/></g>
<g><path style="opacity:1" fill="#f9f8f5" d="M 13.5,56.5 C 13.5,64.5 13.5,72.5 13.5,80.5C 11.8333,80.5 10.1667,80.5 8.5,80.5C 7.50838,80.6716 6.84171,80.3382 6.5,79.5C 7.88203,72.929 8.71536,66.2624 9,59.5C 10.129,57.8588 11.629,56.8588 13.5,56.5 Z"/></g>
<g><path style="opacity:1" fill="#989586" d="M 22.5,78.5 C 22.7135,80.1439 22.3802,81.6439 21.5,83C 16.3158,83.8163 11.3158,83.6497 6.5,82.5C 11.1785,82.6658 15.8452,82.4992 20.5,82C 20.9448,79.9801 21.6115,78.8135 22.5,78.5 Z"/></g>
</svg>
