<?xml version="1.0" encoding="UTF-8"?>
<svg version="1.1" xmlns="http://www.w3.org/2000/svg" width="30" height="90">
<path d="M0 0 C9.9 0 19.8 0 30 0 C30 29.7 30 59.4 30 90 C20.1 90 10.2 90 0 90 C0 60.3 0 30.6 0 0 Z " fill="#FDFDFD" transform="translate(0,0)"/>
<path d="M0 0 C6.69361962 6.47891861 9.85722823 12.61311127 10.1015625 21.83203125 C10.14016144 25.55726797 10.08728758 29.27572991 10 33 C9.41992188 33.02578125 8.83984375 33.0515625 8.2421875 33.078125 C2.79898075 33.47334133 -0.76924408 34.2729055 -5 38 C-7.62660428 42.0274599 -8.65520053 45.19519612 -8 50 C-7.01 50.66 -6.02 51.32 -5 52 C-4.67 52.66 -4.34 53.32 -4 54 C-7.375 54.1875 -7.375 54.1875 -11 54 C-11.66 53.01 -12.32 52.02 -13 51 C-13.33 51 -13.66 51 -14 51 C-14.42537031 46.32092658 -13.78182569 43.18840112 -12.0625 38.8125 C-9.73568451 32.32190941 -9.50330044 26.20597183 -9.29541016 19.39086914 C-9.08813638 12.79767863 -8.35367071 6.46607756 -7 0 C-3.800392 -1.066536 -3.02338765 -1.23787759 0 0 Z " fill="#B0AB86" transform="translate(15,24)"/>
<path d="M0 0 C1.0625 2.3125 1.0625 2.3125 2 5 C2.53625 5.598125 3.0725 6.19625 3.625 6.8125 C5.29932122 9.47619285 5.78596778 11.80995411 5.6796875 14.95703125 C4.45843022 18.62782182 1.60958358 20.13896665 -1.625 22.00390625 C-4.89106139 23.37371818 -6.67278417 23.15729246 -10 22 C-11.85625 21.566875 -11.85625 21.566875 -13.75 21.125 C-17 20 -17 20 -19 17 C-19.24882432 12.57092711 -18.55448002 8.91093146 -16.25 5.125 C-11.93981066 1.05426563 -5.9909267 -2.89217151 0 0 Z " fill="#D7D7D6" transform="translate(25,57)"/>
<path d="M0 0 C0 2.64 0 5.28 0 8 C2.475 8.99 2.475 8.99 5 10 C5.125 12.375 5.125 12.375 5 15 C3 17 3 17 -0.875 17.125 C-2.25014417 17.0883992 -3.6251615 17.04669263 -5 17 C-6.32 17 -7.64 17 -9 17 C-10.67225729 16.69595322 -12.34080104 16.36871088 -14 16 C-12.55746343 12.63408134 -10.66735273 10.48952921 -8 8 C-8.66 8 -9.32 8 -10 8 C-9.875 6.25 -9.875 6.25 -9 4 C-3.88888889 0 -3.88888889 0 0 0 Z " fill="#F5F5F5" transform="translate(22,58)"/>
<path d="M0 0 C1.65 1.32 3.3 2.64 5 4 C5.33 4 5.66 4 6 4 C7.41030314 10.73811499 6.66561666 17.19022959 6 24 C2.04 24.495 2.04 24.495 -2 25 C-1.34 16.75 -0.68 8.5 0 0 Z " fill="#C9C492" transform="translate(17,30)"/>
<path d="M0 0 C0.99 0.33 1.98 0.66 3 1 C2.34 1 1.68 1 1 1 C1.02094727 1.97759277 1.04189453 2.95518555 1.06347656 3.96240234 C1.1365772 7.6337993 1.18205042 11.30513372 1.21972656 14.97705078 C1.23968422 16.55789045 1.2668606 18.13865783 1.30175781 19.71923828 C1.49901322 28.89161489 1.57191691 36.72467577 -3 45 C-3.66 45 -4.32 45 -5 45 C-4.649375 45.598125 -4.29875 46.19625 -3.9375 46.8125 C-3 49 -3 49 -4 52 C-4.66 51.34 -5.32 50.68 -6 50 C-6.33 50 -6.66 50 -7 50 C-7.42537031 45.32092658 -6.78182569 42.18840112 -5.0625 37.8125 C-2.72580758 31.3025569 -2.50332326 25.15681596 -2.29541016 18.32055664 C-2.09847316 12.06571814 -1.44232086 6.10535819 0 0 Z " fill="#999788" transform="translate(8,25)"/>
<path d="M0 0 C3.96 0 7.92 0 12 0 C12 0.33 12 0.66 12 1 C11.113125 1.268125 10.22625 1.53625 9.3125 1.8125 C4.71370599 3.46112427 1.88246772 4.63065353 -0.8125 8.8125 C-2.06968527 12.18704992 -2.4859961 14.43602863 -2 18 C-1.01 18.66 -0.02 19.32 1 20 C1.33 20.66 1.66 21.32 2 22 C-0.31 22 -2.62 22 -5 22 C-5.144375 21.236875 -5.28875 20.47375 -5.4375 19.6875 C-5.9632594 16.91827092 -5.9632594 16.91827092 -7 14 C-6.55011719 13.62230469 -6.10023437 13.24460937 -5.63671875 12.85546875 C-3.56424776 10.5060088 -2.82127918 8.26926656 -1.8125 5.3125 C-1.214375 3.559375 -0.61625 1.80625 0 0 Z " fill="#C0C0BF" transform="translate(9,56)"/>
<path d="M0 0 C3.35882075 1.41231461 5.13329047 3.03368978 7.3125 5.9375 C8.11107422 6.97197266 8.11107422 6.97197266 8.92578125 8.02734375 C9.28027344 8.67832031 9.63476562 9.32929687 10 10 C9.67 10.99 9.34 11.98 9 13 C8.01 11.35 7.02 9.7 6 8 C5.93941406 9.10859375 5.87882812 10.2171875 5.81640625 11.359375 C5.73197049 12.8229282 5.64732401 14.28646925 5.5625 15.75 C5.50352539 16.84441406 5.50352539 16.84441406 5.44335938 17.9609375 C5.23852902 21.4272973 4.9147998 24.65333026 4 28 C3.34 28 2.68 28 2 28 C2.01047363 27.29391602 2.02094727 26.58783203 2.03173828 25.86035156 C2.0733479 22.65693734 2.09934204 19.45358004 2.125 16.25 C2.14175781 15.13882813 2.15851562 14.02765625 2.17578125 12.8828125 C2.18222656 11.81289063 2.18867188 10.74296875 2.1953125 9.640625 C2.20578613 8.65610352 2.21625977 7.67158203 2.22705078 6.65722656 C1.99489618 3.94026889 1.39036273 2.31887487 0 0 Z " fill="#A7A27B" transform="translate(12,23)"/>
<path d="M0 0 C1.984375 1.359375 1.984375 1.359375 4 4 C4.51270905 7.42513915 4.37576221 10.79637621 4.25 14.25 C4.23195313 15.18585937 4.21390625 16.12171875 4.1953125 17.0859375 C4.14825673 19.39167015 4.08253713 21.69530945 4 24 C2.00267708 21.00401561 1.68893321 19.97507493 1.3671875 16.55078125 C1.28339844 15.70322266 1.19960937 14.85566406 1.11328125 13.98242188 C1.03464844 13.10134766 0.95601562 12.22027344 0.875 11.3125 C0.78863281 10.41982422 0.70226562 9.52714844 0.61328125 8.60742188 C0.40133622 6.4055485 0.19720988 4.20323391 0 2 C-0.99 1.67 -1.98 1.34 -3 1 C-2.01 0.67 -1.02 0.34 0 0 Z " fill="#CAC393" transform="translate(11,23)"/>
<path d="M0 0 C0.33 0.99 0.66 1.98 1 3 C2.31647119 3.69937532 3.65022151 4.36729133 5 5 C6.61515979 8.23031959 6.72224686 11.51945797 6 15 C2.91820495 17.9350429 0.98351041 18.90543169 -3.25 19.3125 C-6 19 -6 19 -8 18 C-8 17.34 -8 16.68 -8 16 C-6.35 16.33 -4.7 16.66 -3 17 C-3 16.67 -3 16.34 -3 16 C-0.69 15.34 1.62 14.68 4 14 C4 12.35 4 10.7 4 9 C2.68 8.34 1.36 7.68 0 7 C0 4.69 0 2.38 0 0 Z " fill="#ECECEB" transform="translate(22,59)"/>
<path d="M0 0 C2.43306597 3.64959896 2.35592091 5.7736532 2.5625 10.125 C2.86210294 15.78196751 3.30942693 21.37676212 4 27 C3.34 27 2.68 27 2 27 C0.3628526 23.40564006 -0.24140626 20.64023532 -0.1953125 16.69921875 C-0.18886719 15.72275391 -0.18242187 14.74628906 -0.17578125 13.74023438 C-0.15902344 12.73283203 -0.14226563 11.72542969 -0.125 10.6875 C-0.11597656 9.66076172 -0.10695313 8.63402344 -0.09765625 7.57617188 C-0.07416201 5.05054101 -0.04131131 2.5253919 0 0 Z " fill="#D8D298" transform="translate(9,26)"/>
<path d="M0 0 C0.33 0 0.66 0 1 0 C1.06058594 0.88042969 1.12117187 1.76085938 1.18359375 2.66796875 C1.26738281 3.82941406 1.35117188 4.99085937 1.4375 6.1875 C1.51871094 7.33605469 1.59992187 8.48460937 1.68359375 9.66796875 C1.95568253 12.53329872 2.23428554 15.22618667 3 18 C3.66 18.33 4.32 18.66 5 19 C3.68 19 2.36 19 1 19 C-0.65497356 15.69005287 -0.10084335 12.00877 -0.0625 8.375 C-0.05798828 7.57320312 -0.05347656 6.77140625 -0.04882812 5.9453125 C-0.03703168 3.96350994 -0.01909605 1.98174567 0 0 Z " fill="#BDB78C" transform="translate(8,35)"/>
<path d="M0 0 C0.66 0.33 1.32 0.66 2 1 C1.67 1.99 1.34 2.98 1 4 C1.66 4 2.32 4 3 4 C1.55922954 7.36179774 -0.24750021 9.59156268 -3 12 C-3.66 12 -4.32 12 -5 12 C-4.67 10.68 -4.34 9.36 -4 8 C-3.34 8 -2.68 8 -2 8 C-1.34 5.36 -0.68 2.72 0 0 Z " fill="#E7E7E6" transform="translate(11,62)"/>
<path d="M0 0 C0.33 0.99 0.66 1.98 1 3 C1.66 3.28875 2.32 3.5775 3 3.875 C5 5 5 5 5.75 7.625 C5.8325 8.40875 5.915 9.1925 6 10 C4.02 9.01 2.04 8.02 0 7 C0 4.69 0 2.38 0 0 Z " fill="#DFDFDE" transform="translate(22,59)"/>
<path d="M0 0 C2 1.125 2 1.125 4 3 C4.25 6.1875 4.25 6.1875 4 9 C3.34 9 2.68 9 2 9 C0.50178941 5.62902617 0 3.79557881 0 0 Z " fill="#CAC594" transform="translate(9,44)"/>
<path d="M0 0 C0.99 0.66 1.98 1.32 3 2 C3.1875 4.625 3.1875 4.625 3 7 C2.01 7.495 2.01 7.495 1 8 C0.67 6.02 0.34 4.04 0 2 C-0.99 1.67 -1.98 1.34 -3 1 C-2.01 0.67 -1.02 0.34 0 0 Z " fill="#D0CC9D" transform="translate(11,23)"/>
<path d="M0 0 C0.33 0 0.66 0 1 0 C1.25 2.25 1.25 2.25 1 5 C-1 7.3125 -1 7.3125 -3 9 C-2.5020163 5.26512223 -2.12508244 3.18762365 0 0 Z " fill="#D5D5D4" transform="translate(9,62)"/>
</svg>
