<?xml version="1.0" encoding="UTF-8"?>
<svg version="1.1" xmlns="http://www.w3.org/2000/svg" width="30" height="90">
<path d="M0 0 C9.9 0 19.8 0 30 0 C30 29.7 30 59.4 30 90 C20.1 90 10.2 90 0 90 C0 60.3 0 30.6 0 0 Z " fill="#FDFDFD" transform="translate(0,0)"/>
<path d="M0 0 C2.421875 0.6953125 2.421875 0.6953125 5 2 C5.890625 4.1171875 5.890625 4.1171875 6.25 6.875 C6.39179688 7.94492187 6.53359375 9.01484375 6.6796875 10.1171875 C7.1330369 15.61266686 7.27747717 21.11327056 7.46362305 26.62329102 C7.74430006 32.72931812 8.89874719 37.85060206 11.14453125 43.56640625 C12.31277625 46.88976987 12.31637514 49.51987345 12 53 C11.34 53 10.68 53 10 53 C9.67 53.99 9.34 54.98 9 56 C8.39671875 55.97679687 7.7934375 55.95359375 7.171875 55.9296875 C6.37265625 55.91164062 5.5734375 55.89359375 4.75 55.875 C3.96109375 55.85179687 3.1721875 55.82859375 2.359375 55.8046875 C-0.22485656 56.01861395 -1.72934031 56.80566133 -4 58 C-8.61789432 57.89738013 -12.02412706 56.35335624 -15.63671875 53.58984375 C-17.71354987 51.16786592 -17.71798761 49.16321943 -17.63671875 46.0625 C-17 44 -17 44 -14.9921875 41.828125 C-12.18925215 37.84905599 -12.441221 34.50544009 -12.4375 29.75 C-12.3825805 19.91156382 -10.9596237 12.54797496 -4.3125 4.9375 C-3.50425781 3.99777344 -2.69601562 3.05804687 -1.86328125 2.08984375 C-1.24839844 1.40019531 -0.63351563 0.71054687 0 0 Z " fill="#B9B48A" transform="translate(17,22)"/>
<path d="M0 0 C6.75 0.75 6.75 0.75 9 3 C10.64991582 3.70710678 12.31562256 4.37943989 14 5 C14 5.99 14 6.98 14 8 C14.66 8 15.32 8 16 8 C17.40692958 11.78112324 18.45030866 14.94722204 18 19 C16 21 16 21 13 21.0625 C12.01 21.041875 11.02 21.02125 10 21 C9.34 21.33 8.68 21.66 8 22 C4.20939017 22.43075112 2.14031497 22.06236221 -1.375 20.5 C-4 18 -4 18 -4.375 15.953125 C-4.375 13.75 -4.375 13.75 -4 10 C-2.35 9.67 -0.7 9.34 1 9 C1.07427838 5.65747276 1.06546953 3.1964086 0 0 Z " fill="#F6F6F5" transform="translate(6,56)"/>
<path d="M0 0 C0.99 0 1.98 0 3 0 C4.65147365 6.99070401 5.15758162 13.7887037 5.375 20.9375 C5.61003823 28.02213011 6.52933115 33.91039156 9.14453125 40.56640625 C10.31277625 43.88976987 10.31637514 46.51987345 10 50 C9.34 50 8.68 50 8 50 C7.34 50.66 6.68 51.32 6 52 C6.165 51.401875 6.33 50.80375 6.5 50.1875 C7.1114124 47.88655664 7.1114124 47.88655664 7 45 C6.34 44.01 5.68 43.02 5 42 C4.18220159 39.35982365 3.6190511 36.69729409 3 34 C2.34 34 1.68 34 1 34 C1 33.34 1 32.68 1 32 C-2.63 32 -6.26 32 -10 32 C-10 31.34 -10 30.68 -10 30 C-8.35 29.67 -6.7 29.34 -5 29 C-5.16371094 28.02933594 -5.32742187 27.05867188 -5.49609375 26.05859375 C-6.11628841 21.71723112 -6.11126417 17.44002229 -6.0625 13.0625 C-6.05798828 12.28326172 -6.05347656 11.50402344 -6.04882812 10.70117188 C-6.03716908 8.80074732 -6.01923877 6.90036294 -6 5 C-5.67 5 -5.34 5 -5 5 C-4.67 9.95 -4.34 14.9 -4 20 C-3.01 19.01 -2.02 18.02 -1 17 C-1.33 20.96 -1.66 24.92 -2 29 C-0.68 29 0.64 29 2 29 C2 19.76 2 10.52 2 1 C1.34 0.67 0.68 0.34 0 0 Z " fill="#9E9978" transform="translate(19,25)"/>
<path d="M0 0 C2.475 0.99 2.475 0.99 5 2 C4.67 2.66 4.34 3.32 4 4 C4.24341598 5.98210152 4.48818653 7.9640426 4.73828125 9.9453125 C5.08113901 13.94702548 5.11868035 17.92283897 5.125 21.9375 C5.12943115 22.69554932 5.1338623 23.45359863 5.13842773 24.23461914 C5.12413632 29.75172736 5.12413632 29.75172736 4 32 C2.68 32 1.36 32 0 32 C0 28.7 0 25.4 0 22 C-0.66 22.99 -1.32 23.98 -2 25 C-2.05421223 21.95809137 -2.09377548 18.91716001 -2.125 15.875 C-2.15013672 14.59109375 -2.15013672 14.59109375 -2.17578125 13.28125 C-2.21306681 8.43412707 -1.89580643 4.55292095 0 0 Z " fill="#C8C292" transform="translate(17,22)"/>
<path d="M0 0 C0.99 0.66 1.98 1.32 3 2 C2.67 3.98 2.34 5.96 2 8 C0.68 8.33 -0.64 8.66 -2 9 C-2.33482784 13.02980066 -2.33482784 13.02980066 -2 17 C0.6440928 19.48855793 2.34390857 19.94416243 5.9375 20.25 C10.39490422 19.88613027 14.68220966 19.16248202 19 18 C18.67 17.113125 18.34 16.22625 18 15.3125 C17.08777857 12.29076653 16.81669042 10.11626294 17 7 C16.34 7 15.68 7 15 7 C14.67 6.01 14.34 5.02 14 4 C12.34795544 3.29788106 10.68076231 2.63028587 9 2 C8.67 1.34 8.34 0.68 8 0 C10.31 0 12.62 0 15 0 C15 0.66 15 1.32 15 2 C15.66 2 16.32 2 17 2 C17.26554687 2.60328125 17.53109375 3.2065625 17.8046875 3.828125 C18.15789063 4.62734375 18.51109375 5.4265625 18.875 6.25 C19.22304688 7.03890625 19.57109375 7.8278125 19.9296875 8.640625 C20.90413905 10.78868608 21.92986429 12.89829202 23 15 C22.34 15.66 21.68 16.32 21 17 C21 18.32 21 19.64 21 21 C20.39671875 20.97679688 19.7934375 20.95359375 19.171875 20.9296875 C18.37265625 20.91164063 17.5734375 20.89359375 16.75 20.875 C15.56664062 20.84019531 15.56664062 20.84019531 14.359375 20.8046875 C11.77514344 21.01861395 10.27065969 21.80566133 8 23 C3.38210568 22.89738013 -0.02412706 21.35335624 -3.63671875 18.58984375 C-5.30038947 16.64968908 -5.55808034 15.53566672 -5.6875 13 C-5.34161951 8.99981699 -3.7052284 6.95115825 -1 4 C-0.22166466 1.81785432 -0.22166466 1.81785432 0 0 Z " fill="#C9CAC9" transform="translate(5,57)"/>
<path d="M0 0 C6.75 0.75 6.75 0.75 9 3 C10.64991582 3.70710678 12.31562256 4.37943989 14 5 C14 5.99 14 6.98 14 8 C14.66 8 15.32 8 16 8 C17.42258812 11.82320557 18.24042276 14.91281305 18 19 C17.01 18.67 16.02 18.34 15 18 C15.33 16.68 15.66 15.36 16 14 C13.525 13.505 13.525 13.505 11 13 C10 10 10 10 9.625 8 C8.87784264 5.60909644 7.94279003 4.55423202 6 3 C5.34 3 4.68 3 4 3 C3.7525 4.11375 3.505 5.2275 3.25 6.375 C2 10 2 10 -0.125 11.4375 C-0.74375 11.623125 -1.3625 11.80875 -2 12 C-2 13.65 -2 15.3 -2 17 C2.455 17.99 2.455 17.99 7 19 C7.33 17.35 7.66 15.7 8 14 C8.33 14 8.66 14 9 14 C9.1875 16.375 9.1875 16.375 9 19 C5.51131349 21.32579101 4.10281481 21.41865457 0 21 C-2.375 20 -2.375 20 -4 18 C-4.33686831 15.24528656 -4.18319242 12.7936844 -4 10 C-2.35 9.67 -0.7 9.34 1 9 C1.07427838 5.65747276 1.06546953 3.1964086 0 0 Z " fill="#E1E1E0" transform="translate(6,56)"/>
<path d="M0 0 C5.28 0 10.56 0 16 0 C20.57142857 12.71428571 20.57142857 12.71428571 20 19 C19.34 19 18.68 19 18 19 C17.34 19.66 16.68 20.32 16 21 C16.165 20.401875 16.33 19.80375 16.5 19.1875 C17.1114124 16.88655664 17.1114124 16.88655664 17 14 C16.34 13.01 15.68 12.02 15 11 C14.18220159 8.35982365 13.6190511 5.69729409 13 3 C12.34 3 11.68 3 11 3 C11 2.34 11 1.68 11 1 C7.37 1 3.74 1 0 1 C0 0.67 0 0.34 0 0 Z " fill="#A2A1A0" transform="translate(9,56)"/>
<path d="M0 0 C0.99 0.66 1.98 1.32 3 2 C2.67 3.98 2.34 5.96 2 8 C0.68 8.33 -0.64 8.66 -2 9 C-2.33482784 13.02980066 -2.33482784 13.02980066 -2 17 C0.66742975 19.51052212 2.3730118 19.94775098 6 20.25 C8.74287576 20.02142702 11.32281325 19.62992629 14 19 C13 21 13 21 10.8125 22.1875 C6.69762938 23.3762404 3.93295316 22.90412325 0.0625 21.09375 C-2.68161189 19.45613484 -4.63552157 18.21085116 -5.58203125 15.06640625 C-5.77672241 11.25190164 -5.29515431 9.4189287 -3.0625 6.25 C-2.0415625 5.13625 -2.0415625 5.13625 -1 4 C-0.22166466 1.81785432 -0.22166466 1.81785432 0 0 Z " fill="#D1D1D0" transform="translate(5,57)"/>
<path d="M0 0 C1.84317047 3.68634093 0.29273971 8.09968612 -0.3125 12.0625 C-0.44333984 12.99900391 -0.57417969 13.93550781 -0.70898438 14.90039062 C-0.84240234 15.79048828 -0.97582031 16.68058594 -1.11328125 17.59765625 C-1.23485596 18.41758057 -1.35643066 19.23750488 -1.48168945 20.08227539 C-1.65273193 20.71512451 -1.82377441 21.34797363 -2 22 C-2.66 22.33 -3.32 22.66 -4 23 C-4.10861833 20.29057607 -4.18758577 17.585561 -4.25 14.875 C-4.28351562 14.11445312 -4.31703125 13.35390625 -4.3515625 12.5703125 C-4.44646798 7.06579478 -3.47743672 4.28518776 0 0 Z " fill="#D4D098" transform="translate(12,30)"/>
<path d="M0 0 C0.33 0 0.66 0 1 0 C1.02690104 2.79173055 1.04679053 5.58320348 1.0625 8.375 C1.07087891 9.1690625 1.07925781 9.963125 1.08789062 10.78125 C1.11328125 16.7734375 1.11328125 16.7734375 0 19 C-1.32 19 -2.64 19 -4 19 C-4 16.69 -4 14.38 -4 12 C-3.01 12.33 -2.02 12.66 -1 13 C-0.67 8.71 -0.34 4.42 0 0 Z " fill="#BCB68C" transform="translate(21,35)"/>
<path d="M0 0 C0.66 0.33 1.32 0.66 2 1 C1.67 1.99 1.34 2.98 1 4 C0.85596652 5.33363703 0.75409577 6.67218046 0.68359375 8.01171875 C0.64169922 8.76904297 0.59980469 9.52636719 0.55664062 10.30664062 C0.51732422 11.09232422 0.47800781 11.87800781 0.4375 12.6875 C0.39431641 13.48478516 0.35113281 14.28207031 0.30664062 15.10351562 C0.20072632 17.06881447 0.09987449 19.03438496 0 21 C-0.33 21 -0.66 21 -1 21 C-1 16.05 -1 11.1 -1 6 C-2.32 7.32 -3.64 8.64 -5 10 C-5.66 10.66 -6.32 11.32 -7 12 C-6.67566492 6.64847115 -3.50295176 3.71719957 0 0 Z " fill="#B2AD81" transform="translate(15,24)"/>
<path d="M0 0 C4.75286041 4.29290618 4.75286041 4.29290618 5 8 C4.34 8.66 3.68 9.32 3 10 C3 11.32 3 12.64 3 14 C0.69 14 -1.62 14 -4 14 C-3.67 13.01 -3.34 12.02 -3 11 C-1.68 11 -0.36 11 1 11 C0.67 7.37 0.34 3.74 0 0 Z " fill="#BCBCBC" transform="translate(23,64)"/>
<path d="M0 0 C0.33 0 0.66 0 1 0 C1.02707139 2.24993359 1.04642829 4.49996095 1.0625 6.75 C1.07410156 8.00296875 1.08570313 9.2559375 1.09765625 10.546875 C1.02021027 13.28536501 0.82780815 15.41880293 0 18 C-0.66 18 -1.32 18 -2 18 C-1.8590651 15.56212615 -1.71245458 13.12482147 -1.5625 10.6875 C-1.52318359 9.99720703 -1.48386719 9.30691406 -1.44335938 8.59570312 C-1.25072585 5.52838465 -0.97677283 2.93031848 0 0 Z " fill="#D9D49B" transform="translate(20,30)"/>
<path d="M0 0 C1.3921875 0.3403125 1.3921875 0.3403125 2.8125 0.6875 C3.1425 1.6775 3.4725 2.6675 3.8125 3.6875 C2.86375 3.666875 1.915 3.64625 0.9375 3.625 C-2.09416283 3.46198174 -2.09416283 3.46198174 -4.1875 4.6875 C-6.18710012 4.727492 -8.18797242 4.73096799 -10.1875 4.6875 C-9.589375 4.419375 -8.99125 4.15125 -8.375 3.875 C-6.13070098 2.83601259 -6.13070098 2.83601259 -4.8125 1 C-3.1875 -0.3125 -3.1875 -0.3125 0 0 Z " fill="#EFEEEE" transform="translate(18.1875,73.3125)"/>
<path d="M0 0 C0.33 0 0.66 0 1 0 C1.25 5.625 1.25 5.625 -1 9 C-1.66 9 -2.32 9 -3 9 C-3 7.02 -3 5.04 -3 3 C-2.01 3.33 -1.02 3.66 0 4 C0 2.68 0 1.36 0 0 Z " fill="#C7C192" transform="translate(20,44)"/>
</svg>
