<?xml version="1.0" encoding="UTF-8"?>
<!DOCTYPE svg PUBLIC "-//W3C//DTD SVG 1.1//EN" "http://www.w3.org/Graphics/SVG/1.1/DTD/svg11.dtd">
<svg xmlns="http://www.w3.org/2000/svg" version="1.1" width="30" height="90" style="shape-rendering:geometricPrecision; text-rendering:geometricPrecision; image-rendering:optimizeQuality; fill-rule:evenodd; clip-rule:evenodd" xmlns:xlink="http://www.w3.org/1999/xlink">
<g><path style="opacity:1" fill="#fcfcfc" d="M -0.5,-0.5 C 10.1667,-0.5 20.8333,-0.5 31.5,-0.5C 31.5,27.1667 31.5,54.8333 31.5,82.5C 20.8333,82.5 10.1667,82.5 -0.5,82.5C -0.5,54.8333 -0.5,27.1667 -0.5,-0.5 Z"/></g>
<g><path style="opacity:1" fill="#faf9f7" d="M 14.5,1.5 C 15.4711,10.4161 15.8044,19.4161 15.5,28.5C 13.8333,28.5 12.1667,28.5 10.5,28.5C 10.0445,19.8075 9.37782,11.1408 8.5,2.5C 10.2646,1.53862 12.2646,1.20528 14.5,1.5 Z"/></g>
<g><path style="opacity:1" fill="#a5a396" d="M 14.5,1.5 C 12.2646,1.20528 10.2646,1.53862 8.5,2.5C 6.5887,3.07501 4.92203,4.07501 3.5,5.5C 3.91563,3.24753 5.24896,1.74753 7.5,1C 10.0385,0.204191 12.3718,0.370858 14.5,1.5 Z"/></g>
<g><path style="opacity:1" fill="#f6fae4" d="M 8.5,2.5 C 9.37782,11.1408 10.0445,19.8075 10.5,28.5C 7.6057,27.1177 5.1057,25.1177 3,22.5C 2.31267,16.7963 2.47933,11.1296 3.5,5.5C 4.92203,4.07501 6.5887,3.07501 8.5,2.5 Z"/></g>
<g><path style="opacity:1" fill="#e2e0d4" d="M 14.5,1.5 C 16.153,1.6596 17.4863,2.32627 18.5,3.5C 20.8229,10.256 21.1562,17.256 19.5,24.5C 19.1971,26.1143 18.5305,27.4477 17.5,28.5C 16.8333,28.5 16.1667,28.5 15.5,28.5C 15.8044,19.4161 15.4711,10.4161 14.5,1.5 Z"/></g>
<g><path style="opacity:1" fill="#d5d0be" d="M 18.5,3.5 C 20.0269,3.42702 21.0269,4.09368 21.5,5.5C 24.1547,12.7585 23.9881,20.0919 21,27.5C 19.9887,28.3366 18.8221,28.67 17.5,28.5C 18.5305,27.4477 19.1971,26.1143 19.5,24.5C 21.1562,17.256 20.8229,10.256 18.5,3.5 Z"/></g>
<g><path style="opacity:1" fill="#b1ab9a" d="M 3.5,5.5 C 2.47933,11.1296 2.31267,16.7963 3,22.5C 5.1057,25.1177 7.6057,27.1177 10.5,28.5C 12.1667,28.5 13.8333,28.5 15.5,28.5C 16.1667,28.5 16.8333,28.5 17.5,28.5C 18.8221,28.67 19.9887,28.3366 21,27.5C 23.9881,20.0919 24.1547,12.7585 21.5,5.5C 24.5709,6.03944 26.2376,7.87277 26.5,11C 25.5709,16.2167 24.4042,21.3834 23,26.5C 22.358,44.1676 21.6913,61.8343 21,79.5C 18.7604,82.2932 17.2604,81.9599 16.5,78.5C 17.6879,79.6843 18.8545,79.6843 20,78.5C 20.4384,65.8308 20.9384,53.1642 21.5,40.5C 21.4987,36.6508 21.1654,32.9841 20.5,29.5C 19.609,30.1098 18.609,30.4431 17.5,30.5C 15.5,30.5 13.5,30.5 11.5,30.5C 10.2921,29.7659 8.95875,29.4326 7.5,29.5C 6.50838,29.3284 5.84171,29.6618 5.5,30.5C 2.37385,25.7392 0.707187,20.4059 0.5,14.5C 0.88452,11.1693 1.88452,8.16933 3.5,5.5 Z"/></g>
<g><path style="opacity:1" fill="#fee189" d="M 11.5,30.5 C 13.5,30.5 15.5,30.5 17.5,30.5C 16.4204,38.8687 15.0871,47.202 13.5,55.5C 12.0375,47.3772 11.3709,39.0439 11.5,30.5 Z"/></g>
<g><path style="opacity:1" fill="#f9e090" d="M 5.5,30.5 C 5.84171,29.6618 6.50838,29.3284 7.5,29.5C 9.48015,38.011 10.4802,46.6777 10.5,55.5C 8.91495,51.2388 7.58161,46.9054 6.5,42.5C 6.81675,38.2984 6.48342,34.2984 5.5,30.5 Z"/></g>
<g><path style="opacity:1" fill="#a9a390" d="M 6.5,42.5 C 7.58161,46.9054 8.91495,51.2388 10.5,55.5C 10.5,57.5 10.5,59.5 10.5,61.5C 8.164,55.4928 6.83067,49.1595 6.5,42.5 Z"/></g>
<g><path style="opacity:1" fill="#f7ce7c" d="M 20.5,29.5 C 19.3787,44.5611 17.712,59.5611 15.5,74.5C 15.1667,74.5 14.8333,74.5 14.5,74.5C 14.5,73.5 14.5,72.5 14.5,71.5C 14.0199,66.1779 13.6865,60.8446 13.5,55.5C 15.0871,47.202 16.4204,38.8687 17.5,30.5C 18.609,30.4431 19.609,30.1098 20.5,29.5 Z"/></g>
<g><path style="opacity:1" fill="#fcf1c8" d="M 7.5,29.5 C 8.95875,29.4326 10.2921,29.7659 11.5,30.5C 11.3709,39.0439 12.0375,47.3772 13.5,55.5C 13.6865,60.8446 14.0199,66.1779 14.5,71.5C 13.1667,68.1667 11.8333,64.8333 10.5,61.5C 10.5,59.5 10.5,57.5 10.5,55.5C 10.4802,46.6777 9.48015,38.011 7.5,29.5 Z"/></g>
<g><path style="opacity:1" fill="#aba591" d="M 10.5,61.5 C 11.8333,64.8333 13.1667,68.1667 14.5,71.5C 14.5,72.5 14.5,73.5 14.5,74.5C 11.9871,70.6222 10.6538,66.2888 10.5,61.5 Z"/></g>
<g><path style="opacity:1" fill="#ddb26c" d="M 20.5,29.5 C 21.1654,32.9841 21.4987,36.6508 21.5,40.5C 20.9384,53.1642 20.4384,65.8308 20,78.5C 18.8545,79.6843 17.6879,79.6843 16.5,78.5C 16.1667,77.1667 15.8333,75.8333 15.5,74.5C 17.712,59.5611 19.3787,44.5611 20.5,29.5 Z"/></g>
</svg>
