<?xml version="1.0" encoding="UTF-8"?>
<svg version="1.1" xmlns="http://www.w3.org/2000/svg" width="30" height="90">
<path d="M0 0 C9.9 0 19.8 0 30 0 C30 29.7 30 59.4 30 90 C20.1 90 10.2 90 0 90 C0 60.3 0 30.6 0 0 Z " fill="#FDFDFD" transform="translate(0,0)"/>
<path d="M0 0 C0.66 0.33 1.32 0.66 2 1 C2.5625 2.83496094 2.5625 2.83496094 3 5.234375 C3.16395264 6.1119043 3.32790527 6.98943359 3.49682617 7.89355469 C3.66287354 8.83618164 3.8289209 9.77880859 4 10.75 C4.2616394 12.19101074 4.2616394 12.19101074 4.52856445 13.66113281 C5.02858195 16.43916364 5.51536433 19.21925187 6 22 C6.22042969 23.216875 6.44085937 24.43375 6.66796875 25.6875 C7.56159295 30.95517951 8.07747696 36.11144834 8.28662109 41.44287109 C8.55234278 48.1916146 9.30280763 53.73274364 12.11328125 59.94921875 C13.59546147 63.3771686 13.77479838 65.3197077 13 69 C9.81223889 74.3304779 6.33678864 79.64063199 1 83 C-2.8617884 82.87542618 -5.29039206 80.57743195 -8 78 C-11.16324559 74.27158786 -13.46491274 70.90048007 -13.0625 65.875 C-12.32908424 62.06260574 -11.2024351 58.44570935 -10.03515625 54.74609375 C-7.69100265 46.6081002 -6.96736357 38.60766152 -6.375 30.1875 C-4.61223837 6.49906315 -4.61223837 6.49906315 0 0 Z " fill="#E9E9E8" transform="translate(15,5)"/>
<path d="M0 0 C0.66 0.33 1.32 0.66 2 1 C2.5625 2.83496094 2.5625 2.83496094 3 5.234375 C3.16395264 6.1119043 3.32790527 6.98943359 3.49682617 7.89355469 C3.66287354 8.83618164 3.8289209 9.77880859 4 10.75 C4.17442627 11.71067383 4.34885254 12.67134766 4.52856445 13.66113281 C5.02858195 16.43916364 5.51536433 19.21925187 6 22 C6.22042969 23.216875 6.44085938 24.43375 6.66796875 25.6875 C7.56160695 30.95526204 8.07749655 36.11160755 8.28662109 41.44311523 C8.55200842 48.18263376 9.2204627 53.79727683 12.14453125 59.97265625 C13.29425747 62.69734988 13.30676226 65.0857585 13 68 C10.88336698 63.91621047 9.39448732 59.70808345 7.875 55.375 C7.59785156 54.59898438 7.32070313 53.82296875 7.03515625 53.0234375 C5 47.24880696 5 47.24880696 5 45 C3.37419034 45.11398665 1.74932843 45.24155659 0.125 45.375 C-0.77992187 45.44460937 -1.68484375 45.51421875 -2.6171875 45.5859375 C-5.17941903 45.79568132 -5.17941903 45.79568132 -7 48 C-6.63154516 37.36273862 -6.2197107 26.72160701 -5.1875 16.125 C-5.12965332 15.42004395 -5.07180664 14.71508789 -5.01220703 13.98876953 C-4.43738382 8.63100748 -2.59953782 4.71396919 0 0 Z " fill="#979272" transform="translate(15,5)"/>
<path d="M0 0 C0.99 0 1.98 0 3 0 C3.84191782 2.9248633 4.11819313 5.50741656 4.09765625 8.546875 C4.09282227 9.81337891 4.09282227 9.81337891 4.08789062 11.10546875 C4.07951172 11.97816406 4.07113281 12.85085937 4.0625 13.75 C4.05798828 14.63816406 4.05347656 15.52632812 4.04882812 16.44140625 C4.037074 18.62767329 4.02064249 20.81380179 4 23 C2.0085944 23.38133299 0.00720923 23.71325582 -2 24 C-4.14447308 21.85552692 -3.23155053 17.21113967 -3.25 14.25 C-3.270625 13.43789063 -3.29125 12.62578125 -3.3125 11.7890625 C-3.34302885 7.10288434 -3.2252229 3.70749922 0 0 Z " fill="#C6C28F" transform="translate(14,23)"/>
<path d="M0 0 C3.3 0 6.6 0 10 0 C10.96400982 2.49793739 11.92127547 4.99813659 12.875 7.5 C13.14441406 8.19609375 13.41382813 8.8921875 13.69140625 9.609375 C18.58393315 22.49700684 18.58393315 22.49700684 17.1015625 26.3125 C15.734375 27.875 14.3671875 29.4375 13 31 C11.86943492 27.60830475 11.64861112 24.50726966 11.37890625 20.9609375 C11.25386719 20.31382813 11.12882812 19.66671875 11 19 C10.34 18.67 9.68 18.34 9 18 C8.52381188 15.12817413 8.15832403 12.32879853 7.875 9.4375 C7.78863281 8.63119141 7.70226562 7.82488281 7.61328125 6.99414062 C7.40056372 4.99695936 7.19922145 2.99857263 7 1 C4.69 1 2.38 1 0 1 C0 0.67 0 0.34 0 0 Z " fill="#C4C4C3" transform="translate(10,50)"/>
<path d="M0 0 C1.2065625 0.0309375 1.2065625 0.0309375 2.4375 0.0625 C2.7675 1.7125 3.0975 3.3625 3.4375 5.0625 C4.0975 5.0625 4.7575 5.0625 5.4375 5.0625 C6.1875 8.25 6.1875 8.25 6.4375 12.0625 C4.5 15 4.5 15 2.4375 17.0625 C-2.3125 16.3125 -2.3125 16.3125 -4.5625 14.0625 C-4.57421875 11.05859375 -4.57421875 11.05859375 -4.25 7.5 C-4.15074219 6.32308594 -4.05148437 5.14617187 -3.94921875 3.93359375 C-3.43065821 0.08367459 -3.43065821 0.08367459 0 0 Z " fill="#F5F6F5" transform="translate(13.5625,63.9375)"/>
<path d="M0 0 C0.33 0 0.66 0 1 0 C1 3.63 1 7.26 1 11 C4.3 11 7.6 11 11 11 C10.938125 8.834375 10.938125 8.834375 10.875 6.625 C10.8046875 4.1640625 10.8046875 4.1640625 11 2 C11.66 1.34 12.32 0.68 13 0 C14.01145381 3.03436144 14.14457559 5.62730772 14.24047852 8.80151367 C14.46472776 15.84141976 15.08873142 21.51907177 18.14453125 27.97265625 C19.29425747 30.69734988 19.30676226 33.0857585 19 36 C16.88336698 31.91621047 15.39448732 27.70808345 13.875 23.375 C13.59785156 22.59898438 13.32070313 21.82296875 13.03515625 21.0234375 C11 15.24880696 11 15.24880696 11 13 C9.37419034 13.11398665 7.74932843 13.24155659 6.125 13.375 C5.22007813 13.44460937 4.31515625 13.51421875 3.3828125 13.5859375 C0.82058097 13.79568132 0.82058097 13.79568132 -1 16 C-1.11138159 10.54230189 -0.91657981 5.38490641 0 0 Z " fill="#908F82" transform="translate(9,37)"/>
<path d="M0 0 C0.66 1.32 1.32 2.64 2 4 C3.65 3.67 5.3 3.34 7 3 C8.88391785 6.26545761 9.49287967 9.28111761 10 13 C10.66 12.34 11.32 11.68 12 11 C12.125 17.75 12.125 17.75 11 20 C10.77532169 21.53668865 10.59203195 23.07968054 10.4375 24.625 C10.293125 26.06875 10.14875 27.5125 10 29 C6.7 29 3.4 29 0 29 C-0.75406186 19.20879681 -1.22598899 9.78905055 0 0 Z M4 4 C0.2024544 8.34637504 0.64503208 12.87193964 0.8125 18.3125 C0.82603516 19.14845703 0.83957031 19.98441406 0.85351562 20.84570312 C0.88868783 22.89741498 0.94248952 24.94879275 1 27 C4.58327753 28.00217064 4.58327753 28.00217064 8 27 C8.02911321 23.9166866 8.04683682 20.83340875 8.0625 17.75 C8.07087891 16.87730469 8.07925781 16.00460938 8.08789062 15.10546875 C8.09272461 13.83896484 8.09272461 13.83896484 8.09765625 12.546875 C8.10551147 11.38430176 8.10551147 11.38430176 8.11352539 10.19824219 C8.00036998 8.00716402 7.60552448 6.10362139 7 4 C6.01 4 5.02 4 4 4 Z " fill="#AEA985" transform="translate(10,19)"/>
<path d="M0 0 C0.66 0.33 1.32 0.66 2 1 C1.67 3.31 1.34 5.62 1 8 C1.66 7.01 2.32 6.02 3 5 C2.25 11.625 2.25 11.625 0 15 C-0.33926947 17.33247761 -0.67240066 19.66585471 -1 22 C-2.0625 24.4375 -2.0625 24.4375 -3 26 C-5.76802738 21.84795893 -4.92323769 18.67429432 -4 14 C-2.77483368 9.29774222 -1.42125646 4.64717809 0 0 Z " fill="#BFBFBD" transform="translate(7,52)"/>
<path d="M0 0 C0.33 0 0.66 0 1 0 C1.33 4.95 1.66 9.9 2 15 C2.99 15.33 3.98 15.66 5 16 C6.58856103 27.05552606 6.58856103 27.05552606 4 31 C1.875 32.3125 1.875 32.3125 0 33 C0.33515625 32.46761719 0.6703125 31.93523437 1.015625 31.38671875 C3.76400685 24.72298338 1.04651256 15.78520805 -0.65625 9.01171875 C-1.2017179 5.81949185 -0.66992412 3.14864337 0 0 Z " fill="#DFDFDE" transform="translate(17,53)"/>
<path d="M0 0 C0.33 0 0.66 0 1 0 C1 3.63 1 7.26 1 11 C4.3 11 7.6 11 11 11 C11 8.03 11 5.06 11 2 C11.33 2 11.66 2 12 2 C12 6.29 12 10.58 12 15 C11.67 14.34 11.34 13.68 11 13 C9.37419034 13.11398665 7.74932843 13.24155659 6.125 13.375 C5.22007813 13.44460937 4.31515625 13.51421875 3.3828125 13.5859375 C0.82058097 13.79568132 0.82058097 13.79568132 -1 16 C-1.11138159 10.54230189 -0.91657981 5.38490641 0 0 Z " fill="#928E73" transform="translate(9,37)"/>
<path d="M0 0 C3.76428019 3.31087949 4.80132193 7.24690847 6 12 C6.1875 15.0625 6.1875 15.0625 6 17 C1.75990579 13.60792463 0.79787251 10.16571303 0 5 C-0.125 2 -0.125 2 0 0 Z " fill="#E8E8E8" transform="translate(19,51)"/>
<path d="M0 0 C0.66 0.33 1.32 0.66 2 1 C1.67 4.3 1.34 7.6 1 11 C0.01 11.33 -0.98 11.66 -2 12 C-3.35384615 5.72307692 -3.35384615 5.72307692 -1.5625 2.0625 C-1.046875 1.381875 -0.53125 0.70125 0 0 Z " fill="#AFAA83" transform="translate(15,5)"/>
<path d="M0 0 C2.64 0 5.28 0 8 0 C7.67 0.66 7.34 1.32 7 2 C5.68 2 4.36 2 3 2 C2.95101563 2.71027344 2.90203125 3.42054687 2.8515625 4.15234375 C2.77679687 5.07144531 2.70203125 5.99054687 2.625 6.9375 C2.55539063 7.85402344 2.48578125 8.77054688 2.4140625 9.71484375 C2.27742187 10.46894531 2.14078125 11.22304688 2 12 C1.01 12.495 1.01 12.495 0 13 C0 11.68 0 10.36 0 9 C-0.66 9.66 -1.32 10.32 -2 11 C-1.34 7.37 -0.68 3.74 0 0 Z " fill="#D6D7D6" transform="translate(9,51)"/>
<path d="M0 0 C1.65 1.65 3.3 3.3 5 5 C5.66 4.34 6.32 3.68 7 3 C8.65 4.65 10.3 6.3 12 8 C11.67 8.66 11.34 9.32 11 10 C7.10351684 9.42274324 4.8302055 7.68124732 2 5 C0.6875 2.25 0.6875 2.25 0 0 Z " fill="#D6D6D5" transform="translate(5,78)"/>
<path d="M0 0 C1.98 0.495 1.98 0.495 4 1 C3.53199289 5.05606165 3.12046792 8.46588679 1 12 C-1.23551759 8.64672361 -1.17283528 8.09256343 -0.625 4.3125 C-0.51414063 3.50425781 -0.40328125 2.69601563 -0.2890625 1.86328125 C-0.19367187 1.24839844 -0.09828125 0.63351563 0 0 Z " fill="#CDCDCC" transform="translate(3,66)"/>
<path d="M0 0 C0.33 0 0.66 0 1 0 C1.125 6.75 1.125 6.75 0 9 C-0.22467831 10.53668865 -0.40796805 12.07968054 -0.5625 13.625 C-0.64628906 14.44226562 -0.73007812 15.25953125 -0.81640625 16.1015625 C-0.87699219 16.72804688 -0.93757813 17.35453125 -1 18 C-1.99 17.67 -2.98 17.34 -4 17 C-3.34 17 -2.68 17 -2 17 C-2.02320312 15.94039062 -2.04640625 14.88078125 -2.0703125 13.7890625 C-2.08906944 12.4010487 -2.10726972 11.0130273 -2.125 9.625 C-2.14175781 8.92632812 -2.15851562 8.22765625 -2.17578125 7.5078125 C-2.19344267 5.67102514 -2.10303261 3.83398037 -2 2 C-1.34 1.34 -0.68 0.68 0 0 Z " fill="#A4A083" transform="translate(21,30)"/>
<path d="M0 0 C0.33 0 0.66 0 1 0 C2.58856103 11.05552606 2.58856103 11.05552606 0 15 C-2.125 16.3125 -2.125 16.3125 -4 17 C-3.69320313 16.47921875 -3.38640625 15.9584375 -3.0703125 15.421875 C-1.72751849 12.38343599 -1.3350559 9.53611355 -0.875 6.25 C-0.70742188 5.07953125 -0.53984375 3.9090625 -0.3671875 2.703125 C-0.24601562 1.81109375 -0.12484375 0.9190625 0 0 Z " fill="#D8D8D6" transform="translate(21,69)"/>
<path d="M0 0 C0.33 0.99 0.66 1.98 1 3 C0.01 3.99 -0.98 4.98 -2 6 C-4 5 -4 5 -6 2 C-2.25 0 -2.25 0 0 0 Z " fill="#E2E2E1" transform="translate(19,80)"/>
<path d="M0 0 C0.5625 1.9375 0.5625 1.9375 1 4 C0.67 4.33 0.34 4.66 0 5 C-0.36760731 7.32817964 -0.70241581 9.6618385 -1 12 C-1.66 11.34 -2.32 10.68 -3 10 C-2.79296875 7.87109375 -2.79296875 7.87109375 -2.1875 5.4375 C-1.99542969 4.63183594 -1.80335937 3.82617188 -1.60546875 2.99609375 C-1 1 -1 1 0 0 Z " fill="#DADBD9" transform="translate(8,64)"/>
</svg>
