<?xml version="1.0" encoding="UTF-8"?>
<!DOCTYPE svg PUBLIC "-//W3C//DTD SVG 1.1//EN" "http://www.w3.org/Graphics/SVG/1.1/DTD/svg11.dtd">
<svg xmlns="http://www.w3.org/2000/svg" version="1.1" width="36px" height="83px" style="shape-rendering:geometricPrecision; text-rendering:geometricPrecision; image-rendering:optimizeQuality; fill-rule:evenodd; clip-rule:evenodd" xmlns:xlink="http://www.w3.org/1999/xlink">
<g><path style="opacity:1" fill="#fcfcfc" d="M -0.5,-0.5 C 11.5,-0.5 23.5,-0.5 35.5,-0.5C 35.5,27.1667 35.5,54.8333 35.5,82.5C 23.5,82.5 11.5,82.5 -0.5,82.5C -0.5,54.8333 -0.5,27.1667 -0.5,-0.5 Z"/></g>
<g><path style="opacity:1" fill="#f7fbe4" d="M 14.5,4.5 C 14.8333,5.16667 15.1667,5.83333 15.5,6.5C 17.4758,10.542 17.8091,14.7086 16.5,19C 16.7579,21.0093 17.4245,22.8427 18.5,24.5C 4.7645,25.742 0.264496,19.742 5,6.5C 7.82627,4.66019 10.9929,3.99353 14.5,4.5 Z"/></g>
<g><path style="opacity:1" fill="#aaa79c" d="M 30.5,5.5 C 28.772,4.62097 26.9386,3.9543 25,3.5C 23.9302,3.52804 23.0968,3.86137 22.5,4.5C 20.079,4.87816 17.7457,5.54483 15.5,6.5C 15.1667,5.83333 14.8333,5.16667 14.5,4.5C 18.0105,3.94235 21.5105,3.27568 25,2.5C 27.6546,2.12398 29.488,3.12398 30.5,5.5 Z"/></g>
<g><path style="opacity:1" fill="#dad6c6" d="M 22.5,4.5 C 23.0968,3.86137 23.9302,3.52804 25,3.5C 26.9386,3.9543 28.772,4.62097 30.5,5.5C 31.9419,11.2037 31.7752,16.8703 30,22.5C 28.2458,24.25 26.0792,24.9167 23.5,24.5C 24.1295,21.0829 24.4629,17.5829 24.5,14C 24.4848,10.4242 23.8182,7.25751 22.5,4.5 Z"/></g>
<g><path style="opacity:1" fill="#f3f2ec" d="M 22.5,4.5 C 23.8182,7.25751 24.4848,10.4242 24.5,14C 24.4629,17.5829 24.1295,21.0829 23.5,24.5C 21.8333,24.5 20.1667,24.5 18.5,24.5C 17.4245,22.8427 16.7579,21.0093 16.5,19C 17.8091,14.7086 17.4758,10.542 15.5,6.5C 17.7457,5.54483 20.079,4.87816 22.5,4.5 Z"/></g>
<g><path style="opacity:1" fill="#f6db89" d="M 20.5,26.5 C 21.552,26.3505 22.552,26.5172 23.5,27C 22.5939,28.6995 22.2606,30.5328 22.5,32.5C 21.0937,32.9731 20.427,33.9731 20.5,35.5C 20.1667,35.5 19.8333,35.5 19.5,35.5C 18.0527,34.1148 17.0527,34.4482 16.5,36.5C 15.4139,42.0083 14.4139,47.675 13.5,53.5C 13.5992,55.7986 14.2658,57.7986 15.5,59.5C 16.6737,60.5137 17.3404,61.847 17.5,63.5C 17.7019,67.8453 16.3686,68.512 13.5,65.5C 13.2624,63.5956 12.2624,62.2623 10.5,61.5C 10.1075,59.7162 9.4408,58.0495 8.5,56.5C 8.90325,50.3853 9.90325,44.3853 11.5,38.5C 11.1667,37.5 10.5,36.8333 9.5,36.5C 8.83319,41.9853 8.16653,47.3187 7.5,52.5C 6.54472,46.5907 6.21139,40.5907 6.5,34.5C 6.5,32.5 6.5,30.5 6.5,28.5C 11.1065,27.4456 15.7732,26.779 20.5,26.5 Z"/></g>
<g><path style="opacity:1" fill="#f1ca7c" d="M 20.5,26.5 C 22.9479,25.5269 25.6146,25.1936 28.5,25.5C 29.0534,30.482 29.3867,35.482 29.5,40.5C 29.5,43.1667 29.5,45.8333 29.5,48.5C 26.7949,43.4043 24.4615,38.0709 22.5,32.5C 22.2606,30.5328 22.5939,28.6995 23.5,27C 22.552,26.5172 21.552,26.3505 20.5,26.5 Z"/></g>
<g><path style="opacity:1" fill="#9f9885" d="M 19.5,35.5 C 18.391,35.5569 17.391,35.8902 16.5,36.5C 17.0527,34.4482 18.0527,34.1148 19.5,35.5 Z"/></g>
<g><path style="opacity:1" fill="#a7a28f" d="M 14.5,4.5 C 10.9929,3.99353 7.82627,4.66019 5,6.5C 0.264496,19.742 4.7645,25.742 18.5,24.5C 20.1667,24.5 21.8333,24.5 23.5,24.5C 26.0792,24.9167 28.2458,24.25 30,22.5C 31.7752,16.8703 31.9419,11.2037 30.5,5.5C 32.9588,6.8738 33.9588,9.04047 33.5,12C 32.9524,17.5237 31.6191,22.8571 29.5,28C 30.3491,32.8092 31.0158,37.6425 31.5,42.5C 30.8333,41.8333 30.1667,41.1667 29.5,40.5C 29.3867,35.482 29.0534,30.482 28.5,25.5C 25.6146,25.1936 22.9479,25.5269 20.5,26.5C 15.7732,26.779 11.1065,27.4456 6.5,28.5C 6.5,30.5 6.5,32.5 6.5,34.5C 3.78578,25.7991 2.61912,16.7991 3,7.5C 5.86575,2.32562 9.69909,1.32562 14.5,4.5 Z"/></g>
<g><path style="opacity:1" fill="#f4ebc8" d="M 8.5,56.5 C 7.56552,55.4324 7.23219,54.099 7.5,52.5C 8.16653,47.3187 8.83319,41.9853 9.5,36.5C 10.5,36.8333 11.1667,37.5 11.5,38.5C 9.90325,44.3853 8.90325,50.3853 8.5,56.5 Z"/></g>
<g><path style="opacity:1" fill="#a79e85" d="M 20.5,37.5 C 21.9313,38.7804 22.5979,40.4471 22.5,42.5C 21.0687,41.2196 20.4021,39.5529 20.5,37.5 Z"/></g>
<g><path style="opacity:1" fill="#a3987d" d="M 23.5,44.5 C 24.9313,45.7804 25.5979,47.4471 25.5,49.5C 24.0687,48.2196 23.4021,46.5529 23.5,44.5 Z"/></g>
<g><path style="opacity:1" fill="#fef0c6" d="M 22.5,32.5 C 24.4615,38.0709 26.7949,43.4043 29.5,48.5C 30.5366,50.7375 30.7033,53.0709 30,55.5C 28.3333,51.1667 26.6667,46.8333 25,42.5C 23.9741,39.7613 22.4741,37.428 20.5,35.5C 20.427,33.9731 21.0937,32.9731 22.5,32.5 Z"/></g>
<g><path style="opacity:1" fill="#a99776" d="M 31.5,42.5 C 32.9238,44.5145 33.5905,46.8478 33.5,49.5C 31.8372,47.5615 31.1706,45.2282 31.5,42.5 Z"/></g>
<g><path style="opacity:1" fill="#b9ae91" d="M 16.5,36.5 C 16.1114,44.1637 15.778,51.8304 15.5,59.5C 14.2658,57.7986 13.5992,55.7986 13.5,53.5C 14.4139,47.675 15.4139,42.0083 16.5,36.5 Z"/></g>
<g><path style="opacity:1" fill="#bab2a1" d="M 25.5,49.5 C 27.2766,52.5046 28.2766,55.8379 28.5,59.5C 26.32,56.619 25.32,53.2856 25.5,49.5 Z"/></g>
<g><path style="opacity:1" fill="#e1b36d" d="M 20.5,35.5 C 22.4741,37.428 23.9741,39.7613 25,42.5C 26.6667,46.8333 28.3333,51.1667 30,55.5C 30.7033,53.0709 30.5366,50.7375 29.5,48.5C 29.5,45.8333 29.5,43.1667 29.5,40.5C 30.1667,41.1667 30.8333,41.8333 31.5,42.5C 31.1706,45.2282 31.8372,47.5615 33.5,49.5C 33.666,54.8437 33.4994,60.1771 33,65.5C 32.6174,66.056 32.1174,66.3893 31.5,66.5C 31.0652,63.8427 30.0652,61.5093 28.5,59.5C 28.2766,55.8379 27.2766,52.5046 25.5,49.5C 25.5979,47.4471 24.9313,45.7804 23.5,44.5C 23.6716,43.5084 23.3382,42.8417 22.5,42.5C 22.5979,40.4471 21.9313,38.7804 20.5,37.5C 20.5,36.8333 20.5,36.1667 20.5,35.5 Z"/></g>
<g><path style="opacity:1" fill="#9c8f76" d="M 33.5,49.5 C 34.6517,54.9846 34.8184,60.6513 34,66.5C 33.0228,67.7736 32.1894,67.7736 31.5,66.5C 32.1174,66.3893 32.6174,66.056 33,65.5C 33.4994,60.1771 33.666,54.8437 33.5,49.5 Z"/></g>
<g><path style="opacity:1" fill="#ada48e" d="M 10.5,61.5 C 12.2624,62.2623 13.2624,63.5956 13.5,65.5C 11.7376,64.7377 10.7376,63.4044 10.5,61.5 Z"/></g>
<g><path style="opacity:1" fill="#a4957a" d="M 28.5,59.5 C 30.0652,61.5093 31.0652,63.8427 31.5,66.5C 29.5516,64.6796 28.5516,62.3462 28.5,59.5 Z"/></g>
<g><path style="opacity:1" fill="#afa99b" d="M 17.5,63.5 C 18.4511,64.9187 18.7845,66.5853 18.5,68.5C 15.715,69.0838 14.0483,68.0838 13.5,65.5C 16.3686,68.512 17.7019,67.8453 17.5,63.5 Z"/></g>
</svg>
