<?xml version="1.0" encoding="UTF-8"?>
<svg version="1.1" xmlns="http://www.w3.org/2000/svg" width="27" height="88">
<path d="M0 0 C8.91 0 17.82 0 27 0 C27 29.04 27 58.08 27 88 C18.09 88 9.18 88 0 88 C0 58.96 0 29.92 0 0 Z " fill="#FDFDFD" transform="translate(0,0)"/>
<path d="M0 0 C3.53448623 1.61704424 4.65564672 2.57147453 6.0625 6.25 C9.92273436 16.87699813 11.36140975 27.69459477 12.26611328 38.89599609 C12.58989135 42.72086375 13.0099419 46.31310222 14.04296875 50.015625 C15.24751729 54.47786642 15.29546701 58.77525405 15.25 63.375 C15.25773437 64.18066406 15.26546875 64.98632812 15.2734375 65.81640625 C15.25357143 71.74642857 15.25357143 71.74642857 13 74 C10.25514407 74.14507695 7.61519457 74.18652423 4.875 74.125 C4.12089844 74.11597656 3.36679688 74.10695313 2.58984375 74.09765625 C0.72642746 74.0740687 -1.13682593 74.03819719 -3 74 C-5.65818952 67.04210951 -6.39076038 58.96942429 -4.359375 51.7109375 C-3.63955431 50.10898362 -2.82475564 48.55054061 -2 47 C-0.66494528 42.19729998 -0.77621848 37.27284616 -0.68359375 32.32421875 C-0.66281265 31.3990596 -0.64203156 30.47390045 -0.62062073 29.52070618 C-0.5554344 26.57637693 -0.49638442 23.63196135 -0.4375 20.6875 C-0.39428536 18.68684017 -0.35067014 16.68618894 -0.30664062 14.68554688 C-0.1997848 9.79045221 -0.09843081 4.89527103 0 0 Z " fill="#B1AB97" transform="translate(8,10)"/>
<path d="M0 0 C3.5985512 2.75337089 3.8988281 5.88248307 4.66015625 10.1484375 C5.21097596 14.77025802 5.15897136 19.35450374 5 24 C1.69453961 25.98170967 -0.79821459 26.24423132 -4.625 26.1875 C-5.58664063 26.18105469 -6.54828125 26.17460938 -7.5390625 26.16796875 C-10 26 -10 26 -12 25 C-12.08115993 21.93696422 -12.14057409 18.87609185 -12.1875 15.8125 C-12.21263672 14.94818359 -12.23777344 14.08386719 -12.26367188 13.19335938 C-12.31937772 8.34695118 -12.31364514 4.85433315 -9 1 C-5.72429875 -0.09190042 -3.43202271 -0.28600189 0 0 Z " fill="#F4F3EE" transform="translate(17,56)"/>
<path d="M0 0 C3.03888144 3.86766728 5.1186415 7.13656605 5.59765625 12.08984375 C5.6764502 12.8686792 5.75524414 13.64751465 5.83642578 14.44995117 C5.91103027 15.27084229 5.98563477 16.0917334 6.0625 16.9375 C6.14483887 17.77837158 6.22717773 18.61924316 6.31201172 19.4855957 C6.96969131 26.31699832 7.51675618 33.15404583 8 40 C4.37 40 0.74 40 -3 40 C-2.55042241 26.57182717 -1.84075969 13.31423274 0 0 Z " fill="#F8D17E" transform="translate(11,16)"/>
<path d="M0 0 C-1.32 0.33 -2.64 0.66 -4 1 C-3.91621094 2.134375 -3.83242187 3.26875 -3.74609375 4.4375 C-3.64282913 5.95830622 -3.53998716 7.47914119 -3.4375 9 C-3.38142578 9.74378906 -3.32535156 10.48757812 -3.26757812 11.25390625 C-2.93652715 16.33002118 -3.22836955 20.97011262 -4 26 C-9.75 26.125 -9.75 26.125 -12 25 C-12.08115993 21.93696422 -12.14057409 18.87609185 -12.1875 15.8125 C-12.21263672 14.94818359 -12.23777344 14.08386719 -12.26367188 13.19335938 C-12.31937772 8.34695118 -12.31364514 4.85433315 -9 1 C-5.8035914 -0.06546953 -3.34252724 -0.07427838 0 0 Z " fill="#E8E6DB" transform="translate(17,56)"/>
<path d="M0 0 C3.42105925 1.43075356 3.94191744 1.89184626 5.8125 5.375 C7.32434861 9.9901168 7.32434861 9.9901168 6 13 C5.34 11.35 4.68 9.7 4 8 C2.02613332 20.30313017 1.41945065 32.55800242 1 45 C3.64 45 6.28 45 9 45 C9 45.33 9 45.66 9 46 C8.38511719 46.10957031 7.77023437 46.21914063 7.13671875 46.33203125 C6.32847656 46.49058594 5.52023437 46.64914063 4.6875 46.8125 C3.88699219 46.96332031 3.08648437 47.11414062 2.26171875 47.26953125 C-0.26202366 48.08462595 -1.21990893 49.09451887 -3 51 C-2.67854004 49.72261963 -2.35708008 48.44523926 -2.02587891 47.12915039 C-0.89846177 42.0371383 -0.65481235 37.1344252 -0.5859375 31.93359375 C-0.56657135 31.01409439 -0.5472052 30.09459503 -0.5272522 29.14723206 C-0.4680316 26.24407893 -0.42130367 23.3408849 -0.375 20.4375 C-0.33676715 18.45506195 -0.29771243 16.47263957 -0.2578125 14.49023438 C-0.16237822 9.66028528 -0.07813794 4.83025861 0 0 Z " fill="#B4A07D" transform="translate(8,10)"/>
<path d="M0 0 C1.98223068 2.58504604 3.62594577 5.04049858 5 8 C4.01 8.495 4.01 8.495 3 9 C3.03480469 10.03640625 3.06960937 11.0728125 3.10546875 12.140625 C3.13361482 13.51040042 3.16091411 14.88019341 3.1875 16.25 C3.22520508 17.27287109 3.22520508 17.27287109 3.26367188 18.31640625 C3.32646866 22.62845235 2.90348549 24.82233549 0 28 C-0.69580267 29.31836295 -1.37224433 30.64791086 -2 32 C-2.28435784 21.14700916 -1.47317858 10.74631163 0 0 Z " fill="#EAC37E" transform="translate(11,16)"/>
<path d="M0 0 C0.66 0 1.32 0 2 0 C1.67 7.92 1.34 15.84 1 24 C1.66 24.33 2.32 24.66 3 25 C1.02 24.67 -0.96 24.34 -3 24 C-3.08115993 20.93696422 -3.14057409 17.87609185 -3.1875 14.8125 C-3.21263672 13.94818359 -3.23777344 13.08386719 -3.26367188 12.19335938 C-3.31933634 7.35055062 -3.30477143 3.86490218 0 0 Z " fill="#DDDACA" transform="translate(8,57)"/>
<path d="M0 0 C0.99 0.495 0.99 0.495 2 1 C4.83460811 10.17079095 5.18269195 19.45942021 5 29 C4.34 29 3.68 29 3 29 C2.49045093 25.66805501 1.99412986 22.33426366 1.5 19 C1.35691406 18.06542969 1.21382812 17.13085938 1.06640625 16.16796875 C0.2649739 10.71059609 -0.15609327 5.51529539 0 0 Z " fill="#FFF2C4" transform="translate(13,24)"/>
<path d="M0 0 C3 2 3 2 3.73046875 3.99609375 C4.92735146 10.389698 5.2223649 16.50200362 5 23 C4.34 23 3.68 23 3 23 C1.02462968 15.36190145 0.42522771 7.8667126 0 0 Z " fill="#F6FAE4" transform="translate(17,57)"/>
<path d="M0 0 C0.99 0.495 0.99 0.495 2 1 C2.48290232 3.4174925 2.84261774 5.74558785 3.125 8.1875 C3.21136719 8.84814453 3.29773438 9.50878906 3.38671875 10.18945312 C3.87912626 14.14825318 4.08680636 18.01310809 4 22 C2.68 22 1.36 22 0 22 C0 14.74 0 7.48 0 0 Z " fill="#FDFDFC" transform="translate(16,59)"/>
<path d="M0 0 C0.33 0 0.66 0 1 0 C0.85865273 2.89611544 0.7120847 5.7918081 0.5625 8.6875 C0.50352539 9.91243164 0.50352539 9.91243164 0.44335938 11.16210938 C0.23101997 15.19655811 -0.04447922 19.05747309 -1 23 C-1.33 23 -1.66 23 -2 23 C-2.0582253 19.91674642 -2.09367134 16.83363495 -2.125 13.75 C-2.14175781 12.87730469 -2.15851562 12.00460938 -2.17578125 11.10546875 C-2.18222656 10.26113281 -2.18867187 9.41679688 -2.1953125 8.546875 C-2.20578613 7.77182617 -2.21625977 6.99677734 -2.22705078 6.19824219 C-1.97326556 3.74116461 -1.22444152 2.12688458 0 0 Z " fill="#D6D2BF" transform="translate(7,58)"/>
<path d="M0 0 C0.33 0 0.66 0 1 0 C1.3697479 7.39495798 1.3697479 7.39495798 -0.375 10.25 C-0.91125 10.8275 -1.4475 11.405 -2 12 C-2.6900544 13.32138077 -3.3601729 14.65358123 -4 16 C-4.68875775 6.31912716 -4.68875775 6.31912716 -2.0625 2.375 C-1.0415625 1.199375 -1.0415625 1.199375 0 0 Z " fill="#F1C778" transform="translate(13,32)"/>
<path d="M0 0 C0.33 0 0.66 0 1 0 C1 2.31 1 4.62 1 7 C1.66 7 2.32 7 3 7 C3.33 6.01 3.66 5.02 4 4 C4 5.98 4 7.96 4 10 C1.03 9.67 -1.94 9.34 -5 9 C-4.01 7.02 -3.02 5.04 -2 3 C-1.34 3 -0.68 3 0 3 C0 2.01 0 1.02 0 0 Z " fill="#FBDE89" transform="translate(15,46)"/>
<path d="M0 0 C0.99 0.495 0.99 0.495 2 1 C4.38056989 8.64288227 4.38056989 8.64288227 3 13 C2.34 13 1.68 13 1 13 C-0.10228696 8.59085217 -0.07654536 4.51617599 0 0 Z " fill="#FBE5AB" transform="translate(13,24)"/>
</svg>
