<?xml version="1.0" encoding="UTF-8"?>
<svg version="1.1" xmlns="http://www.w3.org/2000/svg" width="30" height="90">
<path d="M0 0 C9.9 0 19.8 0 30 0 C30 29.7 30 59.4 30 90 C20.1 90 10.2 90 0 90 C0 60.3 0 30.6 0 0 Z " fill="#FDFDFD" transform="translate(0,0)"/>
<path d="M0 0 C0.66 0 1.32 0 2 0 C6.96756709 9.46000117 7.00779644 19.46450236 7.56079102 29.88598633 C8.09184803 39.42586626 9.16917724 48.11700798 12.3011322 57.19032288 C13.9458919 62.06908843 14.32779656 65.91864687 14 71 C12.609375 73.64453125 12.609375 73.64453125 10.75 75.8125 C10.14671875 76.54082031 9.5434375 77.26914063 8.921875 78.01953125 C7.05432088 79.944023 5.2410328 81.52917723 3 83 C0.01516598 83 -1.08844836 81.92551717 -3.375 80 C-11.68475533 70.50313676 -11.68475533 70.50313676 -12.26171875 65.921875 C-11.91459126 62.46421299 -10.8567021 59.66539201 -9.484375 56.4609375 C-7.52140003 51.28690483 -7.43969768 46.16781635 -7.1875 40.6875 C-6.34140124 26.7646614 -3.36702854 13.50454017 0 0 Z " fill="#DFDFDE" transform="translate(14,5)"/>
<path d="M0 0 C0.66 0 1.32 0 2 0 C6.37681024 8.31633459 6.99038087 16.72118954 7.63842773 25.91552734 C7.81370126 28.39197262 8.01333485 30.86556968 8.21679688 33.33984375 C8.33995171 34.92176586 8.46174599 36.50379461 8.58203125 38.0859375 C8.64026566 38.82137787 8.69850006 39.55681824 8.75849915 40.31454468 C8.99313423 43.73352738 9.14148376 46.73392627 8 50 C7.79375 49.360625 7.5875 48.72125 7.375 48.0625 C6.10461791 45.65074923 6.10461791 45.65074923 2.875 45.25 C1.92625 45.1675 0.9775 45.085 0 45 C-0.33 45.99 -0.66 46.98 -1 48 C-1.66 47.34 -2.32 46.68 -3 46 C-3.474375 46.825 -3.94875 47.65 -4.4375 48.5 C-4.953125 49.325 -5.46875 50.15 -6 51 C-6.33 51 -6.66 51 -7 51 C-7.69312523 33.51784133 -4.15701902 16.87037091 0 0 Z " fill="#A8A484" transform="translate(14,5)"/>
<path d="M0 0 C1.00054425 3.99580412 1.82284643 7.87715329 2 12 C-0.20079583 15.30119374 -1.60759991 16.51077835 -5.3125 17.8125 C-5.869375 17.874375 -6.42625 17.93625 -7 18 C-10.05962343 11.63598326 -10.05962343 11.63598326 -9.8125 9 C-9.544375 8.34 -9.27625 7.68 -9 7 C-8.690625 5.783125 -8.38125 4.56625 -8.0625 3.3125 C-7.711875 2.219375 -7.36125 1.12625 -7 0 C-4.3333581 -1.33332095 -2.83319697 -0.67102033 0 0 Z " fill="#F4F5F4" transform="translate(20,64)"/>
<path d="M0 0 C0.66 0.33 1.32 0.66 2 1 C1.91213297 2.73007151 1.80394326 4.45911665 1.6875 6.1875 C1.62949219 7.15042969 1.57148438 8.11335938 1.51171875 9.10546875 C1 12 1 12 -0.53125 14.46875 C-2.36342664 17.62633102 -2.30679895 19.69376517 -2.1875 23.3125 C-2.16042969 24.38113281 -2.13335938 25.44976562 -2.10546875 26.55078125 C-2.07066406 27.35902344 -2.03585938 28.16726562 -2 29 C-2.99 29 -3.98 29 -5 29 C-8.03630791 25.62632454 -9 23.76417366 -9 19.1875 C-7.65094104 12.06065316 -4.18735582 5.83238846 0 0 Z " fill="#B1B1B0" transform="translate(11,50)"/>
<path d="M0 0 C1.84910312 3.19600396 2.36350683 5.83537448 2.66796875 9.5 C2.75626953 10.551875 2.84457031 11.60375 2.93554688 12.6875 C3.01869141 13.780625 3.10183594 14.87375 3.1875 16 C3.28224609 17.093125 3.37699219 18.18625 3.47460938 19.3125 C4.18755827 28.19442828 4.18755827 28.19442828 3 32 C2.79375 31.360625 2.5875 30.72125 2.375 30.0625 C1.10461791 27.65074923 1.10461791 27.65074923 -2.125 27.25 C-3.07375 27.1675 -4.0225 27.085 -5 27 C-5.33 27.99 -5.66 28.98 -6 30 C-6.66 29.34 -7.32 28.68 -8 28 C-8.474375 28.825 -8.94875 29.65 -9.4375 30.5 C-10.2109375 31.7375 -10.2109375 31.7375 -11 33 C-11.33 33 -11.66 33 -12 33 C-12.27990605 25.10042938 -11.51537186 17.7527507 -10 10 C-9.67 10 -9.34 10 -9 10 C-8.67 14.62 -8.34 19.24 -8 24 C-5.03 24.33 -2.06 24.66 1 25 C0.9278125 24.28457031 0.855625 23.56914063 0.78125 22.83203125 C0.07034393 15.19966468 -0.11123156 7.6626184 0 0 Z " fill="#9E9A80" transform="translate(19,23)"/>
<path d="M0 0 C0.66 0 1.32 0 2 0 C3.2263757 2.45275141 3.11415314 4.0505781 3.09765625 6.7890625 C3.09282227 8.20058594 3.09282227 8.20058594 3.08789062 9.640625 C3.07951172 10.62546875 3.07113281 11.6103125 3.0625 12.625 C3.05798828 13.61757813 3.05347656 14.61015625 3.04882812 15.6328125 C3.03702145 18.0886016 3.020554 20.54427104 3 23 C1.35 23 -0.3 23 -2 23 C-3.11087461 15.47073873 -4.39647067 6.594706 0 0 Z " fill="#CAC590" transform="translate(16,24)"/>
<path d="M0 0 C1.98 0 3.96 0 6 0 C11.10540597 8.53591591 14.54948726 15.92606692 14 26 C13.34 26.33 12.68 26.66 12 27 C9.59425724 24.59425724 9.54303718 23.36435997 9 20.0625 C8.42540289 16.57900503 8.00936183 15.01404274 6 12 C5.47609002 9.4345043 5.11579439 6.87080829 4.7578125 4.27734375 C4.20925142 1.82640795 4.20925142 1.82640795 1.9296875 0.69140625 C0.97449219 0.34916016 0.97449219 0.34916016 0 0 Z " fill="#C7C7C7" transform="translate(14,50)"/>
<path d="M0 0 C0.66 0 1.32 0 2 0 C5.03901852 5.82478551 5.3540919 10.48208608 5 17 C3.02 17 1.04 17 -1 17 C-1.66 18.32 -2.32 19.64 -3 21 C-2.48462048 13.86606248 -1.55994099 6.98187183 0 0 Z " fill="#9B9774" transform="translate(14,5)"/>
<path d="M0 0 C0.33 0 0.66 0 1 0 C1.25 7.625 1.25 7.625 -1 11 C-1 10.34 -1 9.68 -1 9 C-2.9591474 10.63072223 -3.9068329 11.55078834 -4.43237305 14.0847168 C-4.45855713 14.86500244 -4.48474121 15.64528809 -4.51171875 16.44921875 C-4.56489258 17.72055664 -4.56489258 17.72055664 -4.61914062 19.01757812 C-4.64169922 19.89865234 -4.66425781 20.77972656 -4.6875 21.6875 C-4.72166016 22.58017578 -4.75582031 23.47285156 -4.79101562 24.39257812 C-4.87345648 26.59492671 -4.94261551 28.79687938 -5 31 C-5.66 30.67 -6.32 30.34 -7 30 C-7.02894547 26.54168414 -7.04678 23.08339928 -7.0625 19.625 C-7.07087891 18.64015625 -7.07925781 17.6553125 -7.08789062 16.640625 C-7.09111328 15.69960938 -7.09433594 14.75859375 -7.09765625 13.7890625 C-7.10289307 12.91975098 -7.10812988 12.05043945 -7.11352539 11.15478516 C-7 9 -7 9 -6 7 C-4.02 7 -2.04 7 0 7 C0 4.69 0 2.38 0 0 Z " fill="#B7B38B" transform="translate(19,15)"/>
<path d="M0 0 C0.33 0 0.66 0 1 0 C1.03738281 0.98742188 1.07476562 1.97484375 1.11328125 2.9921875 C1.17902344 4.27351563 1.24476562 5.55484375 1.3125 6.875 C1.37050781 8.15117188 1.42851562 9.42734375 1.48828125 10.7421875 C1.65714844 11.81726563 1.82601563 12.89234375 2 14 C2.99 14.66 3.98 15.32 5 16 C2.66666667 18.33333333 0.33333333 20.66666667 -2 23 C-2.27990605 15.10042938 -1.51537186 7.7527507 0 0 Z " fill="#8A866F" transform="translate(9,33)"/>
<path d="M0 0 C0.33 0 0.66 0 1 0 C0.83007387 8.12555866 -0.88295322 13.99646286 -5 21 C-5.33 21 -5.66 21 -6 21 C-5.60983685 13.19673706 -3.24226342 7.07076635 0 0 Z " fill="#EAEAEA" transform="translate(10,52)"/>
<path d="M0 0 C0.33 0 0.66 0 1 0 C1.33 3.3 1.66 6.6 2 10 C1.01 10 0.02 10 -1 10 C-2.6875 7.5 -2.6875 7.5 -4 5 C-1.125 1.125 -1.125 1.125 0 0 Z " fill="#C7C7C7" transform="translate(7,69)"/>
<path d="M0 0 C2.67550292 2.67550292 2.83209389 4.94879894 3.625 8.625 C4.01558594 10.40777344 4.01558594 10.40777344 4.4140625 12.2265625 C4.70410156 13.59941406 4.70410156 13.59941406 5 15 C4.01 15.495 4.01 15.495 3 16 C0.14206684 13.14206684 0.59200059 10.85334416 0.375 6.875 C0.30023437 5.59367187 0.22546875 4.31234375 0.1484375 2.9921875 C0.09945313 2.00476562 0.05046875 1.01734375 0 0 Z " fill="#D3D4D3" transform="translate(23,61)"/>
<path d="M0 0 C0.33 0 0.66 0 1 0 C1.41176754 3.60296594 1.1535853 4.78402067 -1 7.8125 C-1.66 8.534375 -2.32 9.25625 -3 10 C-3.99 9.67 -4.98 9.34 -6 9 C-4 6 -2 3 0 0 Z " fill="#EAEAE9" transform="translate(25,74)"/>
<path d="M0 0 C0.33 0 0.66 0 1 0 C1.12375 1.2375 1.2475 2.475 1.375 3.75 C1.75746305 6.8762197 2.30549523 9.28879237 4 12 C3.01 12.495 3.01 12.495 2 13 C1.71125 12.195625 1.4225 11.39125 1.125 10.5625 C0.26737432 7.8673532 0.26737432 7.8673532 -2 7 C-1.34 4.69 -0.68 2.38 0 0 Z " fill="#DBDBDA" transform="translate(19,54)"/>
<path d="M0 0 C0.33 0 0.66 0 1 0 C1.99 3.96 2.98 7.92 4 12 C0 8 0 8 -0.390625 5.859375 C-0.26041667 3.90625 -0.13020833 1.953125 0 0 Z " fill="#C5C5C5" transform="translate(20,54)"/>
<path d="M0 0 C1.32 0.99 2.64 1.98 4 3 C3.67 4.32 3.34 5.64 3 7 C2.01 7 1.02 7 0 7 C0 4.69 0 2.38 0 0 Z " fill="#BBB78A" transform="translate(15,9)"/>
</svg>
