<?xml version="1.0" encoding="UTF-8"?>
<svg version="1.1" xmlns="http://www.w3.org/2000/svg" width="30" height="90">
<path d="M0 0 C9.9 0 19.8 0 30 0 C30 29.7 30 59.4 30 90 C20.1 90 10.2 90 0 90 C0 60.3 0 30.6 0 0 Z " fill="#F8F8F7" transform="translate(0,0)"/>
<path d="M0 0 C9.9 0 19.8 0 30 0 C30 29.7 30 59.4 30 90 C20.1 90 10.2 90 0 90 C0 60.3 0 30.6 0 0 Z M19 10 C18.05752363 12.08503151 17.12639155 14.17416943 16.20703125 16.26953125 C15.41214653 18.06766854 14.59743709 19.85719233 13.76171875 21.63671875 C8.31520851 33.72695975 6.05955906 46.78797072 4.4921875 59.88671875 C4 63 4 63 2.96875 66.41015625 C1.91707094 70.30730569 1.66547648 73.71854292 1.625 77.75 C1.59664063 79.04421875 1.56828125 80.3384375 1.5390625 81.671875 C1.71682346 84.95292865 1.71682346 84.95292865 3.4609375 86.92578125 C7.29180977 88.5465349 10.88171313 88.47368303 15 88.4375 C15.80695312 88.45748047 16.61390625 88.47746094 17.4453125 88.49804688 C22.33488374 88.50018642 22.33488374 88.50018642 26.5 86.09765625 C28.80020138 82.88096839 29.18241612 80.98799694 29.25 77.0625 C29.27578125 76.18722656 29.3015625 75.31195313 29.328125 74.41015625 C29.03297625 71.34271742 28.42073695 68.98327244 27.515625 66.0625 C25.5131434 59.05322195 25.5599645 52.18343248 25.5 44.9375 C25.30663001 33.39483879 24.46331326 22.29405893 22 11 C21.01 10.67 20.02 10.34 19 10 Z " fill="#FDFDFD" transform="translate(0,0)"/>
<path d="M0 0 C0.99 0.33 1.98 0.66 3 1 C6.40400193 16.31800866 6.32581173 31.36437845 6 47 C5.34 46.34 4.68 45.68 4 45 C4 44.01 4 43.02 4 42 C1.00519083 41.1276588 -1.63575911 40.89170234 -4.75 40.9375 C-5.54921875 40.94652344 -6.3484375 40.95554688 -7.171875 40.96484375 C-7.77515625 40.97644531 -8.3784375 40.98804688 -9 41 C-9.99 43.475 -9.99 43.475 -11 46 C-11.33 46 -11.66 46 -12 46 C-13.0047922 29.44883963 -7.64616644 14.48747326 0 0 Z " fill="#969275" transform="translate(19,10)"/>
<path d="M0 0 C0.66 0.99 1.32 1.98 2 3 C2.66 2.34 3.32 1.68 4 1 C6.0234375 0.734375 6.0234375 0.734375 8.375 0.75 C9.14585938 0.74484375 9.91671875 0.7396875 10.7109375 0.734375 C13.43783022 1.05080624 14.80562978 1.31202291 17 3 C18.08416521 5.49562558 18.92493558 7.78571375 19.6875 10.375 C19.89955078 11.04789063 20.11160156 11.72078125 20.33007812 12.4140625 C20.90891482 14.26926149 21.45569176 16.13437846 22 18 C22.20753906 18.70511719 22.41507813 19.41023438 22.62890625 20.13671875 C23.69151078 25.47211202 23.82023514 31.13582923 21.625 36.125 C20 38 20 38 18 39 C15.02891938 39.15117044 12.09696703 39.23139614 9.125 39.25 C8.30902344 39.270625 7.49304687 39.29125 6.65234375 39.3125 C3.23190871 39.33481932 0.62866258 39.26652976 -2.54296875 37.921875 C-5.9090329 33.48191907 -4.45505812 26.3178304 -4 21 C-3.39438579 18.12150835 -2.62599737 15.38697759 -1.734375 12.5859375 C-0.56133791 8.45534946 -0.26873732 4.27199666 0 0 Z M0 19 C-3.36394783 24.04592175 -3.38808115 29.08176241 -3 35 C1.1833884 37.7889256 4.64793291 37.33066174 9.5625 37.3125 C10.87637695 37.33666992 10.87637695 37.33666992 12.21679688 37.36132812 C13.47266602 37.36229492 13.47266602 37.36229492 14.75390625 37.36328125 C15.52033447 37.36626221 16.2867627 37.36924316 17.07641602 37.37231445 C17.71119873 37.24945068 18.34598145 37.12658691 19 37 C22.25112888 32.12330668 21.58869134 26.70209171 21 21 C19.95696356 18.20194137 18.79935421 16.41788221 17 14 C9.50724998 13.40004671 5.19114594 13.27642883 0 19 Z " fill="#CECCCB" transform="translate(6,49)"/>
<path d="M0 0 C0.66 0 1.32 0 2 0 C2.02897435 4.27081914 2.04678996 8.54161309 2.0625 12.8125 C2.07087891 14.02744141 2.07925781 15.24238281 2.08789062 16.49414062 C2.09111328 17.65751953 2.09433594 18.82089844 2.09765625 20.01953125 C2.10289307 21.09307861 2.10812988 22.16662598 2.11352539 23.27270508 C2 26 2 26 1 29 C-1.97 29 -4.94 29 -8 29 C-8.67871364 18.59305758 -4.07008207 9.36279749 0 0 Z " fill="#BEB889" transform="translate(19,18)"/>
<path d="M0 0 C0.66 0.99 1.32 1.98 2 3 C3.32 2.34 4.64 1.68 6 1 C5.566875 2.07701172 5.566875 2.07701172 5.125 3.17578125 C0.91297472 13.74971971 -2.42570325 23.50601222 -2 35 C0.34852528 36.17426264 1.73774065 36.11508173 4.3515625 36.09765625 C5.62773437 36.09282227 5.62773437 36.09282227 6.9296875 36.08789062 C8.26386719 36.07532227 8.26386719 36.07532227 9.625 36.0625 C10.5221875 36.05798828 11.419375 36.05347656 12.34375 36.04882812 C14.56256648 36.03702591 16.78125018 36.02056155 19 36 C22.32105537 29.35788926 19.97154968 20.13583603 17.9375 13.4375 C17.55464844 12.30183594 17.17179687 11.16617188 16.77734375 9.99609375 C16.01898312 7.07316609 15.92546725 5.76404966 17 3 C17.81436587 5.41605225 18.62655397 7.83279998 19.4375 10.25 C19.66759766 10.93191406 19.89769531 11.61382812 20.13476562 12.31640625 C22.73117138 20.06799444 25.08194496 28.26830691 21.625 36.125 C20 38 20 38 18 39 C15.02891938 39.15117044 12.09696703 39.23139614 9.125 39.25 C8.30902344 39.270625 7.49304687 39.29125 6.65234375 39.3125 C3.23190871 39.33481932 0.62866258 39.26652976 -2.54296875 37.921875 C-5.9090329 33.48191907 -4.45505812 26.3178304 -4 21 C-3.39438579 18.12150835 -2.62599737 15.38697759 -1.734375 12.5859375 C-0.56133791 8.45534946 -0.26873732 4.27199666 0 0 Z " fill="#C2C2C1" transform="translate(6,49)"/>
<path d="M0 0 C0.33 0.66 0.66 1.32 1 2 C0.328125 3.85546875 0.328125 3.85546875 -0.75 6.1875 C-3.58878632 12.90004681 -4.74331335 19.85973492 -6 27 C-3.03 27 -0.06 27 3 27 C3.33 19.08 3.66 11.16 4 3 C4.33 3 4.66 3 5 3 C5.0289337 6.79165074 5.04677601 10.58327327 5.0625 14.375 C5.07087891 15.45523438 5.07925781 16.53546875 5.08789062 17.6484375 C5.09111328 18.6796875 5.09433594 19.7109375 5.09765625 20.7734375 C5.10289307 21.72653809 5.10812988 22.67963867 5.11352539 23.66162109 C5 26 5 26 4 28 C0.57077253 30.24218719 -2.99051387 30.53736698 -7 31 C-7.99 33.475 -7.99 33.475 -9 36 C-9.33 36 -9.66 36 -10 36 C-10.61246715 25.91130505 -8.95199884 17.52810341 -6 8 C-5.34 8 -4.68 8 -4 8 C-2.68 5.36 -1.36 2.72 0 0 Z " fill="#ACA783" transform="translate(17,20)"/>
<path d="M0 0 C1.04929687 0.07863281 2.09859375 0.15726563 3.1796875 0.23828125 C5.96958891 0.66379672 7.79487899 1.11767669 10.125 2.6875 C10.875 5.3125 10.875 5.3125 11.125 7.6875 C9.125 6.6875 9.125 6.6875 8.125 3.6875 C0.80865595 3.06960044 0.80865595 3.06960044 -5.875 5.5 C-6.535 6.221875 -7.195 6.94375 -7.875 7.6875 C-8.87140075 8.69108634 -9.8707296 9.69178872 -10.875 10.6875 C-10.42623384 9.03903231 -9.96569512 7.39376545 -9.5 5.75 C-9.24476562 4.83347656 -8.98953125 3.91695313 -8.7265625 2.97265625 C-7.10727275 -1.37268551 -4.0707538 -0.3334236 0 0 Z " fill="#E3E1DF" transform="translate(14.875,60.3125)"/>
<path d="M0 0 C0.66 0 1.32 0 2 0 C2 9.24 2 18.48 2 28 C-0.71167393 25.28832607 -0.98847921 23.3115576 -1.02172852 19.52636719 C-0.97459717 18.62563477 -0.92746582 17.72490234 -0.87890625 16.796875 C-0.83056641 15.8171875 -0.78222656 14.8375 -0.73242188 13.828125 C-0.67634766 12.81234375 -0.62027344 11.7965625 -0.5625 10.75 C-0.51029297 9.71875 -0.45808594 8.6875 -0.40429688 7.625 C-0.27484366 5.08300961 -0.13988672 2.54143407 0 0 Z " fill="#8D8A75" transform="translate(23,29)"/>
<path d="M0 0 C0.66 0.99 1.32 1.98 2 3 C3.32 2.34 4.64 1.68 6 1 C5.566875 2.06927734 5.566875 2.06927734 5.125 3.16015625 C2.53743166 9.69196939 0.16739597 16.31719577 -2 23 C-2.33 23 -2.66 23 -3 23 C-2.2036893 15.30232994 -1.12178733 7.65647079 0 0 Z " fill="#AEAEAB" transform="translate(6,49)"/>
<path d="M0 0 C0.33 0 0.66 0 1 0 C1.05382106 2.62527189 1.09358313 5.24944713 1.125 7.875 C1.14175781 8.62136719 1.15851562 9.36773437 1.17578125 10.13671875 C1.1933959 12.09194461 1.10320189 14.04742021 1 16 C0.34 16.66 -0.32 17.32 -1 18 C-1.69748583 19.31747324 -2.36959957 20.64914193 -3 22 C-3.33608711 13.94635715 -3.0517291 7.50216736 0 0 Z " fill="#898670" transform="translate(10,34)"/>
<path d="M0 0 C0.33 0.66 0.66 1.32 1 2 C0.328125 3.99609375 0.328125 3.99609375 -0.75 6.4375 C-3.02290599 11.84354376 -4.57444111 17.3193638 -6 23 C-7.1615864 18.84616705 -7.20522181 15.30965808 -7 11 C-5 8 -5 8 -3 6 C-1.96838392 4.01612292 -0.96476382 2.01723344 0 0 Z " fill="#A9A581" transform="translate(17,20)"/>
<path d="M0 0 C0.33 0 0.66 0 1 0 C1 6.27 1 12.54 1 19 C0.34 19.33 -0.32 19.66 -1 20 C-3.625 18.625 -3.625 18.625 -6 17 C-6 16.67 -6 16.34 -6 16 C-4.35 16 -2.7 16 -1 16 C-0.67 10.72 -0.34 5.44 0 0 Z " fill="#9B9779" transform="translate(22,32)"/>
<path d="M0 0 C0.66 0.66 1.32 1.32 2 2 C1.57469657 5.82773086 0.26430036 9.3756723 -1 13 C-1.33 13 -1.66 13 -2 13 C-1.85769192 11.58297487 -1.71099254 10.1663904 -1.5625 8.75 C-1.48128906 7.96109375 -1.40007812 7.1721875 -1.31640625 6.359375 C-1.02365007 4.17635361 -0.57935581 2.1226818 0 0 Z " fill="#BABAB9" transform="translate(5,59)"/>
<path d="M0 0 C0.99 0 1.98 0 3 0 C2.88541307 1.43836751 2.75790884 2.87570966 2.625 4.3125 C2.55539062 5.11300781 2.48578125 5.91351563 2.4140625 6.73828125 C2 9 2 9 0 12 C0 8.04 0 4.08 0 0 Z " fill="#9F9B7B" transform="translate(10,31)"/>
</svg>
