<?xml version="1.0" encoding="UTF-8"?>
<svg version="1.1" xmlns="http://www.w3.org/2000/svg" width="30" height="90">
<path d="M0 0 C9.9 0 19.8 0 30 0 C30 29.7 30 59.4 30 90 C20.1 90 10.2 90 0 90 C0 60.3 0 30.6 0 0 Z " fill="#FDFDFD" transform="translate(0,0)"/>
<path d="M0 0 C3.47883471 2.31922314 3.80326857 3.0996145 5 7 C5.55933205 9.88951657 5.94925099 12.79342629 6.33203125 15.7109375 C6.5757307 17.44928066 6.81988674 19.18755985 7.06445312 20.92578125 C7.43847342 23.63420408 7.80824159 26.34302547 8.16918945 29.05322266 C9.57241832 39.50771051 11.31304463 49.18495844 15.1159668 59.05322266 C15.99388378 61.97961258 16.1171978 63.21318611 15 66 C12.60347633 62.36158031 11.31497165 59.10765806 10.3125 54.875 C10.06113281 53.84117188 9.80976563 52.80734375 9.55078125 51.7421875 C9 49 9 49 9 46 C6.69 46.66 4.38 47.32 2 48 C1.92652344 48.93972656 1.92652344 48.93972656 1.8515625 49.8984375 C1.77679688 50.71570312 1.70203125 51.53296875 1.625 52.375 C1.55539062 53.18710937 1.48578125 53.99921875 1.4140625 54.8359375 C1 57 1 57 -1 59 C-1.02698189 57.37509046 -1.04638757 55.75005367 -1.0625 54.125 C-1.07410156 53.22007813 -1.08570313 52.31515625 -1.09765625 51.3828125 C-1 49 -1 49 0 47 C-0.66 47 -1.32 47 -2 47 C-2.12117187 47.88042969 -2.24234375 48.76085938 -2.3671875 49.66796875 C-2.61855469 51.41013672 -2.61855469 51.41013672 -2.875 53.1875 C-3.03742187 54.33605469 -3.19984375 55.48460937 -3.3671875 56.66796875 C-3.94060245 59.68724625 -4.74759043 62.20575848 -6 65 C-5.34 65 -4.68 65 -4 65 C-3.67 64.01 -3.34 63.02 -3 62 C-1.68842484 64.62315032 -2.10350012 66.23033436 -2.4375 69.125 C-2.53933594 70.03507812 -2.64117188 70.94515625 -2.74609375 71.8828125 C-2.82988281 72.58148438 -2.91367188 73.28015625 -3 74 C-4.875 73.6875 -4.875 73.6875 -7 73 C-9 70 -9 70 -8.8125 66.875 C-8.04183415 63.19951672 -7.00936919 59.82553104 -5.71875 56.30859375 C-4.29609675 51.73909338 -3.87559715 47.15932425 -3.75390625 42.39453125 C-3.72232422 41.33693604 -3.69074219 40.27934082 -3.65820312 39.18969727 C-3.62662109 38.07522217 -3.59503906 36.96074707 -3.5625 35.8125 C-3.28801034 27.53070485 -2.88418718 19.30325466 -2 11.0625 C-1.91693604 10.28302002 -1.83387207 9.50354004 -1.74829102 8.70043945 C-1.3989476 5.65390379 -0.97268478 2.91805435 0 0 Z " fill="#A7A48B" transform="translate(11,6)"/>
<path d="M0 0 C0.94875 0.04125 1.8975 0.0825 2.875 0.125 C3.11734375 1.16140625 3.3596875 2.1978125 3.609375 3.265625 C3.94717688 4.63559929 4.28575984 6.00538115 4.625 7.375 C4.78226563 8.05691406 4.93953125 8.73882812 5.1015625 9.44140625 C6.20581481 13.81594425 7.5050102 16.17030187 10.875 19.125 C12.0625 22 12.0625 22 11.875 25.125 C9.04882177 28.44713709 5.47926507 30.72215662 1.875 33.125 C-3.1218678 32.84215843 -6.77922069 31.5628762 -11.125 29.125 C-10.465 28.795 -9.805 28.465 -9.125 28.125 C-9.125 24.495 -9.125 20.865 -9.125 17.125 C-9.455 17.785 -9.785 18.445 -10.125 19.125 C-10.785 19.125 -11.445 19.125 -12.125 19.125 C-10.95945193 13.0740696 -9.67156904 7.09033774 -8.125 1.125 C-7.465 1.125 -6.805 1.125 -6.125 1.125 C-6.125 4.425 -6.125 7.725 -6.125 11.125 C-5.939375 8.959375 -5.939375 8.959375 -5.75 6.75 C-5.36495144 2.25776684 -5.00726135 0.20029045 0 0 Z " fill="#F1F1F0" transform="translate(17.125,51.875)"/>
<path d="M0 0 C0.94875 0.04125 1.8975 0.0825 2.875 0.125 C4.56945089 4.36112724 4.84002887 7.57959866 4.67578125 12.109375 C4.91171471 14.4964665 5.6560408 15.80065279 6.9375 17.8125 C8.875 21.125 8.875 21.125 8.625 24.0625 C8.3775 24.743125 8.13 25.42375 7.875 26.125 C7.545 26.125 7.215 26.125 6.875 26.125 C6.58496094 25.23748047 6.58496094 25.23748047 6.2890625 24.33203125 C4.67500185 19.38887232 4.67500185 19.38887232 2.75 14.5625 C1.5121687 11.11425566 1.24541973 7.76746072 0.875 4.125 C0.215 4.125 -0.445 4.125 -1.125 4.125 C-1.00125 5.795625 -1.00125 5.795625 -0.875 7.5 C-0.84228141 12.12150028 -2.40109209 15.53831543 -4.234375 19.71484375 C-5.46672404 23.04975322 -5.43054463 25.61123674 -5.125 29.125 C-4.135 29.125 -3.145 29.125 -2.125 29.125 C-2.125 29.785 -2.125 30.445 -2.125 31.125 C-1.135 31.455 -0.145 31.785 0.875 32.125 C-4.00164009 32.47333144 -6.89550005 31.54185712 -11.125 29.125 C-10.465 28.795 -9.805 28.465 -9.125 28.125 C-9.125 24.495 -9.125 20.865 -9.125 17.125 C-9.455 17.785 -9.785 18.445 -10.125 19.125 C-10.785 19.125 -11.445 19.125 -12.125 19.125 C-10.95945193 13.0740696 -9.67156904 7.09033774 -8.125 1.125 C-7.465 1.125 -6.805 1.125 -6.125 1.125 C-6.125 4.425 -6.125 7.725 -6.125 11.125 C-5.939375 8.959375 -5.939375 8.959375 -5.75 6.75 C-5.36495144 2.25776684 -5.00726135 0.20029045 0 0 Z " fill="#C5C6C5" transform="translate(17.125,51.875)"/>
<path d="M0 0 C3.97947793 2.65298529 4.5300682 5.13126536 5.66796875 9.65625 C7.03824765 17.15672395 7.44911978 24.46223985 6 32 C5.01 32.495 5.01 32.495 4 33 C1.375 32.0625 1.375 32.0625 -1 31 C-2.73664122 8.20992366 -2.73664122 8.20992366 0 0 Z " fill="#BDB98E" transform="translate(11,6)"/>
<path d="M0 0 C0.99 0.33 1.98 0.66 3 1 C3 1.66 3 2.32 3 3 C2.34 3 1.68 3 1 3 C1.12375 4.670625 1.12375 4.670625 1.25 6.375 C1.28271859 10.99650028 -0.27609209 14.41331543 -2.109375 18.58984375 C-3.34172404 21.92475322 -3.30554463 24.48623674 -3 28 C-2.01 28 -1.02 28 0 28 C0 28.66 0 29.32 0 30 C0.99 30.33 1.98 30.66 3 31 C-2.41538462 31.36923077 -2.41538462 31.36923077 -5.375 29.5 C-5.91125 29.005 -6.4475 28.51 -7 28 C-6.34 27.67 -5.68 27.34 -5 27 C-5.02320313 26.43152344 -5.04640625 25.86304687 -5.0703125 25.27734375 C-5.1917647 20.08092458 -4.52022983 16.00781591 -3 11 C-2.71525706 8.6401441 -2.50700019 6.28917779 -2.34375 3.91796875 C-2 2 -2 2 0 0 Z " fill="#DADBD9" transform="translate(15,53)"/>
<path d="M0 0 C3.20802508 1.60401254 3.63001669 4.80337227 5 8 C5.66 8.33 6.32 8.66 7 9 C8.0625 11.6875 8.0625 11.6875 8 15 C5.19968819 18.33370453 1.5964132 20.6023912 -2 23 C-4.1875 22.625 -4.1875 22.625 -6 22 C-6 21.01 -6 20.02 -6 19 C-2.535 18.505 -2.535 18.505 1 18 C1 15.03 1 12.06 1 9 C3.1385485 11.1385485 3.42655063 12.13275314 4 15 C3.4818041 10.54351522 2.29917217 7.79863229 0 4 C0 2.68 0 1.36 0 0 Z " fill="#E8E8E7" transform="translate(21,62)"/>
<path d="M0 0 C0.66 0.66 1.32 1.32 2 2 C1.57421875 4.71484375 1.57421875 4.71484375 0.6875 7.9375 C0.40261719 8.99839844 0.11773437 10.05929688 -0.17578125 11.15234375 C-0.74347255 13.11370374 -1.35430608 15.06291823 -2 17 C-1.34 17 -0.68 17 0 17 C0.33 16.01 0.66 15.02 1 14 C2.31157516 16.62315032 1.89649988 18.23033436 1.5625 21.125 C1.46066406 22.03507812 1.35882812 22.94515625 1.25390625 23.8828125 C1.12822266 24.93082031 1.12822266 24.93082031 1 26 C-0.875 25.6875 -0.875 25.6875 -3 25 C-5 22 -5 22 -4.8125 18.875 C-4.03228623 15.15398049 -2.95515517 11.73413716 -1.69921875 8.15625 C-0.82847563 5.47105333 -0.35850962 2.79637504 0 0 Z " fill="#B3B3B2" transform="translate(7,54)"/>
<path d="M0 0 C0.33 0 0.66 0 1 0 C1.06058594 0.74765625 1.12117187 1.4953125 1.18359375 2.265625 C1.26738281 3.25046875 1.35117188 4.2353125 1.4375 5.25 C1.51871094 6.22453125 1.59992187 7.1990625 1.68359375 8.203125 C1.92243318 10.88950108 1.92243318 10.88950108 2.515625 13.01171875 C3.13443749 15.5518442 3.24497218 17.95023968 3.3125 20.5625 C3.34988281 21.51253906 3.38726563 22.46257813 3.42578125 23.44140625 C3 26 3 26 0.97338867 27.65991211 C0.32217041 28.10214111 -0.32904785 28.54437012 -1 29 C-1.02891546 24.54168018 -1.04676981 20.08338431 -1.0625 15.625 C-1.07087891 14.35398437 -1.07925781 13.08296875 -1.08789062 11.7734375 C-1.09111328 10.56171875 -1.09433594 9.35 -1.09765625 8.1015625 C-1.10289307 6.98088379 -1.10812988 5.86020508 -1.11352539 4.70556641 C-1 2 -1 2 0 0 Z " fill="#9A9678" transform="translate(9,26)"/>
<path d="M0 0 C2.79239557 2.79239557 2.54799086 5.12563597 3 9 C3.41660128 12.47167737 3.74254457 14.5940126 5.625 17.5625 C7 20 7 20 6.6875 22.8125 C6.460625 23.534375 6.23375 24.25625 6 25 C5.67 25 5.34 25 5 25 C4.70996094 24.11248047 4.70996094 24.11248047 4.4140625 23.20703125 C2.80000185 18.26387232 2.80000185 18.26387232 0.875 13.4375 C-0.7206869 8.99237219 -1.51683271 4.55049814 0 0 Z " fill="#D8D8D7" transform="translate(19,53)"/>
<path d="M0 0 C1.67542976 0.28604898 3.34385343 0.61781233 5 1 C5 3.64 5 6.28 5 9 C0.125 8.125 0.125 8.125 -1 7 C-1.125 4 -1.125 4 -1 1 C-0.67 0.67 -0.34 0.34 0 0 Z " fill="#D2CD96" transform="translate(13,41)"/>
<path d="M0 0 C0.99 0 1.98 0 3 0 C4.32229189 2.64458379 4.09677194 4.67761301 4.0625 7.625 C4.05347656 8.62789062 4.04445313 9.63078125 4.03515625 10.6640625 C4.02355469 11.43492188 4.01195312 12.20578125 4 13 C3.01 12.67 2.02 12.34 1 12 C0.03929566 9.11788698 -0.10581883 7.30149956 -0.0625 4.3125 C-0.05347656 3.50425781 -0.04445313 2.69601563 -0.03515625 1.86328125 C-0.02355469 1.24839844 -0.01195312 0.63351563 0 0 Z " fill="#D8D398" transform="translate(12,24)"/>
<path d="M0 0 C0.99 0.33 1.98 0.66 3 1 C3 1.66 3 2.32 3 3 C2.34 3 1.68 3 1 3 C1.061875 4.794375 1.061875 4.794375 1.125 6.625 C1.13851708 10.42329953 0.42009753 13.44975618 -1 17 C-1.33 17 -1.66 17 -2 17 C-2.05383848 14.54137599 -2.09359038 12.0839245 -2.125 9.625 C-2.14175781 8.92632812 -2.15851562 8.22765625 -2.17578125 7.5078125 C-2.19344267 5.67102514 -2.10303261 3.83398037 -2 2 C-1.34 1.34 -0.68 0.68 0 0 Z " fill="#E4E5E3" transform="translate(15,53)"/>
<path d="M0 0 C0.66 0 1.32 0 2 0 C1.7159949 2.06356895 1.42246648 4.1258285 1.125 6.1875 C0.96257813 7.33605469 0.80015625 8.48460937 0.6328125 9.66796875 C0.05939755 12.68724625 -0.74759043 15.20575848 -2 18 C-2.66 18 -3.32 18 -4 18 C-2.83445193 11.9490696 -1.54656904 5.96533774 0 0 Z " fill="#DCDCDB" transform="translate(9,53)"/>
<path d="M0 0 C0.99 0.495 0.99 0.495 2 1 C2 4.96 2 8.92 2 13 C2.66 13 3.32 13 4 13 C4 13.66 4 14.32 4 15 C2.68 15.99 1.36 16.98 0 18 C0 12.06 0 6.12 0 0 Z " fill="#7E7B63" transform="translate(8,37)"/>
<path d="M0 0 C1.6136731 3.0959158 2.94604982 6.23727172 4.1875 9.5 C4.55230469 10.4384375 4.91710937 11.376875 5.29296875 12.34375 C6.02361424 15.08871647 5.97149097 16.3763556 5 19 C2.44115099 15.17610204 1.24365696 11.73159569 0.25 7.25 C-0.14445312 5.52523437 -0.14445312 5.52523437 -0.546875 3.765625 C-0.69640625 2.85296875 -0.8459375 1.9403125 -1 1 C-0.67 0.67 -0.34 0.34 0 0 Z " fill="#B5B6B4" transform="translate(21,53)"/>
<path d="M0 0 C0.66 0.33 1.32 0.66 2 1 C1.88602456 3.43847451 1.75929026 5.87513174 1.625 8.3125 C1.5940625 9.00279297 1.563125 9.69308594 1.53125 10.40429688 C1.31875081 14.06990789 1.08066139 15.87900792 -1 19 C-1.02697137 16.39576408 -1.04682489 13.79180756 -1.0625 11.1875 C-1.07087891 10.44951172 -1.07925781 9.71152344 -1.08789062 8.95117188 C-1.10259828 5.70077932 -1.03531702 3.10595105 0 0 Z " fill="#A09C78" transform="translate(11,6)"/>
<path d="M0 0 C1.65 0 3.3 0 5 0 C5.33 1.32 5.66 2.64 6 4 C4.35 4 2.7 4 1 4 C0.79029441 8.14093698 0.79029441 8.14093698 2 12 C1.01 11.67 0.02 11.34 -1 11 C-1.125 3.375 -1.125 3.375 0 0 Z " fill="#B5B086" transform="translate(12,38)"/>
<path d="M0 0 C0.66 0.66 1.32 1.32 2 2 C1.609375 4.75 1.609375 4.75 0.75 8 C0.34007812 9.60875 0.34007812 9.60875 -0.078125 11.25 C-1 14 -1 14 -3 16 C-2.40984815 10.49191603 -1.43336231 5.35121931 0 0 Z " fill="#A7A8A5" transform="translate(7,54)"/>
<path d="M0 0 C2.0625 0.4375 2.0625 0.4375 4 1 C3.01 1.66 2.02 2.32 1 3 C1.66 4.98 2.32 6.96 3 9 C1.68 8.34 0.36 7.68 -1 7 C-1.04254356 5.00045254 -1.04080783 2.99958364 -1 1 C-0.67 0.67 -0.34 0.34 0 0 Z " fill="#C4C08E" transform="translate(13,41)"/>
<path d="M0 0 C2 3 2 3 1.625 6.1875 C1.41875 7.115625 1.2125 8.04375 1 9 C0.34 8.67 -0.32 8.34 -1 8 C-1.125 2.25 -1.125 2.25 0 0 Z " fill="#CBC89D" transform="translate(13,8)"/>
</svg>
