<?xml version="1.0" encoding="UTF-8"?>
<svg version="1.1" xmlns="http://www.w3.org/2000/svg" width="30" height="90">
<path d="M0 0 C9.9 0 19.8 0 30 0 C30 29.7 30 59.4 30 90 C20.1 90 10.2 90 0 90 C0 60.3 0 30.6 0 0 Z " fill="#FDFDFD" transform="translate(0,0)"/>
<path d="M0 0 C0.99 0.33 1.98 0.66 3 1 C3.84773523 3.50700347 4.49490883 5.86582149 5.0625 8.4375 C5.22298828 9.11232422 5.38347656 9.78714844 5.54882812 10.48242188 C8.05373702 21.17606907 9.82970288 31.96014022 11.5 42.81054688 C12.23578207 47.50978002 12.99755181 52.15509444 14.109375 56.78125 C15.06569294 60.91451239 15.26724457 64.69102406 15.25 68.9375 C15.25515625 70.22527344 15.2603125 71.51304688 15.265625 72.83984375 C15 76 15 76 13 78 C10.47207337 78.22555081 8.08944424 78.32438591 5.5625 78.3125 C4.5405957 78.33666992 4.5405957 78.33666992 3.49804688 78.36132812 C0.66864783 78.36409933 -1.47328928 78.32396464 -3.91796875 76.8203125 C-8.36479437 69.3393712 -5.59354936 58.56384461 -4.19116211 50.5078125 C-2.7266968 41.51621197 -2.52528361 32.53606627 -2.37939453 23.43945312 C-2.21962962 15.47544798 -1.40878404 7.84079168 0 0 Z " fill="#C3BF8D" transform="translate(10,9)"/>
<path d="M0 0 C2.97 0.495 2.97 0.495 6 1 C6.12375 2.11375 6.2475 3.2275 6.375 4.375 C6.6465813 8.03103677 6.6465813 8.03103677 9 10 C14.15411559 26.69176883 14.15411559 26.69176883 11 33 C6.05 33 1.1 33 -4 33 C-7.12203216 26.75593569 -6.7499 20.10672859 -5.125 13.375 C-4 11 -4 11 -2 9 C-1.32348793 6.80295489 -1.32348793 6.80295489 -0.875 4.375 C-0.62363281 3.14910156 -0.62363281 3.14910156 -0.3671875 1.8984375 C-0.24601563 1.27195313 -0.12484375 0.64546875 0 0 Z " fill="#F6F4F4" transform="translate(12,52)"/>
<path d="M0 0 C3.54235889 0.73799144 4.70463562 1.90456814 7 4.625 C7.33 4.625 7.66 4.625 8 4.625 C10.27128579 14.91338385 12.09168595 25.04840622 11 35.625 C8.52614329 38.09885671 7.02495772 37.91071102 3.63867188 37.94726562 C2.6109668 37.94243164 2.6109668 37.94243164 1.5625 37.9375 C0.5405957 37.96166992 0.5405957 37.96166992 -0.50195312 37.98632812 C-3.3203769 37.98908858 -5.47272327 37.94394336 -7.91796875 36.46484375 C-12.35218568 28.92507417 -9.70462087 18.14810437 -8.08203125 10.03515625 C-6.5802112 5.30198331 -5.1433764 1.07153675 0 0 Z M-2 2.625 C-2.10957031 3.23988281 -2.21914062 3.85476562 -2.33203125 4.48828125 C-2.49058594 5.29652344 -2.64914063 6.10476562 -2.8125 6.9375 C-2.96332031 7.73800781 -3.11414063 8.53851563 -3.26953125 9.36328125 C-4 11.625 -4 11.625 -5.51171875 13.10546875 C-8.70720483 16.36805165 -8.16021313 21.37071787 -8.1875 25.6875 C-8.20167969 26.70972656 -8.21585938 27.73195313 -8.23046875 28.78515625 C-8.15207389 31.9431828 -8.15207389 31.9431828 -6 35.625 C-1.05 35.625 3.9 35.625 9 35.625 C12.33043087 28.96413826 9.05395765 19.27680779 7 12.625 C6.34 11.965 5.68 11.305 5 10.625 C4.59952556 8.30224823 4.2602896 5.96760643 4 3.625 C1.03 3.13 1.03 3.13 -2 2.625 Z " fill="#C4C3C1" transform="translate(14,49.375)"/>
<path d="M0 0 C0.33 0 0.66 0 1 0 C1 10.56 1 21.12 1 32 C3.64 32 6.28 32 9 32 C8.67 26.72 8.34 21.44 8 16 C12.31088088 22.46632132 12.29239362 31.39776578 12 39 C11.46375 38.175 10.9275 37.35 10.375 36.5 C8.2108641 33.74693227 8.2108641 33.74693227 5 33.375 C1.10444267 34.18657444 0.29925197 35.87817081 -2 39 C-1.88141289 34.24927084 -1.75714252 29.49873642 -1.62768555 24.74829102 C-1.58446917 23.13342289 -1.54278511 21.51851298 -1.50268555 19.90356445 C-1.44465952 17.57750883 -1.38105971 15.25166096 -1.31640625 12.92578125 C-1.29969376 12.20787918 -1.28298126 11.48997711 -1.26576233 10.75032043 C-1.15763988 7.06228324 -0.86035952 3.5914652 0 0 Z " fill="#949274" transform="translate(9,17)"/>
<path d="M0 0 C2.97 0.495 2.97 0.495 6 1 C6.33 3.64 6.66 6.28 7 9 C5.906875 9.103125 4.81375 9.20625 3.6875 9.3125 C-0.48902462 10.01242732 -0.48902462 10.01242732 -3 13 C-3.5841825 16.25227602 -3.5841825 16.25227602 -3.6875 19.875 C-3.78611328 21.69644531 -3.78611328 21.69644531 -3.88671875 23.5546875 C-3.97941839 26.37403519 -4.0268092 29.17967263 -4 32 C-7.11229365 27.33155952 -6.36137958 22.47128684 -6 17 C-5.11102827 13.31711712 -4.64901516 11.64901516 -2 9 C-1.32348793 6.80295489 -1.32348793 6.80295489 -0.875 4.375 C-0.62363281 3.14910156 -0.62363281 3.14910156 -0.3671875 1.8984375 C-0.24601563 1.27195313 -0.12484375 0.64546875 0 0 Z " fill="#E9E7E6" transform="translate(12,52)"/>
<path d="M0 0 C0.99 0.33 1.98 0.66 3 1 C3.89385656 3.59188507 4.58209673 6.02796579 5.1875 8.6875 C5.36474609 9.39583984 5.54199219 10.10417969 5.72460938 10.83398438 C6.7134946 14.9689755 7.19551261 18.71894804 7 23 C5.21801523 19.69289314 4.03842935 16.31785001 2.875 12.75 C2.52179687 11.67234375 2.16859375 10.5946875 1.8046875 9.484375 C1.53914062 8.66453125 1.27359375 7.8446875 1 7 C0.67 7 0.34 7 0 7 C0 4.69 0 2.38 0 0 Z " fill="#9A9672" transform="translate(10,9)"/>
<path d="M0 0 C0.33 0 0.66 0 1 0 C1.33 5.61 1.66 11.22 2 17 C3.98 17 5.96 17 8 17 C8 17.66 8 18.32 8 19 C5.36 19 2.72 19 0 19 C0 12.73 0 6.46 0 0 Z " fill="#B7B486" transform="translate(10,30)"/>
<path d="M0 0 C1.57432497 3.14864995 0.71895552 5.64487425 0 9 C-0.99 9.66 -1.98 10.32 -3 11 C-2.88590407 9.54077307 -2.75834456 8.08259402 -2.625 6.625 C-2.55539062 5.81289063 -2.48578125 5.00078125 -2.4140625 4.1640625 C-2 2 -2 2 0 0 Z " fill="#DAD8D7" transform="translate(11,52)"/>
<path d="M0 0 C1.80411967 2.75924185 2.0127245 3.88972103 1.625 7.25 C1.41875 8.1575 1.2125 9.065 1 10 C0.67 10 0.34 10 0 10 C-1.125 2.25 -1.125 2.25 0 0 Z " fill="#D0D0CF" transform="translate(22,61)"/>
</svg>
