<?xml version="1.0" encoding="UTF-8"?>
<!DOCTYPE svg PUBLIC "-//W3C//DTD SVG 1.1//EN" "http://www.w3.org/Graphics/SVG/1.1/DTD/svg11.dtd">
<svg xmlns="http://www.w3.org/2000/svg" version="1.1" width="30" height="90" style="shape-rendering:geometricPrecision; text-rendering:geometricPrecision; image-rendering:optimizeQuality; fill-rule:evenodd; clip-rule:evenodd" xmlns:xlink="http://www.w3.org/1999/xlink">
<g><path style="opacity:1" fill="#fdfdfd" d="M -0.5,-0.5 C 11.5,-0.5 23.5,-0.5 35.5,-0.5C 35.5,27.1667 35.5,54.8333 35.5,82.5C 23.5,82.5 11.5,82.5 -0.5,82.5C -0.5,54.8333 -0.5,27.1667 -0.5,-0.5 Z"/></g>
<g><path style="opacity:1" fill="#a8a698" d="M 13.5,2.5 C 9.96816,2.31001 6.63483,2.97667 3.5,4.5C 4.05773,3.21009 5.05773,2.37675 6.5,2C 9.03851,1.20419 11.3718,1.37086 13.5,2.5 Z"/></g>
<g><path style="opacity:1" fill="#f6f9e3" d="M 13.5,2.5 C 14.4916,2.32842 15.1583,2.66175 15.5,3.5C 15.8333,4.16667 16.1667,4.83333 16.5,5.5C 17.0664,11.2167 17.7331,16.8833 18.5,22.5C 14.4338,22.693 10.4338,22.3597 6.5,21.5C 5.97439,19.7697 4.97439,18.4363 3.5,17.5C 0.996446,13.0645 0.996446,8.73114 3.5,4.5C 6.63483,2.97667 9.96816,2.31001 13.5,2.5 Z"/></g>
<g><path style="opacity:1" fill="#aba99a" d="M 3.5,4.5 C 0.996446,8.73114 0.996446,13.0645 3.5,17.5C 1.10576,15.6682 0.105759,13.1682 0.5,10C 0.666667,8.5 0.833333,7 1,5.5C 1.67076,4.74756 2.5041,4.41423 3.5,4.5 Z"/></g>
<g><path style="opacity:1" fill="#eae8de" d="M 20.5,4.5 C 22.7257,3.24365 25.059,3.24365 27.5,4.5C 27.8288,10.2055 27.4954,15.8722 26.5,21.5C 24.9291,22.3094 23.2624,22.6427 21.5,22.5C 21.8229,16.31 21.4896,10.31 20.5,4.5 Z"/></g>
<g><path style="opacity:1" fill="#faf9f6" d="M 20.5,4.5 C 21.4896,10.31 21.8229,16.31 21.5,22.5C 20.5,22.5 19.5,22.5 18.5,22.5C 17.7331,16.8833 17.0664,11.2167 16.5,5.5C 17.8333,5.16667 19.1667,4.83333 20.5,4.5 Z"/></g>
<g><path style="opacity:1" fill="#a6a395" d="M 30.5,19.5 C 31.3307,15.5239 31.4973,11.5239 31,7.5C 29.9609,6.2899 28.7942,5.2899 27.5,4.5C 25.059,3.24365 22.7257,3.24365 20.5,4.5C 19.1667,4.83333 17.8333,5.16667 16.5,5.5C 16.1667,4.83333 15.8333,4.16667 15.5,3.5C 21.7014,0.395258 27.2014,1.39526 32,6.5C 32.9387,11.1355 32.4387,15.4689 30.5,19.5 Z"/></g>
<g><path style="opacity:1" fill="#cbc6b0" d="M 27.5,4.5 C 28.7942,5.2899 29.9609,6.2899 31,7.5C 31.4973,11.5239 31.3307,15.5239 30.5,19.5C 30.7373,20.791 30.404,21.791 29.5,22.5C 23.1176,24.3993 16.4509,25.0659 9.5,24.5C 9.16667,24.5 8.83333,24.5 8.5,24.5C 7.44886,23.7777 6.78219,22.7777 6.5,21.5C 10.4338,22.3597 14.4338,22.693 18.5,22.5C 19.5,22.5 20.5,22.5 21.5,22.5C 23.2624,22.6427 24.9291,22.3094 26.5,21.5C 27.4954,15.8722 27.8288,10.2055 27.5,4.5 Z"/></g>
<g><path style="opacity:1" fill="#a2987c" d="M 3.5,17.5 C 4.97439,18.4363 5.97439,19.7697 6.5,21.5C 6.78219,22.7777 7.44886,23.7777 8.5,24.5C 6.54666,30.0738 5.88,36.0738 6.5,42.5C 5.67146,35.6787 5.17146,28.6787 5,21.5C 4.20858,20.255 3.70858,18.9217 3.5,17.5 Z"/></g>
<g><path style="opacity:1" fill="#9d9886" d="M 29.5,22.5 C 29.5,25.1667 29.5,27.8333 29.5,30.5C 28.5489,29.0813 28.2155,27.4147 28.5,25.5C 23.5,25.5 18.5,25.5 13.5,25.5C 11.901,25.7678 10.5676,25.4345 9.5,24.5C 16.4509,25.0659 23.1176,24.3993 29.5,22.5 Z"/></g>
<g><path style="opacity:1" fill="#fde28a" d="M 8.5,24.5 C 8.83333,24.5 9.16667,24.5 9.5,24.5C 10.5676,25.4345 11.901,25.7678 13.5,25.5C 15.2646,26.4614 17.2646,26.7947 19.5,26.5C 19.7563,28.9372 20.4229,31.2706 21.5,33.5C 21.3764,34.1067 21.0431,34.44 20.5,34.5C 18.8751,30.9448 16.7084,30.6115 14,33.5C 13.3333,37.1667 13.3333,40.8333 14,44.5C 14.2321,45.7375 14.7321,46.7375 15.5,47.5C 15.4326,48.9587 15.7659,50.2921 16.5,51.5C 16.5674,52.9587 16.2341,54.2921 15.5,55.5C 12.6242,50.6639 11.2908,45.3305 11.5,39.5C 10.5,39.5 9.5,39.5 8.5,39.5C 9.48812,43.4848 10.4881,47.4848 11.5,51.5C 10.8333,51.1667 10.1667,50.8333 9.5,50.5C 8.48779,47.7428 7.48779,45.0761 6.5,42.5C 5.88,36.0738 6.54666,30.0738 8.5,24.5 Z"/></g>
<g><path style="opacity:1" fill="#e7c178" d="M 13.5,25.5 C 18.5,25.5 23.5,25.5 28.5,25.5C 28.2155,27.4147 28.5489,29.0813 29.5,30.5C 30.3668,33.9083 31.5335,37.2416 33,40.5C 33.5464,47.1843 33.3797,53.8509 32.5,60.5C 31.5,60.5 30.5,60.5 29.5,60.5C 28.7784,60.0825 28.2784,59.4158 28,58.5C 27.5026,55.854 27.3359,53.1873 27.5,50.5C 27.5,49.1667 27.5,47.8333 27.5,46.5C 29.0949,49.5569 30.2616,52.8902 31,56.5C 31.1667,55.3333 31.3333,54.1667 31.5,53C 29.6745,46.8544 27.8411,40.6878 26,34.5C 23.9871,32.2492 22.8204,32.9159 22.5,36.5C 21.8333,36.1667 21.1667,35.8333 20.5,35.5C 20.5,35.1667 20.5,34.8333 20.5,34.5C 21.0431,34.44 21.3764,34.1067 21.5,33.5C 20.4229,31.2706 19.7563,28.9372 19.5,26.5C 17.2646,26.7947 15.2646,26.4614 13.5,25.5 Z"/></g>
<g><path style="opacity:1" fill="#bbb7ab" d="M 20.5,35.5 C 21.1667,35.8333 21.8333,36.1667 22.5,36.5C 23.1098,37.391 23.4431,38.391 23.5,39.5C 21.7376,38.7377 20.7376,37.4044 20.5,35.5 Z"/></g>
<g><path style="opacity:1" fill="#ada387" d="M 20.5,34.5 C 20.5,34.8333 20.5,35.1667 20.5,35.5C 19.1805,34.0582 17.5138,33.3915 15.5,33.5C 14.1667,38.1667 14.1667,42.8333 15.5,47.5C 14.7321,46.7375 14.2321,45.7375 14,44.5C 13.3333,40.8333 13.3333,37.1667 14,33.5C 16.7084,30.6115 18.8751,30.9448 20.5,34.5 Z"/></g>
<g><path style="opacity:1" fill="#a8a08c" d="M 23.5,39.5 C 25.1042,40.287 25.7709,41.6203 25.5,43.5C 24.3263,42.4863 23.6596,41.153 23.5,39.5 Z"/></g>
<g><path style="opacity:1" fill="#f9e6b6" d="M 27.5,46.5 C 26.8333,45.5 26.1667,44.5 25.5,43.5C 25.7709,41.6203 25.1042,40.287 23.5,39.5C 23.4431,38.391 23.1098,37.391 22.5,36.5C 22.8204,32.9159 23.9871,32.2492 26,34.5C 27.8411,40.6878 29.6745,46.8544 31.5,53C 31.3333,54.1667 31.1667,55.3333 31,56.5C 30.2616,52.8902 29.0949,49.5569 27.5,46.5 Z"/></g>
<g><path style="opacity:1" fill="#fef2c7" d="M 15.5,55.5 C 15.6716,56.4916 15.3382,57.1583 14.5,57.5C 14.1667,57.5 13.8333,57.5 13.5,57.5C 12.8333,55.5 12.1667,53.5 11.5,51.5C 10.4881,47.4848 9.48812,43.4848 8.5,39.5C 9.5,39.5 10.5,39.5 11.5,39.5C 11.2908,45.3305 12.6242,50.6639 15.5,55.5 Z"/></g>
<g><path style="opacity:1" fill="#b0a588" d="M 6.5,42.5 C 7.48779,45.0761 8.48779,47.7428 9.5,50.5C 7.01812,48.4973 6.01812,45.8306 6.5,42.5 Z"/></g>
<g><path style="opacity:1" fill="#a7a191" d="M 29.5,30.5 C 31.4967,33.1598 32.9967,36.1598 34,39.5C 34.6667,45.5 34.6667,51.5 34,57.5C 33.7679,58.7375 33.2679,59.7375 32.5,60.5C 33.3797,53.8509 33.5464,47.1843 33,40.5C 31.5335,37.2416 30.3668,33.9083 29.5,30.5 Z"/></g>
<g><path style="opacity:1" fill="#a89f86" d="M 15.5,47.5 C 16.6737,48.5137 17.3404,49.847 17.5,51.5C 17.1667,51.5 16.8333,51.5 16.5,51.5C 15.7659,50.2921 15.4326,48.9587 15.5,47.5 Z"/></g>
<g><path style="opacity:1" fill="#b1aa99" d="M 25.5,43.5 C 26.1667,44.5 26.8333,45.5 27.5,46.5C 27.5,47.8333 27.5,49.1667 27.5,50.5C 25.8372,48.5615 25.1706,46.2282 25.5,43.5 Z"/></g>
<g><path style="opacity:1" fill="#b0a891" d="M 9.5,50.5 C 10.1667,50.8333 10.8333,51.1667 11.5,51.5C 12.1667,53.5 12.8333,55.5 13.5,57.5C 11.412,55.6644 10.0787,53.3311 9.5,50.5 Z"/></g>
<g><path style="opacity:1" fill="#a79f89" d="M 17.5,51.5 C 18.9063,51.9731 19.573,52.9731 19.5,54.5C 18.0937,54.0269 17.427,53.0269 17.5,51.5 Z"/></g>
<g><path style="opacity:1" fill="#efc87a" d="M 16.5,51.5 C 16.8333,51.5 17.1667,51.5 17.5,51.5C 17.427,53.0269 18.0937,54.0269 19.5,54.5C 19.6633,56.8568 19.4966,59.1902 19,61.5C 18.3292,60.7476 17.4959,60.4142 16.5,60.5C 15.8333,59.5 15.1667,58.5 14.5,57.5C 15.3382,57.1583 15.6716,56.4916 15.5,55.5C 16.2341,54.2921 16.5674,52.9587 16.5,51.5 Z"/></g>
<g><path style="opacity:1" fill="#968e7b" d="M 19.5,54.5 C 20.4731,56.9479 20.8064,59.6146 20.5,62.5C 18.6203,62.7709 17.287,62.1042 16.5,60.5C 17.4959,60.4142 18.3292,60.7476 19,61.5C 19.4966,59.1902 19.6633,56.8568 19.5,54.5 Z"/></g>
<g><path style="opacity:1" fill="#b3ae9f" d="M 13.5,57.5 C 13.8333,57.5 14.1667,57.5 14.5,57.5C 15.1667,58.5 15.8333,59.5 16.5,60.5C 14.5,60.5 13.5,59.5 13.5,57.5 Z"/></g>
<g><path style="opacity:1" fill="#bfb7a6" d="M 29.5,60.5 C 30.5,60.5 31.5,60.5 32.5,60.5C 31.7399,62.9845 30.7399,62.9845 29.5,60.5 Z"/></g>
</svg>
