<?xml version="1.0" encoding="UTF-8"?>
<!DOCTYPE svg PUBLIC "-//W3C//DTD SVG 1.1//EN" "http://www.w3.org/Graphics/SVG/1.1/DTD/svg11.dtd">
<svg xmlns="http://www.w3.org/2000/svg" version="1.1" width="30" height="90" style="shape-rendering:geometricPrecision; text-rendering:geometricPrecision; image-rendering:optimizeQuality; fill-rule:evenodd; clip-rule:evenodd" xmlns:xlink="http://www.w3.org/1999/xlink">
<g><path style="opacity:1" fill="#fcfcfc" d="M -0.5,-0.5 C 10.1667,-0.5 20.8333,-0.5 31.5,-0.5C 31.5,28.8333 31.5,58.1667 31.5,87.5C 20.8333,87.5 10.1667,87.5 -0.5,87.5C -0.5,58.1667 -0.5,28.8333 -0.5,-0.5 Z"/></g>
<g><path style="opacity:1" fill="#a99977" d="M 23.5,21.5 C 22.3121,20.3157 21.1455,20.3157 20,21.5C 19.4954,23.5183 18.9954,25.5183 18.5,27.5C 16.5426,33.3322 15.5426,39.3322 15.5,45.5C 14.8423,46.3984 14.1757,47.3984 13.5,48.5C 10.4905,40.2022 9.82384,31.7022 11.5,23C 11.3333,22.1667 11.1667,21.3333 11,20.5C 10.3292,21.2524 9.4959,21.5858 8.5,21.5C 8.61071,20.8826 8.94404,20.3826 9.5,20C 11.6565,19.9219 13.6565,19.7552 15.5,19.5C 17.1112,20.3202 17.7778,21.6536 17.5,23.5C 18.2105,21.5876 19.3771,19.921 21,18.5C 22.7491,18.7483 23.5824,19.7483 23.5,21.5 Z"/></g>
<g><path style="opacity:1" fill="#ada899" d="M 23.5,21.5 C 24.1627,23.4726 24.4961,25.6392 24.5,28C 24.6209,31.7822 23.9542,35.2822 22.5,38.5C 23.1342,32.8552 23.4676,27.1886 23.5,21.5 Z"/></g>
<g><path style="opacity:1" fill="#a99a7c" d="M 8.5,21.5 C 8.57298,23.0269 7.90632,24.0269 6.5,24.5C 6.42702,22.9731 7.09368,21.9731 8.5,21.5 Z"/></g>
<g><path style="opacity:1" fill="#b9ab83" d="M 6.5,24.5 C 6.5,25.5 6.5,26.5 6.5,27.5C 5.76589,28.7079 5.43255,30.0413 5.5,31.5C 4.83333,32.5 4.16667,33.5 3.5,34.5C 3.32003,30.7144 4.32003,27.381 6.5,24.5 Z"/></g>
<g><path style="opacity:1" fill="#f3cf7d" d="M 17.5,23.5 C 16.4736,29.9391 14.9736,36.2724 13,42.5C 11.0813,36.1748 11.0813,29.8415 13,23.5C 14.4606,21.0182 15.9606,21.0182 17.5,23.5 Z"/></g>
<g><path style="opacity:1" fill="#fbdd87" d="M 15.5,45.5 C 15.3398,47.1992 15.5065,48.8659 16,50.5C 18.2768,47.3014 19.1102,43.6348 18.5,39.5C 20.1457,46.2729 21.1457,53.2729 21.5,60.5C 16.6367,60.1805 11.97,60.5139 7.5,61.5C 5.88838,58.386 4.55505,55.0526 3.5,51.5C 3.5,45.8333 3.5,40.1667 3.5,34.5C 4.16667,33.5 4.83333,32.5 5.5,31.5C 5.17182,36.8746 5.50515,42.2079 6.5,47.5C 7.08605,47.2907 7.58605,46.9574 8,46.5C 8.00256,40.018 7.50256,33.6847 6.5,27.5C 6.5,26.5 6.5,25.5 6.5,24.5C 7.90632,24.0269 8.57298,23.0269 8.5,21.5C 9.4959,21.5858 10.3292,21.2524 11,20.5C 11.1667,21.3333 11.3333,22.1667 11.5,23C 9.82384,31.7022 10.4905,40.2022 13.5,48.5C 14.1757,47.3984 14.8423,46.3984 15.5,45.5 Z"/></g>
<g><path style="opacity:1" fill="#fff2c4" d="M 6.5,27.5 C 7.50256,33.6847 8.00256,40.018 8,46.5C 7.58605,46.9574 7.08605,47.2907 6.5,47.5C 5.50515,42.2079 5.17182,36.8746 5.5,31.5C 5.43255,30.0413 5.76589,28.7079 6.5,27.5 Z"/></g>
<g><path style="opacity:1" fill="#e9be73" d="M 23.5,21.5 C 23.4676,27.1886 23.1342,32.8552 22.5,38.5C 21.8418,39.7933 21.5085,41.2933 21.5,43C 21.336,45.5437 22.0027,47.7103 23.5,49.5C 24.404,50.209 24.7373,51.209 24.5,52.5C 24.7215,55.0673 25.3882,57.4006 26.5,59.5C 26.5299,60.4972 26.0299,61.1639 25,61.5C 23.8615,61.0109 22.6948,60.6775 21.5,60.5C 21.1457,53.2729 20.1457,46.2729 18.5,39.5C 19.229,35.1419 19.729,30.8085 20,26.5C 19.6174,27.056 19.1174,27.3893 18.5,27.5C 18.9954,25.5183 19.4954,23.5183 20,21.5C 21.1455,20.3157 22.3121,20.3157 23.5,21.5 Z"/></g>
<g><path style="opacity:1" fill="#fce8b5" d="M 18.5,39.5 C 19.1102,43.6348 18.2768,47.3014 16,50.5C 15.5065,48.8659 15.3398,47.1992 15.5,45.5C 15.5426,39.3322 16.5426,33.3322 18.5,27.5C 19.1174,27.3893 19.6174,27.056 20,26.5C 19.729,30.8085 19.229,35.1419 18.5,39.5 Z"/></g>
<g><path style="opacity:1" fill="#a49679" d="M 22.5,38.5 C 22.5524,42.1981 22.8857,45.8648 23.5,49.5C 22.0027,47.7103 21.336,45.5437 21.5,43C 21.5085,41.2933 21.8418,39.7933 22.5,38.5 Z"/></g>
<g><path style="opacity:1" fill="#aea99a" d="M 24.5,52.5 C 26.1628,54.4385 26.8294,56.7718 26.5,59.5C 25.3882,57.4006 24.7215,55.0673 24.5,52.5 Z"/></g>
<g><path style="opacity:1" fill="#f3f7e1" d="M 7.5,61.5 C 9.83333,61.5 12.1667,61.5 14.5,61.5C 14.6226,67.6094 13.956,73.6094 12.5,79.5C 13.5,79.5 14.5,79.5 15.5,79.5C 14.1667,80.5 12.8333,81.5 11.5,82.5C 9.13895,82.3259 6.80562,81.9926 4.5,81.5C 1.83713,75.545 2.00379,69.545 5,63.5C 5.9947,62.9341 6.82803,62.2674 7.5,61.5 Z"/></g>
<g><path style="opacity:1" fill="#faf9f7" d="M 14.5,61.5 C 15.5,61.5 16.5,61.5 17.5,61.5C 18.4553,67.4093 18.7886,73.4093 18.5,79.5C 17.5,79.5 16.5,79.5 15.5,79.5C 14.5,79.5 13.5,79.5 12.5,79.5C 13.956,73.6094 14.6226,67.6094 14.5,61.5 Z"/></g>
<g><path style="opacity:1" fill="#a29b86" d="M 26.5,59.5 C 30.2932,64.8411 31.4599,70.8411 30,77.5C 29.6232,78.9423 28.7899,79.9423 27.5,80.5C 29.3817,76.0192 29.8817,71.3525 29,66.5C 28.2525,64.249 26.7525,62.9156 24.5,62.5C 22.1944,62.0074 19.861,61.6741 17.5,61.5C 16.5,61.5 15.5,61.5 14.5,61.5C 12.1667,61.5 9.83333,61.5 7.5,61.5C 11.97,60.5139 16.6367,60.1805 21.5,60.5C 22.6948,60.6775 23.8615,61.0109 25,61.5C 26.0299,61.1639 26.5299,60.4972 26.5,59.5 Z"/></g>
<g><path style="opacity:1" fill="#e7e5da" d="M 17.5,61.5 C 19.861,61.6741 22.1944,62.0074 24.5,62.5C 24.8282,67.8746 24.4948,73.2079 23.5,78.5C 21.9291,79.3094 20.2624,79.6427 18.5,79.5C 18.7886,73.4093 18.4553,67.4093 17.5,61.5 Z"/></g>
<g><path style="opacity:1" fill="#d5d2c0" d="M 24.5,62.5 C 26.7525,62.9156 28.2525,64.249 29,66.5C 29.8817,71.3525 29.3817,76.0192 27.5,80.5C 24.2869,80.81 21.2869,80.4767 18.5,79.5C 20.2624,79.6427 21.9291,79.3094 23.5,78.5C 24.4948,73.2079 24.8282,67.8746 24.5,62.5 Z"/></g>
<g><path style="opacity:1" fill="#b6b4a1" d="M 3.5,51.5 C 4.55505,55.0526 5.88838,58.386 7.5,61.5C 6.82803,62.2674 5.9947,62.9341 5,63.5C 2.00379,69.545 1.83713,75.545 4.5,81.5C 1.26439,80.2056 -0.0689387,77.7056 0.5,74C 1.72147,68.8302 3.0548,63.6635 4.5,58.5C 4.00288,56.1817 3.66955,53.8484 3.5,51.5 Z"/></g>
<g><path style="opacity:1" fill="#b6b5a7" d="M 15.5,79.5 C 16.5,79.5 17.5,79.5 18.5,79.5C 21.2869,80.4767 24.2869,80.81 27.5,80.5C 27.1164,82.2926 25.9497,83.2926 24,83.5C 19.9466,81.3861 15.7799,81.0528 11.5,82.5C 12.8333,81.5 14.1667,80.5 15.5,79.5 Z"/></g>
<g><path style="opacity:1" fill="#a29f92" d="M 4.5,81.5 C 6.80562,81.9926 9.13895,82.3259 11.5,82.5C 10.7261,83.1471 9.72612,83.4805 8.5,83.5C 6.64545,83.6598 5.31212,82.9931 4.5,81.5 Z"/></g>
</svg>
