<?xml version="1.0" encoding="UTF-8"?>
<!DOCTYPE svg PUBLIC "-//W3C//DTD SVG 1.1//EN" "http://www.w3.org/Graphics/SVG/1.1/DTD/svg11.dtd">
<svg xmlns="http://www.w3.org/2000/svg" version="1.1" width="30" height="90" style="shape-rendering:geometricPrecision; text-rendering:geometricPrecision; image-rendering:optimizeQuality; fill-rule:evenodd; clip-rule:evenodd" xmlns:xlink="http://www.w3.org/1999/xlink">
<g><path style="opacity:1" fill="#fdfdfd" d="M -0.5,-0.5 C 11.5,-0.5 23.5,-0.5 35.5,-0.5C 35.5,2.16667 35.5,4.83333 35.5,7.5C 31.9573,2.38431 27.2907,0.717641 21.5,2.5C 19.5648,3.14952 17.5648,3.48285 15.5,3.5C 12.2849,1.00062 9.28487,1.33395 6.5,4.5C 3.05958,5.44858 1.72624,7.78191 2.5,11.5C 4.34448,18.0357 5.34448,24.7024 5.5,31.5C 4.32627,32.5137 3.6596,33.847 3.5,35.5C 2.06873,36.7804 1.40206,38.4471 1.5,40.5C 0.196069,47.224 0.529402,53.8906 2.5,60.5C 3.26007,62.9845 4.26007,62.9845 5.5,60.5C 6.11742,60.3893 6.61742,60.056 7,59.5C 7.49742,56.854 7.66409,54.1873 7.5,51.5C 9.2766,48.4954 10.2766,45.1621 10.5,41.5C 11.3382,41.1583 11.6716,40.4916 11.5,39.5C 13.5869,38.4154 14.9202,36.7488 15.5,34.5C 16.7079,33.7659 18.0413,33.4326 19.5,33.5C 20.2436,37.1185 20.577,40.7852 20.5,44.5C 19.2616,46.2143 18.595,48.2143 18.5,50.5C 17.0937,50.9731 16.427,51.9731 16.5,53.5C 15.8826,53.6107 15.3826,53.944 15,54.5C 14.5026,57.146 14.3359,59.8127 14.5,62.5C 15.791,62.7373 16.791,62.404 17.5,61.5C 20.9078,60.4222 22.9078,58.0889 23.5,54.5C 24.6737,53.4863 25.3404,52.153 25.5,50.5C 26.9063,50.0269 27.573,49.0269 27.5,47.5C 28.9238,45.4855 29.5905,43.1522 29.5,40.5C 30.2288,32.9644 30.8955,25.2978 31.5,17.5C 33.3417,15.8102 34.675,13.8102 35.5,11.5C 35.5,35.1667 35.5,58.8333 35.5,82.5C 23.5,82.5 11.5,82.5 -0.5,82.5C -0.5,54.8333 -0.5,27.1667 -0.5,-0.5 Z"/></g>
<g><path style="opacity:1" fill="#f7fbe4" d="M 21.5,2.5 C 32.9073,2.22918 36.2406,7.22918 31.5,17.5C 30.1634,18.3149 29.1634,19.4815 28.5,21C 24.6049,22.2662 20.6049,22.7662 16.5,22.5C 17.0616,16.444 18.0616,10.444 19.5,4.5C 20.5,4.16667 21.1667,3.5 21.5,2.5 Z"/></g>
<g><path style="opacity:1" fill="#adab9f" d="M 21.5,2.5 C 21.1667,3.5 20.5,4.16667 19.5,4.5C 17.7367,5.95378 16.4033,5.62045 15.5,3.5C 17.5648,3.48285 19.5648,3.14952 21.5,2.5 Z"/></g>
<g><path style="opacity:1" fill="#f8f6f3" d="M 15.5,3.5 C 16.4033,5.62045 17.7367,5.95378 19.5,4.5C 18.0616,10.444 17.0616,16.444 16.5,22.5C 14.8333,22.5 13.1667,22.5 11.5,22.5C 10.6321,16.2338 9.96541,9.90049 9.5,3.5C 11.5,3.5 13.5,3.5 15.5,3.5 Z"/></g>
<g><path style="opacity:1" fill="#d6d2c1" d="M 15.5,3.5 C 13.5,3.5 11.5,3.5 9.5,3.5C 9.96541,9.90049 10.6321,16.2338 11.5,22.5C 9.88277,21.962 8.2161,21.6287 6.5,21.5C 2.85332,15.7284 2.85332,10.0617 6.5,4.5C 9.28487,1.33395 12.2849,1.00062 15.5,3.5 Z"/></g>
<g><path style="opacity:1" fill="#b5b4a7" d="M 21.5,2.5 C 27.2907,0.717641 31.9573,2.38431 35.5,7.5C 35.5,8.83333 35.5,10.1667 35.5,11.5C 34.675,13.8102 33.3417,15.8102 31.5,17.5C 36.2406,7.22918 32.9073,2.22918 21.5,2.5 Z"/></g>
<g><path style="opacity:1" fill="#cac6b2" d="M 31.5,17.5 C 30.8955,25.2978 30.2288,32.9644 29.5,40.5C 29.6662,34.4908 29.4995,28.4908 29,22.5C 28.2496,23.1258 27.4162,23.6258 26.5,24C 19.8417,24.4996 13.175,24.6663 6.5,24.5C 6.5,23.5 6.5,22.5 6.5,21.5C 8.2161,21.6287 9.88277,21.962 11.5,22.5C 13.1667,22.5 14.8333,22.5 16.5,22.5C 20.6049,22.7662 24.6049,22.2662 28.5,21C 29.1634,19.4815 30.1634,18.3149 31.5,17.5 Z"/></g>
<g><path style="opacity:1" fill="#a89f85" d="M 6.5,4.5 C 2.85332,10.0617 2.85332,15.7284 6.5,21.5C 6.5,22.5 6.5,23.5 6.5,24.5C 13.175,24.6663 19.8417,24.4996 26.5,24C 27.4162,23.6258 28.2496,23.1258 29,22.5C 29.4995,28.4908 29.6662,34.4908 29.5,40.5C 29.5905,43.1522 28.9238,45.4855 27.5,47.5C 28.5246,39.8613 28.6912,32.1947 28,24.5C 22.6621,26.1532 17.1621,26.8199 11.5,26.5C 10.0695,26.5792 8.73619,26.2458 7.5,25.5C 6.83129,27.6309 6.16462,29.6309 5.5,31.5C 5.34448,24.7024 4.34448,18.0357 2.5,11.5C 1.72624,7.78191 3.05958,5.44858 6.5,4.5 Z"/></g>
<g><path style="opacity:1" fill="#fde089" d="M 27.5,47.5 C 26.0937,47.9731 25.427,48.9731 25.5,50.5C 24.8333,50.8333 24.1667,51.1667 23.5,51.5C 24.5413,47.7462 25.8746,44.0795 27.5,40.5C 26.3112,39.5713 24.9778,39.238 23.5,39.5C 23.8421,44.9334 22.8421,50.1001 20.5,55C 20.5699,55.7648 20.9033,56.2648 21.5,56.5C 21.1667,57.5 20.5,58.1667 19.5,58.5C 17.7868,57.3646 17.1201,55.698 17.5,53.5C 18.1098,52.609 18.4431,51.609 18.5,50.5C 20.0739,48.8984 20.7406,46.8984 20.5,44.5C 21.6433,41.0242 21.8099,37.3575 21,33.5C 18.3234,30.5176 16.49,30.8509 15.5,34.5C 14.5,35.1667 13.5,35.8333 12.5,36.5C 12.7709,34.6203 12.1042,33.287 10.5,32.5C 11.3414,30.6208 11.6747,28.6208 11.5,26.5C 17.1621,26.8199 22.6621,26.1532 28,24.5C 28.6912,32.1947 28.5246,39.8613 27.5,47.5 Z"/></g>
<g><path style="opacity:1" fill="#f6e6ba" d="M 10.5,32.5 C 12.1042,33.287 12.7709,34.6203 12.5,36.5C 11.8902,37.391 11.5569,38.391 11.5,39.5C 11.6716,40.4916 11.3382,41.1583 10.5,41.5C 9.31271,43.0725 8.31271,44.7392 7.5,46.5C 6.53094,48.663 5.69761,50.9963 5,53.5C 5.43075,46.1093 7.26408,39.1093 10.5,32.5 Z"/></g>
<g><path style="opacity:1" fill="#b2ad9e" d="M 15.5,34.5 C 14.9202,36.7488 13.5869,38.4154 11.5,39.5C 11.5569,38.391 11.8902,37.391 12.5,36.5C 13.5,35.8333 14.5,35.1667 15.5,34.5 Z"/></g>
<g><path style="opacity:1" fill="#e9c076" d="M 11.5,26.5 C 11.6747,28.6208 11.3414,30.6208 10.5,32.5C 7.26408,39.1093 5.43075,46.1093 5,53.5C 5.69761,50.9963 6.53094,48.663 7.5,46.5C 7.5,48.1667 7.5,49.8333 7.5,51.5C 6.65622,54.3447 5.98956,57.3447 5.5,60.5C 4.5,60.5 3.5,60.5 2.5,60.5C 2.5,57.8333 2.5,55.1667 2.5,52.5C 2.37477,46.7969 2.7081,41.1302 3.5,35.5C 3.6596,33.847 4.32627,32.5137 5.5,31.5C 6.16462,29.6309 6.83129,27.6309 7.5,25.5C 8.73619,26.2458 10.0695,26.5792 11.5,26.5 Z"/></g>
<g><path style="opacity:1" fill="#a89e85" d="M 20.5,44.5 C 20.577,40.7852 20.2436,37.1185 19.5,33.5C 18.0413,33.4326 16.7079,33.7659 15.5,34.5C 16.49,30.8509 18.3234,30.5176 21,33.5C 21.8099,37.3575 21.6433,41.0242 20.5,44.5 Z"/></g>
<g><path style="opacity:1" fill="#fdf2c5" d="M 23.5,51.5 C 23.5,52.5 23.5,53.5 23.5,54.5C 22.5,54.8333 21.8333,55.5 21.5,56.5C 20.9033,56.2648 20.5699,55.7648 20.5,55C 22.8421,50.1001 23.8421,44.9334 23.5,39.5C 24.9778,39.238 26.3112,39.5713 27.5,40.5C 25.8746,44.0795 24.5413,47.7462 23.5,51.5 Z"/></g>
<g><path style="opacity:1" fill="#b7b09f" d="M 10.5,41.5 C 10.2766,45.1621 9.2766,48.4954 7.5,51.5C 7.5,49.8333 7.5,48.1667 7.5,46.5C 8.31271,44.7392 9.31271,43.0725 10.5,41.5 Z"/></g>
<g><path style="opacity:1" fill="#a8a089" d="M 20.5,44.5 C 20.7406,46.8984 20.0739,48.8984 18.5,50.5C 18.595,48.2143 19.2616,46.2143 20.5,44.5 Z"/></g>
<g><path style="opacity:1" fill="#aaa392" d="M 27.5,47.5 C 27.573,49.0269 26.9063,50.0269 25.5,50.5C 25.427,48.9731 26.0937,47.9731 27.5,47.5 Z"/></g>
<g><path style="opacity:1" fill="#c1a572" d="M 3.5,35.5 C 2.7081,41.1302 2.37477,46.7969 2.5,52.5C 1.51658,48.7016 1.18325,44.7016 1.5,40.5C 1.40206,38.4471 2.06873,36.7804 3.5,35.5 Z"/></g>
<g><path style="opacity:1" fill="#aca690" d="M 25.5,50.5 C 25.3404,52.153 24.6737,53.4863 23.5,54.5C 23.5,53.5 23.5,52.5 23.5,51.5C 24.1667,51.1667 24.8333,50.8333 25.5,50.5 Z"/></g>
<g><path style="opacity:1" fill="#a59c83" d="M 18.5,50.5 C 18.4431,51.609 18.1098,52.609 17.5,53.5C 17.1667,53.5 16.8333,53.5 16.5,53.5C 16.427,51.9731 17.0937,50.9731 18.5,50.5 Z"/></g>
<g><path style="opacity:1" fill="#a7997c" d="M 7.5,51.5 C 7.66409,54.1873 7.49742,56.854 7,59.5C 6.61742,60.056 6.11742,60.3893 5.5,60.5C 5.98956,57.3447 6.65622,54.3447 7.5,51.5 Z"/></g>
<g><path style="opacity:1" fill="#a29b88" d="M 1.5,40.5 C 1.18325,44.7016 1.51658,48.7016 2.5,52.5C 2.5,55.1667 2.5,57.8333 2.5,60.5C 0.529402,53.8906 0.196069,47.224 1.5,40.5 Z"/></g>
<g><path style="opacity:1" fill="#9a9482" d="M 16.5,53.5 C 16.0617,55.126 15.7284,56.7927 15.5,58.5C 15.6399,60.0296 16.3065,61.0296 17.5,61.5C 16.791,62.404 15.791,62.7373 14.5,62.5C 14.3359,59.8127 14.5026,57.146 15,54.5C 15.3826,53.944 15.8826,53.6107 16.5,53.5 Z"/></g>
<g><path style="opacity:1" fill="#e6bc72" d="M 16.5,53.5 C 16.8333,53.5 17.1667,53.5 17.5,53.5C 17.1201,55.698 17.7868,57.3646 19.5,58.5C 18.8333,59.5 18.1667,60.5 17.5,61.5C 16.3065,61.0296 15.6399,60.0296 15.5,58.5C 15.7284,56.7927 16.0617,55.126 16.5,53.5 Z"/></g>
<g><path style="opacity:1" fill="#b2ab9a" d="M 23.5,54.5 C 22.9078,58.0889 20.9078,60.4222 17.5,61.5C 18.1667,60.5 18.8333,59.5 19.5,58.5C 20.5,58.1667 21.1667,57.5 21.5,56.5C 21.8333,55.5 22.5,54.8333 23.5,54.5 Z"/></g>
<g><path style="opacity:1" fill="#beb5a4" d="M 2.5,60.5 C 3.5,60.5 4.5,60.5 5.5,60.5C 4.26007,62.9845 3.26007,62.9845 2.5,60.5 Z"/></g>
</svg>
