<?xml version="1.0" encoding="UTF-8"?>
<!DOCTYPE svg PUBLIC "-//W3C//DTD SVG 1.1//EN" "http://www.w3.org/Graphics/SVG/1.1/DTD/svg11.dtd">
<svg xmlns="http://www.w3.org/2000/svg" version="1.1" width="30" height="90" style="shape-rendering:geometricPrecision; text-rendering:geometricPrecision; image-rendering:optimizeQuality; fill-rule:evenodd; clip-rule:evenodd" xmlns:xlink="http://www.w3.org/1999/xlink">
<g><path style="opacity:1" fill="#fefdfd" d="M -0.5,-0.5 C 9.83333,-0.5 20.1667,-0.5 30.5,-0.5C 30.5,27.1667 30.5,54.8333 30.5,82.5C 20.1667,82.5 9.83333,82.5 -0.5,82.5C -0.5,54.8333 -0.5,27.1667 -0.5,-0.5 Z"/></g>
<g><path style="opacity:1" fill="#e5e3d8" d="M 11.5,1.5 C 11.5,2.16667 11.8333,2.5 12.5,2.5C 11.8652,6.41854 11.5319,10.4185 11.5,14.5C 11.5112,18.5652 12.1778,22.2319 13.5,25.5C 11.7354,26.4614 9.73535,26.7947 7.5,26.5C 7.5,18.8333 7.5,11.1667 7.5,3.5C 8.49162,3.67158 9.15829,3.33825 9.5,2.5C 9.84171,1.66175 10.5084,1.32842 11.5,1.5 Z"/></g>
<g><path style="opacity:1" fill="#fdfefd" d="M 18.5,3.5 C 18.5,4.16667 18.5,4.83333 18.5,5.5C 18.8967,11.8083 17.73,17.8083 15,23.5C 14.5004,16.8417 14.3337,10.175 14.5,3.5C 15.8333,3.5 17.1667,3.5 18.5,3.5 Z"/></g>
<g><path style="opacity:1" fill="#d7d3c1" d="M 7.5,3.5 C 7.5,11.1667 7.5,18.8333 7.5,26.5C 9.73535,26.7947 11.7354,26.4614 13.5,25.5C 14.609,25.4431 15.609,25.1098 16.5,24.5C 16.4226,25.7498 15.756,26.5831 14.5,27C 11.8333,27.6667 9.16667,27.6667 6.5,27C 5.327,23.4043 3.99367,20.571 2.5,18.5C 1.66175,18.1583 1.32842,17.4916 1.5,16.5C 2.31948,13.6946 2.81948,10.6946 3,7.5C 3.74753,5.24896 5.24753,3.91563 7.5,3.5 Z"/></g>
<g><path style="opacity:1" fill="#a09c8c" d="M 9.5,2.5 C 9.15829,3.33825 8.49162,3.67158 7.5,3.5C 5.24753,3.91563 3.74753,5.24896 3,7.5C 2.81948,10.6946 2.31948,13.6946 1.5,16.5C 1.05223,11.9592 1.7189,7.62586 3.5,3.5C 5.39605,2.53443 7.39605,2.2011 9.5,2.5 Z"/></g>
<g><path style="opacity:1" fill="#f4f4eb" d="M 12.5,2.5 C 14.7354,2.20528 16.7354,2.53862 18.5,3.5C 17.1667,3.5 15.8333,3.5 14.5,3.5C 14.3337,10.175 14.5004,16.8417 15,23.5C 17.73,17.8083 18.8967,11.8083 18.5,5.5C 19.647,9.64631 19.8136,13.9796 19,18.5C 18.7599,20.8516 17.9265,22.8516 16.5,24.5C 15.609,25.1098 14.609,25.4431 13.5,25.5C 12.1778,22.2319 11.5112,18.5652 11.5,14.5C 11.5319,10.4185 11.8652,6.41854 12.5,2.5 Z"/></g>
<g><path style="opacity:1" fill="#a3a090" d="M 11.5,1.5 C 14.7107,1.01202 17.544,1.67869 20,3.5C 20.6667,8.83333 20.6667,14.1667 20,19.5C 18.2108,25.1603 17.0442,30.827 16.5,36.5C 16.4249,33.7938 16.0916,31.1272 15.5,28.5C 14.5,28.5 13.5,28.5 12.5,28.5C 11.8333,28.5 11.1667,28.5 10.5,28.5C 9.16667,28.5 7.83333,28.5 6.5,28.5C 5.53862,30.2646 5.20528,32.2646 5.5,34.5C 4.76365,29.2391 3.76365,23.9058 2.5,18.5C 3.99367,20.571 5.327,23.4043 6.5,27C 9.16667,27.6667 11.8333,27.6667 14.5,27C 15.756,26.5831 16.4226,25.7498 16.5,24.5C 17.9265,22.8516 18.7599,20.8516 19,18.5C 19.8136,13.9796 19.647,9.64631 18.5,5.5C 18.5,4.83333 18.5,4.16667 18.5,3.5C 16.7354,2.53862 14.7354,2.20528 12.5,2.5C 11.8333,2.5 11.5,2.16667 11.5,1.5 Z"/></g>
<g><path style="opacity:1" fill="#f6ce7c" d="M 6.5,28.5 C 7.83333,28.5 9.16667,28.5 10.5,28.5C 10.9062,34.8634 11.5729,41.1967 12.5,47.5C 12.0834,51.8171 12.7501,55.8171 14.5,59.5C 14.1667,60.1667 13.8333,60.8333 13.5,61.5C 10.4307,50.7845 8.09738,39.7845 6.5,28.5 Z"/></g>
<g><path style="opacity:1" fill="#fee18f" d="M 10.5,28.5 C 11.1667,28.5 11.8333,28.5 12.5,28.5C 13.4717,34.9966 13.4717,41.33 12.5,47.5C 11.5729,41.1967 10.9062,34.8634 10.5,28.5 Z"/></g>
<g><path style="opacity:1" fill="#faeec5" d="M 12.5,28.5 C 13.5,28.5 14.5,28.5 15.5,28.5C 16.0916,31.1272 16.4249,33.7938 16.5,36.5C 15.6962,44.0124 15.0296,51.679 14.5,59.5C 12.7501,55.8171 12.0834,51.8171 12.5,47.5C 13.4717,41.33 13.4717,34.9966 12.5,28.5 Z"/></g>
<g><path style="opacity:1" fill="#dfb570" d="M 6.5,28.5 C 8.09738,39.7845 10.4307,50.7845 13.5,61.5C 13.5,63.1667 13.5,64.8333 13.5,66.5C 12.3263,67.5137 11.6596,68.847 11.5,70.5C 10.1779,70.67 9.01127,70.3366 8,69.5C 7.50074,64.5111 7.33407,59.5111 7.5,54.5C 7.66315,47.9384 6.99648,41.605 5.5,35.5C 5.5,35.1667 5.5,34.8333 5.5,34.5C 5.20528,32.2646 5.53862,30.2646 6.5,28.5 Z"/></g>
<g><path style="opacity:1" fill="#aca28e" d="M 5.5,35.5 C 6.99648,41.605 7.66315,47.9384 7.5,54.5C 6.12081,48.383 5.45415,42.0497 5.5,35.5 Z"/></g>
<g><path style="opacity:1" fill="#aea99a" d="M 16.5,36.5 C 16.6663,43.5079 16.4996,50.5079 16,57.5C 15.7963,60.7974 14.963,63.7974 13.5,66.5C 13.5,64.8333 13.5,63.1667 13.5,61.5C 13.8333,60.8333 14.1667,60.1667 14.5,59.5C 15.0296,51.679 15.6962,44.0124 16.5,36.5 Z"/></g>
<g><path style="opacity:1" fill="#a49a86" d="M 13.5,66.5 C 13.7709,68.3797 13.1042,69.713 11.5,70.5C 11.6596,68.847 12.3263,67.5137 13.5,66.5 Z"/></g>
</svg>
