<?xml version="1.0" encoding="UTF-8"?>
<svg version="1.1" xmlns="http://www.w3.org/2000/svg" width="30" height="90">
<path d="M0 0 C9.9 0 19.8 0 30 0 C30 29.7 30 59.4 30 90 C20.1 90 10.2 90 0 90 C0 60.3 0 30.6 0 0 Z " fill="#FEFEFE" transform="translate(0,0)"/>
<path d="M0 0 C0.66 0 1.32 0 2 0 C2 6.27 2 12.54 2 19 C4.97 19.33 7.94 19.66 11 20 C14.31763409 16.68236591 14.95448935 15.46180197 15.09765625 10.86328125 C15.08025391 9.10564453 15.08025391 9.10564453 15.0625 7.3125 C15.05347656 6.13300781 15.04445313 4.95351562 15.03515625 3.73828125 C15.02355469 2.83464844 15.01195312 1.93101562 15 1 C15.66 1 16.32 1 17 1 C19.67513606 6.35027212 17.86196871 13.35489642 16.62817383 18.93896484 C13.62991897 32.51328225 13.39400453 45.94391596 13.17578125 59.7734375 C13.08952391 64.93439223 12.8098302 69.90399532 12 75 C11.34 75 10.68 75 10 75 C8.933177 72.0128956 7.94633462 69.02667358 7 66 C6.66355469 64.94039063 6.32710937 63.88078125 5.98046875 62.7890625 C2.5106441 50.59919163 1.89784397 38.29349798 1.23364258 25.67871094 C1.07772821 23.07977145 1.07772821 23.07977145 0.48144531 20.92578125 C-0.07363185 18.70547261 -0.11310902 16.74013427 -0.09765625 14.453125 C-0.09443359 13.60878906 -0.09121094 12.76445312 -0.08789062 11.89453125 C-0.07951172 11.02183594 -0.07113281 10.14914062 -0.0625 9.25 C-0.05798828 8.36183594 -0.05347656 7.47367188 -0.04882812 6.55859375 C-0.037074 4.37232671 -0.02064249 2.18619821 0 0 Z " fill="#C9C492" transform="translate(7,4)"/>
<path d="M0 0 C2.14453125 0.05078125 2.14453125 0.05078125 4.8125 0.3125 C6.12154297 0.43044922 6.12154297 0.43044922 7.45703125 0.55078125 C9.98613225 0.99755024 11.78213548 1.73338739 14 3 C14.08150744 5.06183633 14.1394194 7.12461349 14.1875 9.1875 C14.22230469 10.33605469 14.25710937 11.48460937 14.29296875 12.66796875 C13.88827165 17.27072382 12.21682591 19.78317409 9 23 C4.94738713 23.34490322 3.45245824 23.30163882 0 21 C-0.44824219 18.95288086 -0.44824219 18.95288086 -0.546875 16.46484375 C-0.58683594 15.57345703 -0.62679688 14.68207031 -0.66796875 13.76367188 C-0.69503906 12.83103516 -0.72210938 11.89839844 -0.75 10.9375 C-0.79253906 10.00099609 -0.83507813 9.06449219 -0.87890625 8.09960938 C-1.07519367 3.07974038 -1.07519367 3.07974038 -1 1 C-0.67 0.67 -0.34 0.34 0 0 Z " fill="#F0EFEE" transform="translate(9,2)"/>
<path d="M0 0 C0.66 0 1.32 0 2 0 C2 6.27 2 12.54 2 19 C4.97 19.33 7.94 19.66 11 20 C14.31763409 16.68236591 14.95448935 15.46180197 15.09765625 10.86328125 C15.08025391 9.10564453 15.08025391 9.10564453 15.0625 7.3125 C15.05347656 6.13300781 15.04445313 4.95351562 15.03515625 3.73828125 C15.02355469 2.83464844 15.01195312 1.93101562 15 1 C15.66 1 16.32 1 17 1 C19.80875307 6.61750613 17.7752119 14.33840902 16.75 20.3125 C16.64075195 21.00617676 16.53150391 21.69985352 16.41894531 22.41455078 C15.61120009 26.7808271 14.57838902 29.3060037 11 32 C8.375 32.4375 8.375 32.4375 6 32 C5.34 31.01 4.68 30.02 4 29 C3.67 31.64 3.34 34.28 3 37 C2.67 37 2.34 37 2 37 C1.93941406 36.03578125 1.87882813 35.0715625 1.81640625 34.078125 C1.73261719 32.81484375 1.64882812 31.5515625 1.5625 30.25 C1.48128906 28.99703125 1.40007813 27.7440625 1.31640625 26.453125 C1.11812784 23.22678169 1.11812784 23.22678169 0.48632812 21.06835938 C-0.04869273 18.79290921 -0.11343775 16.78878639 -0.09765625 14.453125 C-0.09443359 13.60878906 -0.09121094 12.76445312 -0.08789062 11.89453125 C-0.07951172 11.02183594 -0.07113281 10.14914062 -0.0625 9.25 C-0.05798828 8.36183594 -0.05347656 7.47367188 -0.04882812 6.55859375 C-0.037074 4.37232671 -0.02064249 2.18619821 0 0 Z " fill="#CACAC8" transform="translate(7,4)"/>
<path d="M0 0 C0.33 0 0.66 0 1 0 C0.8811479 5.69267163 0.75686288 11.38519001 0.62768555 17.07763672 C0.58454872 19.01152376 0.54286004 20.94544369 0.50268555 22.87939453 C0.4444644 25.66969691 0.3809233 28.45983693 0.31640625 31.25 C0.29133751 32.533302 0.29133751 32.533302 0.26576233 33.8425293 C0.14127422 38.96209877 -0.28173021 43.92865741 -1 49 C-1.66 49 -2.32 49 -3 49 C-4.59138085 44.82262526 -5.21278058 41.46839215 -5 37 C-4.67 38.32 -4.34 39.64 -4 41 C-3.34 41 -2.68 41 -2 41 C-2.00523682 40.07662842 -2.01047363 39.15325684 -2.01586914 38.2019043 C-2.03291585 34.77465186 -2.0454525 31.3474445 -2.05493164 27.92016602 C-2.05995903 26.43708587 -2.06678185 24.95401067 -2.07543945 23.47094727 C-2.08757482 21.33869199 -2.09324425 19.20650227 -2.09765625 17.07421875 C-2.10289307 15.79119873 -2.10812988 14.50817871 -2.11352539 13.1862793 C-2 10 -2 10 -1 7 C-3.31 7 -5.62 7 -8 7 C-7.88481642 9.66740923 -7.75810454 12.33347241 -7.625 15 C-7.5940625 15.74378906 -7.563125 16.48757812 -7.53125 17.25390625 C-7.330946 21.09306631 -6.92295367 24.60013553 -5.8984375 28.3125 C-5.04933139 31.79752683 -4.99065976 32.78854342 -6 36 C-11.19515221 25.00668683 -10.41237902 13.88286 -10 2 C-9.56042969 2.49113281 -9.12085938 2.98226562 -8.66796875 3.48828125 C-7.04157708 5.27541725 -7.04157708 5.27541725 -4.3125 5.1875 C-3.549375 5.125625 -2.78625 5.06375 -2 5 C-1.34 3.35 -0.68 1.7 0 0 Z " fill="#A4A189" transform="translate(20,30)"/>
<path d="M0 0 C0.33 0 0.66 0 1 0 C1 10.23 1 20.46 1 31 C0.34 31 -0.32 31 -1 31 C-2.59138085 26.82262526 -3.21278058 23.46839215 -3 19 C-2.67 20.32 -2.34 21.64 -2 23 C-1.34 23 -0.68 23 0 23 C0 15.41 0 7.82 0 0 Z " fill="#9A9672" transform="translate(18,48)"/>
<path d="M0 0 C0.33 0 0.66 0 1 0 C1 3.96 1 7.92 1 12 C-0.32 11.67 -1.64 11.34 -3 11 C-2.25 3.375 -2.25 3.375 0 0 Z " fill="#BCB68B" transform="translate(17,59)"/>
</svg>
