<?xml version="1.0" encoding="UTF-8"?>
<svg version="1.1" xmlns="http://www.w3.org/2000/svg" width="30" height="90">
<path d="M0 0 C10.56 0 21.12 0 32 0 C32 29.04 32 58.08 32 88 C21.44 88 10.88 88 0 88 C0 58.96 0 29.92 0 0 Z " fill="#FEFEFD" transform="translate(0,0)"/>
<path d="M0 0 C3 1 3 1 4 3 C4.33 2.34 4.66 1.68 5 1 C11.2173913 0.52173913 11.2173913 0.52173913 14.25 2.375 C19.88517371 10.82776057 19.32520792 20.47393684 19.0625 30.25 C18.99902766 32.90116635 18.95125825 35.55138338 18.91015625 38.203125 C18.88058838 39.36489258 18.85102051 40.52666016 18.82055664 41.72363281 C19.00856565 45.15639599 19.80778916 47.79223465 21 51 C21.50108888 55.02172634 21.49281501 58.68582664 20.0625 62.5 C16.67263377 64.96535726 13.11664068 65.08603911 9 65 C6.21540837 64.53590139 3.70781742 63.83696175 1 63 C4 61 4 61 6.33984375 61.3125 C8.06918101 61.77018926 9.7983484 62.22852084 11.52734375 62.6875 C14.40025054 63.05058459 15.58917793 62.52144687 18 61 C18.05449838 59.27119018 18.09301688 57.54187288 18.125 55.8125 C18.14820312 54.84957031 18.17140625 53.88664062 18.1953125 52.89453125 C17.98825259 49.82590339 17.43101917 47.71651097 16 45 C9.34896898 42.89113651 1.73826343 43.87695609 -5 45 C-5 50.94 -5 56.88 -5 63 C-3.35 63 -1.7 63 0 63 C-0.495 63.99 -0.495 63.99 -1 65 C-4.12474407 64.74664237 -5.60451242 64.40912508 -7.8125 62.125 C-10.72312365 54.46546407 -9.20426416 47.27395968 -6.16796875 39.8984375 C-5.78253906 38.94195312 -5.39710937 37.98546875 -5 37 C-4.72816895 36.37101807 -4.45633789 35.74203613 -4.17626953 35.09399414 C-1.59551224 28.48985265 -1.9263298 22.67000813 -2.5 15.6875 C-2.67102575 13.56754647 -2.82789203 11.44639023 -2.96875 9.32421875 C-3.04544922 8.39697998 -3.12214844 7.46974121 -3.20117188 6.5144043 C-2.95890256 3.48633189 -2.00446251 2.22504462 0 0 Z " fill="#FADB85" transform="translate(10,19)"/>
<path d="M0 0 C2.64463616 5.06740688 2.85448231 10.41503315 2 16 C-0.125 18.25 -0.125 18.25 -3 19 C-5.89700583 18.76350973 -8.36779516 18.20453686 -11.125 17.3125 C-13.07692219 16.79495599 -13.07692219 16.79495599 -14.9375 18 C-17.67306164 19.32633292 -19.15697624 18.92206176 -22 18 C-23.59412284 14.81175432 -23.10174735 11.37103338 -23.0625 7.875 C-23.05798828 7.12089844 -23.05347656 6.36679688 -23.04882812 5.58984375 C-23.03703499 3.72652873 -23.01909942 1.86325445 -23 0 C-15.09495108 -2.4175635 -7.82185611 -3.35222405 0 0 Z " fill="#F7FBE4" transform="translate(27,64)"/>
<path d="M0 0 C0.33 0 0.66 0 1 0 C3.01944214 29.55180499 3.01944214 29.55180499 -2 40 C-0.80761719 39.98839844 0.38476562 39.97679687 1.61328125 39.96484375 C3.17968594 39.95546408 4.74609231 39.94636407 6.3125 39.9375 C7.09818359 39.92912109 7.88386719 39.92074219 8.69335938 39.91210938 C9.45068359 39.90888672 10.20800781 39.90566406 10.98828125 39.90234375 C11.68477783 39.89710693 12.38127441 39.89187012 13.09887695 39.88647461 C15 40 15 40 18 41 C19.77380804 27.53806399 19.40056698 15.1367141 16 2 C18.99654224 4.17930345 19.87715404 6.83985977 20.66015625 10.37792969 C21.42203784 16.2562402 21.11928061 22.21066987 21 28.125 C20.94644502 30.7944606 20.90681666 33.46286472 20.875 36.1328125 C20.85179688 37.30730957 20.82859375 38.48180664 20.8046875 39.69189453 C21.0077966 43.13205486 21.80548988 45.7842553 23 49 C23.50108888 53.02172634 23.49281501 56.68582664 22.0625 60.5 C18.67263377 62.96535726 15.11664068 63.08603911 11 63 C8.21540837 62.53590139 5.70781742 61.83696175 3 61 C6 59 6 59 8.33984375 59.3125 C10.06918101 59.77018926 11.7983484 60.22852084 13.52734375 60.6875 C16.40025054 61.05058459 17.58917793 60.52144687 20 59 C20.05449838 57.27119018 20.09301688 55.54187288 20.125 53.8125 C20.14820312 52.84957031 20.17140625 51.88664062 20.1953125 50.89453125 C19.98825259 47.82590339 19.43101917 45.71651097 18 43 C11.34896898 40.89113651 3.73826343 41.87695609 -3 43 C-3 48.94 -3 54.88 -3 61 C-1.35 61 0.3 61 2 61 C1.67 61.66 1.34 62.32 1 63 C-2.12474407 62.74664237 -3.60451242 62.40912508 -5.8125 60.125 C-8.72312365 52.46546407 -7.20426416 45.27395968 -4.16796875 37.8984375 C-3.78253906 36.94195312 -3.39710937 35.98546875 -3 35 C-2.72961914 34.37246826 -2.45923828 33.74493652 -2.18066406 33.09838867 C0.39981577 26.47860374 0.13610094 20.568842 -0.375 13.5625 C-0.5122727 11.41824963 -0.64530909 9.27372245 -0.7734375 7.12890625 C-0.87277588 5.72233765 -0.87277588 5.72233765 -0.97412109 4.28735352 C-1 2 -1 2 0 0 Z " fill="#AFA690" transform="translate(8,21)"/>
<path d="M0 0 C1.15822266 0.02707031 1.15822266 0.02707031 2.33984375 0.0546875 C3.19255859 0.08949219 3.19255859 0.08949219 4.0625 0.125 C4.0625 0.455 4.0625 0.785 4.0625 1.125 C1.4225 1.125 -1.2175 1.125 -3.9375 1.125 C-3.9375 6.735 -3.9375 12.345 -3.9375 18.125 C-3.2775 18.455 -2.6175 18.785 -1.9375 19.125 C-4.43159061 20.69535335 -5.64193416 21.1524945 -8.625 20.875 C-9.388125 20.6275 -10.15125 20.38 -10.9375 20.125 C-12.53162284 16.93675432 -12.03924735 13.49603338 -12 10 C-11.99548828 9.24589844 -11.99097656 8.49179688 -11.98632812 7.71484375 C-11.97453499 5.85152873 -11.95659942 3.98825445 -11.9375 2.125 C-7.86101885 0.85764845 -4.27876508 -0.13165431 0 0 Z " fill="#E5E3D7" transform="translate(15.9375,61.875)"/>
<path d="M0 0 C1.98 0 3.96 0 6 0 C5.979375 1.134375 5.95875 2.26875 5.9375 3.4375 C5.9293241 8.00782755 6.41308664 12.47238262 7 17 C4.69 17 2.38 17 0 17 C0 11.39 0 5.78 0 0 Z " fill="#FDFDFB" transform="translate(12,63)"/>
<path d="M0 0 C3 1 3 1 4 3 C4.33 2.34 4.66 1.68 5 1 C7.31 1 9.62 1 12 1 C11.01 1.495 11.01 1.495 10 2 C10.16113281 2.67417969 10.32226562 3.34835938 10.48828125 4.04296875 C11.97189279 12.61620491 11.70301378 21.72202031 9 30 C8.34 30 7.68 30 7 30 C6.75 24.375 6.75 24.375 9 21 C9.31855376 17.93387601 9.31855376 17.93387601 9.25 14.5625 C9.25515625 13.42941406 9.2603125 12.29632813 9.265625 11.12890625 C9.01398568 8.16474309 8.54596941 6.49686329 7 4 C6.67 4 6.34 4 6 4 C5.88748267 10.07593562 6.30739642 15.96445452 7 22 C3.18964906 16.28447359 1.44429639 8.8536779 2 2 C1.01 1.67 0.02 1.34 -1 1 C-0.67 0.67 -0.34 0.34 0 0 Z " fill="#B0A281" transform="translate(10,19)"/>
<path d="M0 0 C3 2 3 2 4 5 C4.12016328 7.14337765 4.17531664 9.29079124 4.1875 11.4375 C4.20167969 12.57058594 4.21585938 13.70367187 4.23046875 14.87109375 C4.00904861 17.87715357 3.6672656 19.52542684 2 22 C1.34 22.33 0.68 22.66 0 23 C-1.125 16.25 -1.125 16.25 0 14 C-0.144375 13.29875 -0.28875 12.5975 -0.4375 11.875 C-1.16548584 8.15418348 -1.12639695 4.79190846 -1 1 C-0.67 0.67 -0.34 0.34 0 0 Z " fill="#E8C177" transform="translate(16,22)"/>
<path d="M0 0 C0.99 0 1.98 0 3 0 C2.79375 0.639375 2.5875 1.27875 2.375 1.9375 C2.01548932 4.87350389 2.19914622 6.16996417 2.9375 8.9375 C4.52439816 15.22119069 4.16477067 21.56479014 4 28 C2.02 28.99 2.02 28.99 0 30 C0 20.1 0 10.2 0 0 Z " fill="#E3B66E" transform="translate(9,21)"/>
<path d="M0 0 C0.66 0 1.32 0 2 0 C2.33 5.28 2.66 10.56 3 16 C4.98 16.33 6.96 16.66 9 17 C8.34 17.99 7.68 18.98 7 20 C4.6568787 19.74438677 2.32156597 19.40729228 0 19 C-1.58696844 15.82606311 -1.1431447 12.41825795 -1.125 8.9375 C-1.12886719 8.19177734 -1.13273438 7.44605469 -1.13671875 6.67773438 C-1.12663501 1.12663501 -1.12663501 1.12663501 0 0 Z " fill="#D4D1C0" transform="translate(5,63)"/>
<path d="M0 0 C5.52070334 5.0543769 5.9741325 13.88304425 7 21 C7.125 24.6875 7.125 24.6875 7 27 C5.68 26.67 4.36 26.34 3 26 C2.92652344 24.56720703 2.92652344 24.56720703 2.8515625 23.10546875 C2.39799296 15.26184371 1.64930272 7.70208357 0 0 Z " fill="#FAE4B1" transform="translate(10,24)"/>
<path d="M0 0 C0.66 0 1.32 0 2 0 C2.33 5.61 2.66 11.22 3 17 C4.65 17 6.3 17 8 17 C7.67 17.66 7.34 18.32 7 19 C3.87525593 18.74664237 2.39548758 18.40912508 0.1875 16.125 C-1.57627734 11.48348067 -1.41150721 6.91434573 -1 2 C-0.67 1.34 -0.34 0.68 0 0 Z " fill="#B6B2A1" transform="translate(2,65)"/>
<path d="M0 0 C0.99 0 1.98 0 3 0 C3 5.61 3 11.22 3 17 C2.01 17 1.02 17 0 17 C0 11.39 0 5.78 0 0 Z " fill="#F5F3EE" transform="translate(12,63)"/>
<path d="M0 0 C1.32 0 2.64 0 4 0 C4.66 2.97 5.32 5.94 6 9 C5.01 9 4.02 9 3 9 C2.67 11.31 2.34 13.62 2 16 C1.67 16 1.34 16 1 16 C0.67 10.72 0.34 5.44 0 0 Z " fill="#E6C179" transform="translate(20,21)"/>
<path d="M0 0 C0.99 0.33 1.98 0.66 3 1 C2.34 1 1.68 1 1 1 C1.16113281 1.67417969 1.32226562 2.34835938 1.48828125 3.04296875 C2.97189279 11.61620491 2.70301378 20.72202031 0 29 C-0.66 29 -1.32 29 -2 29 C-2.25 23.375 -2.25 23.375 0 20 C0.28085768 16.96666607 0.28085768 16.96666607 0.1875 13.625 C0.18105469 12.50351562 0.17460937 11.38203125 0.16796875 10.2265625 C0.08391478 7.05347493 0.08391478 7.05347493 -0.57421875 4.2109375 C-1 2 -1 2 0 0 Z " fill="#A19272" transform="translate(19,20)"/>
<path d="M0 0 C2 2 2 2 2.22705078 3.87939453 C2.21657715 4.62302246 2.20610352 5.36665039 2.1953125 6.1328125 C2.18886719 6.93847656 2.18242187 7.74414062 2.17578125 8.57421875 C2.15902344 9.41597656 2.14226563 10.25773437 2.125 11.125 C2.11597656 11.97449219 2.10695313 12.82398438 2.09765625 13.69921875 C2.07405647 15.79959884 2.03818483 17.89983444 2 20 C1.01 19.67 0.02 19.34 -1 19 C-0.67 12.73 -0.34 6.46 0 0 Z " fill="#FFF2C2" transform="translate(24,28)"/>
<path d="M0 0 C0.33 0 0.66 0 1 0 C1 4.62 1 9.24 1 14 C-0.98 14.99 -0.98 14.99 -3 16 C-2.88590318 13.89521396 -2.75834639 11.79115423 -2.625 9.6875 C-2.55539062 8.51574219 -2.48578125 7.34398437 -2.4140625 6.13671875 C-2 3 -2 3 0 0 Z " fill="#EDC376" transform="translate(12,35)"/>
<path d="M0 0 C0.66 0.33 1.32 0.66 2 1 C2.28571429 8.42857143 2.28571429 8.42857143 0 12 C-1.29449495 8.11651516 -1.13203312 5.09302664 -1 1 C-0.67 0.67 -0.34 0.34 0 0 Z " fill="#FEE188" transform="translate(16,22)"/>
<path d="M0 0 C2.39763185 2.39763185 2.34280586 3.33273498 2.625 6.625 C2.69976563 7.44226562 2.77453125 8.25953125 2.8515625 9.1015625 C2.90054687 9.72804688 2.94953125 10.35453125 3 11 C2.01 10.67 1.02 10.34 0 10 C0 6.7 0 3.4 0 0 Z " fill="#FEF0C3" transform="translate(14,40)"/>
<path d="M0 0 C3.96 0 7.92 0 12 0 C11.67 0.66 11.34 1.32 11 2 C6.63113288 3.19150921 4.04365799 3.021829 0 1 C0 0.67 0 0.34 0 0 Z " fill="#DDDFCB" transform="translate(16,80)"/>
</svg>
