<?xml version="1.0" encoding="UTF-8"?>
<svg version="1.1" xmlns="http://www.w3.org/2000/svg" width="30" height="90">
<path d="M0 0 C9.9 0 19.8 0 30 0 C30 29.7 30 59.4 30 90 C20.1 90 10.2 90 0 90 C0 60.3 0 30.6 0 0 Z " fill="#FEFEFE" transform="translate(0,0)"/>
<path d="M0 0 C0.66 0 1.32 0 2 0 C5.61505768 4.03217972 5.30854356 8.12004386 5.171875 13.23828125 C4.9904434 16.15355724 4.64433338 19.00203776 4.2265625 21.890625 C3.70341486 26.76130991 3.29652662 32.19718482 4.49609375 36.9765625 C5.13934738 39.55954996 5.16958025 41.96570893 5.1875 44.625 C5.20167969 45.58664063 5.21585938 46.54828125 5.23046875 47.5390625 C5 50 5 50 3 52 C1.515 51.505 1.515 51.505 0 51 C0.66 51 1.32 51 2 51 C1.34 45.06 0.68 39.12 0 33 C-1.65 33 -3.3 33 -5 33 C-5 33.66 -5 34.32 -5 35 C-7.97 34.34 -10.94 33.68 -14 33 C-14.52453331 22.50933374 -12.59199457 13.46994409 -6.59765625 4.7421875 C-4.86397766 2.85167246 -3.33056279 2.02174987 -1 1 C-0.67 0.67 -0.34 0.34 0 0 Z " fill="#BAB68B" transform="translate(22,24)"/>
<path d="M0 0 C0.33 1.32 0.66 2.64 1 4 C1.928125 4.144375 2.85625 4.28875 3.8125 4.4375 C7 5 7 5 10 6 C10 5.34 10 4.68 10 4 C11.65 4 13.3 4 15 4 C16.7879537 10.8165735 17.23668569 16.96517526 17 24 C15.700625 23.979375 14.40125 23.95875 13.0625 23.9375 C11.70834367 23.91600546 10.35243917 23.92851801 9 24 C8.67 24.33 8.34 24.66 8 25 C0.92753623 25.57971014 0.92753623 25.57971014 -2.5 23.4375 C-4.58568057 20.04826907 -4.47366734 17.92467225 -4 14 C-3.01712992 11.99152635 -2.01622658 9.99180409 -1 8 C-0.47543126 5.32372801 -0.23482396 2.72395794 0 0 Z " fill="#D7D8D6" transform="translate(7,53)"/>
<path d="M0 0 C0.33 1.32 0.66 2.64 1 4 C3.97 4.495 3.97 4.495 7 5 C6.01 5.66 5.02 6.32 4 7 C3.01 8.485 3.01 8.485 2 10 C1.67 9.67 1.34 9.34 1 9 C-1.60018816 12.90028225 -1.15085514 16.47434569 -1 21 C0.84725052 21.69159401 0.84725052 21.69159401 3 22 C3.99 21.34 4.98 20.68 6 20 C6.58348752 17.3443272 6.58348752 17.3443272 6.6875 14.375 C6.75324219 13.37210938 6.81898437 12.36921875 6.88671875 11.3359375 C6.92410156 10.56507812 6.96148437 9.79421875 7 9 C7.66 9 8.32 9 9 9 C9.33 12.63 9.66 16.26 10 20 C11.65 20 13.3 20 15 20 C14.98193231 14.76726756 14.98193231 14.76726756 12.59765625 10.35546875 C10.77397596 8.82644377 10.77397596 8.82644377 8 7 C8.66 6.67 9.32 6.34 10 6 C10 5.34 10 4.68 10 4 C11.65 4 13.3 4 15 4 C16.7879537 10.8165735 17.23668569 16.96517526 17 24 C15.700625 23.979375 14.40125 23.95875 13.0625 23.9375 C11.70834367 23.91600546 10.35243917 23.92851801 9 24 C8.67 24.33 8.34 24.66 8 25 C0.92753623 25.57971014 0.92753623 25.57971014 -2.5 23.4375 C-4.58568057 20.04826907 -4.47366734 17.92467225 -4 14 C-3.01712992 11.99152635 -2.01622658 9.99180409 -1 8 C-0.47543126 5.32372801 -0.23482396 2.72395794 0 0 Z " fill="#C6C6C5" transform="translate(7,53)"/>
<path d="M0 0 C0.33 0 0.66 0 1 0 C0.9278125 0.95519531 0.855625 1.91039062 0.78125 2.89453125 C-0.63974752 15.50652636 -0.63974752 15.50652636 0.49609375 27.94921875 C1.1333905 30.54286832 1.16951839 32.95652979 1.1875 35.625 C1.20167969 36.58664063 1.21585938 37.54828125 1.23046875 38.5390625 C1 41 1 41 -1 43 C-2.485 42.505 -2.485 42.505 -4 42 C-3.34 42 -2.68 42 -2 42 C-2.66 36.06 -3.32 30.12 -4 24 C-5.65 24 -7.3 24 -9 24 C-9 24.66 -9 25.32 -9 26 C-13.455 25.01 -13.455 25.01 -18 24 C-18 22.68 -18 21.36 -18 20 C-17.34 20 -16.68 20 -16 20 C-16 20.66 -16 21.32 -16 22 C-11.68296471 21.91365929 -8.80378237 21.36628237 -5.75 18.3125 C-1.64637541 13.08970507 -1.01111348 6.39484929 0 0 Z " fill="#9E9A7D" transform="translate(26,33)"/>
<path d="M0 0 C0.33 0 0.66 0 1 0 C1 7.26 1 14.52 1 22 C-0.65 22 -2.3 22 -4 22 C-4.46251848 13.68751509 -4.22550835 7.30032023 0 0 Z " fill="#D3CF99" transform="translate(15,32)"/>
<path d="M0 0 C0.80355169 8.03551693 -2.10316461 14.63376145 -5 22 C-5.33 22 -5.66 22 -6 22 C-6.08178764 17.01095413 -6.03265629 12.04513883 -5.75 7.0625 C-5.70359375 6.14597656 -5.6571875 5.22945312 -5.609375 4.28515625 C-5 2 -5 2 -3.015625 0.68359375 C-1 0 -1 0 0 0 Z " fill="#CDC995" transform="translate(23,26)"/>
<path d="M0 0 C1.4540625 0.0309375 1.4540625 0.0309375 2.9375 0.0625 C3.5625 2.4375 3.5625 2.4375 3.9375 5.0625 C3.2775 5.7225 2.6175 6.3825 1.9375 7.0625 C1.2949765 9.13124034 1.2949765 9.13124034 0.9375 11.0625 C-2.9375 10.1875 -2.9375 10.1875 -4.0625 9.0625 C-4.1953125 7.25 -4.1953125 7.25 -4.1875 5.0625 C-4.19007813 4.340625 -4.19265625 3.61875 -4.1953125 2.875 C-3.96314697 -0.29337667 -3.23031119 0.06592472 0 0 Z " fill="#EAEAE9" transform="translate(9.0625,64.9375)"/>
<path d="M0 0 C0.99 0 1.98 0 3 0 C5.36975208 5.48005169 5.65414139 11.11272745 5 17 C4.34 17.66 3.68 18.32 3 19 C2.01 18.67 1.02 18.34 0 18 C0.66 18 1.32 18 2 18 C1.34 12.06 0.68 6.12 0 0 Z " fill="#A0A0A0" transform="translate(22,57)"/>
<path d="M0 0 C0.33 1.32 0.66 2.64 1 4 C3.97 4.495 3.97 4.495 7 5 C6.01 5.66 5.02 6.32 4 7 C3.01 8.485 3.01 8.485 2 10 C1.67 9.67 1.34 9.34 1 9 C-1.63005705 12.94508558 -1.43648973 16.41685786 -1 21 C0.84188612 23.05270463 0.84188612 23.05270463 3 24 C2.01 24.33 1.02 24.66 0 25 C-3.03721208 22.62717806 -3.93308415 21.51620801 -4.4375 17.625 C-3.96874821 13.74105662 -2.76333106 11.45612887 -1 8 C-0.47543126 5.32372801 -0.23482396 2.72395794 0 0 Z " fill="#CECDCD" transform="translate(7,53)"/>
<path d="M0 0 C3.875 0.875 3.875 0.875 5 2 C5.14115161 4.67058851 5.04247107 7.32432238 5 10 C3.34385343 10.38218767 1.67542976 10.71395102 0 11 C-1 10 -1 10 -1.0625 7.4375 C-1.041875 6.633125 -1.02125 5.82875 -1 5 C-0.01 5 0.98 5 2 5 C2 4.34 2 3.68 2 3 C1.34 3 0.68 3 0 3 C0 2.01 0 1.02 0 0 Z " fill="#E7E9E7" transform="translate(17,63)"/>
<path d="M0 0 C0.33 0 0.66 0 1 0 C1.20719042 6.00852226 0.73710708 10.52578585 -2 16 C-2.66 16 -3.32 16 -4 16 C-3.6083965 10.04492601 -2.62875405 5.37180176 0 0 Z " fill="#CDC793" transform="translate(24,34)"/>
<path d="M0 0 C2.64356673 3.84975687 1.98782723 7.64625183 1.5625 12.0625 C0.97624413 17.58746693 0.97624413 17.58746693 2 23 C1.34 23.66 0.68 24.32 0 25 C-1.54063629 21.91872742 -1.14327206 18.68978658 -1.125 15.3125 C-1.12886719 14.61705078 -1.13273438 13.92160156 -1.13671875 13.20507812 C-1.12831616 8.70548924 -0.73315961 4.43968875 0 0 Z " fill="#9C9877" transform="translate(17,27)"/>
<path d="M0 0 C1.65 0 3.3 0 5 0 C5.33 2.31 5.66 4.62 6 7 C-0.875 4.25 -0.875 4.25 -2 2 C-1.34 2 -0.68 2 0 2 C0 1.34 0 0.68 0 0 Z " fill="#C1C3C1" transform="translate(17,57)"/>
<path d="M0 0 C0.33 0 0.66 0 1 0 C1 1.65 1 3.3 1 5 C0.34 5 -0.32 5 -1 5 C-1.33 9.95 -1.66 14.9 -2 20 C-2.33 20 -2.66 20 -3 20 C-3.08165496 17.79229195 -3.13948488 15.58369575 -3.1875 13.375 C-3.23970703 11.53035156 -3.23970703 11.53035156 -3.29296875 9.6484375 C-2.9787947 5.73592336 -1.96906533 3.35929782 0 0 Z " fill="#E1DDA2" transform="translate(15,32)"/>
<path d="M0 0 C3.68754757 0.49831724 5.60490662 1.10067643 8 4 C7.34 4 6.68 4 6 4 C6 4.99 6 5.98 6 7 C6.66 7 7.32 7 8 7 C8 7.66 8 8.32 8 9 C7.01 9 6.02 9 5 9 C5 7.02 5 5.04 5 3 C3.35 2.67 1.7 2.34 0 2 C0 1.34 0 0.68 0 0 Z " fill="#DCDFDC" transform="translate(11,59)"/>
<path d="M0 0 C1.6415049 3.2830098 0.51888624 6.42545033 0 10 C-0.99 9.67 -1.98 9.34 -3 9 C-2.30058404 5.85262818 -1.23921302 2.97411124 0 0 Z " fill="#A29C7A" transform="translate(23,47)"/>
</svg>
