<?xml version="1.0" encoding="UTF-8"?>
<svg version="1.1" xmlns="http://www.w3.org/2000/svg" width="30" height="90">
<path d="M0 0 C9.9 0 19.8 0 30 0 C30 29.7 30 59.4 30 90 C20.1 90 10.2 90 0 90 C0 60.3 0 30.6 0 0 Z " fill="#FEFEFE" transform="translate(0,0)"/>
<path d="M0 0 C3.03161314 0.24252905 4.45575485 0.43864231 7 2 C14.25942079 12.26567505 17.50315724 25.60377314 18 38 C15.03 37.67 12.06 37.34 9 37 C9.25110803 43.35303307 9.64295575 48.02052086 14 53 C16.10039331 54.38868516 16.10039331 54.38868516 18 55 C17 56 17 56 13.375 56.125 C2.97536496 55.97536496 2.97536496 55.97536496 0 53 C-0.23046875 49.8125 -0.23046875 49.8125 -0.1875 46 C-0.18105469 44.741875 -0.17460938 43.48375 -0.16796875 42.1875 C0 39 0 39 1 37 C1.09762989 34.91587823 1.13077243 32.82859374 1.1328125 30.7421875 C1.13410156 29.47632812 1.13539063 28.21046875 1.13671875 26.90625 C1.13462402 26.24367188 1.1325293 25.58109375 1.13037109 24.8984375 C1.12507605 22.90365174 1.13081702 20.90884656 1.13671875 18.9140625 C1.13024528 12.51827531 1.01306728 6.31961019 0 0 Z " fill="#AFAD8E" transform="translate(5,21)"/>
<path d="M0 0 C2.74528847 5.09839287 4.78138402 10.13961985 4 16 C2.3125 18 2.3125 18 0 19 C-3.52879517 18.38246085 -4.88326755 17.12619724 -7.3125 14.5 C-9.54114683 9.87762138 -9.3585035 6.03896583 -9 1 C-7.700625 1.020625 -6.40125 1.04125 -5.0625 1.0625 C-3.70834367 1.08399454 -2.35243917 1.07148199 -1 1 C-0.67 0.67 -0.34 0.34 0 0 Z " fill="#E1E1DE" transform="translate(23,57)"/>
<path d="M0 0 C3.04003785 0.24320303 4.45583296 0.42139033 7 2 C9.56495844 5.76469707 11.27749589 9.79521656 13 14 C13.35449219 14.7940625 13.70898438 15.588125 14.07421875 16.40625 C16.47219891 22.3957751 15.97656119 27.70529833 15 34 C13.515 34.495 13.515 34.495 12 35 C11.20532858 32.18831904 10.41420767 29.37571498 9.625 26.5625 C9.40328125 25.77939453 9.1815625 24.99628906 8.953125 24.18945312 C7.62147818 19.43077404 6.47080397 14.68953489 5.54663086 9.83398438 C5.08667424 7.75965122 5.08667424 7.75965122 2.9375 5.9375 C1.20870628 4.92740651 1.20870628 4.92740651 0 5 C0 3.35 0 1.7 0 0 Z " fill="#D7D39F" transform="translate(5,21)"/>
<path d="M0 0 C1.98 0 3.96 0 6 0 C6.02578125 0.65226562 6.0515625 1.30453125 6.078125 1.9765625 C6.4499417 7.70591987 7.08361045 11.52412623 11 16 C13.10039331 17.38868516 13.10039331 17.38868516 15 18 C13.19323693 19.80676307 10.79554777 19.12333776 8.3984375 19.1328125 C5.23210305 18.95747802 2.13322801 18.47795003 -1 18 C-1.02690844 15.37493198 -1.04679404 12.75013827 -1.0625 10.125 C-1.07087891 9.37863281 -1.07925781 8.63226563 -1.08789062 7.86328125 C-1.11328125 2.2265625 -1.11328125 2.2265625 0 0 Z " fill="#B9B9B8" transform="translate(8,58)"/>
<path d="M0 0 C6.73954136 6.73954136 5.65236882 23.87767824 6 33 C4.35 32.67 2.7 32.34 1 32 C0.67 21.44 0.34 10.88 0 0 Z " fill="#8D8A72" transform="translate(6,24)"/>
<path d="M0 0 C3.0469364 0.24375491 4.4551567 0.40883545 7 2 C11.72790599 9.08652275 15.4093231 17.40421496 15 26 C12.64802583 21.58735121 11.10106905 16.88781482 9.4140625 12.19140625 C7.98399557 8.96387951 6.32040622 6.64131346 4 4 C2.68 4.33 1.36 4.66 0 5 C0 3.35 0 1.7 0 0 Z " fill="#B2AF88" transform="translate(5,21)"/>
<path d="M0 0 C0.66 0.33 1.32 0.66 2 1 C2.4140625 3.72265625 2.4140625 3.72265625 2.625 7.0625 C2.69976563 8.16722656 2.77453125 9.27195312 2.8515625 10.41015625 C2.90054687 11.26480469 2.94953125 12.11945313 3 13 C1.02 13 -0.96 13 -3 13 C-3.08086147 11.20906809 -3.13912702 9.41710372 -3.1875 7.625 C-3.22230469 6.62726563 -3.25710937 5.62953125 -3.29296875 4.6015625 C-3.14794922 3.31378906 -3.14794922 3.31378906 -3 2 C-2.01 1.34 -1.02 0.68 0 0 Z " fill="#C8C8C6" transform="translate(10,63)"/>
<path d="M0 0 C3.68006822 3.38168431 5.9785845 6.42521756 8 11 C7.34 11 6.68 11 6 11 C6.33 13.97 6.66 16.94 7 20 C4.38258882 16.07388323 3.13712094 13.0112669 2.5 8.3125 C2.32444564 4.92867967 2.32444564 4.92867967 0 3 C0 2.01 0 1.02 0 0 Z " fill="#D6D29C" transform="translate(8,24)"/>
<path d="M0 0 C0.66 0 1.32 0 2 0 C4.3992233 4.64849515 4.19957409 8.91086074 4 14 C0.7354972 10.7354972 0.06763945 6.58952701 -0.125 2.0625 C-0.08375 1.381875 -0.0425 0.70125 0 0 Z " fill="#E3DFA3" transform="translate(14,35)"/>
<path d="M0 0 C0.70125 0.474375 1.4025 0.94875 2.125 1.4375 C5.16081337 3.08739857 7.59168786 3.60368464 11 4 C10.67 4.66 10.34 5.32 10 6 C3.9453125 6.1953125 3.9453125 6.1953125 2 6 C1.34 5.34 0.68 4.68 0 4 C0 2.68 0 1.36 0 0 Z " fill="#999998" transform="translate(12,71)"/>
<path d="M0 0 C0.66 0 1.32 0 2 0 C2 2.31 2 4.62 2 7 C1.01 7 0.02 7 -1 7 C-1.04254356 5.00045254 -1.04080783 2.99958364 -1 1 C-0.67 0.67 -0.34 0.34 0 0 Z " fill="#DFDEDC" transform="translate(9,67)"/>
<path d="M0 0 C0.33 0 0.66 0 1 0 C1 4.62 1 9.24 1 14 C0.01 13.67 -0.98 13.34 -2 13 C-1.34 8.71 -0.68 4.42 0 0 Z " fill="#747161" transform="translate(9,43)"/>
<path d="M0 0 C0.268125 0.639375 0.53625 1.27875 0.8125 1.9375 C1.88667752 4.33131686 1.88667752 4.33131686 5 5 C6.1875 7.0625 6.1875 7.0625 7 9 C4.08482708 7.92598892 2.22189824 7.22189824 0 5 C-0.125 2.375 -0.125 2.375 0 0 Z " fill="#ABABAA" transform="translate(12,66)"/>
</svg>
