<?xml version="1.0" encoding="UTF-8"?>
<!DOCTYPE svg PUBLIC "-//W3C//DTD SVG 1.1//EN" "http://www.w3.org/Graphics/SVG/1.1/DTD/svg11.dtd">
<svg xmlns="http://www.w3.org/2000/svg" version="1.1" width="30px" height="90px" style="shape-rendering:geometricPrecision; text-rendering:geometricPrecision; image-rendering:optimizeQuality; fill-rule:evenodd; clip-rule:evenodd" xmlns:xlink="http://www.w3.org/1999/xlink">
<g><path style="opacity:1" fill="#f2f2ee" d="M -0.5,-0.5 C 9.5,-0.5 19.5,-0.5 29.5,-0.5C 29.5,29.5 29.5,59.5 29.5,89.5C 19.5,89.5 9.5,89.5 -0.5,89.5C -0.5,59.5 -0.5,29.5 -0.5,-0.5 Z"/></g>
<g><path style="opacity:1" fill="#997d91" d="M 14.5,4.5 C 14.631,5.23891 14.4643,5.90558 14,6.5C 13.3457,5.30441 12.8457,5.30441 12.5,6.5C 13.2427,7.18185 13.9094,7.84851 14.5,8.5C 13.6868,9.65268 12.6868,9.65268 11.5,8.5C 10.7025,8.95689 10.3691,9.62356 10.5,10.5C 10.1667,10.5 9.83333,10.5 9.5,10.5C 9.30591,6.99516 8.30591,6.66183 6.5,9.5C 6.35055,8.44802 6.51722,7.44802 7,6.5C 7.66667,5.16667 8.33333,5.16667 9,6.5C 9.68379,5.21613 9.51712,4.04946 8.5,3C 9,2.5 9.5,2 10,1.5C 11.7337,2.24888 13.567,2.74888 15.5,3C 14.944,3.38258 14.6107,3.88258 14.5,4.5 Z"/></g>
<g><path style="opacity:1" fill="#969181" d="M 17.5,2.5 C 19.3716,3.51145 21.3716,4.34478 23.5,5C 23.0426,5.41395 22.7093,5.91395 22.5,6.5C 24.4286,9.22486 24.9286,12.2249 24,15.5C 23.6174,16.056 23.1174,16.3893 22.5,16.5C 18.9087,15.1046 18.5754,14.1046 21.5,13.5C 20.0446,12.2555 18.7113,12.4222 17.5,14C 18.8146,15.3946 18.4812,16.3946 16.5,17C 18.0368,18.1096 18.7035,19.6096 18.5,21.5C 17.3951,22.6005 16.0618,23.2671 14.5,23.5C 12.7085,23.366 11.0418,23.6993 9.5,24.5C 9.46056,23.4168 9.12723,22.4168 8.5,21.5C 9.61609,21.598 10.6161,21.098 11.5,20C 11.1667,19.5 10.8333,19 10.5,18.5C 9.26381,19.2458 7.93047,19.5792 6.5,19.5C 5.37334,16.1427 5.37334,12.8094 6.5,9.5C 8.30591,6.66183 9.30591,6.99516 9.5,10.5C 12.0772,14.0862 15.0772,14.2528 18.5,11C 16.7174,9.93348 16.2174,8.43348 17,6.5C 17.4512,8.92884 18.2845,9.09551 19.5,7C 17.9632,5.89037 17.2965,4.39037 17.5,2.5 Z"/></g>
<g><path style="opacity:1" fill="#67c133" d="M 14.5,8.5 C 15.5735,9.25057 15.7401,10.2506 15,11.5C 13.6439,10.6198 12.1439,10.2865 10.5,10.5C 10.3691,9.62356 10.7025,8.95689 11.5,8.5C 12.6868,9.65268 13.6868,9.65268 14.5,8.5 Z"/></g>
<g><path style="opacity:1" fill="#a349b3" d="M 17.5,2.5 C 17.2965,4.39037 17.9632,5.89037 19.5,7C 18.2845,9.09551 17.4512,8.92884 17,6.5C 16.2174,8.43348 16.7174,9.93348 18.5,11C 15.0772,14.2528 12.0772,14.0862 9.5,10.5C 9.83333,10.5 10.1667,10.5 10.5,10.5C 12.1439,10.2865 13.6439,10.6198 15,11.5C 15.7401,10.2506 15.5735,9.25057 14.5,8.5C 13.9094,7.84851 13.2427,7.18185 12.5,6.5C 12.8457,5.30441 13.3457,5.30441 14,6.5C 14.4643,5.90558 14.631,5.23891 14.5,4.5C 15.1174,4.61071 15.6174,4.94404 16,5.5C 16.2321,4.26253 16.7321,3.26253 17.5,2.5 Z"/></g>
<g><path style="opacity:1" fill="#d91f78" d="M 9.5,12.5 C 10.7759,13.3864 10.7759,14.3864 9.5,15.5C 8.43764,14.5754 8.43764,13.5754 9.5,12.5 Z"/></g>
<g><path style="opacity:1" fill="#b64875" d="M 22.5,16.5 C 21.4196,18.0447 21.4196,19.5447 22.5,21C 22.0556,22.7618 21.5556,22.5951 21,20.5C 20.51,21.7932 20.3433,23.1266 20.5,24.5C 19.7611,24.631 19.0944,24.4643 18.5,24C 19.7736,23.0228 19.7736,22.1894 18.5,21.5C 18.7035,19.6096 18.0368,18.1096 16.5,17C 18.4812,16.3946 18.8146,15.3946 17.5,14C 18.7113,12.4222 20.0446,12.2555 21.5,13.5C 18.5754,14.1046 18.9087,15.1046 22.5,16.5 Z"/></g>
<g><path style="opacity:1" fill="#6825c9" d="M 14.5,23.5 C 13.8902,24.391 13.5569,25.391 13.5,26.5C 12.1667,26.1667 10.8333,25.8333 9.5,25.5C 9.5,25.1667 9.5,24.8333 9.5,24.5C 11.0418,23.6993 12.7085,23.366 14.5,23.5 Z"/></g>
<g><path style="opacity:1" fill="#acbd55" d="M 18.5,21.5 C 19.7736,22.1894 19.7736,23.0228 18.5,24C 19.0944,24.4643 19.7611,24.631 20.5,24.5C 21.1667,25.1667 21.8333,25.8333 22.5,26.5C 21.5,26.5 20.5,26.5 19.5,26.5C 17.7199,25.6546 15.7199,25.6546 13.5,26.5C 13.5569,25.391 13.8902,24.391 14.5,23.5C 16.0618,23.2671 17.3951,22.6005 18.5,21.5 Z"/></g>
<g><path style="opacity:1" fill="#793ccb" d="M 19.5,26.5 C 19.5,27.1667 19.5,27.8333 19.5,28.5C 18.1751,27.0474 17.3418,27.3808 17,29.5C 15.6012,28.7734 14.1012,28.2734 12.5,28C 13.056,27.6174 13.3893,27.1174 13.5,26.5C 15.7199,25.6546 17.7199,25.6546 19.5,26.5 Z"/></g>
<g><path style="opacity:1" fill="#8fab60" d="M 9.5,25.5 C 10.8333,25.8333 12.1667,26.1667 13.5,26.5C 13.3893,27.1174 13.056,27.6174 12.5,28C 14.1012,28.2734 15.6012,28.7734 17,29.5C 17.3418,27.3808 18.1751,27.0474 19.5,28.5C 18.0063,31.734 16.173,32.0673 14,29.5C 12.3005,30.4061 10.4672,30.7394 8.5,30.5C 10.9312,29.2591 10.9312,28.0924 8.5,27C 9.05596,26.6174 9.38929,26.1174 9.5,25.5 Z"/></g>
<g><path style="opacity:1" fill="#9daf72" d="M 20.5,35.5 C 19.6365,34.537 18.9698,34.537 18.5,35.5C 19.311,36.2164 19.9777,37.0497 20.5,38C 19.7914,41.8408 19.1248,45.6742 18.5,49.5C 17.8826,47.6792 17.716,45.6792 18,43.5C 16.6012,42.7734 15.1012,42.2734 13.5,42C 16.0467,41.4478 18.0467,40.1144 19.5,38C 17.6161,37.7837 15.9494,37.117 14.5,36C 17.1667,35 17.1667,34 14.5,33C 16.2182,32.654 17.8849,32.154 19.5,31.5C 20.4287,32.6888 20.762,34.0222 20.5,35.5 Z"/></g>
<g><path style="opacity:1" fill="#94668e" d="M 19.5,26.5 C 20.5,26.5 21.5,26.5 22.5,26.5C 22.0104,29.6553 21.3438,32.6553 20.5,35.5C 20.762,34.0222 20.4287,32.6888 19.5,31.5C 17.8849,32.154 16.2182,32.654 14.5,33C 17.1667,34 17.1667,35 14.5,36C 15.9494,37.117 17.6161,37.7837 19.5,38C 18.0467,40.1144 16.0467,41.4478 13.5,42C 15.1012,42.2734 16.6012,42.7734 18,43.5C 17.716,45.6792 17.8826,47.6792 18.5,49.5C 18.6107,50.3366 18.944,51.3366 19.5,52.5C 18.9747,53.1924 18.3081,53.6924 17.5,54C 18.3081,54.3076 18.9747,54.8076 19.5,55.5C 17.8035,56.3636 16.6368,57.6969 16,59.5C 15.6529,55.8838 14.4862,55.2172 12.5,57.5C 10.0593,55.978 9.39265,53.978 10.5,51.5C 12.0982,51.6097 13.7648,51.943 15.5,52.5C 16.6139,51.277 16.7805,49.9437 16,48.5C 15.6667,49.1667 15.3333,49.8333 15,50.5C 13.3084,50.3238 11.8084,49.8238 10.5,49C 11.1667,48.6667 11.8333,48.3333 12.5,48C 11.6435,45.5901 10.3102,44.4234 8.5,44.5C 9.29134,42.8516 10.2913,41.185 11.5,39.5C 10.3734,38.8783 9.37344,38.045 8.5,37C 8.89433,34.9401 8.89433,32.7734 8.5,30.5C 10.4672,30.7394 12.3005,30.4061 14,29.5C 16.173,32.0673 18.0063,31.734 19.5,28.5C 19.5,27.8333 19.5,27.1667 19.5,26.5 Z"/></g>
<g><path style="opacity:1" fill="#85ce69" d="M 11.5,39.5 C 11.3323,34.4676 12.3323,34.3009 14.5,39C 13.552,39.4828 12.552,39.6495 11.5,39.5 Z"/></g>
<g><path style="opacity:1" fill="#947da1" d="M 11.5,58.5 C 13.3786,58.3932 13.7119,58.8932 12.5,60C 13.1258,60.7504 13.6258,61.5838 14,62.5C 15.0084,62.9817 16.175,63.1484 17.5,63C 18.2931,64.0852 18.9598,65.2519 19.5,66.5C 18.1667,68.1667 18.1667,69.8333 19.5,71.5C 19,71.8333 18.5,72.1667 18,72.5C 16.779,71.7282 15.779,70.7282 15,69.5C 14.0944,72.1208 13.5944,71.9541 13.5,69C 13.8443,67.6349 14.5109,66.4682 15.5,65.5C 12.3582,64.2178 11.0248,61.8845 11.5,58.5 Z"/></g>
</svg>
