<?xml version="1.0" encoding="UTF-8"?>
<svg version="1.1" xmlns="http://www.w3.org/2000/svg" width="30" height="90">
<path d="M0 0 C9.9 0 19.8 0 30 0 C30 29.7 30 59.4 30 90 C20.1 90 10.2 90 0 90 C0 60.3 0 30.6 0 0 Z " fill="#FEFEFE" transform="translate(0,0)"/>
<path d="M0 0 C0.763125 0.309375 1.52625 0.61875 2.3125 0.9375 C4.18789677 1.67893593 6.08684652 2.36228217 8 3 C9.31640625 4.63671875 9.31640625 4.63671875 10.5625 6.6875 C10.97628906 7.35136719 11.39007813 8.01523437 11.81640625 8.69921875 C14.85220043 14.60048202 15.73838495 20.76048432 16.6875 27.25 C16.82994141 28.16007812 16.97238281 29.07015625 17.11914062 30.0078125 C17.3134668 31.31105469 17.3134668 31.31105469 17.51171875 32.640625 C17.62990967 33.42985352 17.74810059 34.21908203 17.86987305 35.03222656 C18 37 18 37 17 39 C16 38 16 38 15.9375 35.4375 C15.958125 34.633125 15.97875 33.82875 16 33 C11.27620924 34.85246696 7.97368029 36.79897977 4 40 C3.01 40 2.02 40 1 40 C1.33 42.97 1.66 45.94 2 49 C3.98 49.33 5.96 49.66 8 50 C8 47.69 8 45.38 8 43 C8.66 43 9.32 43 10 43 C10.66 45.31 11.32 47.62 12 50 C14.76264289 50.59732819 17.16032769 51 20 51 C17.8125 53.0625 17.8125 53.0625 15 55 C12.5 54.8125 12.5 54.8125 10 54 C7.26006232 53.4379615 4.59354396 52.95218164 1.8125 52.625 C-1 52 -1 52 -3 49 C-2.9765625 46.42578125 -2.9765625 46.42578125 -2.625 43.3125 C-2.12367278 38.00081879 -1.87866966 32.76768203 -1.875 27.4375 C-1.87064941 26.75921143 -1.86629883 26.08092285 -1.86181641 25.38208008 C-1.87093111 22.07551402 -2.14105184 19.1807924 -3 16 C-3.09053693 14.31441541 -3.13009203 12.62550664 -3.125 10.9375 C-3.12757812 10.08027344 -3.13015625 9.22304688 -3.1328125 8.33984375 C-3 6 -3 6 -2 3 C-1.34 3 -0.68 3 0 3 C0 2.01 0 1.02 0 0 Z " fill="#B4B08E" transform="translate(6,24)"/>
<path d="M0 0 C0.12375 1.11375 0.12375 1.11375 0.25 2.25 C0.75636951 5.12756772 0.75636951 5.12756772 3.0625 6.75 C5.74054769 9.85999086 5.32011461 12.19746216 5.140625 16.171875 C5.07101563 17.07679687 5.07101563 17.07679687 5 18 C-1.25742574 19.32368621 -1.25742574 19.32368621 -4.4375 17.9375 C-6.59592703 15.26105048 -6.29697766 13.34099864 -6 10 C-6.66 10 -7.32 10 -8 10 C-8 12.31 -8 14.62 -8 17 C-9.99954746 17.04254356 -12.00041636 17.04080783 -14 17 C-15 16 -15 16 -15.09765625 13.93359375 C-15.08605469 13.10988281 -15.07445312 12.28617188 -15.0625 11.4375 C-15.05347656 10.61121094 -15.04445313 9.78492187 -15.03515625 8.93359375 C-15.02355469 8.29550781 -15.01195312 7.65742187 -15 7 C-13.9275 6.401875 -12.855 5.80375 -11.75 5.1875 C-9.60024919 3.97204733 -7.7484669 2.79877352 -5.8125 1.25 C-4 0 -4 0 0 0 Z " fill="#CECFCE" transform="translate(22,57)"/>
<path d="M0 0 C0.33 0 0.66 0 1 0 C1.33 2.97 1.66 5.94 2 9 C2.33 8.67 2.66 8.34 3 8 C4.66617115 7.95936168 6.33388095 7.957279 8 8 C8 8.66 8 9.32 8 10 C8.66 10.33 9.32 10.66 10 11 C5.375 15 5.375 15 2 15 C2.33 17.97 2.66 20.94 3 24 C4.98 24.33 6.96 24.66 9 25 C9 22.69 9 20.38 9 18 C9.66 18 10.32 18 11 18 C11.66 20.31 12.32 22.62 13 25 C15.76264289 25.59732819 18.16032769 26 21 26 C18.8125 28.0625 18.8125 28.0625 16 30 C13.5 29.8125 13.5 29.8125 11 29 C8.26006232 28.4379615 5.59354396 27.95218164 2.8125 27.625 C0 27 0 27 -2 24 C-2.01171875 21.25 -2.01171875 21.25 -1.6875 18 C-1.52507812 16.27716797 -1.52507812 16.27716797 -1.359375 14.51953125 C-1.18148438 12.77736328 -1.18148438 12.77736328 -1 11 C-0.81076349 8.89598879 -0.62309638 6.79183543 -0.4375 4.6875 C-0.29260956 3.12491228 -0.14715764 1.56237583 0 0 Z " fill="#C1C2C1" transform="translate(5,49)"/>
<path d="M0 0 C4.69748417 4.69748417 4.22960256 13.45968992 4.36328125 19.7734375 C3.91507831 22.52048779 2.80033639 23.91940016 1 26 C-2.53894742 20.0637011 -4.1459278 16.25793502 -4.0625 9.25 C-4.05347656 8.26515625 -4.04445313 7.2803125 -4.03515625 6.265625 C-4.02355469 5.51796875 -4.01195312 4.7703125 -4 4 C-3.67 4 -3.34 4 -3 4 C-2.67 5.32 -2.34 6.64 -2 8 C-1.855625 6.865625 -1.71125 5.73125 -1.5625 4.5625 C-1 1 -1 1 0 0 Z " fill="#CDC994" transform="translate(9,25)"/>
<path d="M0 0 C0.99 0.33 1.98 0.66 3 1 C2.814375 2.216875 2.62875 3.43375 2.4375 4.6875 C2.01006818 8.02977939 2.07741117 10.71968417 3 14 C2.01 13.01 1.02 12.02 0 11 C0.4050604 17.27843622 1.6269322 22.17298817 4.16015625 27.93359375 C5 30 5 30 5 32 C4.01 32.495 4.01 32.495 3 33 C1.86649466 35.01669827 1.86649466 35.01669827 1 37 C0.31741588 33.71143316 -0.34302169 30.41876964 -1 27.125 C-1.19078125 26.2071875 -1.3815625 25.289375 -1.578125 24.34375 C-2.96253583 17.32280937 -4.30955913 9.92867739 -2 3 C-1.34 3 -0.68 3 0 3 C0 2.01 0 1.02 0 0 Z " fill="#B3AF8C" transform="translate(6,24)"/>
<path d="M0 0 C4.742484 4.742484 5.74357962 11.18574679 6.1875 17.7890625 C6.1875 19.86031818 6.10343357 21.93132854 6 24 C4.02 24 2.04 24 0 24 C0 16.08 0 8.16 0 0 Z " fill="#DDD9A0" transform="translate(14,31)"/>
<path d="M0 0 C1.72664863 3.45329726 2.21952523 6.15830842 2 10 C-0.31 10.33 -2.62 10.66 -5 11 C-7.35448165 8.44931155 -7.98327924 7.28982642 -8.1875 3.75 C-8.125625 2.8425 -8.06375 1.935 -8 1 C-2.25 -1.125 -2.25 -1.125 0 0 Z " fill="#E7E8E6" transform="translate(25,65)"/>
<path d="M0 0 C0.33 0 0.66 0 1 0 C1.33 1.98 1.66 3.96 2 6 C4.97 6.495 4.97 6.495 8 7 C8 4.69 8 2.38 8 0 C8.66 0 9.32 0 10 0 C10.66 2.31 11.32 4.62 12 7 C14.76264289 7.59732819 17.16032769 8 20 8 C17.8125 10.0625 17.8125 10.0625 15 12 C12.5 11.8125 12.5 11.8125 10 11 C9.154375 10.835 8.30875 10.67 7.4375 10.5 C6.633125 10.335 5.82875 10.17 5 10 C4.2575 9.855625 3.515 9.71125 2.75 9.5625 C2.1725 9.376875 1.595 9.19125 1 9 C-0.4783226 6.04335481 -0.06032783 3.25770263 0 0 Z " fill="#C8C8C7" transform="translate(6,67)"/>
<path d="M0 0 C1.32 0 2.64 0 4 0 C4.66 1.65 5.32 3.3 6 5 C5.67 5 5.34 5 5 5 C5.02320313 6.10859375 5.04640625 7.2171875 5.0703125 8.359375 C5.08907577 9.82290992 5.10727537 11.28645214 5.125 12.75 C5.14175781 13.47960938 5.15851562 14.20921875 5.17578125 14.9609375 C5.21072239 18.8044624 5.17499684 21.74606772 3 25 C2.34 24.01 1.68 23.02 1 22 C1.33 21.01 1.66 20.02 2 19 C2.57466885 12.46481238 1.48381464 6.34595725 0 0 Z " fill="#A9A57F" transform="translate(10,27)"/>
<path d="M0 0 C3.05906926 2.51066469 3.75191278 4.90059933 4.6875 8.6875 C5.06455078 10.17830078 5.06455078 10.17830078 5.44921875 11.69921875 C5.63097656 12.45847656 5.81273437 13.21773437 6 14 C5.01 14.495 5.01 14.495 4 15 C2.86649466 17.01669827 2.86649466 17.01669827 2 19 C0.82706111 12.6221448 -0.29530838 6.49678438 0 0 Z " fill="#938F72" transform="translate(5,42)"/>
<path d="M0 0 C0.66 0.33 1.32 0.66 2 1 C2 5.95 2 10.9 2 16 C2.66 16 3.32 16 4 16 C4 13.36 4 10.72 4 8 C4.33 8 4.66 8 5 8 C5 10.97 5 13.94 5 17 C3.02 17 1.04 17 -1 17 C-0.67 11.39 -0.34 5.78 0 0 Z " fill="#CDC995" transform="translate(15,38)"/>
<path d="M0 0 C0.66 0.33 1.32 0.66 2 1 C2 4.3 2 7.6 2 11 C0.35 10.67 -1.3 10.34 -3 10 C-3.36923077 3.47692308 -3.36923077 3.47692308 -1.5 1.0625 C-1.005 0.711875 -0.51 0.36125 0 0 Z " fill="#E8EAE8" transform="translate(12,63)"/>
<path d="M0 0 C1.32 0 2.64 0 4 0 C4 0.66 4 1.32 4 2 C2.6078125 2.680625 2.6078125 2.680625 1.1875 3.375 C-2.03921389 4.9421633 -2.03921389 4.9421633 -5 7 C-5.73606499 10.56769552 -5.73606499 10.56769552 -6 14 C-5.34 14.33 -4.68 14.66 -4 15 C-5.32 14.67 -6.64 14.34 -8 14 C-8 11.03 -8 8.06 -8 5 C-6.20963542 3.99088542 -4.41927083 2.98177083 -2.62890625 1.97265625 C-1.02121854 1.1027487 -1.02121854 1.1027487 0 0 Z " fill="#D8DBD8" transform="translate(15,59)"/>
<path d="M0 0 C1.17732706 3.67914707 1 7.16659144 1 11 C1.33 11.66 1.66 12.32 2 13 C0.0625 12.625 0.0625 12.625 -2 12 C-3.35439668 9.29120665 -3.06501451 6.99066732 -3 4 C-2.01 3.67 -1.02 3.34 0 3 C0 2.01 0 1.02 0 0 Z " fill="#959595" transform="translate(6,63)"/>
<path d="M0 0 C0.33 0 0.66 0 1 0 C1.66 4.95 2.32 9.9 3 15 C1.02 15.99 1.02 15.99 -1 17 C-0.67 11.39 -0.34 5.78 0 0 Z " fill="#B2B2AF" transform="translate(5,49)"/>
<path d="M0 0 C0.33 0 0.66 0 1 0 C1.0825 0.94875 1.165 1.8975 1.25 2.875 C1.65074923 6.10461791 1.65074923 6.10461791 4.0625 7.375 C4.701875 7.58125 5.34125 7.7875 6 8 C5.67 8.66 5.34 9.32 5 10 C3.0625 9.625 3.0625 9.625 1 9 C-0.4783226 6.04335481 -0.06032783 3.25770263 0 0 Z " fill="#B7B7B6" transform="translate(6,67)"/>
<path d="M0 0 C0.33 0 0.66 0 1 0 C1.28571429 7.42857143 1.28571429 7.42857143 -1 11 C-1.66 10.01 -2.32 9.02 -3 8 C-2.67 7.01 -2.34 6.02 -2 5 C-1.34 5.33 -0.68 5.66 0 6 C0 4.02 0 2.04 0 0 Z " fill="#9A9779" transform="translate(14,41)"/>
</svg>
