<?xml version="1.0" encoding="UTF-8"?>
<!DOCTYPE svg PUBLIC "-//W3C//DTD SVG 1.1//EN" "http://www.w3.org/Graphics/SVG/1.1/DTD/svg11.dtd">
<svg xmlns="http://www.w3.org/2000/svg" version="1.1" width="28px" height="83px" style="shape-rendering:geometricPrecision; text-rendering:geometricPrecision; image-rendering:optimizeQuality; fill-rule:evenodd; clip-rule:evenodd" xmlns:xlink="http://www.w3.org/1999/xlink">
<g><path style="opacity:1" fill="#fdfdfd" d="M -0.5,-0.5 C 8.83333,-0.5 18.1667,-0.5 27.5,-0.5C 27.5,27.1667 27.5,54.8333 27.5,82.5C 18.1667,82.5 8.83333,82.5 -0.5,82.5C -0.5,54.8333 -0.5,27.1667 -0.5,-0.5 Z"/></g>
<g><path style="opacity:1" fill="#a2a094" d="M 22.5,3.5 C 19.9407,3.19845 17.6074,3.53178 15.5,4.5C 15.1667,4.5 14.8333,4.5 14.5,4.5C 13.8333,4.5 13.1667,4.5 12.5,4.5C 11.5084,4.67158 10.8417,4.33825 10.5,3.5C 14.6478,2.35633 18.6478,2.35633 22.5,3.5 Z"/></g>
<g><path style="opacity:1" fill="#fcfcfa" d="M 14.5,4.5 C 14.8333,4.5 15.1667,4.5 15.5,4.5C 17.1992,4.33982 18.8659,4.50649 20.5,5C 19.7892,12.7615 18.4559,20.5949 16.5,28.5C 14.5332,20.9032 13.8665,12.9032 14.5,4.5 Z"/></g>
<g><path style="opacity:1" fill="#f5f9e4" d="M 15.5,4.5 C 17.6074,3.53178 19.9407,3.19845 22.5,3.5C 22.9752,11.2989 22.3085,18.9656 20.5,26.5C 19.4231,27.7051 18.0898,28.3718 16.5,28.5C 18.4559,20.5949 19.7892,12.7615 20.5,5C 18.8659,4.50649 17.1992,4.33982 15.5,4.5 Z"/></g>
<g><path style="opacity:1" fill="#dddacb" d="M 8.5,4.5 C 8.84171,3.66175 9.50838,3.32842 10.5,3.5C 10.8417,4.33825 11.5084,4.67158 12.5,4.5C 11.8625,8.75271 11.5291,13.086 11.5,17.5C 11.5093,21.893 12.176,25.893 13.5,29.5C 11.2121,30.3497 9.21206,30.3497 7.5,29.5C 6.66175,29.1583 6.32842,28.4916 6.5,27.5C 7.12395,27.0831 7.45728,26.4164 7.5,25.5C 5.76616,19.595 5.26616,13.595 6,7.5C 6.90252,6.29857 8.06919,5.46524 9.5,5C 9.27155,4.60123 8.93822,4.43456 8.5,4.5 Z"/></g>
<g><path style="opacity:1" fill="#afac9d" d="M 8.5,4.5 C 8.93822,4.43456 9.27155,4.60123 9.5,5C 8.06919,5.46524 6.90252,6.29857 6,7.5C 5.26616,13.595 5.76616,19.595 7.5,25.5C 7.45728,26.4164 7.12395,27.0831 6.5,27.5C 4.29937,20.9988 3.46604,14.3322 4,7.5C 5.12901,5.85883 6.62901,4.85883 8.5,4.5 Z"/></g>
<g><path style="opacity:1" fill="#eeede3" d="M 12.5,4.5 C 13.1667,4.5 13.8333,4.5 14.5,4.5C 13.8665,12.9032 14.5332,20.9032 16.5,28.5C 15.791,29.404 14.791,29.7373 13.5,29.5C 12.176,25.893 11.5093,21.893 11.5,17.5C 11.5291,13.086 11.8625,8.75271 12.5,4.5 Z"/></g>
<g><path style="opacity:1" fill="#ada998" d="M 22.5,3.5 C 23.8366,5.34946 24.5033,7.51613 24.5,10C 24.0803,18.7165 22.5803,27.2165 20,35.5C 19.6667,45.1667 19.3333,54.8333 19,64.5C 18.8019,66.3817 18.3019,68.0484 17.5,69.5C 18.2655,60.5211 18.5989,51.5211 18.5,42.5C 18.5,39.8333 18.5,37.1667 18.5,34.5C 18.5,34.1667 18.5,33.8333 18.5,33.5C 19.0431,33.44 19.3764,33.1067 19.5,32.5C 17.6667,32.1667 15.8333,31.8333 14,31.5C 11.7047,31.5465 9.87135,32.2132 8.5,33.5C 7.56552,32.4324 7.23219,31.099 7.5,29.5C 9.21206,30.3497 11.2121,30.3497 13.5,29.5C 14.791,29.7373 15.791,29.404 16.5,28.5C 18.0898,28.3718 19.4231,27.7051 20.5,26.5C 22.3085,18.9656 22.9752,11.2989 22.5,3.5 Z"/></g>
<g><path style="opacity:1" fill="#fcd883" d="M 18.5,33.5 C 18.5,33.8333 18.5,34.1667 18.5,34.5C 17.6851,35.4293 16.8518,36.4293 16,37.5C 15.8283,44.346 15.3283,51.0126 14.5,57.5C 13.7191,49.1383 12.7191,40.805 11.5,32.5C 14.0593,32.1984 16.3926,32.5318 18.5,33.5 Z"/></g>
<g><path style="opacity:1" fill="#fef0c3" d="M 18.5,34.5 C 18.5,37.1667 18.5,39.8333 18.5,42.5C 17.3445,50.9842 16.5111,59.6509 16,68.5C 15.6667,69.1667 15.3333,69.8333 15,70.5C 14.501,66.1794 14.3343,61.8461 14.5,57.5C 15.3283,51.0126 15.8283,44.346 16,37.5C 16.8518,36.4293 17.6851,35.4293 18.5,34.5 Z"/></g>
<g><path style="opacity:1" fill="#a5977c" d="M 9.5,40.5 C 10.2991,51.7043 11.2991,63.0376 12.5,74.5C 12.5,75.8333 12.5,77.1667 12.5,78.5C 10.0476,66.0959 9.04756,53.4292 9.5,40.5 Z"/></g>
<g><path style="opacity:1" fill="#e6be76" d="M 18.5,33.5 C 16.3926,32.5318 14.0593,32.1984 11.5,32.5C 12.7191,40.805 13.7191,49.1383 14.5,57.5C 14.3343,61.8461 14.501,66.1794 15,70.5C 15.3333,69.8333 15.6667,69.1667 16,68.5C 16.5111,59.6509 17.3445,50.9842 18.5,42.5C 18.5989,51.5211 18.2655,60.5211 17.5,69.5C 16.5418,71.3024 15.8751,73.3024 15.5,75.5C 14.7321,74.7375 14.2321,73.7375 14,72.5C 13.7216,73.4158 13.2216,74.0825 12.5,74.5C 11.2991,63.0376 10.2991,51.7043 9.5,40.5C 8.63137,38.283 8.29803,35.9496 8.5,33.5C 9.87135,32.2132 11.7047,31.5465 14,31.5C 15.8333,31.8333 17.6667,32.1667 19.5,32.5C 19.3764,33.1067 19.0431,33.44 18.5,33.5 Z"/></g>
<g><path style="opacity:1" fill="#cca771" d="M 15.5,75.5 C 15.5,75.8333 15.5,76.1667 15.5,76.5C 15.3318,79.0514 14.3318,79.7181 12.5,78.5C 12.5,77.1667 12.5,75.8333 12.5,74.5C 13.2216,74.0825 13.7216,73.4158 14,72.5C 14.2321,73.7375 14.7321,74.7375 15.5,75.5 Z"/></g>
<g><path style="opacity:1" fill="#b6ae9d" d="M 17.5,69.5 C 17.6621,71.5273 17.4955,73.5273 17,75.5C 16.6174,76.056 16.1174,76.3893 15.5,76.5C 15.5,76.1667 15.5,75.8333 15.5,75.5C 15.8751,73.3024 16.5418,71.3024 17.5,69.5 Z"/></g>
</svg>
