<?xml version="1.0" encoding="UTF-8"?>
<svg version="1.1" xmlns="http://www.w3.org/2000/svg" width="30" height="90">
<path d="M0 0 C9.9 0 19.8 0 30 0 C30 29.7 30 59.4 30 90 C20.1 90 10.2 90 0 90 C0 60.3 0 30.6 0 0 Z " fill="#FEFEFD" transform="translate(0,0)"/>
<path d="M0 0 C1.56041016 -0.04253906 1.56041016 -0.04253906 3.15234375 -0.0859375 C6.0625 0.375 6.0625 0.375 8.41015625 2.0703125 C11.55459599 6.45617407 10.58802692 11.21443588 10.0625 16.375 C9.43827443 18.82948739 8.77121587 21.27333028 8.0703125 23.70703125 C5.734773 32.4279401 5.46144017 40.82994981 5.4375 49.8125 C5.41569872 52.74893938 5.38209995 55.6849365 5.3359375 58.62109375 C5.32560486 59.30835541 5.31527222 59.99561707 5.30462646 60.70370483 C5.18168392 65.84601602 4.45463663 70.43569922 3.0625 75.375 C2.0725 75.045 1.0825 74.715 0.0625 74.375 C-0.05867187 73.57835938 -0.17984375 72.78171875 -0.3046875 71.9609375 C-0.47226563 70.90132813 -0.63984375 69.84171875 -0.8125 68.75 C-0.97492187 67.70585938 -1.13734375 66.66171875 -1.3046875 65.5859375 C-1.84764454 62.39127648 -1.84764454 62.39127648 -2.98046875 59.52734375 C-4.20493571 55.49409951 -4.27229861 51.75314446 -4.375 47.5625 C-4.74353404 37.74164379 -5.81078521 27.83287147 -8.515625 18.34765625 C-9.16387555 15.3164847 -9.14874105 12.34425598 -9.1875 9.25 C-9.21328125 8.00992187 -9.2390625 6.76984375 -9.265625 5.4921875 C-9.15734375 4.46351562 -9.0490625 3.43484375 -8.9375 2.375 C-5.51828453 0.09552302 -4.03439823 0.04986895 0 0 Z " fill="#EFEFED" transform="translate(14.9375,2.625)"/>
<path d="M0 0 C2 3 2 3 2 5 C5.43230448 4.73606499 5.43230448 4.73606499 9 4 C9.66 3.01 10.32 2.02 11 1 C10.90579934 6.24728335 10.7995648 11.49414103 10.68261719 16.7409668 C10.64455144 18.52247613 10.6096613 20.30405648 10.578125 22.08569336 C10.53198341 24.6602501 10.4740754 27.23432729 10.4140625 29.80859375 C10.39673569 30.98572182 10.39673569 30.98572182 10.37905884 32.18663025 C10.23611651 37.65484431 9.36084299 42.70514344 8 48 C7.01 47.67 6.02 47.34 5 47 C4.81824219 45.80503906 4.81824219 45.80503906 4.6328125 44.5859375 C4.46523437 43.52632812 4.29765625 42.46671875 4.125 41.375 C3.96257813 40.33085938 3.80015625 39.28671875 3.6328125 38.2109375 C3.09260866 35.03021786 3.09260866 35.03021786 1.98632812 32.23242188 C0.91436939 28.71936898 0.68328877 25.73721029 0.5859375 22.0703125 C0.54726562 20.78125 0.50859375 19.4921875 0.46875 18.1640625 C0.43730242 16.81771293 0.40605489 15.47135868 0.375 14.125 C0.33676959 12.75518486 0.29771499 11.38539245 0.2578125 10.015625 C0.16377285 6.67721737 0.07811943 3.33881186 0 0 Z " fill="#9B987D" transform="translate(10,30)"/>
<path d="M0 0 C0.99 0.495 0.99 0.495 2 1 C2.44525045 3.27572454 2.78241256 5.57310488 3.0625 7.875 C3.68644884 13.01536931 3.68644884 13.01536931 5 18 C8.94476647 18.80688405 10.99998285 19.00000429 15 18 C15.66 12.06 16.32 6.12 17 0 C20.80058998 5.70088497 18.93470762 11.97485563 17.6875 18.375 C16.4009901 24.73267327 16.4009901 24.73267327 13 27 C9.4375 27.25 9.4375 27.25 6 27 C5.34 26.34 4.68 25.68 4 25 C3.67 25 3.34 25 3 25 C0.92686581 16.54704214 -0.48032656 8.71703754 0 0 Z " fill="#CACAC9" transform="translate(6,8)"/>
<path d="M0 0 C2.97 0.495 2.97 0.495 6 1 C6 10.9 6 20.8 6 31 C5.34 31.33 4.68 31.66 4 32 C-0.1673717 21.62088557 -0.19579447 11.05151027 0 0 Z " fill="#C6C28F" transform="translate(12,37)"/>
<path d="M0 0 C1.60875 0.2784375 1.60875 0.2784375 3.25 0.5625 C7.07210322 1.23224429 7.07210322 1.23224429 11 0 C9.68 2.64 8.36 5.28 7 8 C5.68 8 4.36 8 3 8 C0 2.25 0 2.25 0 0 Z " fill="#D6D5D3" transform="translate(10,26)"/>
<path d="M0 0 C0.33 0 0.66 0 1 0 C1 2.31 1 4.62 1 7 C-0.65 7.33 -2.3 7.66 -4 8 C-2.25 2.25 -2.25 2.25 0 0 Z " fill="#BBBAB9" transform="translate(21,26)"/>
<path d="M0 0 C0.99 0 1.98 0 3 0 C3 2.31 3 4.62 3 7 C2.01 7 1.02 7 0 7 C0 4.69 0 2.38 0 0 Z " fill="#D8D297" transform="translate(14,40)"/>
</svg>
