<?xml version="1.0" encoding="UTF-8"?>
<!DOCTYPE svg PUBLIC "-//W3C//DTD SVG 1.1//EN" "http://www.w3.org/Graphics/SVG/1.1/DTD/svg11.dtd">
<svg xmlns="http://www.w3.org/2000/svg" version="1.1" width="30" height="90" style="shape-rendering:geometricPrecision; text-rendering:geometricPrecision; image-rendering:optimizeQuality; fill-rule:evenodd; clip-rule:evenodd" xmlns:xlink="http://www.w3.org/1999/xlink">
<g><path style="opacity:1" fill="#fdfdfd" d="M -0.5,-0.5 C 10.1667,-0.5 20.8333,-0.5 31.5,-0.5C 31.5,28.8333 31.5,58.1667 31.5,87.5C 20.8333,87.5 10.1667,87.5 -0.5,87.5C -0.5,58.1667 -0.5,28.8333 -0.5,-0.5 Z"/></g>
<g><path style="opacity:1" fill="#a19276" d="M 17.5,25.5 C 15.9382,25.7329 14.6049,26.3995 13.5,27.5C 13.9577,24.6909 15.2911,24.0242 17.5,25.5 Z"/></g>
<g><path style="opacity:1" fill="#fad783" d="M 22.5,31.5 C 20.1205,32.5669 19.1205,31.5669 19.5,28.5C 19.4148,27.0047 20.0815,26.0047 21.5,25.5C 22.4656,27.396 22.7989,29.396 22.5,31.5 Z"/></g>
<g><path style="opacity:1" fill="#a59c85" d="M 12.5,29.5 C 12.5674,30.9587 12.2341,32.2921 11.5,33.5C 11.1667,33.5 10.8333,33.5 10.5,33.5C 10.6596,31.847 11.3263,30.5137 12.5,29.5 Z"/></g>
<g><path style="opacity:1" fill="#edc578" d="M 17.5,25.5 C 16.9954,32.324 16.3288,38.9906 15.5,45.5C 15.5342,42.4202 14.5342,39.7535 12.5,37.5C 12.5,36.8333 12.5,36.1667 12.5,35.5C 13.7574,34.3774 13.4241,33.7107 11.5,33.5C 12.2341,32.2921 12.5674,30.9587 12.5,29.5C 12.3284,28.5084 12.6618,27.8417 13.5,27.5C 14.6049,26.3995 15.9382,25.7329 17.5,25.5 Z"/></g>
<g><path style="opacity:1" fill="#aaa086" d="M 10.5,33.5 C 10.3404,35.153 9.67373,36.4863 8.5,37.5C 8.22911,35.6203 8.89578,34.287 10.5,33.5 Z"/></g>
<g><path style="opacity:1" fill="#deb976" d="M 19.5,28.5 C 19.1205,31.5669 20.1205,32.5669 22.5,31.5C 22.8333,31.5 23.1667,31.5 23.5,31.5C 22.0718,37.7847 20.0718,43.7847 17.5,49.5C 17.1944,45.8023 17.861,42.3023 19.5,39C 19.0556,37.2382 18.5556,37.4049 18,39.5C 17.8333,38 17.6667,36.5 17.5,35C 17.336,32.4563 18.0027,30.2897 19.5,28.5 Z"/></g>
<g><path style="opacity:1" fill="#fde089" d="M 10.5,33.5 C 10.8333,33.5 11.1667,33.5 11.5,33.5C 13.4241,33.7107 13.7574,34.3774 12.5,35.5C 12.5654,35.0618 12.3988,34.7284 12,34.5C 9.69655,40.2408 8.52988,46.2408 8.5,52.5C 9.5,52.5 10.5,52.5 11.5,52.5C 11.1795,47.3054 11.5128,42.3054 12.5,37.5C 14.5342,39.7535 15.5342,42.4202 15.5,45.5C 15.0773,47.7812 15.744,49.4479 17.5,50.5C 17.5,50.8333 17.5,51.1667 17.5,51.5C 18.4025,54.3915 18.7359,57.3915 18.5,60.5C 13.6367,60.8195 8.97005,60.4861 4.5,59.5C 5.48221,56.2365 6.14888,52.9032 6.5,49.5C 7.61667,45.7051 8.28333,41.7051 8.5,37.5C 9.67373,36.4863 10.3404,35.153 10.5,33.5 Z"/></g>
<g><path style="opacity:1" fill="#a09376" d="M 28.5,24.5 C 25.2314,25.5597 23.5647,27.8931 23.5,31.5C 23.1667,31.5 22.8333,31.5 22.5,31.5C 22.7989,29.396 22.4656,27.396 21.5,25.5C 20.0815,26.0047 19.4148,27.0047 19.5,28.5C 18.0027,30.2897 17.336,32.4563 17.5,35C 17.6667,36.5 17.8333,38 18,39.5C 18.5556,37.4049 19.0556,37.2382 19.5,39C 17.861,42.3023 17.1944,45.8023 17.5,49.5C 17.5,49.8333 17.5,50.1667 17.5,50.5C 15.744,49.4479 15.0773,47.7812 15.5,45.5C 16.3288,38.9906 16.9954,32.324 17.5,25.5C 19.7131,24.3947 21.8797,24.3947 24,25.5C 25.3466,23.5339 26.8466,23.2006 28.5,24.5 Z"/></g>
<g><path style="opacity:1" fill="#fef1c8" d="M 17.5,51.5 C 17.5,51.1667 17.5,50.8333 17.5,50.5C 17.5,50.1667 17.5,49.8333 17.5,49.5C 20.0718,43.7847 22.0718,37.7847 23.5,31.5C 24.6499,30.1498 25.3166,30.3164 25.5,32C 23.1209,37.9713 21.4542,44.1379 20.5,50.5C 19.5832,51.1272 18.5832,51.4606 17.5,51.5 Z"/></g>
<g><path style="opacity:1" fill="#aba48e" d="M 8.5,37.5 C 8.28333,41.7051 7.61667,45.7051 6.5,49.5C 6.08339,45.1829 6.75006,41.1829 8.5,37.5 Z"/></g>
<g><path style="opacity:1" fill="#fff2c3" d="M 12.5,35.5 C 12.5,36.1667 12.5,36.8333 12.5,37.5C 11.5128,42.3054 11.1795,47.3054 11.5,52.5C 10.5,52.5 9.5,52.5 8.5,52.5C 8.52988,46.2408 9.69655,40.2408 12,34.5C 12.3988,34.7284 12.5654,35.0618 12.5,35.5 Z"/></g>
<g><path style="opacity:1" fill="#ecc378" d="M 28.5,24.5 C 29.8333,27.5 29.8333,30.5 28.5,33.5C 27.7321,34.2625 27.2321,35.2625 27,36.5C 26.5003,44.4931 26.3336,52.4931 26.5,60.5C 23.8333,60.5 21.1667,60.5 18.5,60.5C 18.7359,57.3915 18.4025,54.3915 17.5,51.5C 18.5832,51.4606 19.5832,51.1272 20.5,50.5C 21.4542,44.1379 23.1209,37.9713 25.5,32C 25.3166,30.3164 24.6499,30.1498 23.5,31.5C 23.5647,27.8931 25.2314,25.5597 28.5,24.5 Z"/></g>
<g><path style="opacity:1" fill="#a6a08e" d="M 6.5,49.5 C 6.14888,52.9032 5.48221,56.2365 4.5,59.5C 4.16667,59.5 3.83333,59.5 3.5,59.5C 3.89934,55.8835 4.89934,52.5502 6.5,49.5 Z"/></g>
<g><path style="opacity:1" fill="#acaa9c" d="M 3.5,59.5 C 5.98785,61.3878 8.98785,62.0545 12.5,61.5C 12.5,61.8333 12.5,62.1667 12.5,62.5C 9.42814,62.1826 6.42814,62.5159 3.5,63.5C 1.1958,68.2654 1.1958,72.932 3.5,77.5C 1.11634,76.5749 0.116337,74.7415 0.5,72C 0.817783,67.5387 1.81778,63.372 3.5,59.5 Z"/></g>
<g><path style="opacity:1" fill="#b3a178" d="M 3.5,59.5 C 3.83333,59.5 4.16667,59.5 4.5,59.5C 8.97005,60.4861 13.6367,60.8195 18.5,60.5C 21.1667,60.5 23.8333,60.5 26.5,60.5C 26.5,60.8333 26.5,61.1667 26.5,61.5C 21.8333,61.5 17.1667,61.5 12.5,61.5C 8.98785,62.0545 5.98785,61.3878 3.5,59.5 Z"/></g>
<g><path style="opacity:1" fill="#a59e8b" d="M 28.5,33.5 C 27.4861,42.4774 27.3194,51.4774 28,60.5C 30.4601,66.2453 31.1268,72.2453 30,78.5C 29.7216,79.4158 29.2216,80.0825 28.5,80.5C 29.481,75.8708 29.6477,71.2041 29,66.5C 28.6264,64.5087 27.793,62.842 26.5,61.5C 26.5,61.1667 26.5,60.8333 26.5,60.5C 26.3336,52.4931 26.5003,44.4931 27,36.5C 27.2321,35.2625 27.7321,34.2625 28.5,33.5 Z"/></g>
<g><path style="opacity:1" fill="#f4f8e2" d="M 12.5,62.5 C 13.1667,62.5 13.8333,62.5 14.5,62.5C 14.6865,68.3088 14.0199,73.9755 12.5,79.5C 14.1667,79.5 15.8333,79.5 17.5,79.5C 16.8333,80.1667 16.1667,80.8333 15.5,81.5C 13.4727,81.6621 11.4727,81.4955 9.5,81C 7.5952,79.5787 5.5952,78.412 3.5,77.5C 1.1958,72.932 1.1958,68.2654 3.5,63.5C 6.42814,62.5159 9.42814,62.1826 12.5,62.5 Z"/></g>
<g><path style="opacity:1" fill="#e9e8dd" d="M 18.5,62.5 C 19.8333,62.5 21.1667,62.5 22.5,62.5C 23.12,68.9262 22.4533,74.9262 20.5,80.5C 19.8333,80.1667 19.1667,79.8333 18.5,79.5C 18.5,73.8333 18.5,68.1667 18.5,62.5 Z"/></g>
<g><path style="opacity:1" fill="#f9f8f6" d="M 14.5,62.5 C 15.8333,62.5 17.1667,62.5 18.5,62.5C 18.5,68.1667 18.5,73.8333 18.5,79.5C 18.1667,79.5 17.8333,79.5 17.5,79.5C 15.8333,79.5 14.1667,79.5 12.5,79.5C 14.0199,73.9755 14.6865,68.3088 14.5,62.5 Z"/></g>
<g><path style="opacity:1" fill="#d3cfbc" d="M 12.5,62.5 C 12.5,62.1667 12.5,61.8333 12.5,61.5C 17.1667,61.5 21.8333,61.5 26.5,61.5C 27.793,62.842 28.6264,64.5087 29,66.5C 29.6477,71.2041 29.481,75.8708 28.5,80.5C 25.6926,81.6567 23.0259,81.6567 20.5,80.5C 22.4533,74.9262 23.12,68.9262 22.5,62.5C 21.1667,62.5 19.8333,62.5 18.5,62.5C 17.1667,62.5 15.8333,62.5 14.5,62.5C 13.8333,62.5 13.1667,62.5 12.5,62.5 Z"/></g>
<g><path style="opacity:1" fill="#aaa79a" d="M 17.5,79.5 C 17.8333,79.5 18.1667,79.5 18.5,79.5C 19.1667,79.8333 19.8333,80.1667 20.5,80.5C 23.0259,81.6567 25.6926,81.6567 28.5,80.5C 27.3591,82.2427 25.6924,83.2427 23.5,83.5C 20.978,82.238 18.3113,81.5713 15.5,81.5C 16.1667,80.8333 16.8333,80.1667 17.5,79.5 Z"/></g>
<g><path style="opacity:1" fill="#a9a79a" d="M 3.5,77.5 C 5.5952,78.412 7.5952,79.5787 9.5,81C 11.4727,81.4955 13.4727,81.6621 15.5,81.5C 10.6354,83.7741 6.63544,82.4407 3.5,77.5 Z"/></g>
</svg>
