<?xml version="1.0" encoding="UTF-8"?>
<!DOCTYPE svg PUBLIC "-//W3C//DTD SVG 1.1//EN" "http://www.w3.org/Graphics/SVG/1.1/DTD/svg11.dtd">
<svg xmlns="http://www.w3.org/2000/svg" version="1.1" width="29px" height="88px" style="shape-rendering:geometricPrecision; text-rendering:geometricPrecision; image-rendering:optimizeQuality; fill-rule:evenodd; clip-rule:evenodd" xmlns:xlink="http://www.w3.org/1999/xlink">
<g><path style="opacity:1" fill="#fbfbfa" d="M -0.5,-0.5 C 9.16667,-0.5 18.8333,-0.5 28.5,-0.5C 28.5,28.8333 28.5,58.1667 28.5,87.5C 18.8333,87.5 9.16667,87.5 -0.5,87.5C -0.5,58.1667 -0.5,28.8333 -0.5,-0.5 Z"/></g>
<g><path style="opacity:1" fill="#a49a86" d="M 20.5,5.5 C 17.9988,0.0515039 15.9988,0.384837 14.5,6.5C 14.1667,6.5 13.8333,6.5 13.5,6.5C 13.3049,1.51426 15.4716,-0.152408 20,1.5C 20.49,2.79323 20.6567,4.12656 20.5,5.5 Z"/></g>
<g><path style="opacity:1" fill="#a8a18c" d="M 13.5,6.5 C 13.0496,11.2016 12.383,15.8683 11.5,20.5C 11.1667,20.5 10.8333,20.5 10.5,20.5C 10.7538,15.5561 11.7538,10.8894 13.5,6.5 Z"/></g>
<g><path style="opacity:1" fill="#e7bb70" d="M 20.5,5.5 C 20.1956,14.5839 20.5289,23.5839 21.5,32.5C 22.1335,40.9032 21.4668,48.9032 19.5,56.5C 19.5,56.1667 19.5,55.8333 19.5,55.5C 19.6868,40.8879 18.3535,26.2212 15.5,11.5C 15.7845,9.58533 15.4511,7.91866 14.5,6.5C 15.9988,0.384837 17.9988,0.0515039 20.5,5.5 Z"/></g>
<g><path style="opacity:1" fill="#a69e88" d="M 10.5,20.5 C 10.5621,25.0758 9.89548,29.4091 8.5,33.5C 8.43786,28.9242 9.10452,24.5909 10.5,20.5 Z"/></g>
<g><path style="opacity:1" fill="#f9d37f" d="M 15.5,11.5 C 18.3535,26.2212 19.6868,40.8879 19.5,55.5C 18.8333,55.5 18.1667,55.5 17.5,55.5C 15.2672,46.327 13.9338,36.9937 13.5,27.5C 13.527,21.9494 14.1937,16.6161 15.5,11.5 Z"/></g>
<g><path style="opacity:1" fill="#ffe48d" d="M 13.5,27.5 C 13.9338,36.9937 15.2672,46.327 17.5,55.5C 15.5,55.5 13.5,55.5 11.5,55.5C 11.2753,45.9541 11.942,36.6207 13.5,27.5 Z"/></g>
<g><path style="opacity:1" fill="#f5dd95" d="M 10.5,20.5 C 10.8333,20.5 11.1667,20.5 11.5,20.5C 10.5816,32.1788 9.58162,43.8455 8.5,55.5C 8.44001,56.0431 8.10667,56.3764 7.5,56.5C 7.16667,55.5 6.83333,54.5 6.5,53.5C 7.24571,49.8683 7.57904,46.2017 7.5,42.5C 8.47667,39.7131 8.81,36.7131 8.5,33.5C 9.89548,29.4091 10.5621,25.0758 10.5,20.5 Z"/></g>
<g><path style="opacity:1" fill="#fef3ca" d="M 13.5,6.5 C 13.8333,6.5 14.1667,6.5 14.5,6.5C 15.4511,7.91866 15.7845,9.58533 15.5,11.5C 14.1937,16.6161 13.527,21.9494 13.5,27.5C 11.942,36.6207 11.2753,45.9541 11.5,55.5C 10.5,55.5 9.5,55.5 8.5,55.5C 9.58162,43.8455 10.5816,32.1788 11.5,20.5C 12.383,15.8683 13.0496,11.2016 13.5,6.5 Z"/></g>
<g><path style="opacity:1" fill="#a29c8a" d="M 21.5,32.5 C 22.3296,40.9903 22.8296,49.657 23,58.5C 23.9428,61.824 24.7761,65.1574 25.5,68.5C 23.7605,66.2629 22.4271,63.2629 21.5,59.5C 20.8333,58.5 20.1667,57.5 19.5,56.5C 21.4668,48.9032 22.1335,40.9032 21.5,32.5 Z"/></g>
<g><path style="opacity:1" fill="#a6a392" d="M 7.5,42.5 C 7.57904,46.2017 7.24571,49.8683 6.5,53.5C 6.83333,54.5 7.16667,55.5 7.5,56.5C 8.10667,56.3764 8.44001,56.0431 8.5,55.5C 9.5,55.5 10.5,55.5 11.5,55.5C 13.5,55.5 15.5,55.5 17.5,55.5C 18.1667,55.5 18.8333,55.5 19.5,55.5C 19.5,55.8333 19.5,56.1667 19.5,56.5C 17.8333,56.5 16.1667,56.5 14.5,56.5C 10.885,56.2055 7.71838,57.2055 5,59.5C 3.67535,64.4651 2.50868,69.4651 1.5,74.5C 2.93695,78.7484 5.93695,81.4151 10.5,82.5C 10.8333,83.1667 11.1667,83.8333 11.5,84.5C 8.24325,83.5383 5.24325,82.0383 2.5,80C 0.971571,78.3523 0.304904,76.3523 0.5,74C 2.94525,63.399 5.27859,52.899 7.5,42.5 Z"/></g>
<g><path style="opacity:1" fill="#f6fae3" d="M 14.5,56.5 C 14.5,56.8333 14.5,57.1667 14.5,57.5C 13.5416,57.9528 12.7083,58.6195 12,59.5C 11.7942,65.2724 10.9608,70.939 9.5,76.5C 9.2019,79.6034 10.5352,81.27 13.5,81.5C 12.791,82.404 11.791,82.7373 10.5,82.5C 5.93695,81.4151 2.93695,78.7484 1.5,74.5C 2.50868,69.4651 3.67535,64.4651 5,59.5C 7.71838,57.2055 10.885,56.2055 14.5,56.5 Z"/></g>
<g><path style="opacity:1" fill="#e6e3d8" d="M 14.5,56.5 C 16.1667,56.5 17.8333,56.5 19.5,56.5C 20.1667,57.5 20.8333,58.5 21.5,59.5C 21.6663,66.175 21.4996,72.8417 21,79.5C 19.2745,80.464 17.4412,81.1307 15.5,81.5C 15.7701,73.445 15.4368,65.445 14.5,57.5C 14.5,57.1667 14.5,56.8333 14.5,56.5 Z"/></g>
<g><path style="opacity:1" fill="#fbfbf9" d="M 14.5,57.5 C 15.4368,65.445 15.7701,73.445 15.5,81.5C 14.8333,81.5 14.1667,81.5 13.5,81.5C 10.5352,81.27 9.2019,79.6034 9.5,76.5C 10.9608,70.939 11.7942,65.2724 12,59.5C 12.7083,58.6195 13.5416,57.9528 14.5,57.5 Z"/></g>
<g><path style="opacity:1" fill="#d1ccb9" d="M 21.5,59.5 C 22.4271,63.2629 23.7605,66.2629 25.5,68.5C 26.3092,70.0276 26.9759,71.6943 27.5,73.5C 24.493,80.0432 19.1597,83.7099 11.5,84.5C 11.1667,83.8333 10.8333,83.1667 10.5,82.5C 11.791,82.7373 12.791,82.404 13.5,81.5C 14.1667,81.5 14.8333,81.5 15.5,81.5C 17.4412,81.1307 19.2745,80.464 21,79.5C 21.4996,72.8417 21.6663,66.175 21.5,59.5 Z"/></g>
<g><path style="opacity:1" fill="#a6a394" d="M 27.5,73.5 C 27.8957,76.0444 27.229,78.2111 25.5,80C 22.6612,81.9203 19.6612,83.5869 16.5,85C 14.6131,85.7796 12.9464,85.6129 11.5,84.5C 19.1597,83.7099 24.493,80.0432 27.5,73.5 Z"/></g>
</svg>
