<?xml version="1.0" encoding="UTF-8"?>
<svg version="1.1" xmlns="http://www.w3.org/2000/svg" width="30" height="90">
<path d="M0 0 C11.88 0 23.76 0 36 0 C36 29.04 36 58.08 36 88 C24.12 88 12.24 88 0 88 C0 58.96 0 29.92 0 0 Z " fill="#FEFEFE" transform="translate(0,0)"/>
<path d="M0 0 C1.8125 0.0625 1.8125 0.0625 4 1 C6.40917757 5.89991584 7.90216896 10.83363721 9.1875 16.125 C9.45336914 17.15947266 9.45336914 17.15947266 9.72460938 18.21484375 C10.63199856 21.87943482 11.21311015 25.22280636 11 29 C9.33583218 25.94424357 8.36717464 22.99001463 7.5 19.625 C6.46372816 15.69558342 5.3479957 11.83660314 4 8 C3.93941406 8.84304687 3.87882813 9.68609375 3.81640625 10.5546875 C3.73261719 11.65039062 3.64882812 12.74609375 3.5625 13.875 C3.48128906 14.96554688 3.40007813 16.05609375 3.31640625 17.1796875 C3 20 3 20 2 22 C1.53046246 25.43716155 1.13141515 28.87463023 0.75 32.32226562 C0.10174717 37.89825283 0.10174717 37.89825283 -1 39 C-1.36760731 41.32817964 -1.70241581 43.6618385 -2 46 C-1.40832031 45.97679687 -0.81664062 45.95359375 -0.20703125 45.9296875 C4.33801959 45.82588536 7.85940059 45.86291643 12 48 C12.13451772 41.94670256 11.60965199 36.02031344 11 30 C13.33100429 33.49650644 13.50386124 36.32193662 13.875 40.375 C14.44209523 45.83259581 15.39400044 50.71724526 17.1875 55.9375 C19.06588457 61.4964093 19.16506885 65.27174482 18 71 C13.33912452 73.35397751 9.04112646 73.3667617 3.9375 73.375 C3.13505859 73.39949219 2.33261719 73.42398438 1.50585938 73.44921875 C-4.34961406 73.47837463 -4.34961406 73.47837463 -7.49609375 71.1640625 C-10.8675211 66.3127099 -10.60388799 60.60274088 -9.65625 54.94921875 C-8.85851646 51.63197677 -7.82849628 48.57100831 -6.55859375 45.39453125 C-4.00894501 37.78222015 -3.66097965 29.63122843 -2.875 21.6875 C-2.62297208 19.22095141 -2.36806215 16.75473698 -2.11038208 14.28877258 C-1.95180833 12.76327876 -1.79690657 11.23739742 -1.64620972 9.71110535 C-1.30947499 6.40049132 -0.9481839 3.19713487 0 0 Z " fill="#F6FAE4" transform="translate(11,10)"/>
<path d="M0 0 C1.8125 0.0625 1.8125 0.0625 4 1 C6.40917757 5.89991584 7.90216896 10.83363721 9.1875 16.125 C9.45336914 17.15947266 9.45336914 17.15947266 9.72460938 18.21484375 C10.63199856 21.87943482 11.21311015 25.22280636 11 29 C9.33583218 25.94424357 8.36717464 22.99001463 7.5 19.625 C6.46372816 15.69558342 5.3479957 11.83660314 4 8 C3.93941406 8.84304687 3.87882813 9.68609375 3.81640625 10.5546875 C3.73261719 11.65039062 3.64882812 12.74609375 3.5625 13.875 C3.48128906 14.96554688 3.40007813 16.05609375 3.31640625 17.1796875 C3 20 3 20 2 22 C1.53046246 25.43716155 1.13141515 28.87463023 0.75 32.32226562 C0.10174717 37.89825283 0.10174717 37.89825283 -1 39 C-1.36760731 41.32817964 -1.70241581 43.6618385 -2 46 C-1.40832031 45.97679687 -0.81664062 45.95359375 -0.20703125 45.9296875 C4.33801959 45.82588536 7.85940059 45.86291643 12 48 C12.13451772 41.94670256 11.60965199 36.02031344 11 30 C13.33100429 33.49650644 13.50386124 36.32193662 13.875 40.375 C14.44209523 45.83259581 15.39400044 50.71724526 17.1875 55.9375 C19.06588457 61.4964093 19.16506885 65.27174482 18 71 C13.33912452 73.35397751 9.04112646 73.3667617 3.9375 73.375 C3.13505859 73.39949219 2.33261719 73.42398438 1.50585938 73.44921875 C-4.34961406 73.47837463 -4.34961406 73.47837463 -7.49609375 71.1640625 C-10.8675211 66.3127099 -10.60388799 60.60274088 -9.65625 54.94921875 C-8.85851646 51.63197677 -7.82849628 48.57100831 -6.55859375 45.39453125 C-4.00894501 37.78222015 -3.66097965 29.63122843 -2.875 21.6875 C-2.62297208 19.22095141 -2.36806215 16.75473698 -2.11038208 14.28877258 C-1.95180833 12.76327876 -1.79690657 11.23739742 -1.64620972 9.71110535 C-1.30947499 6.40049132 -0.9481839 3.19713487 0 0 Z M-8 52 C-8.42311088 54.94106444 -8.57250079 57.21851238 -8.4375 60.125 C-8.43169922 60.84042969 -8.42589844 61.55585937 -8.41992188 62.29296875 C-8.33274689 66.02405802 -8.11114746 67.83327881 -6 71 C-3.16078117 71.30548557 -0.58606776 71.4178985 2.25 71.375 C3.00152344 71.38660156 3.75304688 71.39820312 4.52734375 71.41015625 C9.42311538 71.38452394 12.70792507 70.58344637 17 68 C17.51831357 60.1785673 17.51831357 60.1785673 15 53 C10.97614143 48.95308207 7.35979021 46.87944462 1.625 46.625 C0.49964844 46.55152344 0.49964844 46.55152344 -0.6484375 46.4765625 C-4.35435957 47.30146874 -5.74960209 48.99946946 -8 52 Z " fill="#D1B179" transform="translate(11,10)"/>
<path d="M0 0 C2 1 2 1 3.21875 4.640625 C3.65367825 6.17488111 4.08040368 7.71148016 4.5 9.25 C4.92479313 10.77668076 5.35182407 12.30274088 5.78125 13.828125 C5.98572754 14.56071533 6.19020508 15.29330566 6.40087891 16.0480957 C6.98898244 18.11738441 6.98898244 18.11738441 8.1171875 20.43359375 C9.50738945 24.47502153 9.47301562 28.56643636 9.625 32.8125 C9.66367187 33.69615234 9.70234375 34.57980469 9.7421875 35.49023438 C9.83600784 37.65982972 9.91907326 39.82988547 10 42 C8.66582031 41.52433594 8.66582031 41.52433594 7.3046875 41.0390625 C4.47845519 40.15043627 2.05566705 39.64142428 -0.875 39.375 C-1.65617188 39.30023438 -2.43734375 39.22546875 -3.2421875 39.1484375 C-3.82226562 39.09945312 -4.40234375 39.05046875 -5 39 C-5.21018628 33.85043612 -4.41796177 29.92116142 -3 25 C-2.67652852 22.38066993 -2.44356735 19.76835674 -2.24609375 17.13671875 C-2 15 -2 15 -1 13 C-0.77049681 10.795636 -0.58924067 8.58607827 -0.4375 6.375 C-0.31181641 4.59222656 -0.31181641 4.59222656 -0.18359375 2.7734375 C-0.12300781 1.85820312 -0.06242188 0.94296875 0 0 Z " fill="#F6CE7D" transform="translate(14,17)"/>
<path d="M0 0 C1.43763719 2.73894671 2.55017142 5.43259623 3.5 8.375 C3.75523438 9.15746094 4.01046875 9.93992187 4.2734375 10.74609375 C4.51320313 11.48988281 4.75296875 12.23367187 5 13 C6.30323037 17.08251902 6.30323037 17.08251902 8 21 C8.15067214 22.4465242 8.24861036 23.8987934 8.31640625 25.3515625 C8.37924805 26.62773438 8.37924805 26.62773438 8.44335938 27.9296875 C8.48267578 28.81914063 8.52199219 29.70859375 8.5625 30.625 C8.60568359 31.5221875 8.64886719 32.419375 8.69335938 33.34375 C8.79956861 35.56234283 8.90161194 37.7810488 9 40 C7.02 39.34 5.04 38.68 3 38 C2.98018066 37.40050537 2.96036133 36.80101074 2.93994141 36.18334961 C2.84394997 33.43433529 2.73457495 30.68600507 2.625 27.9375 C2.57859375 26.52307617 2.57859375 26.52307617 2.53125 25.08007812 C2.30714331 19.72019316 1.58282988 15.15696187 0 10 C-0.1953125 7.12890625 -0.1953125 7.12890625 -0.125 4.5625 C-0.09792969 3.26505859 -0.09792969 3.26505859 -0.0703125 1.94140625 C-0.04710937 1.30074219 -0.02390625 0.66007812 0 0 Z " fill="#FEF5D0" transform="translate(15,19)"/>
<path d="M0 0 C0 7.92 0 15.84 0 24 C-1.65 23.67 -3.3 23.34 -5 23 C-6.55799897 19.88400206 -6.30803114 16.60595599 -6.375 13.1875 C-6.41238281 12.47529297 -6.44976562 11.76308594 -6.48828125 11.02929688 C-6.55694219 6.90582597 -6.18184188 5.22253982 -3.5390625 1.98828125 C-1 0 -1 0 0 0 Z " fill="#D1CCB8" transform="translate(9,57)"/>
<path d="M0 0 C0.66 0 1.32 0 2 0 C4.97334642 6.98090028 6 13.42478422 6 21 C3.36 21 0.72 21 -2 21 C-2.09765625 14.84765625 -2.09765625 14.84765625 -2 13 C-1.67 12.67 -1.34 12.34 -1 12 C-0.76572222 9.98405418 -0.58663876 7.961526 -0.4375 5.9375 C-0.35371094 4.83277344 -0.26992187 3.72804687 -0.18359375 2.58984375 C-0.12300781 1.73519531 -0.06242188 0.88054688 0 0 Z " fill="#F6F5F0" transform="translate(14,60)"/>
<path d="M0 0 C2.77901996 4.16852995 2.92904568 8.05684891 3 13 C2.3125 16.0625 2.3125 16.0625 1 18 C-3.23591797 19.41064704 -7.58155027 19.2595633 -12 19.3125 C-12.80695312 19.34150391 -13.61390625 19.37050781 -14.4453125 19.40039062 C-20.36695056 19.46390654 -20.36695056 19.46390654 -23.5 17.16796875 C-25.79740802 13.84749622 -26.11945069 11.24209736 -26.0625 7.3125 C-26.05347656 6.50425781 -26.04445313 5.69601563 -26.03515625 4.86328125 C-26.02355469 4.24839844 -26.01195313 3.63351563 -26 3 C-25.01 3.495 -25.01 3.495 -24 4 C-23.62109375 6.21484375 -23.62109375 6.21484375 -23.4375 8.9375 C-23.23198677 12.60675121 -23.23198677 12.60675121 -22 16 C-19.27056463 16.05416741 -16.54221436 16.09375225 -13.8125 16.125 C-13.04357422 16.14175781 -12.27464844 16.15851563 -11.48242188 16.17578125 C-10.73154297 16.18222656 -9.98066406 16.18867187 -9.20703125 16.1953125 C-8.5210083 16.20578613 -7.83498535 16.21625977 -7.12817383 16.22705078 C-4.4387329 16.0372631 -4.4387329 16.0372631 0 14 C0 9.38 0 4.76 0 0 Z " fill="#B4B1A2" transform="translate(27,64)"/>
<path d="M0 0 C1.32 0.33 2.64 0.66 4 1 C4.19390729 3.31197155 4.37996367 5.6246029 4.5625 7.9375 C4.66691406 9.22527344 4.77132813 10.51304688 4.87890625 11.83984375 C4.91886719 12.88269531 4.95882813 13.92554687 5 15 C4.67 15.33 4.34 15.66 4 16 C3.76924918 17.34747084 3.58846937 18.70377565 3.4375 20.0625 C3.293125 21.361875 3.14875 22.66125 3 24 C2.01 24 1.02 24 0 24 C0 16.08 0 8.16 0 0 Z " fill="#E9E6DC" transform="translate(9,57)"/>
<path d="M0 0 C2.13604308 3.20406462 2.24208908 3.99600747 2.1953125 7.66796875 C2.18886719 8.56064453 2.18242187 9.45332031 2.17578125 10.37304688 C2.15902344 11.30181641 2.14226563 12.23058594 2.125 13.1875 C2.11597656 14.12787109 2.10695313 15.06824219 2.09765625 16.03710938 C2.07409056 18.35832968 2.04119116 20.67903644 2 23 C0.02 23 -1.96 23 -4 23 C-5.3448757 20.31024861 -4.71921998 19.10708579 -4.00390625 16.2109375 C-3.77509766 15.26992188 -3.54628906 14.32890625 -3.31054688 13.359375 C-3.06369141 12.37453125 -2.81683594 11.3896875 -2.5625 10.375 C-2.31951172 9.38242187 -2.07652344 8.38984375 -1.82617188 7.3671875 C-1.22365357 4.90985792 -0.61468353 2.45430967 0 0 Z " fill="#FEE28C" transform="translate(16,33)"/>
<path d="M0 0 C0.33 0 0.66 0 1 0 C1.223293 2.06093408 1.42802887 4.1238839 1.625 6.1875 C1.74101562 7.33605469 1.85703125 8.48460937 1.9765625 9.66796875 C2.00084077 13.11952883 1.40003395 14.90099246 0 18 C-0.44576326 19.88471833 -0.8417361 21.78189895 -1.1875 23.6875 C-1.36667969 24.64011719 -1.54585938 25.59273437 -1.73046875 26.57421875 C-2.22307513 29.00655914 -2.22307513 29.00655914 -1 31 C-1.9590625 31.804375 -1.9590625 31.804375 -2.9375 32.625 C-5.38529404 35.44367193 -5.66714612 37.33860732 -6 41 C-6.33 41 -6.66 41 -7 41 C-7.22941325 37.17644585 -7.32157618 34.63092886 -5.5612793 31.17724609 C-3.88820774 27.77249968 -3.33064747 25.03728098 -2.83203125 21.2890625 C-2.66123047 20.04511719 -2.49042969 18.80117188 -2.31445312 17.51953125 C-2.14880859 16.23433594 -1.98316406 14.94914062 -1.8125 13.625 C-1.6344417 12.30325328 -1.45541414 10.98163674 -1.27539062 9.66015625 C-0.84072144 6.44125468 -0.41593695 3.22136651 0 0 Z " fill="#AF9E7D" transform="translate(9,27)"/>
<path d="M0 0 C0.33 0 0.66 0 1 0 C1 6.93 1 13.86 1 21 C0.01 21 -0.98 21 -2 21 C-2.3690205 6.21867882 -2.3690205 6.21867882 0 0 Z " fill="#DCD9C9" transform="translate(8,59)"/>
<path d="M0 0 C0.66 0 1.32 0 2 0 C3.69832609 5.83799592 4.25287193 10.93107371 4 17 C2.68 17 1.36 17 0 17 C0 11.39 0 5.78 0 0 Z " fill="#FDFEFC" transform="translate(16,64)"/>
<path d="M0 0 C2.3922866 3.58842991 2.63029599 6.70329173 3.0625 10.875 C3.54891442 15.28890934 4.03805742 19.65848925 5 24 C4.0925 23.21625 3.185 22.4325 2.25 21.625 C-2.63922194 18.06645289 -8.12177189 17.64670161 -14 17 C-14 16.67 -14 16.34 -14 16 C-3.44191344 15.6309795 -3.44191344 15.6309795 1 18 C1.13451772 11.94670256 0.60965199 6.02031344 0 0 Z " fill="#A8A28C" transform="translate(22,40)"/>
<path d="M0 0 C1.5 1 1.5 1 3 3 C3.06473583 5.00681087 3.11931251 7.01718714 3.0390625 9.0234375 C2.92698546 11.10174243 2.92698546 11.10174243 3.5 13.5 C4.2064529 17.03226451 4.06101293 20.40023696 4 24 C3.34 23.67 2.68 23.34 2 23 C1.3671875 19.90234375 1.3671875 19.90234375 0.875 15.9375 C0.79008301 15.2580835 0.70516602 14.57866699 0.61767578 13.87866211 C0.06294396 9.20920422 -0.19154791 4.69292381 0 0 Z " fill="#F9E090" transform="translate(20,35)"/>
<path d="M0 0 C3.38732834 6.52428894 5.47156103 12.61221054 5 20 C4.67 20 4.34 20 4 20 C3.67 18.02 3.34 16.04 3 14 C2.34 14 1.68 14 1 14 C0.06380187 10.84493858 -0.1057123 8.03413498 -0.0625 4.75 C-0.05347656 3.85796875 -0.04445313 2.9659375 -0.03515625 2.046875 C-0.02355469 1.37140625 -0.01195312 0.6959375 0 0 Z " fill="#FEECB3" transform="translate(15,19)"/>
<path d="M0 0 C0.66 0 1.32 0 2 0 C2.34615998 5.65394631 1.43425238 9.03006806 -1 14 C-3.09678815 10.59271925 -3.4133256 7.96792579 -3 4 C-1.625 1.625 -1.625 1.625 0 0 Z " fill="#DCB578" transform="translate(12,17)"/>
<path d="M0 0 C0.144375 0.61875 0.28875 1.2375 0.4375 1.875 C0.93152225 4.03258322 0.93152225 4.03258322 2 6 C1.0409375 6.804375 1.0409375 6.804375 0.0625 7.625 C-2.38529404 10.44367193 -2.66714612 12.33860732 -3 16 C-3.33 16 -3.66 16 -4 16 C-4.5326514 9.741346 -2.81849506 5.54891215 0 0 Z " fill="#9D9784" transform="translate(6,52)"/>
</svg>
