<?xml version="1.0" encoding="UTF-8"?>
<svg version="1.1" xmlns="http://www.w3.org/2000/svg" width="30" height="88">
<path d="M0 0 C9.9 0 19.8 0 30 0 C30 29.04 30 58.08 30 88 C20.1 88 10.2 88 0 88 C0 58.96 0 29.92 0 0 Z " fill="#FCDB85" transform="translate(0,0)"/>
<path d="M0 0 C9.9 0 19.8 0 30 0 C30 29.04 30 58.08 30 88 C20.1 88 10.2 88 0 88 C0 58.96 0 29.92 0 0 Z M9 1 C7.10952397 2.89047603 7.64411882 6.16305383 7.5 8.69140625 C7.45984772 9.37998718 7.41969543 10.06856812 7.37832642 10.77801514 C7.29260111 12.26404512 7.20916486 13.75020853 7.12774658 15.23648071 C6.99971274 17.56773046 6.8644465 19.89847532 6.72802734 22.22924805 C6.32734268 29.19852266 5.96806658 36.16147725 5.7890625 43.140625 C5.3114384 61.57946632 5.3114384 61.57946632 1.83984375 70.51171875 C0.91653884 73.24727796 0.61257696 75.13684922 1 78 C3.97532862 81.79847429 8.33868022 84.7733369 13 86 C18.49468737 86.51889122 21.64464732 84.38460218 25.9296875 81.1484375 C28.17257824 78.82090937 28.77014595 77.92972686 28.9375 74.75 C28.35920513 69.12629189 26.61458995 63.71079372 25.06445312 58.2902832 C22.99657393 50.75246034 21.92599045 43.18250754 20.9375 35.4375 C19.85422744 26.99366973 18.72117392 18.62762585 16.875 10.3125 C16.71636475 9.58281006 16.55772949 8.85312012 16.39428711 8.10131836 C15.47422687 4.15134906 15.47422687 4.15134906 13 1 C11.68 1 10.36 1 9 1 Z " fill="#FDFDFD" transform="translate(0,0)"/>
<path d="M0 0 C0.66 0 1.32 0 2 0 C2.16276042 1.98567708 2.32552083 3.97135417 2.48828125 5.95703125 C2.82961448 8.07947174 2.82961448 8.07947174 4.4375 9.3984375 C6.62785726 11.64355369 6.9674426 13.78368712 7.6875 16.8125 C8.06455078 18.33810547 8.06455078 18.33810547 8.44921875 19.89453125 C9.00817636 23.04610078 9.26666955 25.80900505 9 29 C5.84398931 32.07295777 3.41788272 33.91138233 -1 34.1875 C-4 34 -4 34 -6 32 C-6.24291992 29.89282227 -6.24291992 29.89282227 -6.23046875 27.31640625 C-6.22853516 26.38892578 -6.22660156 25.46144531 -6.22460938 24.50585938 C-6.21236328 23.53455078 -6.20011719 22.56324219 -6.1875 21.5625 C-6.18685547 20.59505859 -6.18621094 19.62761719 -6.18554688 18.63085938 C-6.14052002 11.42156007 -6.14052002 11.42156007 -5 8 C-3.35 7.67 -1.7 7.34 0 7 C0 4.69 0 2.38 0 0 Z " fill="#F6F9E6" transform="translate(18,49)"/>
<path d="M0 0 C-0.00523682 0.72179443 -0.01047363 1.44358887 -0.01586914 2.18725586 C-0.03657358 5.43732849 -0.04963918 8.68738728 -0.0625 11.9375 C-0.07087891 13.07380859 -0.07925781 14.21011719 -0.08789062 15.38085938 C-0.09111328 16.46044922 -0.09433594 17.54003906 -0.09765625 18.65234375 C-0.10289307 19.65257568 -0.10812988 20.65280762 -0.11352539 21.68334961 C-0.26181095 23.96207228 -0.26181095 23.96207228 1 25 C4.52637472 25.15672777 7.61905851 25.04028969 11 24 C9.06745228 26.0245738 7.36841312 27.42105792 5 29 C-0.92890508 28.80560967 -4.24913033 27.7565016 -9 24 C-9.639375 23.5875 -10.27875 23.175 -10.9375 22.75 C-12.82592024 19.63966079 -11.73444699 16.36715695 -11 13 C-10.81179687 12.12859375 -10.62359375 11.2571875 -10.4296875 10.359375 C-8.7113878 3.60467963 -8.7113878 3.60467963 -5.5 0.875 C-3 0 -3 0 0 0 Z " fill="#E6E3D8" transform="translate(13,57)"/>
<path d="M0 0 C2.625 1.0625 2.625 1.0625 4.1640625 4.46484375 C5.88678699 9.44215661 6.77872263 14.50051019 7.625 19.6875 C7.79451172 20.68515381 7.96402344 21.68280762 8.13867188 22.71069336 C9.45050943 30.58233748 10.47717171 38.47954783 11.47387695 46.39599609 C12.33959966 52.88862136 13.86029367 58.80743821 15.83984375 65.0546875 C16.9815291 69.428308 16.99677977 73.58048831 16.625 78.0625 C14.645 79.0525 14.645 79.0525 12.625 80.0625 C13.285 79.0725 13.945 78.0825 14.625 77.0625 C14.86990381 70.60170431 13.27140513 63.93777263 10.625 58.0625 C9.965 57.4025 9.305 56.7425 8.625 56.0625 C9.615 55.5675 9.615 55.5675 10.625 55.0625 C9.07041103 44.30992631 7.41641674 33.58040907 5.5625 22.875 C5.40040039 21.93261475 5.23830078 20.99022949 5.07128906 20.01928711 C4.07455141 14.32645941 2.91954024 8.69518842 1.625 3.0625 C0.635 3.0625 -0.355 3.0625 -1.375 3.0625 C-1.40005615 3.87928223 -1.4251123 4.69606445 -1.45092773 5.53759766 C-1.56729143 9.25437549 -1.68983472 12.97092502 -1.8125 16.6875 C-1.87147461 18.61529297 -1.87147461 18.61529297 -1.93164062 20.58203125 C-1.97353516 21.82597656 -2.01542969 23.06992187 -2.05859375 24.3515625 C-2.09525146 25.49318848 -2.13190918 26.63481445 -2.16967773 27.81103516 C-2.36849268 30.95945068 -2.83531947 33.95722883 -3.375 37.0625 C-3.50864204 38.6410969 -3.61553651 40.22226147 -3.69140625 41.8046875 C-3.73330078 42.64257812 -3.77519531 43.48046875 -3.81835938 44.34375 C-3.85767578 45.1996875 -3.89699219 46.055625 -3.9375 46.9375 C-4.00227539 48.25621094 -4.00227539 48.25621094 -4.06835938 49.6015625 C-4.17369339 51.75505797 -4.27477649 53.90876064 -4.375 56.0625 C-3.385 55.5675 -3.385 55.5675 -2.375 55.0625 C-0.66797265 54.99253986 1.04168003 54.97809846 2.75 55 C3.66007813 55.00902344 4.57015625 55.01804688 5.5078125 55.02734375 C6.20648438 55.03894531 6.90515625 55.05054688 7.625 55.0625 C7.625 55.3925 7.625 55.7225 7.625 56.0625 C7.02171875 56.11148438 6.4184375 56.16046875 5.796875 56.2109375 C4.99765625 56.28570312 4.1984375 56.36046875 3.375 56.4375 C2.19164062 56.54191406 2.19164062 56.54191406 0.984375 56.6484375 C-1.47062126 57.07928121 -3.18370893 57.91025285 -5.375 59.0625 C-5.64559533 44.87914155 -5.26881494 30.78124443 -4.4375 16.625 C-4.39393372 15.85859192 -4.35036743 15.09218384 -4.30548096 14.30255127 C-4.17969607 12.11925581 -4.04655527 9.93656174 -3.91015625 7.75390625 C-3.831604 6.48748291 -3.75305176 5.22105957 -3.67211914 3.91625977 C-3.27334637 0.08614069 -3.27334637 0.08614069 0 0 Z " fill="#AFA58D" transform="translate(11.375,0.9375)"/>
<path d="M0 0 C2.0625 0.4375 2.0625 0.4375 4 1 C4.22623438 5.56179717 4.42786876 10.12435985 4.625 14.6875 C4.68945312 15.98107422 4.75390625 17.27464844 4.8203125 18.60742188 C4.871875 19.85458984 4.9234375 21.10175781 4.9765625 22.38671875 C5.02893066 23.53358154 5.08129883 24.68044434 5.13525391 25.86206055 C4.94178703 30.35056181 3.89942787 33.00896374 0.890625 36.32421875 C-1.5761006 39.81534899 -1.45411359 42.71060192 -1.25 46.8125 C-1.23195313 47.50537109 -1.21390625 48.19824219 -1.1953125 48.91210938 C-1.14851064 50.60867664 -1.07677624 52.30452476 -1 54 C-1.66 54 -2.32 54 -3 54 C-3.0271045 50.95827281 -3.04688964 47.91679003 -3.0625 44.875 C-3.07087891 44.0190625 -3.07925781 43.163125 -3.08789062 42.28125 C-3.09111328 41.44335938 -3.09433594 40.60546875 -3.09765625 39.7421875 C-3.10289307 38.9776123 -3.10812988 38.21303711 -3.11352539 37.42529297 C-3 35 -3 35 -2.51147461 32.12084961 C-1.97112768 28.8238306 -1.80784328 25.66308413 -1.71875 22.32421875 C-1.68136719 21.08478516 -1.64398438 19.84535156 -1.60546875 18.56835938 C-1.53462585 15.9616029 -1.46432123 13.35483175 -1.39453125 10.74804688 C-1.35714844 9.51505859 -1.31976563 8.28207031 -1.28125 7.01171875 C-1.25095703 5.88209717 -1.22066406 4.75247559 -1.18945312 3.58862305 C-1 1 -1 1 0 0 Z " fill="#EFC778" transform="translate(10,3)"/>
<path d="M0 0 C2.39358146 3.59037219 3.08162911 7.03357122 3.9375 11.1875 C4.10934814 12.00814941 4.28119629 12.82879883 4.45825195 13.67431641 C6.43570312 23.54597285 7.56787983 33.53027284 8.67456055 43.53076172 C9.00662472 46.05026434 9.47434286 48.51431721 10 51 C9.34 51 8.68 51 8 51 C7.67 48.36 7.34 45.72 7 43 C6.34 43 5.68 43 5 43 C5 45.31 5 47.62 5 50 C4.67 50 4.34 50 4 50 C3.9498877 49.16976318 3.89977539 48.33952637 3.84814453 47.48413086 C2.73835041 27.53744352 2.73835041 27.53744352 0.3671875 7.71484375 C0.01416372 5.10472115 -0.06755765 2.62992293 0 0 Z " fill="#FBEABB" transform="translate(13,6)"/>
<path d="M0 0 C2.0625 0.4375 2.0625 0.4375 4 1 C4.08152344 3.54232342 4.14073716 6.08199202 4.1875 8.625 C4.22520508 9.69427734 4.22520508 9.69427734 4.26367188 10.78515625 C4.32991312 15.59868692 3.65443674 18.82231506 1 23 C0.34 23.33 -0.32 23.66 -1 24 C-1.02887236 20.18751574 -1.04675492 16.3750593 -1.0625 12.5625 C-1.07087891 11.47388672 -1.07925781 10.38527344 -1.08789062 9.26367188 C-1.09111328 8.22919922 -1.09433594 7.19472656 -1.09765625 6.12890625 C-1.10289307 5.17056885 -1.10812988 4.21223145 -1.11352539 3.22485352 C-1 1 -1 1 0 0 Z " fill="#EBBF72" transform="translate(10,3)"/>
<path d="M0 0 C0.33 0 0.66 0 1 0 C0.855625 1.134375 0.71125 2.26875 0.5625 3.4375 C-0.00301367 7.95353056 -0.50774809 12.47547181 -1 17 C5.94092232 20.07266127 11.44223548 22.32546601 19 20 C17.06745228 22.0245738 15.36841312 23.42105792 13 25 C7.07109492 24.80560967 3.75086967 23.7565016 -1 20 C-1.639375 19.5875 -2.27875 19.175 -2.9375 18.75 C-4.81982509 15.64969985 -3.77732607 12.35113905 -3 9 C-2.1012369 5.96020437 -1.09477291 2.97447735 0 0 Z " fill="#AAA697" transform="translate(5,61)"/>
<path d="M0 0 C1.485 0.99 1.485 0.99 3 2 C3.2578125 4.0234375 3.2578125 4.0234375 3.125 6.375 C2.96695363 9.52539091 3.21240659 11.95784529 4 15 C4.12205329 17.67540816 4.04467313 20.31961238 4 23 C2.68 23 1.36 23 0 23 C0 15.41 0 7.82 0 0 Z " fill="#FDFDFB" transform="translate(15,59)"/>
<path d="M0 0 C0.66 0 1.32 0 2 0 C2.87890625 6.15234375 2.87890625 6.15234375 3 8 C2 9 2 9 -1.0625 9.0625 C-2.031875 9.041875 -3.00125 9.02125 -4 9 C-3.98839844 9.90621094 -3.97679687 10.81242187 -3.96484375 11.74609375 C-3.91411085 18.59503464 -4.06398731 25.213908 -5 32 C-5.33 32 -5.66 32 -6 32 C-6.02901394 28.5625177 -6.04680335 25.12506688 -6.0625 21.6875 C-6.07087891 20.71103516 -6.07925781 19.73457031 -6.08789062 18.72851562 C-6.09111328 17.79072266 -6.09433594 16.85292969 -6.09765625 15.88671875 C-6.10551147 14.59060669 -6.10551147 14.59060669 -6.11352539 13.26831055 C-6 11 -6 11 -5 8 C-3.35 7.67 -1.7 7.34 0 7 C0 4.69 0 2.38 0 0 Z " fill="#F2F1E9" transform="translate(18,49)"/>
<path d="M0 0 C-0.33 6.6 -0.66 13.2 -1 20 C-2.32 19.67 -3.64 19.34 -5 19 C-4.76284601 16.86561409 -4.52471219 14.73133181 -4.28125 12.59765625 C-4.0950942 10.87830057 -3.92812477 9.1567495 -3.78125 7.43359375 C-3.67296875 6.22896484 -3.67296875 6.22896484 -3.5625 5 C-3.50191406 4.2575 -3.44132813 3.515 -3.37890625 2.75 C-3.25386719 2.1725 -3.12882813 1.595 -3 1 C-1 0 -1 0 0 0 Z " fill="#D6D1BF" transform="translate(8,59)"/>
<path d="M0 0 C0.33 0 0.66 0 1 0 C1.08564209 0.70084717 1.17128418 1.40169434 1.25952148 2.1237793 C1.65022487 5.31192944 2.04383321 8.49971447 2.4375 11.6875 C2.57220703 12.79029297 2.70691406 13.89308594 2.84570312 15.02929688 C2.97783203 16.09599609 3.10996094 17.16269531 3.24609375 18.26171875 C3.36654053 19.24100342 3.4869873 20.22028809 3.61108398 21.22924805 C3.97847425 23.8466442 4.45323877 26.41474783 5 29 C4.34 29 3.68 29 3 29 C2.67 26.36 2.34 23.72 2 21 C1.34 21 0.68 21 0 21 C0 23.31 0 25.62 0 28 C-0.33 28 -0.66 28 -1 28 C-1.02721176 26.10424749 -1.04649136 24.20838021 -1.0625 22.3125 C-1.07410156 21.25675781 -1.08570312 20.20101562 -1.09765625 19.11328125 C-1.00814949 16.25980588 -0.56426662 13.78606645 0 11 C0.06533435 9.06348981 0.08584303 7.12497139 0.0625 5.1875 C0.05347656 4.21167969 0.04445313 3.23585938 0.03515625 2.23046875 C0.02355469 1.49441406 0.01195313 0.75835938 0 0 Z " fill="#FBE7A6" transform="translate(18,28)"/>
<path d="M0 0 C2.0625 0.4375 2.0625 0.4375 4 1 C3.93967927 2.4386494 3.85079867 3.87611902 3.75 5.3125 C3.70359375 6.11300781 3.6571875 6.91351563 3.609375 7.73828125 C2.82091593 10.66467743 1.5240032 11.44016602 -1 13 C-1.02686553 11.02090602 -1.04633375 9.04171029 -1.0625 7.0625 C-1.07410156 5.96035156 -1.08570313 4.85820312 -1.09765625 3.72265625 C-1 1 -1 1 0 0 Z " fill="#E2B46B" transform="translate(10,3)"/>
<path d="M0 0 C0.58007812 0.2165625 1.16015625 0.433125 1.7578125 0.65625 C7.77634297 2.80146878 12.72309594 3.93135509 19 2 C14.28429204 6.94026549 14.28429204 6.94026549 10.3125 7.125 C9.1678125 7.063125 9.1678125 7.063125 8 7 C8 6.34 8 5.68 8 5 C7.05125 4.731875 6.1025 4.46375 5.125 4.1875 C2 3 2 3 0 0 Z " fill="#B9B5A0" transform="translate(5,79)"/>
<path d="M0 0 C0.33 0 0.66 0 1 0 C1.33 6.27 1.66 12.54 2 19 C1.34 19.33 0.68 19.66 0 20 C-2.12390495 13.62828516 -1.13495783 6.5260075 0 0 Z " fill="#FFF3C5" transform="translate(17,24)"/>
<path d="M0 0 C0.66 0 1.32 0 2 0 C2.33 2.64 2.66 5.28 3 8 C1.35 8.33 -0.3 8.66 -2 9 C-1.34 8.34 -0.68 7.68 0 7 C0.16677282 3.41656024 0.16677282 3.41656024 0 0 Z " fill="#F3ECCA" transform="translate(18,49)"/>
</svg>
