<?xml version="1.0" encoding="UTF-8"?>
<svg version="1.1" xmlns="http://www.w3.org/2000/svg" width="32" height="88">
<path d="M0 0 C10.56 0 21.12 0 32 0 C32 29.04 32 58.08 32 88 C21.44 88 10.88 88 0 88 C0 58.96 0 29.92 0 0 Z " fill="#FDFDFD" transform="translate(0,0)"/>
<path d="M0 0 C1.42124078 0.09102988 2.83848308 0.24820717 4.25 0.4375 C6.91347905 0.78417505 9.18358929 0.98802679 11.875 0.8125 C14 1 14 1 15.47265625 2.703125 C20.22505692 9.84995773 22.53911574 17.08329674 23.54296875 25.56640625 C24.14358875 30.07875651 25.10725037 34.53625187 26 39 C17.75 39 9.5 39 1 39 C0.34 43.62 -0.32 48.24 -1 53 C-1.33 53 -1.66 53 -2 53 C-2.0823499 51.31335214 -2.1397912 49.62548293 -2.1875 47.9375 C-2.22230469 46.99777344 -2.25710937 46.05804688 -2.29296875 45.08984375 C-2 42 -2 42 -0.47265625 38.83203125 C1.79717915 33.94237992 1.11747235 29.00554792 0.75 23.75 C0.69714844 22.75742187 0.64429688 21.76484375 0.58984375 20.7421875 C0.28891969 15.2838162 0.28891969 15.2838162 -1 10 C-1.09182942 8.46050671 -1.13002352 6.91722145 -1.125 5.375 C-1.12757812 4.57835937 -1.13015625 3.78171875 -1.1328125 2.9609375 C-1 1 -1 1 0 0 Z " fill="#F4D281" transform="translate(3,24)"/>
<path d="M0 0 C1.46953125 0.07250977 1.46953125 0.07250977 2.96875 0.14648438 C4.49242187 0.2305957 4.49242187 0.2305957 6.046875 0.31640625 C7.59375 0.3947168 7.59375 0.3947168 9.171875 0.47460938 C11.71386539 0.60406259 14.25544093 0.73901953 16.796875 0.87890625 C18.57937982 9.63102294 18.57937982 9.63102294 17.796875 13.87890625 C15.1656164 17.15020073 12.09668327 20.55091346 7.75976562 21.16943359 C5.27158401 21.21841769 2.78557523 21.25020833 0.296875 21.25390625 C-0.57066406 21.27839844 -1.43820312 21.30289063 -2.33203125 21.328125 C-8.60496631 21.35721125 -8.60496631 21.35721125 -11.30859375 19.1953125 C-12.40986017 16.34356146 -12.37298906 14.47269434 -12.015625 11.44140625 C-11.91894531 10.51457031 -11.82226562 9.58773437 -11.72265625 8.6328125 C-11.18198885 5.76686879 -10.59440815 3.44847481 -9.203125 0.87890625 C-6.10127795 -0.26627127 -3.27090322 -0.17115191 0 0 Z " fill="#F0F3DD" transform="translate(13.203125,62.12109375)"/>
<path d="M0 0 C1.42124078 0.09102988 2.83848308 0.24820717 4.25 0.4375 C6.91347905 0.78417505 9.18358929 0.98802679 11.875 0.8125 C14 1 14 1 15.46484375 2.6875 C20.25189687 9.89853167 22.70980033 16.34043602 22 25 C21.67 25 21.34 25 21 25 C20.84144531 24.16597656 20.68289062 23.33195312 20.51953125 22.47265625 C20.28621094 21.34730469 20.05289062 20.22195312 19.8125 19.0625 C19.59207031 17.96035156 19.37164063 16.85820313 19.14453125 15.72265625 C17.81096267 10.92725 17.81096267 10.92725 13 3 C13 10.92 13 18.84 13 27 C11.16153294 24.24229941 10.54776064 22.67683482 9.75 19.5625 C7.96708451 13.30843894 5.03961187 7.72509421 2 2 C1.67 2 1.34 2 1 2 C1.06566162 2.57540527 1.13132324 3.15081055 1.19897461 3.74365234 C1.94843484 10.69869831 2.3035011 17.63627546 2.5625 24.625 C2.60568359 25.72457031 2.64886719 26.82414062 2.69335938 27.95703125 C2.7982636 30.6379169 2.89951389 33.31894512 3 36 C9.6 36.33 16.2 36.66 23 37 C23.66 35.68 24.32 34.36 25 33 C25.33 34.98 25.66 36.96 26 39 C17.75 39 9.5 39 1 39 C0.34 43.62 -0.32 48.24 -1 53 C-1.33 53 -1.66 53 -2 53 C-2.0823499 51.31335214 -2.1397912 49.62548293 -2.1875 47.9375 C-2.22230469 46.99777344 -2.25710937 46.05804688 -2.29296875 45.08984375 C-2 42 -2 42 -0.47265625 38.83203125 C1.79717915 33.94237992 1.11747235 29.00554792 0.75 23.75 C0.69714844 22.75742187 0.64429688 21.76484375 0.58984375 20.7421875 C0.28891969 15.2838162 0.28891969 15.2838162 -1 10 C-1.09182942 8.46050671 -1.13002352 6.91722145 -1.125 5.375 C-1.12757812 4.57835937 -1.13015625 3.78171875 -1.1328125 2.9609375 C-1 1 -1 1 0 0 Z " fill="#ABA187" transform="translate(3,24)"/>
<path d="M0 0 C0 0.33 0 0.66 0 1 C-1.98 1 -3.96 1 -6 1 C-5.98839844 1.6290625 -5.97679687 2.258125 -5.96484375 2.90625 C-5.95130859 4.19015625 -5.95130859 4.19015625 -5.9375 5.5 C-5.92589844 6.3353125 -5.91429687 7.170625 -5.90234375 8.03125 C-6.02427905 11.73808324 -6.50134869 15.32490057 -7 19 C-3.87405648 18.35867797 -0.74942478 17.71117727 2.375 17.0625 C3.26445312 16.88009766 4.15390625 16.69769531 5.0703125 16.50976562 C5.92109375 16.33251953 6.771875 16.15527344 7.6484375 15.97265625 C8.43395996 15.81031494 9.21948242 15.64797363 10.02880859 15.48071289 C12.05960746 15.06293278 12.05960746 15.06293278 14 14 C12.51832903 17.90622346 10.77239505 19.26264859 7 21 C3.78391463 21.45598199 0.61888413 21.46453237 -2.625 21.4375 C-3.91277344 21.4674707 -3.91277344 21.4674707 -5.2265625 21.49804688 C-11.38688258 21.49323412 -11.38688258 21.49323412 -14.09765625 19.3125 C-15.21017709 16.46136434 -15.17023349 14.59692176 -14.8125 11.5625 C-14.71582031 10.63566406 -14.61914062 9.70882812 -14.51953125 8.75390625 C-13.98922557 5.94288741 -13.23056355 3.58006633 -12 1 C-8.5059324 -0.7470338 -3.81424515 -0.06357075 0 0 Z " fill="#BDB9A7" transform="translate(16,62)"/>
<path d="M0 0 C2.64 0 5.28 0 8 0 C7.979375 1.134375 7.95875 2.26875 7.9375 3.4375 C7.92930531 8.01833024 8.43212473 12.45699781 9 17 C4.05 17.495 4.05 17.495 -1 18 C-0.505 9.09 -0.505 9.09 0 0 Z " fill="#FCFBF9" transform="translate(10,63)"/>
<path d="M0 0 C1.765625 0.09375 1.765625 0.09375 4 1 C5.4738094 3.18075862 6.62029939 5.15073278 7.75 7.5 C8.06074463 8.12986816 8.37148926 8.75973633 8.69165039 9.40869141 C11.10901496 14.59870088 11.67822532 18.38041875 11 24 C10.67 24 10.34 24 10 24 C9.84144531 23.16597656 9.68289062 22.33195312 9.51953125 21.47265625 C9.16955078 19.78462891 9.16955078 19.78462891 8.8125 18.0625 C8.48185547 16.40927734 8.48185547 16.40927734 8.14453125 14.72265625 C6.81096267 9.92725 6.81096267 9.92725 2 2 C2 9.92 2 17.84 2 26 C0.12222204 23.18333306 -0.61302692 21.26813641 -1.5 18.0625 C-2.20267631 15.53057397 -2.85505792 13.27372155 -4.0859375 10.94921875 C-5.62320217 7.6710347 -5.11920679 4.57620383 -5 1 C-2.525 1.495 -2.525 1.495 0 2 C0 1.34 0 0.68 0 0 Z " fill="#A6997B" transform="translate(14,25)"/>
<path d="M0 0 C0 0.33 0 0.66 0 1 C-1.98 1 -3.96 1 -6 1 C-5.98839844 1.6290625 -5.97679687 2.258125 -5.96484375 2.90625 C-5.90713127 8.38069088 -6.19771527 13.58457806 -7 19 C-6.34 19.33 -5.68 19.66 -5 20 C-6.98 20 -8.96 20 -11 20 C-12.12604443 16.5126236 -11.95775125 13.5662873 -11.625 9.9375 C-11.53476563 8.89464844 -11.44453125 7.85179688 -11.3515625 6.77734375 C-11 4 -11 4 -10 1 C-6.78548731 -0.60725635 -3.56387464 -0.05748185 0 0 Z " fill="#DBD8C8" transform="translate(16,62)"/>
<path d="M0 0 C4.40212843 4.39332418 4.64119152 7.91211279 4.75 13.8125 C4.77964844 14.60076172 4.80929688 15.38902344 4.83984375 16.20117188 C4.91011293 18.13357446 4.95737134 20.06679015 5 22 C4.01 22 3.02 22 2 22 C1.67 18.04 1.34 14.08 1 10 C0.01 10.66 -0.98 11.32 -2 12 C-2.05422947 10.5629191 -2.09289723 9.12524538 -2.125 7.6875 C-2.14820313 6.88699219 -2.17140625 6.08648437 -2.1953125 5.26171875 C-2 3 -2 3 0 0 Z " fill="#FEE091" transform="translate(18,31)"/>
<path d="M0 0 C1.32 0 2.64 0 4 0 C4.054348 2.0622048 4.09294961 4.12482816 4.125 6.1875 C4.14820313 7.33605469 4.17140625 8.48460938 4.1953125 9.66796875 C4.00484152 12.91740372 3.39360127 15.08660521 2 18 C1.01 18 0.02 18 -1 18 C-0.505 9.09 -0.505 9.09 0 0 Z " fill="#EDEBE2" transform="translate(10,63)"/>
<path d="M0 0 C0.99 0.495 0.99 0.495 2 1 C2.31241371 3.54941373 2.51303421 6.00361513 2.625 8.5625 C2.66367187 9.27341797 2.70234375 9.98433594 2.7421875 10.71679688 C2.83671783 12.47742425 2.91945817 14.23867728 3 16 C2.01 16 1.02 16 0 16 C0 10.72 0 5.44 0 0 Z " fill="#FFF2C3" transform="translate(20,37)"/>
<path d="M0 0 C1.9375 0.8125 1.9375 0.8125 4 2 C5.28317892 5.84953676 5.06643637 8.94738135 5 13 C1.51564196 8.40698258 -0.26283775 5.91384928 0 0 Z " fill="#F8D683" transform="translate(9,26)"/>
<path d="M0 0 C0 3 0 3 -1.5 4.6875 C-5.20913305 6.63479485 -7.82283871 6.33152074 -12 6 C-12.99 5.34 -13.98 4.68 -15 4 C-14.00097656 3.79503906 -13.00195312 3.59007813 -11.97265625 3.37890625 C-10.68230469 3.10949219 -9.39195313 2.84007813 -8.0625 2.5625 C-6.77472656 2.29566406 -5.48695312 2.02882813 -4.16015625 1.75390625 C-1.15361121 1.32818384 -1.15361121 1.32818384 0 0 Z " fill="#CFCFBE" transform="translate(29,76)"/>
<path d="M0 0 C2.18614424 2.18614424 2.68256535 3.53879949 3.625 6.4375 C3.88539062 7.21996094 4.14578125 8.00242187 4.4140625 8.80859375 C5 11 5 11 5 14 C3.68 13.67 2.36 13.34 1 13 C0.67 8.71 0.34 4.42 0 0 Z " fill="#FEF0C5" transform="translate(9,38)"/>
<path d="M0 0 C1.32 1.32 2.64 2.64 4 4 C3.68289062 4.53109375 3.36578125 5.0621875 3.0390625 5.609375 C1.7629651 8.54535848 1.58292979 11.06174329 1.375 14.25 C1.30023437 15.32765625 1.22546875 16.4053125 1.1484375 17.515625 C1.09945313 18.33546875 1.05046875 19.1553125 1 20 C0.67 20 0.34 20 0 20 C0 13.4 0 6.8 0 0 Z " fill="#E0B872" transform="translate(15,26)"/>
<path d="M0 0 C1.485 0.99 1.485 0.99 3 2 C2.67 3.65 2.34 5.3 2 7 C1.01 7 0.02 7 -1 7 C-1.04254356 5.00045254 -1.04080783 2.99958364 -1 1 C-0.67 0.67 -0.34 0.34 0 0 Z " fill="#E6BB72" transform="translate(4,25)"/>
<path d="M0 0 C2.67927341 4.01891012 2.15601248 6.24161923 2 11 C0.4375 9.4375 0.4375 9.4375 -1 7 C-0.6875 3.25 -0.6875 3.25 0 0 Z " fill="#E4BA71" transform="translate(12,28)"/>
<path d="M0 0 C0.66 0.99 1.32 1.98 2 3 C1.03114628 4.68496298 0.03013277 6.35178756 -1 8 C-1.33 8 -1.66 8 -2 8 C-1.125 1.125 -1.125 1.125 0 0 Z " fill="#F6CE7C" transform="translate(18,31)"/>
<path d="M0 0 C3 1 3 1 4 3 C4.039992 4.99960012 4.04346799 7.00047242 4 9 C1.3144406 6.3144406 0.93950026 3.62378672 0 0 Z " fill="#F7E2AF" transform="translate(5,29)"/>
</svg>
