<?xml version="1.0" encoding="UTF-8"?>
<svg version="1.1" xmlns="http://www.w3.org/2000/svg" width="30" height="90">
<path d="M0 0 C9.9 0 19.8 0 30 0 C30 29.7 30 59.4 30 90 C20.1 90 10.2 90 0 90 C0 60.3 0 30.6 0 0 Z " fill="#FEFEFE" transform="translate(0,0)"/>
<path d="M0 0 C3.70612653 0.55145865 5.13941463 1.84156863 7.4375 4.75 C15.02659167 15.19310905 16.83339448 26.37146682 18.5690918 38.890625 C19.64242775 46.5264218 21.16460218 53.77858502 24.25 60.875 C25.13852192 63.39247878 24.73390373 64.49424299 24 67 C22.99580363 64.5433053 21.99649499 62.08481647 21 59.625 C20.57074219 58.57699219 20.57074219 58.57699219 20.1328125 57.5078125 C18 52.2265625 18 52.2265625 18 50 C16.56208484 50.14168137 15.1246763 50.28851043 13.6875 50.4375 C12.88699219 50.51871094 12.08648437 50.59992187 11.26171875 50.68359375 C8.83912821 50.95265693 8.83912821 50.95265693 6 52 C5.67 53.98 5.34 55.96 5 58 C3.03506395 56.38474236 2.0698701 55.56478904 1.7512207 52.98901367 C1.80882568 52.22306885 1.86643066 51.45712402 1.92578125 50.66796875 C1.98088867 49.7972876 2.03599609 48.92660645 2.09277344 48.02954102 C2.1652832 47.09166748 2.23779297 46.15379395 2.3125 45.1875 C2.43219787 43.20074686 2.54796705 41.21375379 2.66015625 39.2265625 C2.71961426 38.20208008 2.77907227 37.17759766 2.84033203 36.12207031 C3.09704633 31.10240294 3.20340764 26.08806354 3.25 21.0625 C3.27102783 20.15846436 3.29205566 19.25442871 3.3137207 18.32299805 C3.34492199 12.69037256 2.41021436 9.06779282 0 4 C0 2.68 0 1.36 0 0 Z " fill="#C3BF94" transform="translate(3,4)"/>
<path d="M0 0 C1.2216687 0.02791626 1.2216687 0.02791626 2.46801758 0.05639648 C3.09087646 0.08032471 3.71373535 0.10425293 4.35546875 0.12890625 C5.58553247 2.8500472 6.78938554 5.57825819 7.98046875 8.31640625 C8.33109375 9.08533203 8.68171875 9.85425781 9.04296875 10.64648438 C11.51792659 16.41313613 11.51792659 16.41313613 10.69140625 20.0546875 C8.1516769 23.9979515 5.82720984 24.94769162 1.35546875 26.12890625 C-4.42919553 26.85198929 -4.42919553 26.85198929 -7.3515625 25.11328125 C-9.94491764 23.01840557 -11.79536788 20.9026513 -13.64453125 18.12890625 C-13.90225911 12.97434908 -13.49119263 8.20887453 -12.64453125 3.12890625 C-11.77828125 3.50015625 -11.77828125 3.50015625 -10.89453125 3.87890625 C-10.15203125 3.96140625 -9.40953125 4.04390625 -8.64453125 4.12890625 C-8.08765625 3.48953125 -7.53078125 2.85015625 -6.95703125 2.19140625 C-4.22323877 -0.24684109 -3.52633217 -0.10436678 0 0 Z " fill="#E4E4E3" transform="translate(16.64453125,53.87109375)"/>
<path d="M0 0 C2.7315702 4.0973553 3.14579054 6.06350174 3.28125 10.9609375 C3.31863281 12.15460937 3.35601563 13.34828125 3.39453125 14.578125 C3.42933594 15.83109375 3.46414062 17.0840625 3.5 18.375 C3.56893274 20.84126041 3.64168688 23.30741775 3.71875 25.7734375 C3.74904297 26.87091309 3.77933594 27.96838867 3.81054688 29.09912109 C3.97096241 31.55538067 4.29689894 33.65229718 5 36 C6.98 36.33 8.96 36.66 11 37 C11 30.73 11 24.46 11 18 C11.66 18 12.32 18 13 18 C13.07516846 18.58378418 13.15033691 19.16756836 13.2277832 19.76904297 C13.58082396 22.47221973 13.94660075 25.17353489 14.3125 27.875 C14.43044922 28.7928125 14.54839844 29.710625 14.66992188 30.65625 C15.68058102 38.01592173 17.2796608 45.04321985 20.25 51.875 C21.13852192 54.39247878 20.73390373 55.49424299 20 58 C18.99580363 55.5433053 17.99649499 53.08481647 17 50.625 C16.57074219 49.57699219 16.57074219 49.57699219 16.1328125 48.5078125 C14 43.2265625 14 43.2265625 14 41 C12.56208484 41.14168137 11.1246763 41.28851043 9.6875 41.4375 C8.88699219 41.51871094 8.08648437 41.59992187 7.26171875 41.68359375 C4.83912821 41.95265693 4.83912821 41.95265693 2 43 C1.67 44.98 1.34 46.96 1 49 C-1.01823547 47.35473955 -1.92951872 46.52139229 -2.28483582 43.89289856 C-2.2426442 43.08237534 -2.20045258 42.27185211 -2.15698242 41.43676758 C-2.11671432 40.51603958 -2.07644623 39.59531158 -2.03495789 38.64668274 C-1.97572647 37.65597275 -1.91649506 36.66526276 -1.85546875 35.64453125 C-1.80683182 34.62775803 -1.75819489 33.6109848 -1.70808411 32.56340027 C-1.54918654 29.31217284 -1.3686052 26.06255872 -1.1875 22.8125 C-1.07604535 20.61009787 -0.96600153 18.40762386 -0.85742188 16.20507812 C-0.5879872 10.80244431 -0.30073594 5.40097691 0 0 Z " fill="#AFAC8E" transform="translate(7,13)"/>
<path d="M0 0 C2.25 -0.3125 2.25 -0.3125 5 0 C8.7657111 3.54419868 10.70248764 8.05569154 12 13 C12 14.32 12 15.64 12 17 C3.738041 20.62870159 3.738041 20.62870159 -1 19 C-2.01173798 15.96478606 -2.16573514 13.80266921 -2.1875 10.625 C-2.20167969 9.68914062 -2.21585938 8.75328125 -2.23046875 7.7890625 C-1.98668108 4.83881846 -1.23112508 2.67635888 0 0 Z " fill="#F3F2F1" transform="translate(12,57)"/>
<path d="M0 0 C2 1 2 1 3.5625 4.5625 C5.7863062 11.48100817 5.74359601 18.79416379 6 26 C5.34 26.33 4.68 26.66 4 27 C3.01 26.67 2.02 26.34 1 26 C0.22471521 22.57426063 -0.11918778 19.42760755 -0.09765625 15.91796875 C-0.09443359 14.98662109 -0.09121094 14.05527344 -0.08789062 13.09570312 C-0.07951172 12.13599609 -0.07113281 11.17628906 -0.0625 10.1875 C-0.05798828 9.20845703 -0.05347656 8.22941406 -0.04882812 7.22070312 C-0.03708684 4.81373889 -0.02066419 2.40690143 0 0 Z " fill="#D3CF9B" transform="translate(11,23)"/>
<path d="M0 0 C2.53760827 3.80641241 2.34977475 6.96860355 2.4140625 11.38671875 C2.43342865 12.20372757 2.4527948 13.02073639 2.4727478 13.86250305 C2.53250352 16.47072934 2.57891258 19.07899986 2.625 21.6875 C2.6631835 23.4563994 2.70223546 25.22528028 2.7421875 26.99414062 C2.83820168 31.32927659 2.92224735 35.6644996 3 40 C1.68 40.66 0.36 41.32 -1 42 C-1.15938672 27.97396876 -0.67067454 14.0092496 0 0 Z " fill="#928F75" transform="translate(7,13)"/>
<path d="M0 0 C0.99 0 1.98 0 3 0 C3.10957031 1.16917969 3.21914062 2.33835938 3.33203125 3.54296875 C3.49154721 5.09121194 3.65173914 6.63938558 3.8125 8.1875 C3.88275391 8.95642578 3.95300781 9.72535156 4.02539062 10.51757812 C4.51205674 15.05330633 5.23439717 18.21907997 8 22 C3.58167506 20.64995627 1.35157612 19.00638894 -1 15 C-1.41570324 9.84527979 -0.84745273 5.08471636 0 0 Z " fill="#C3C2C1" transform="translate(4,57)"/>
<path d="M0 0 C3.79317925 0.54069441 5.18900934 1.94896889 7.5 4.9375 C12.12010281 11.17712271 15.83932234 18.0264378 15 26 C13.33108115 22.80695434 12.00790297 19.53796877 10.6875 16.1875 C8.63717869 11.20204611 6.34762074 7.2084375 3 3 C2.67 3.99 2.34 4.98 2 6 C1.34 5.34 0.68 4.68 0 4 C0 2.68 0 1.36 0 0 Z " fill="#97947A" transform="translate(3,4)"/>
<path d="M0 0 C1.21236328 0.02707031 1.21236328 0.02707031 2.44921875 0.0546875 C3.37154297 0.08949219 3.37154297 0.08949219 4.3125 0.125 C3.9825 1.775 3.6525 3.425 3.3125 5.125 C1.29427083 4.86458333 -0.72395833 4.60416667 -2.7421875 4.34375 C-4.69248344 4.0877515 -4.69248344 4.0877515 -6.6875 4.125 C-7.3475 5.445 -8.0075 6.765 -8.6875 8.125 C-8.375 5.25 -8.375 5.25 -7.6875 2.125 C-4.48369983 -0.01086678 -3.66810033 -0.10632175 0 0 Z " fill="#CECDCC" transform="translate(16.6875,53.875)"/>
<path d="M0 0 C4.93912821 4.23353847 7.32134512 9.12975632 10 15 C9.34 15 8.68 15 8 15 C8 14.34 8 13.68 8 13 C7.34 13 6.68 13 6 13 C5.34 12.01 4.68 11.02 4 10 C3.01 9.67 2.02 9.34 1 9 C0.67 6.03 0.34 3.06 0 0 Z " fill="#B4B08E" transform="translate(5,6)"/>
<path d="M0 0 C0 0.33 0 0.66 0 1 C-2.97 1.66 -5.94 2.32 -9 3 C-9.33 4.98 -9.66 6.96 -10 9 C-11.5625 7.75 -11.5625 7.75 -13 6 C-13 3.9375 -13 3.9375 -12 2 C-8.08594062 -0.30238787 -4.45280788 -0.17461992 0 0 Z " fill="#B0AFAE" transform="translate(18,53)"/>
</svg>
