<?xml version="1.0" encoding="UTF-8"?>
<!DOCTYPE svg PUBLIC "-//W3C//DTD SVG 1.1//EN" "http://www.w3.org/Graphics/SVG/1.1/DTD/svg11.dtd">
<svg xmlns="http://www.w3.org/2000/svg" version="1.1" width="30" height="90" style="shape-rendering:geometricPrecision; text-rendering:geometricPrecision; image-rendering:optimizeQuality; fill-rule:evenodd; clip-rule:evenodd" xmlns:xlink="http://www.w3.org/1999/xlink">
<g><path style="opacity:1" fill="#fefefe" d="M -0.5,-0.5 C 12.1667,-0.5 24.8333,-0.5 37.5,-0.5C 37.5,28.8333 37.5,58.1667 37.5,87.5C 24.8333,87.5 12.1667,87.5 -0.5,87.5C -0.5,58.1667 -0.5,28.8333 -0.5,-0.5 Z"/></g>
<g><path style="opacity:1" fill="#a89e8a" d="M 30.5,48.5 C 28.5391,36.7038 27.0391,24.7038 26,12.5C 25.6667,11.8333 25.3333,11.1667 25,10.5C 23.5952,11.7305 22.4286,13.0639 21.5,14.5C 21.6294,10.515 23.4628,9.18169 27,10.5C 28.4977,23.1432 29.6644,35.8098 30.5,48.5 Z"/></g>
<g><path style="opacity:1" fill="#aba38e" d="M 20.5,18.5 C 20.5905,21.1522 19.9238,23.4855 18.5,25.5C 18.4095,22.8478 19.0762,20.5145 20.5,18.5 Z"/></g>
<g><path style="opacity:1" fill="#e3b871" d="M 30.5,48.5 C 30.2924,50.9201 30.6258,53.2534 31.5,55.5C 30.7666,56.087 29.7666,56.087 28.5,55.5C 26.2841,42.6233 24.4508,29.6233 23,16.5C 22.5899,17.9007 22.0899,19.234 21.5,20.5C 20.9448,24.3968 19.9448,28.0635 18.5,31.5C 18.5,29.5 18.5,27.5 18.5,25.5C 19.9238,23.4855 20.5905,21.1522 20.5,18.5C 20.2322,16.901 20.5655,15.5676 21.5,14.5C 22.4286,13.0639 23.5952,11.7305 25,10.5C 25.3333,11.1667 25.6667,11.8333 26,12.5C 27.0391,24.7038 28.5391,36.7038 30.5,48.5 Z"/></g>
<g><path style="opacity:1" fill="#aba48d" d="M 18.5,25.5 C 18.5,27.5 18.5,29.5 18.5,31.5C 17.8333,32.5 17.1667,33.5 16.5,34.5C 16.6761,31.2727 17.3428,28.2727 18.5,25.5 Z"/></g>
<g><path style="opacity:1" fill="#fef4cd" d="M 21.5,20.5 C 22.5392,24.3421 22.5392,28.3421 21.5,32.5C 20.6981,33.9516 20.1981,35.6183 20,37.5C 19.5005,43.4908 19.3338,49.4908 19.5,55.5C 18.8333,56.1667 18.1667,56.8333 17.5,57.5C 16.8333,57.5 16.1667,57.5 15.5,57.5C 16.3135,48.8066 17.3135,40.1399 18.5,31.5C 19.9448,28.0635 20.9448,24.3968 21.5,20.5 Z"/></g>
<g><path style="opacity:1" fill="#ffe48f" d="M 21.5,32.5 C 21.9027,39.4169 22.9027,46.2503 24.5,53C 24.2568,53.9021 23.9234,54.7354 23.5,55.5C 22.1667,55.5 20.8333,55.5 19.5,55.5C 19.3338,49.4908 19.5005,43.4908 20,37.5C 20.1981,35.6183 20.6981,33.9516 21.5,32.5 Z"/></g>
<g><path style="opacity:1" fill="#efd68a" d="M 18.5,31.5 C 17.3135,40.1399 16.3135,48.8066 15.5,57.5C 15.5,57.8333 15.5,58.1667 15.5,58.5C 13.6122,56.0122 12.9455,53.0122 13.5,49.5C 14.913,46.7814 15.5797,43.7814 15.5,40.5C 15.2053,38.2646 15.5386,36.2646 16.5,34.5C 17.1667,33.5 17.8333,32.5 18.5,31.5 Z"/></g>
<g><path style="opacity:1" fill="#aea690" d="M 15.5,40.5 C 15.5797,43.7814 14.913,46.7814 13.5,49.5C 13.2153,46.1709 13.8819,43.1709 15.5,40.5 Z"/></g>
<g><path style="opacity:1" fill="#f7d07e" d="M 28.5,55.5 C 26.8333,55.5 25.1667,55.5 23.5,55.5C 23.9234,54.7354 24.2568,53.9021 24.5,53C 22.9027,46.2503 21.9027,39.4169 21.5,32.5C 22.5392,28.3421 22.5392,24.3421 21.5,20.5C 22.0899,19.234 22.5899,17.9007 23,16.5C 24.4508,29.6233 26.2841,42.6233 28.5,55.5 Z"/></g>
<g><path style="opacity:1" fill="#9d9786" d="M 30.5,48.5 C 31.2911,52.354 32.7911,56.0207 35,59.5C 36.1601,64.4342 36.6601,69.4342 36.5,74.5C 35.1873,70.056 34.354,65.3893 34,60.5C 32.5679,58.5612 30.7346,57.2279 28.5,56.5C 27.5,56.5 26.5,56.5 25.5,56.5C 22.7938,56.5751 20.1272,56.9084 17.5,57.5C 18.1667,56.8333 18.8333,56.1667 19.5,55.5C 20.8333,55.5 22.1667,55.5 23.5,55.5C 25.1667,55.5 26.8333,55.5 28.5,55.5C 29.7666,56.087 30.7666,56.087 31.5,55.5C 30.6258,53.2534 30.2924,50.9201 30.5,48.5 Z"/></g>
<g><path style="opacity:1" fill="#f6f9e3" d="M 25.5,56.5 C 24.4489,57.2223 23.7822,58.2223 23.5,59.5C 21.8639,60.7489 20.6972,62.4156 20,64.5C 19.7105,66.9519 19.0438,69.2852 18,71.5C 17.5046,74.5314 17.6713,77.5314 18.5,80.5C 15.325,80.4971 12.4916,79.4971 10,77.5C 8.58901,70.131 10.4223,63.7977 15.5,58.5C 15.5,58.1667 15.5,57.8333 15.5,57.5C 16.1667,57.5 16.8333,57.5 17.5,57.5C 20.1272,56.9084 22.7938,56.5751 25.5,56.5 Z"/></g>
<g><path style="opacity:1" fill="#d3ceba" d="M 28.5,56.5 C 30.7346,57.2279 32.5679,58.5612 34,60.5C 34.354,65.3893 35.1873,70.056 36.5,74.5C 36.6716,75.4916 36.3382,76.1583 35.5,76.5C 35.5654,76.0618 35.3988,75.7284 35,75.5C 34.2303,79.7705 31.7303,81.4372 27.5,80.5C 29.8244,72.7224 30.1577,64.7224 28.5,56.5 Z"/></g>
<g><path style="opacity:1" fill="#fbfaf8" d="M 23.5,59.5 C 23.5,66.5 23.5,73.5 23.5,80.5C 21.8333,80.5 20.1667,80.5 18.5,80.5C 17.6713,77.5314 17.5046,74.5314 18,71.5C 19.0438,69.2852 19.7105,66.9519 20,64.5C 20.6972,62.4156 21.8639,60.7489 23.5,59.5 Z"/></g>
<g><path style="opacity:1" fill="#ebe9df" d="M 25.5,56.5 C 26.5,56.5 27.5,56.5 28.5,56.5C 30.1577,64.7224 29.8244,72.7224 27.5,80.5C 26.1667,80.5 24.8333,80.5 23.5,80.5C 23.5,73.5 23.5,66.5 23.5,59.5C 23.7822,58.2223 24.4489,57.2223 25.5,56.5 Z"/></g>
<g><path style="opacity:1" fill="#afac9c" d="M 13.5,49.5 C 12.9455,53.0122 13.6122,56.0122 15.5,58.5C 10.4223,63.7977 8.58901,70.131 10,77.5C 12.4916,79.4971 15.325,80.4971 18.5,80.5C 20.1667,80.5 21.8333,80.5 23.5,80.5C 24.8333,80.5 26.1667,80.5 27.5,80.5C 31.7303,81.4372 34.2303,79.7705 35,75.5C 35.3988,75.7284 35.5654,76.0618 35.5,76.5C 35.16,78.679 34.16,80.5123 32.5,82C 26.1667,82.6667 19.8333,82.6667 13.5,82C 11.6711,81.7265 10.1711,80.8932 9,79.5C 8.33333,75.5 8.33333,71.5 9,67.5C 11.6011,61.6514 13.1011,55.6514 13.5,49.5 Z"/></g>
</svg>
